<svg width="729" height="449" viewBox="0 0 729 449" fill="none" xmlns="http://www.w3.org/2000/svg">
<path d="M256.306 318.568H199.269V451.868H256.306V318.568Z" fill="#333333"/>
<path d="M225.195 311.843H199.269V319.431H225.195V311.843Z" fill="#333333"/>
<path d="M214.306 307.532H199.269V311.843H214.306V307.532Z" fill="#333333"/>
<path opacity="0.06" d="M232.454 327.881H223.121V334.779H232.454V327.881Z" fill="white"/>
<path opacity="0.12" d="M232.454 344.953H223.121V351.85H232.454V344.953Z" fill="white"/>
<path opacity="0.19" d="M232.454 379.097H223.121V385.994H232.454V379.097Z" fill="white"/>
<path opacity="0.14" d="M232.454 413.241H223.121V420.139H232.454V413.241Z" fill="white"/>
<path opacity="0.1" d="M232.454 430.312H223.121V437.21H232.454V430.312Z" fill="white"/>
<path d="M113.194 333.053H35.0704V404.445H113.194V333.053Z" fill="#333333"/>
<path d="M100.923 326.673H47.515V357.368H100.923V326.673Z" fill="#333333"/>
<path d="M118.898 378.061H40.7742V449.453H118.898V378.061Z" fill="#333333"/>
<path d="M106.454 371.681H53.0459V402.376H106.454V371.681Z" fill="#333333"/>
<path d="M222.948 368.577H144.824V450.833H222.948V368.577Z" fill="#333333"/>
<path d="M210.676 361.334H157.269V396.858H210.676V361.334Z" fill="#333333"/>
<path d="M484.456 393.582H406.332V473.079H484.456V393.582Z" fill="#333333"/>
<path d="M472.184 386.512H418.776V420.828H472.184V386.512Z" fill="#333333"/>
<path d="M315.072 229.415H227.788V450.661H315.072V229.415Z" fill="#333333"/>
<path opacity="0.46" d="M253.195 239.417H232.109V243.383H253.195V239.417Z" fill="#E6E6E6"/>
<path opacity="0.34" d="M282.059 239.417H260.973V243.383H282.059V239.417Z" fill="#E6E6E6"/>
<path opacity="0.52" d="M310.751 239.417H289.664V243.383H310.751V239.417Z" fill="#E6E6E6"/>
<path opacity="0.54" d="M253.195 248.556H232.109V252.522H253.195V248.556Z" fill="#E6E6E6"/>
<path opacity="0.3" d="M282.059 248.556H260.973V252.522H282.059V248.556Z" fill="#E6E6E6"/>
<path opacity="0.06" d="M310.751 248.556H289.664V252.522H310.751V248.556Z" fill="#E6E6E6"/>
<path opacity="0.15" d="M253.195 257.696H232.109V261.662H253.195V257.696Z" fill="#E6E6E6"/>
<path opacity="0.42" d="M282.059 257.696H260.973V261.662H282.059V257.696Z" fill="#E6E6E6"/>
<path opacity="0.48" d="M310.751 257.696H289.664V261.662H310.751V257.696Z" fill="#E6E6E6"/>
<path opacity="0.18" d="M253.195 266.835H232.109V270.801H253.195V266.835Z" fill="#E6E6E6"/>
<path opacity="0.28" d="M310.751 266.835H289.664V270.801H310.751V266.835Z" fill="#E6E6E6"/>
<path opacity="0.29" d="M253.195 275.975H232.109V279.941H253.195V275.975Z" fill="#E6E6E6"/>
<path opacity="0.28" d="M282.059 275.975H260.973V279.941H282.059V275.975Z" fill="#E6E6E6"/>
<path opacity="0.56" d="M310.751 275.975H289.664V279.941H310.751V275.975Z" fill="#E6E6E6"/>
<path opacity="0.41" d="M253.195 285.114H232.109V289.08H253.195V285.114Z" fill="#E6E6E6"/>
<path opacity="0.16" d="M282.059 285.114H260.973V289.08H282.059V285.114Z" fill="#E6E6E6"/>
<path opacity="0.4" d="M310.751 285.114H289.664V289.08H310.751V285.114Z" fill="#E6E6E6"/>
<path opacity="0.1" d="M253.195 294.254H232.109V298.22H253.195V294.254Z" fill="#E6E6E6"/>
<path opacity="0.17" d="M282.059 294.254H260.973V298.22H282.059V294.254Z" fill="#E6E6E6"/>
<path opacity="0.08" d="M310.751 294.254H289.664V298.22H310.751V294.254Z" fill="#E6E6E6"/>
<path opacity="0.49" d="M253.195 303.394H232.109V307.36H253.195V303.394Z" fill="#E6E6E6"/>
<path opacity="0.58" d="M282.059 303.394H260.973V307.36H282.059V303.394Z" fill="#E6E6E6"/>
<path opacity="0.58" d="M310.751 303.394H289.664V307.36H310.751V303.394Z" fill="#E6E6E6"/>
<path opacity="0.26" d="M253.195 312.533H232.109V316.499H253.195V312.533Z" fill="#E6E6E6"/>
<path opacity="0.37" d="M282.059 312.533H260.973V316.499H282.059V312.533Z" fill="#E6E6E6"/>
<path opacity="0.34" d="M310.751 312.533H289.664V316.499H310.751V312.533Z" fill="#E6E6E6"/>
<path opacity="0.55" d="M253.195 321.672H232.109V325.638H253.195V321.672Z" fill="#E6E6E6"/>
<path opacity="0.12" d="M282.059 321.672H260.973V325.638H282.059V321.672Z" fill="#E6E6E6"/>
<path opacity="0.6" d="M310.751 321.672H289.664V325.638H310.751V321.672Z" fill="#E6E6E6"/>
<path opacity="0.02" d="M253.195 330.812H232.109V334.778H253.195V330.812Z" fill="#E6E6E6"/>
<path opacity="0.28" d="M282.059 330.812H260.973V334.778H282.059V330.812Z" fill="#E6E6E6"/>
<path opacity="0.21" d="M310.751 330.812H289.664V334.778H310.751V330.812Z" fill="#E6E6E6"/>
<path opacity="0.57" d="M253.195 339.952H232.109V343.918H253.195V339.952Z" fill="#E6E6E6"/>
<path opacity="0.38" d="M282.059 339.952H260.973V343.918H282.059V339.952Z" fill="#E6E6E6"/>
<path opacity="0.25" d="M310.751 339.952H289.664V343.918H310.751V339.952Z" fill="#E6E6E6"/>
<path opacity="0.15" d="M253.195 349.091H232.109V353.057H253.195V349.091Z" fill="#E6E6E6"/>
<path opacity="0.47" d="M282.059 349.091H260.973V353.057H282.059V349.091Z" fill="#E6E6E6"/>
<path opacity="0.3" d="M310.751 349.091H289.664V353.057H310.751V349.091Z" fill="#E6E6E6"/>
<path opacity="0.4" d="M253.195 358.23H232.109V362.197H253.195V358.23Z" fill="#E6E6E6"/>
<path opacity="0.39" d="M282.059 358.23H260.973V362.197H282.059V358.23Z" fill="#E6E6E6"/>
<path opacity="0.24" d="M310.751 358.23H289.664V362.197H310.751V358.23Z" fill="#E6E6E6"/>
<path opacity="0.46" d="M253.195 367.37H232.109V371.336H253.195V367.37Z" fill="#E6E6E6"/>
<path opacity="0.22" d="M282.059 367.37H260.973V371.336H282.059V367.37Z" fill="#E6E6E6"/>
<path opacity="0.11" d="M310.751 367.37H289.664V371.336H310.751V367.37Z" fill="#E6E6E6"/>
<path opacity="0.11" d="M282.059 376.51H260.973V380.476H282.059V376.51Z" fill="#E6E6E6"/>
<path opacity="0.02" d="M310.751 376.51H289.664V380.476H310.751V376.51Z" fill="#E6E6E6"/>
<path opacity="0.27" d="M253.195 385.649H232.109V389.616H253.195V385.649Z" fill="#E6E6E6"/>
<path opacity="0.21" d="M282.059 385.649H260.973V389.616H282.059V385.649Z" fill="#E6E6E6"/>
<path opacity="0.49" d="M310.751 385.649H289.664V389.616H310.751V385.649Z" fill="#E6E6E6"/>
<path opacity="0.6" d="M253.195 394.789H232.109V398.755H253.195V394.789Z" fill="#E6E6E6"/>
<path opacity="0.31" d="M282.059 394.789H260.973V398.755H282.059V394.789Z" fill="#E6E6E6"/>
<path opacity="0.22" d="M310.751 394.789H289.664V398.755H310.751V394.789Z" fill="#E6E6E6"/>
<path opacity="0.54" d="M253.195 403.928H232.109V407.895H253.195V403.928Z" fill="#E6E6E6"/>
<path opacity="0.6" d="M282.059 403.928H260.973V407.895H282.059V403.928Z" fill="#E6E6E6"/>
<path opacity="0.08" d="M310.751 403.928H289.664V407.895H310.751V403.928Z" fill="#E6E6E6"/>
<path opacity="0.55" d="M282.059 413.068H260.973V417.034H282.059V413.068Z" fill="#E6E6E6"/>
<path d="M310.751 413.068H289.664V417.034H310.751V413.068Z" fill="#E6E6E6"/>
<path opacity="0.6" d="M254.577 239.417H253.195V417.034H254.577V239.417Z" fill="#E6E6E6"/>
<path opacity="0.6" d="M289.663 239.417H288.282V417.034H289.663V239.417Z" fill="#E6E6E6"/>
<path d="M358.628 229.415H315.072V450.661H358.628V229.415Z" fill="#4D4D4D"/>
<path opacity="0.69" d="M352.233 239.417H319.393V243.383H352.233V239.417Z" fill="#E6E6E6"/>
<path opacity="0.79" d="M352.233 248.556H319.393V252.522H352.233V248.556Z" fill="#E6E6E6"/>
<path opacity="0.19" d="M352.233 257.696H319.393V261.662H352.233V257.696Z" fill="#E6E6E6"/>
<path opacity="0.88" d="M352.233 266.835H319.393V270.801H352.233V266.835Z" fill="#E6E6E6"/>
<path opacity="0.5" d="M352.233 275.975H319.393V279.941H352.233V275.975Z" fill="#E6E6E6"/>
<path opacity="0.25" d="M352.233 285.114H319.393V289.08H352.233V285.114Z" fill="#E6E6E6"/>
<path opacity="0.91" d="M352.233 294.254H319.393V298.22H352.233V294.254Z" fill="#E6E6E6"/>
<path opacity="0.02" d="M352.233 303.394H319.393V307.36H352.233V303.394Z" fill="#E6E6E6"/>
<path opacity="0.53" d="M352.233 312.533H319.393V316.499H352.233V312.533Z" fill="#E6E6E6"/>
<path opacity="0.65" d="M352.233 321.672H319.393V325.638H352.233V321.672Z" fill="#E6E6E6"/>
<path d="M352.233 330.812H319.393V334.778H352.233V330.812Z" fill="#E6E6E6"/>
<path opacity="0.8" d="M352.233 339.952H319.393V343.918H352.233V339.952Z" fill="#E6E6E6"/>
<path opacity="0.82" d="M352.233 349.091H319.393V353.057H352.233V349.091Z" fill="#E6E6E6"/>
<path opacity="0.75" d="M352.233 358.23H319.393V362.197H352.233V358.23Z" fill="#E6E6E6"/>
<path opacity="0.31" d="M352.233 367.37H319.393V371.336H352.233V367.37Z" fill="#E6E6E6"/>
<path opacity="0.22" d="M352.233 376.51H319.393V380.476H352.233V376.51Z" fill="#E6E6E6"/>
<path opacity="0.43" d="M352.233 385.649H319.393V389.616H352.233V385.649Z" fill="#E6E6E6"/>
<path opacity="0.68" d="M352.233 394.789H319.393V398.755H352.233V394.789Z" fill="#E6E6E6"/>
<path opacity="0.38" d="M352.233 403.928H319.393V407.895H352.233V403.928Z" fill="#E6E6E6"/>
<path opacity="0.84" d="M352.233 413.068H319.393V417.034H352.233V413.068Z" fill="#E6E6E6"/>
<path d="M243.17 217.688V229.415H299.689V217.688H243.17ZM255.788 225.621H249.911V221.655H255.788V225.621ZM264.948 225.621H259.244V221.655H264.948V225.621ZM274.282 225.621H268.578V221.655H274.282V225.621ZM283.615 225.621H277.738V221.655H283.615V225.621ZM292.948 225.621H287.072V221.655H292.948V225.621Z" fill="#333333"/>
<path d="M310.06 221.655H308.504V225.621H310.06V221.655Z" fill="#333333"/>
<path d="M299.689 217.688V229.415H326.307V217.688H299.689ZM310.06 225.621H304.356V221.655H310.06V225.621ZM322.331 225.621H316.628V221.655H322.331V225.621Z" fill="#4D4D4D"/>
<path d="M322.159 221.655H320.603V225.621H322.159V221.655Z" fill="#333333"/>
<path d="M326.652 465.663H209.121L326.652 379.096V465.663Z" fill="#333333"/>
<path d="M151.392 182.51H141.886V218.551H151.392V182.51Z" fill="#4D4D4D"/>
<path d="M142.059 182.51H132.38V218.551H142.059V182.51Z" fill="#333333"/>
<path d="M161.244 182.51H151.565V218.551H161.244V182.51Z" fill="#666666"/>
<path d="M189.244 243.21H162.281V448.764H189.244V243.21Z" fill="#666666"/>
<path d="M130.651 243.21H107.145V448.764H130.651V243.21Z" fill="#333333"/>
<path d="M162.281 243.21H130.478V448.764H162.281V243.21Z" fill="#4D4D4D"/>
<path opacity="0.6" d="M113.886 249.246H110.429V446.005H113.886V249.246Z" fill="#E6E6E6"/>
<path opacity="0.6" d="M120.627 249.246H117.17V446.005H120.627V249.246Z" fill="#E6E6E6"/>
<path opacity="0.6" d="M127.367 249.246H123.911V446.005H127.367V249.246Z" fill="#E6E6E6"/>
<path d="M167.639 249.246H164.182V446.005H167.639V249.246Z" fill="#E6E6E6"/>
<path d="M174.38 249.246H170.923V446.005H174.38V249.246Z" fill="#E6E6E6"/>
<path d="M187.516 249.246H184.059V446.005H187.516V249.246Z" fill="#E6E6E6"/>
<path d="M181.121 249.246H177.664V446.005H181.121V249.246Z" fill="#E6E6E6"/>
<path opacity="0.8" d="M134.454 446.005H158.306V249.246H134.454V446.005ZM138.256 252.694H154.503V442.556H138.256V252.694Z" fill="#E6E6E6"/>
<path opacity="0.8" d="M141.367 439.279H151.565V255.798H141.367V439.279ZM144.824 260.109H146.034H146.726H148.108V434.968H146.726H146.034H144.824V260.109Z" fill="#E6E6E6"/>
<path opacity="0.8" d="M146.725 260.109H146.034V434.968H146.725V260.109Z" fill="#E6E6E6"/>
<path d="M158.651 207.169H134.8V243.21H158.651V207.169Z" fill="#4D4D4D"/>
<path d="M158.651 207.169H134.8V243.21H158.651V207.169Z" fill="#4D4D4D"/>
<path d="M182.503 207.169H158.651V243.21H182.503V207.169Z" fill="#666666"/>
<path d="M134.8 207.169H110.948V243.21H134.8V207.169Z" fill="#333333"/>
<path d="M161.071 182.51H132.38L141.886 189.063H151.565L161.071 182.51Z" fill="#808080"/>
<path d="M673.889 169.231H660.062V209.756H673.889V169.231Z" fill="#4D4D4D"/>
<path d="M659.889 169.231H646.061V209.756H659.889V169.231Z" fill="#333333"/>
<path d="M687.716 169.231H673.889V209.756H687.716V169.231Z" fill="#666666"/>
<path d="M728.506 237.692H689.444V469.285H728.506V237.692Z" fill="#666666"/>
<path d="M643.469 237.692H609.592V469.285H643.469V237.692Z" fill="#333333"/>
<path d="M689.444 237.692H643.469V469.285H689.444V237.692Z" fill="#4D4D4D"/>
<path opacity="0.4" d="M619.271 244.59H614.259V466.181H619.271V244.59Z" fill="#E6E6E6"/>
<path opacity="0.4" d="M629.123 244.59H624.111V466.181H629.123V244.59Z" fill="#E6E6E6"/>
<path opacity="0.4" d="M638.975 244.59H633.963V466.181H638.975V244.59Z" fill="#E6E6E6"/>
<path d="M697.222 244.59H692.21V466.181H697.222V244.59Z" fill="#E6E6E6"/>
<path d="M707.074 244.59H702.062V466.181H707.074V244.59Z" fill="#E6E6E6"/>
<path d="M725.914 244.59H720.901V466.181H725.914V244.59Z" fill="#E6E6E6"/>
<path d="M716.753 244.59H711.741V466.181H716.753V244.59Z" fill="#E6E6E6"/>
<path d="M649.345 466.181H683.913V244.59H649.345V466.181ZM654.703 248.384H678.21V462.387H654.703V248.384Z" fill="#E6E6E6"/>
<path d="M659.024 458.766H673.889V252.005H659.024V458.766ZM664.21 256.833H666.111H666.975H668.876V453.937H666.975H666.111H664.21V256.833Z" fill="#E6E6E6"/>
<path d="M666.974 256.833H666.111V453.937H666.974V256.833Z" fill="#E6E6E6"/>
<path d="M684.259 197.167H649.691V237.692H684.259V197.167Z" fill="#4D4D4D"/>
<path d="M684.259 197.167H649.691V237.692H684.259V197.167Z" fill="#4D4D4D"/>
<path d="M718.827 197.167H684.259V237.692H718.827V197.167Z" fill="#666666"/>
<path d="M649.864 197.167H615.296V237.692H649.864V197.167Z" fill="#333333"/>
<path d="M687.889 169.231H646.061L660.061 176.647H673.889L687.889 169.231Z" fill="#808080"/>
<path d="M574.16 269.766H479.616V301.151H574.16V269.766Z" fill="#E6E6E6"/>
<path d="M516.777 269.766H479.616V301.151H516.777V269.766Z" fill="#B3B3B3"/>
<path d="M516.777 301.323H443.32V453.764H516.777V301.323Z" fill="#333333"/>
<path d="M631.543 301.323H516.777V453.764H631.543V301.323Z" fill="#4D4D4D"/>
<path d="M507.789 285.803H451.27V301.323H507.789V285.803Z" fill="#333333"/>
<path d="M614.432 285.803H533.715V301.323H614.432V285.803Z" fill="#4D4D4D"/>
<path d="M549.098 257.867H516.777V269.766H549.098V257.867Z" fill="#E6E6E6"/>
<path d="M532.851 245.796H516.777V257.695H532.851V245.796Z" fill="#4D4D4D"/>
<path d="M516.604 245.796H500.53V257.695H516.604V245.796Z" fill="#333333"/>
<path d="M516.777 257.867H492.06V269.766H516.777V257.867Z" fill="#B3B3B3"/>
<path d="M515.74 245.796L516.777 218.205L517.641 245.796H515.74Z" fill="#333333"/>
<path opacity="0.12" d="M466.48 307.531H460.431V313.567H466.48V307.531Z" fill="white"/>
<path opacity="0.25" d="M474.776 307.531H468.727V313.567H474.776V307.531Z" fill="white"/>
<path opacity="0.36" d="M483.073 307.531H477.023V313.567H483.073V307.531Z" fill="white"/>
<path opacity="0.12" d="M491.369 307.531H485.32V313.567H491.369V307.531Z" fill="white"/>
<path opacity="0.14" d="M499.665 307.531H493.616V313.567H499.665V307.531Z" fill="white"/>
<path opacity="0.28" d="M466.48 315.464H460.431V321.499H466.48V315.464Z" fill="white"/>
<path opacity="0.4" d="M474.776 315.464H468.727V321.499H474.776V315.464Z" fill="white"/>
<path opacity="0.16" d="M483.073 315.464H477.023V321.499H483.073V315.464Z" fill="white"/>
<path opacity="0.17" d="M499.665 315.464H493.616V321.499H499.665V315.464Z" fill="white"/>
<path opacity="0.27" d="M466.48 323.396H460.431V329.432H466.48V323.396Z" fill="white"/>
<path opacity="0.45" d="M474.776 323.396H468.727V329.432H474.776V323.396Z" fill="white"/>
<path opacity="0.45" d="M483.073 323.396H477.023V329.432H483.073V323.396Z" fill="white"/>
<path opacity="0.48" d="M491.369 323.396H485.32V329.432H491.369V323.396Z" fill="white"/>
<path opacity="0.25" d="M499.665 323.396H493.616V329.432H499.665V323.396Z" fill="white"/>
<path opacity="0.28" d="M466.48 331.329H460.431V337.364H466.48V331.329Z" fill="white"/>
<path opacity="0.13" d="M474.776 331.329H468.727V337.364H474.776V331.329Z" fill="white"/>
<path opacity="0.07" d="M483.073 331.329H477.023V337.364H483.073V331.329Z" fill="white"/>
<path opacity="0.39" d="M491.369 331.329H485.32V337.364H491.369V331.329Z" fill="white"/>
<path opacity="0.47" d="M499.665 331.329H493.616V337.364H499.665V331.329Z" fill="white"/>
<path opacity="0.28" d="M466.48 339.261H460.431V345.296H466.48V339.261Z" fill="white"/>
<path opacity="0.2" d="M474.776 339.261H468.727V345.296H474.776V339.261Z" fill="white"/>
<path opacity="0.04" d="M483.073 339.261H477.023V345.296H483.073V339.261Z" fill="white"/>
<path opacity="0.43" d="M491.369 339.261H485.32V345.296H491.369V339.261Z" fill="white"/>
<path opacity="0.48" d="M499.665 339.261H493.616V345.296H499.665V339.261Z" fill="white"/>
<path opacity="0.28" d="M466.48 347.193H460.431V353.229H466.48V347.193Z" fill="white"/>
<path opacity="0.19" d="M474.776 347.193H468.727V353.229H474.776V347.193Z" fill="white"/>
<path opacity="0.01" d="M483.073 347.193H477.023V353.229H483.073V347.193Z" fill="white"/>
<path opacity="0.27" d="M491.369 347.193H485.32V353.229H491.369V347.193Z" fill="white"/>
<path opacity="0.24" d="M499.665 347.193H493.616V353.229H499.665V347.193Z" fill="white"/>
<path opacity="0.07" d="M466.48 355.298H460.431V361.334H466.48V355.298Z" fill="white"/>
<path opacity="0.25" d="M474.776 355.298H468.727V361.334H474.776V355.298Z" fill="white"/>
<path opacity="0.26" d="M483.073 355.298H477.023V361.334H483.073V355.298Z" fill="white"/>
<path opacity="0.39" d="M491.369 355.298H485.32V361.334H491.369V355.298Z" fill="white"/>
<path opacity="0.22" d="M499.665 355.298H493.616V361.334H499.665V355.298Z" fill="white"/>
<path opacity="0.15" d="M466.48 363.231H460.431V369.267H466.48V363.231Z" fill="white"/>
<path opacity="0.23" d="M474.776 363.231H468.727V369.267H474.776V363.231Z" fill="white"/>
<path opacity="0.05" d="M483.073 363.231H477.023V369.267H483.073V363.231Z" fill="white"/>
<path opacity="0.2" d="M491.369 363.231H485.32V369.267H491.369V363.231Z" fill="white"/>
<path opacity="0.31" d="M499.665 363.231H493.616V369.267H499.665V363.231Z" fill="white"/>
<path opacity="0.15" d="M466.48 371.163H460.431V377.199H466.48V371.163Z" fill="white"/>
<path opacity="0.33" d="M474.776 371.163H468.727V377.199H474.776V371.163Z" fill="white"/>
<path opacity="0.46" d="M483.073 371.163H477.023V377.199H483.073V371.163Z" fill="white"/>
<path opacity="0.25" d="M491.369 371.163H485.32V377.199H491.369V371.163Z" fill="white"/>
<path opacity="0.43" d="M499.665 371.163H493.616V377.199H499.665V371.163Z" fill="white"/>
<path opacity="0.4" d="M466.48 379.096H460.431V385.131H466.48V379.096Z" fill="white"/>
<path opacity="0.39" d="M474.776 379.096H468.727V385.131H474.776V379.096Z" fill="white"/>
<path opacity="0.01" d="M483.073 379.096H477.023V385.131H483.073V379.096Z" fill="white"/>
<path opacity="0.12" d="M491.369 379.096H485.32V385.131H491.369V379.096Z" fill="white"/>
<path opacity="0.07" d="M499.665 379.096H493.616V385.131H499.665V379.096Z" fill="white"/>
<path opacity="0.07" d="M466.48 387.028H460.431V393.064H466.48V387.028Z" fill="white"/>
<path opacity="0.02" d="M474.776 387.028H468.727V393.064H474.776V387.028Z" fill="white"/>
<path opacity="0.12" d="M483.073 387.028H477.023V393.064H483.073V387.028Z" fill="white"/>
<path opacity="0.23" d="M491.369 387.028H485.32V393.064H491.369V387.028Z" fill="white"/>
<path opacity="0.26" d="M499.665 387.028H493.616V393.064H499.665V387.028Z" fill="white"/>
<path opacity="0.27" d="M466.48 394.961H460.431V400.996H466.48V394.961Z" fill="white"/>
<path opacity="0.38" d="M474.776 394.961H468.727V400.996H474.776V394.961Z" fill="white"/>
<path opacity="0.05" d="M483.073 394.961H477.023V400.996H483.073V394.961Z" fill="white"/>
<path opacity="0.45" d="M491.369 394.961H485.32V400.996H491.369V394.961Z" fill="white"/>
<path opacity="0.15" d="M499.665 394.961H493.616V400.996H499.665V394.961Z" fill="white"/>
<path opacity="0.06" d="M466.48 402.893H460.431V408.929H466.48V402.893Z" fill="white"/>
<path opacity="0.47" d="M474.776 402.893H468.727V408.929H474.776V402.893Z" fill="white"/>
<path opacity="0.15" d="M483.073 402.893H477.023V408.929H483.073V402.893Z" fill="white"/>
<path opacity="0.44" d="M491.369 402.893H485.32V408.929H491.369V402.893Z" fill="white"/>
<path opacity="0.14" d="M499.665 402.893H493.616V408.929H499.665V402.893Z" fill="white"/>
<path opacity="0.15" d="M466.48 410.826H460.431V416.861H466.48V410.826Z" fill="white"/>
<path opacity="0.43" d="M474.776 410.826H468.727V416.861H474.776V410.826Z" fill="white"/>
<path opacity="0.07" d="M483.073 410.826H477.023V416.861H483.073V410.826Z" fill="white"/>
<path opacity="0.47" d="M491.369 410.826H485.32V416.861H491.369V410.826Z" fill="white"/>
<path opacity="0.11" d="M499.665 410.826H493.616V416.861H499.665V410.826Z" fill="white"/>
<path opacity="0.07" d="M466.48 418.758H460.431V424.793H466.48V418.758Z" fill="white"/>
<path opacity="0.34" d="M474.776 418.758H468.727V424.793H474.776V418.758Z" fill="white"/>
<path opacity="0.5" d="M483.073 418.758H477.023V424.793H483.073V418.758Z" fill="white"/>
<path opacity="0.36" d="M491.369 418.758H485.32V424.793H491.369V418.758Z" fill="white"/>
<path opacity="0.34" d="M499.665 418.758H493.616V424.793H499.665V418.758Z" fill="white"/>
<path opacity="0.47" d="M466.48 426.69H460.431V432.726H466.48V426.69Z" fill="white"/>
<path opacity="0.41" d="M474.776 426.69H468.727V432.726H474.776V426.69Z" fill="white"/>
<path opacity="0.3" d="M483.073 426.69H477.023V432.726H483.073V426.69Z" fill="white"/>
<path opacity="0.33" d="M491.369 426.69H485.32V432.726H491.369V426.69Z" fill="white"/>
<path opacity="0.12" d="M499.665 426.69H493.616V432.726H499.665V426.69Z" fill="white"/>
<path opacity="0.24" d="M466.48 434.623H460.431V440.659H466.48V434.623Z" fill="white"/>
<path opacity="0.29" d="M474.776 434.623H468.727V440.659H474.776V434.623Z" fill="white"/>
<path opacity="0.27" d="M491.369 434.623H485.32V440.659H491.369V434.623Z" fill="white"/>
<path opacity="0.04" d="M499.665 434.623H493.616V440.659H499.665V434.623Z" fill="white"/>
<path opacity="0.11" d="M466.48 442.555H460.431V448.591H466.48V442.555Z" fill="white"/>
<path opacity="0.05" d="M474.776 442.555H468.727V448.591H474.776V442.555Z" fill="white"/>
<path opacity="0.04" d="M483.073 442.555H477.023V448.591H483.073V442.555Z" fill="white"/>
<path opacity="0.02" d="M491.369 442.555H485.32V448.591H491.369V442.555Z" fill="white"/>
<path opacity="0.3" d="M536.826 307.531H530.777V313.567H536.826V307.531Z" fill="white"/>
<path opacity="0.72" d="M544.777 307.531H538.727V313.567H544.777V307.531Z" fill="white"/>
<path opacity="0.7" d="M552.9 307.531H546.851V313.567H552.9V307.531Z" fill="white"/>
<path opacity="0.52" d="M561.024 307.531H554.974V313.567H561.024V307.531Z" fill="white"/>
<path opacity="0.2" d="M569.147 307.531H563.098V313.567H569.147V307.531Z" fill="white"/>
<path opacity="0.32" d="M577.098 307.531H571.049V313.567H577.098V307.531Z" fill="white"/>
<path opacity="0.13" d="M585.221 307.531H579.172V313.567H585.221V307.531Z" fill="white"/>
<path opacity="0.38" d="M593.345 307.531H587.296V313.567H593.345V307.531Z" fill="white"/>
<path opacity="0.61" d="M601.296 307.531H595.246V313.567H601.296V307.531Z" fill="white"/>
<path d="M609.419 307.531H603.37V313.567H609.419V307.531Z" fill="white"/>
<path opacity="0.91" d="M617.543 307.531H611.493V313.567H617.543V307.531Z" fill="white"/>
<path opacity="0.66" d="M536.826 315.464H530.777V321.499H536.826V315.464Z" fill="white"/>
<path opacity="0.31" d="M544.777 315.464H538.727V321.499H544.777V315.464Z" fill="white"/>
<path opacity="0.95" d="M552.9 315.464H546.851V321.499H552.9V315.464Z" fill="white"/>
<path opacity="0.7" d="M561.024 315.464H554.974V321.499H561.024V315.464Z" fill="white"/>
<path opacity="0.12" d="M569.147 315.464H563.098V321.499H569.147V315.464Z" fill="white"/>
<path opacity="0.24" d="M577.098 315.464H571.049V321.499H577.098V315.464Z" fill="white"/>
<path opacity="0.66" d="M585.221 315.464H579.172V321.499H585.221V315.464Z" fill="white"/>
<path opacity="0.71" d="M593.345 315.464H587.296V321.499H593.345V315.464Z" fill="white"/>
<path opacity="0.42" d="M601.296 315.464H595.246V321.499H601.296V315.464Z" fill="white"/>
<path opacity="0.09" d="M609.419 315.464H603.37V321.499H609.419V315.464Z" fill="white"/>
<path opacity="0.32" d="M617.543 315.464H611.493V321.499H617.543V315.464Z" fill="white"/>
<path opacity="0.65" d="M536.826 323.396H530.777V329.432H536.826V323.396Z" fill="white"/>
<path d="M544.777 323.396H538.727V329.432H544.777V323.396Z" fill="white"/>
<path d="M552.9 323.396H546.851V329.432H552.9V323.396Z" fill="white"/>
<path opacity="0.71" d="M561.024 323.396H554.974V329.432H561.024V323.396Z" fill="white"/>
<path opacity="0.2" d="M569.147 323.396H563.098V329.432H569.147V323.396Z" fill="white"/>
<path opacity="0.19" d="M577.098 323.396H571.049V329.432H577.098V323.396Z" fill="white"/>
<path opacity="0.62" d="M585.221 323.396H579.172V329.432H585.221V323.396Z" fill="white"/>
<path opacity="0.93" d="M593.345 323.396H587.296V329.432H593.345V323.396Z" fill="white"/>
<path opacity="0.56" d="M601.296 323.396H595.246V329.432H601.296V323.396Z" fill="white"/>
<path opacity="0.57" d="M609.419 323.396H603.37V329.432H609.419V323.396Z" fill="white"/>
<path opacity="0.52" d="M617.543 323.396H611.493V329.432H617.543V323.396Z" fill="white"/>
<path opacity="0.74" d="M536.826 331.329H530.777V337.364H536.826V331.329Z" fill="white"/>
<path opacity="0.56" d="M544.777 331.329H538.727V337.364H544.777V331.329Z" fill="white"/>
<path opacity="0.78" d="M552.9 331.329H546.851V337.364H552.9V331.329Z" fill="white"/>
<path opacity="0.41" d="M561.024 331.329H554.974V337.364H561.024V331.329Z" fill="white"/>
<path opacity="0.14" d="M569.147 331.329H563.098V337.364H569.147V331.329Z" fill="white"/>
<path opacity="0.28" d="M577.098 331.329H571.049V337.364H577.098V331.329Z" fill="white"/>
<path opacity="0.36" d="M585.221 331.329H579.172V337.364H585.221V331.329Z" fill="white"/>
<path opacity="0.14" d="M593.345 331.329H587.296V337.364H593.345V331.329Z" fill="white"/>
<path opacity="0.5" d="M601.296 331.329H595.246V337.364H601.296V331.329Z" fill="white"/>
<path opacity="0.98" d="M609.419 331.329H603.37V337.364H609.419V331.329Z" fill="white"/>
<path opacity="0.59" d="M617.543 331.329H611.493V337.364H617.543V331.329Z" fill="white"/>
<path opacity="0.07" d="M536.826 339.261H530.777V345.296H536.826V339.261Z" fill="white"/>
<path opacity="0.1" d="M544.777 339.261H538.727V345.296H544.777V339.261Z" fill="white"/>
<path opacity="0.88" d="M552.9 339.261H546.851V345.296H552.9V339.261Z" fill="white"/>
<path opacity="0.68" d="M561.024 339.261H554.974V345.296H561.024V339.261Z" fill="white"/>
<path opacity="0.81" d="M569.147 339.261H563.098V345.296H569.147V339.261Z" fill="white"/>
<path opacity="0.62" d="M577.098 339.261H571.049V345.296H577.098V339.261Z" fill="white"/>
<path opacity="0.97" d="M585.221 339.261H579.172V345.296H585.221V339.261Z" fill="white"/>
<path opacity="0.81" d="M593.345 339.261H587.296V345.296H593.345V339.261Z" fill="white"/>
<path opacity="0.79" d="M601.296 339.261H595.246V345.296H601.296V339.261Z" fill="white"/>
<path opacity="0.03" d="M609.419 339.261H603.37V345.296H609.419V339.261Z" fill="white"/>
<path opacity="0.95" d="M617.543 339.261H611.493V345.296H617.543V339.261Z" fill="white"/>
<path opacity="0.62" d="M536.826 347.193H530.777V353.229H536.826V347.193Z" fill="white"/>
<path opacity="0.22" d="M544.777 347.193H538.727V353.229H544.777V347.193Z" fill="white"/>
<path opacity="0.42" d="M552.9 347.193H546.851V353.229H552.9V347.193Z" fill="white"/>
<path opacity="0.56" d="M561.024 347.193H554.974V353.229H561.024V347.193Z" fill="white"/>
<path opacity="0.03" d="M569.147 347.193H563.098V353.229H569.147V347.193Z" fill="white"/>
<path opacity="0.64" d="M577.098 347.193H571.049V353.229H577.098V347.193Z" fill="white"/>
<path opacity="0.82" d="M585.221 347.193H579.172V353.229H585.221V347.193Z" fill="white"/>
<path opacity="0.52" d="M593.345 347.193H587.296V353.229H593.345V347.193Z" fill="white"/>
<path opacity="0.46" d="M601.296 347.193H595.246V353.229H601.296V347.193Z" fill="white"/>
<path opacity="0.27" d="M609.419 347.193H603.37V353.229H609.419V347.193Z" fill="white"/>
<path opacity="0.46" d="M617.543 347.193H611.493V353.229H617.543V347.193Z" fill="white"/>
<path opacity="0.66" d="M536.826 355.298H530.777V361.334H536.826V355.298Z" fill="white"/>
<path opacity="0.7" d="M544.777 355.298H538.727V361.334H544.777V355.298Z" fill="white"/>
<path opacity="0.94" d="M552.9 355.298H546.851V361.334H552.9V355.298Z" fill="white"/>
<path opacity="0.5" d="M561.024 355.298H554.974V361.334H561.024V355.298Z" fill="white"/>
<path opacity="0.12" d="M569.147 355.298H563.098V361.334H569.147V355.298Z" fill="white"/>
<path opacity="0.36" d="M577.098 355.298H571.049V361.334H577.098V355.298Z" fill="white"/>
<path opacity="0.51" d="M585.221 355.298H579.172V361.334H585.221V355.298Z" fill="white"/>
<path opacity="0.37" d="M593.345 355.298H587.296V361.334H593.345V355.298Z" fill="white"/>
<path opacity="0.66" d="M601.296 355.298H595.246V361.334H601.296V355.298Z" fill="white"/>
<path opacity="0.42" d="M609.419 355.298H603.37V361.334H609.419V355.298Z" fill="white"/>
<path opacity="0.5" d="M617.543 355.298H611.493V361.334H617.543V355.298Z" fill="white"/>
<path opacity="0.52" d="M536.826 363.231H530.777V369.267H536.826V363.231Z" fill="white"/>
<path opacity="0.61" d="M544.777 363.231H538.727V369.267H544.777V363.231Z" fill="white"/>
<path opacity="0.84" d="M552.9 363.231H546.851V369.267H552.9V363.231Z" fill="white"/>
<path opacity="0.89" d="M561.024 363.231H554.974V369.267H561.024V363.231Z" fill="white"/>
<path opacity="0.33" d="M569.147 363.231H563.098V369.267H569.147V363.231Z" fill="white"/>
<path opacity="0.25" d="M577.098 363.231H571.049V369.267H577.098V363.231Z" fill="white"/>
<path opacity="0.95" d="M585.221 363.231H579.172V369.267H585.221V363.231Z" fill="white"/>
<path opacity="0.09" d="M593.345 363.231H587.296V369.267H593.345V363.231Z" fill="white"/>
<path opacity="0.44" d="M601.296 363.231H595.246V369.267H601.296V363.231Z" fill="white"/>
<path opacity="0.51" d="M609.419 363.231H603.37V369.267H609.419V363.231Z" fill="white"/>
<path opacity="0.97" d="M617.543 363.231H611.493V369.267H617.543V363.231Z" fill="white"/>
<path opacity="0.26" d="M536.826 371.163H530.777V377.199H536.826V371.163Z" fill="white"/>
<path opacity="0.92" d="M544.777 371.163H538.727V377.199H544.777V371.163Z" fill="white"/>
<path opacity="0.33" d="M552.9 371.163H546.851V377.199H552.9V371.163Z" fill="white"/>
<path opacity="0.23" d="M561.024 371.163H554.974V377.199H561.024V371.163Z" fill="white"/>
<path opacity="0.42" d="M569.147 371.163H563.098V377.199H569.147V371.163Z" fill="white"/>
<path opacity="0.57" d="M577.098 371.163H571.049V377.199H577.098V371.163Z" fill="white"/>
<path opacity="0.73" d="M585.221 371.163H579.172V377.199H585.221V371.163Z" fill="white"/>
<path opacity="0.87" d="M593.345 371.163H587.296V377.199H593.345V371.163Z" fill="white"/>
<path opacity="0.22" d="M601.296 371.163H595.246V377.199H601.296V371.163Z" fill="white"/>
<path opacity="0.89" d="M609.419 371.163H603.37V377.199H609.419V371.163Z" fill="white"/>
<path opacity="0.73" d="M617.543 371.163H611.493V377.199H617.543V371.163Z" fill="white"/>
<path opacity="0.35" d="M536.826 379.096H530.777V385.131H536.826V379.096Z" fill="white"/>
<path opacity="0.81" d="M544.777 379.096H538.727V385.131H544.777V379.096Z" fill="white"/>
<path opacity="0.56" d="M552.9 379.096H546.851V385.131H552.9V379.096Z" fill="white"/>
<path opacity="0.81" d="M561.024 379.096H554.974V385.131H561.024V379.096Z" fill="white"/>
<path opacity="0.87" d="M569.147 379.096H563.098V385.131H569.147V379.096Z" fill="white"/>
<path opacity="0.39" d="M577.098 379.096H571.049V385.131H577.098V379.096Z" fill="white"/>
<path opacity="0.31" d="M585.221 379.096H579.172V385.131H585.221V379.096Z" fill="white"/>
<path opacity="0.98" d="M593.345 379.096H587.296V385.131H593.345V379.096Z" fill="white"/>
<path opacity="0.17" d="M601.296 379.096H595.246V385.131H601.296V379.096Z" fill="white"/>
<path opacity="0.06" d="M609.419 379.096H603.37V385.131H609.419V379.096Z" fill="white"/>
<path opacity="0.57" d="M617.543 379.096H611.493V385.131H617.543V379.096Z" fill="white"/>
<path opacity="0.67" d="M536.826 387.028H530.777V393.064H536.826V387.028Z" fill="white"/>
<path opacity="0.83" d="M544.777 387.028H538.727V393.064H544.777V387.028Z" fill="white"/>
<path opacity="0.99" d="M552.9 387.028H546.851V393.064H552.9V387.028Z" fill="white"/>
<path opacity="0.62" d="M561.024 387.028H554.974V393.064H561.024V387.028Z" fill="white"/>
<path opacity="0.87" d="M569.147 387.028H563.098V393.064H569.147V387.028Z" fill="white"/>
<path opacity="0.14" d="M577.098 387.028H571.049V393.064H577.098V387.028Z" fill="white"/>
<path opacity="0.12" d="M585.221 387.028H579.172V393.064H585.221V387.028Z" fill="white"/>
<path opacity="0.11" d="M593.345 387.028H587.296V393.064H593.345V387.028Z" fill="white"/>
<path opacity="0.39" d="M601.296 387.028H595.246V393.064H601.296V387.028Z" fill="white"/>
<path opacity="0.58" d="M609.419 387.028H603.37V393.064H609.419V387.028Z" fill="white"/>
<path opacity="0.54" d="M617.543 387.028H611.493V393.064H617.543V387.028Z" fill="white"/>
<path opacity="0.99" d="M536.826 394.961H530.777V400.996H536.826V394.961Z" fill="white"/>
<path opacity="0.28" d="M544.777 394.961H538.727V400.996H544.777V394.961Z" fill="white"/>
<path opacity="0.78" d="M552.9 394.961H546.851V400.996H552.9V394.961Z" fill="white"/>
<path opacity="0.65" d="M561.024 394.961H554.974V400.996H561.024V394.961Z" fill="white"/>
<path opacity="0.32" d="M569.147 394.961H563.098V400.996H569.147V394.961Z" fill="white"/>
<path opacity="0.55" d="M577.098 394.961H571.049V400.996H577.098V394.961Z" fill="white"/>
<path opacity="0.4" d="M585.221 394.961H579.172V400.996H585.221V394.961Z" fill="white"/>
<path opacity="0.22" d="M593.345 394.961H587.296V400.996H593.345V394.961Z" fill="white"/>
<path opacity="0.87" d="M601.296 394.961H595.246V400.996H601.296V394.961Z" fill="white"/>
<path opacity="0.02" d="M609.419 394.961H603.37V400.996H609.419V394.961Z" fill="white"/>
<path opacity="0.39" d="M617.543 394.961H611.493V400.996H617.543V394.961Z" fill="white"/>
<path opacity="0.89" d="M536.826 402.893H530.777V408.929H536.826V402.893Z" fill="white"/>
<path opacity="0.97" d="M544.777 402.893H538.727V408.929H544.777V402.893Z" fill="white"/>
<path opacity="0.79" d="M552.9 402.893H546.851V408.929H552.9V402.893Z" fill="white"/>
<path opacity="0.41" d="M561.024 402.893H554.974V408.929H561.024V402.893Z" fill="white"/>
<path opacity="0.13" d="M569.147 402.893H563.098V408.929H569.147V402.893Z" fill="white"/>
<path opacity="0.9" d="M577.098 402.893H571.049V408.929H577.098V402.893Z" fill="white"/>
<path opacity="0.98" d="M585.221 402.893H579.172V408.929H585.221V402.893Z" fill="white"/>
<path opacity="0.67" d="M593.345 402.893H587.296V408.929H593.345V402.893Z" fill="white"/>
<path opacity="0.65" d="M601.296 402.893H595.246V408.929H601.296V402.893Z" fill="white"/>
<path opacity="0.89" d="M609.419 402.893H603.37V408.929H609.419V402.893Z" fill="white"/>
<path opacity="0.98" d="M617.543 402.893H611.493V408.929H617.543V402.893Z" fill="white"/>
<path opacity="0.29" d="M536.826 410.826H530.777V416.861H536.826V410.826Z" fill="white"/>
<path opacity="0.74" d="M544.777 410.826H538.727V416.861H544.777V410.826Z" fill="white"/>
<path opacity="0.64" d="M552.9 410.826H546.851V416.861H552.9V410.826Z" fill="white"/>
<path opacity="0.65" d="M561.024 410.826H554.974V416.861H561.024V410.826Z" fill="white"/>
<path opacity="0.07" d="M569.147 410.826H563.098V416.861H569.147V410.826Z" fill="white"/>
<path opacity="0.16" d="M577.098 410.826H571.049V416.861H577.098V410.826Z" fill="white"/>
<path opacity="0.84" d="M585.221 410.826H579.172V416.861H585.221V410.826Z" fill="white"/>
<path opacity="0.88" d="M593.345 410.826H587.296V416.861H593.345V410.826Z" fill="white"/>
<path opacity="0.57" d="M601.296 410.826H595.246V416.861H601.296V410.826Z" fill="white"/>
<path opacity="0.31" d="M609.419 410.826H603.37V416.861H609.419V410.826Z" fill="white"/>
<path opacity="0.03" d="M617.543 410.826H611.493V416.861H617.543V410.826Z" fill="white"/>
<path opacity="0.3" d="M536.826 418.758H530.777V424.793H536.826V418.758Z" fill="white"/>
<path opacity="0.59" d="M544.777 418.758H538.727V424.793H544.777V418.758Z" fill="white"/>
<path opacity="0.93" d="M552.9 418.758H546.851V424.793H552.9V418.758Z" fill="white"/>
<path opacity="0.06" d="M561.024 418.758H554.974V424.793H561.024V418.758Z" fill="white"/>
<path opacity="0.74" d="M569.147 418.758H563.098V424.793H569.147V418.758Z" fill="white"/>
<path opacity="0.22" d="M577.098 418.758H571.049V424.793H577.098V418.758Z" fill="white"/>
<path opacity="0.51" d="M585.221 418.758H579.172V424.793H585.221V418.758Z" fill="white"/>
<path opacity="0.7" d="M593.345 418.758H587.296V424.793H593.345V418.758Z" fill="white"/>
<path opacity="0.47" d="M601.296 418.758H595.246V424.793H601.296V418.758Z" fill="white"/>
<path opacity="0.08" d="M609.419 418.758H603.37V424.793H609.419V418.758Z" fill="white"/>
<path opacity="0.93" d="M617.543 418.758H611.493V424.793H617.543V418.758Z" fill="white"/>
<path opacity="0.81" d="M536.826 426.69H530.777V432.726H536.826V426.69Z" fill="white"/>
<path opacity="0.9" d="M544.777 426.69H538.727V432.726H544.777V426.69Z" fill="white"/>
<path opacity="0.55" d="M552.9 426.69H546.851V432.726H552.9V426.69Z" fill="white"/>
<path opacity="0.14" d="M561.024 426.69H554.974V432.726H561.024V426.69Z" fill="white"/>
<path opacity="0.66" d="M569.147 426.69H563.098V432.726H569.147V426.69Z" fill="white"/>
<path opacity="0.92" d="M577.098 426.69H571.049V432.726H577.098V426.69Z" fill="white"/>
<path opacity="0.4" d="M585.221 426.69H579.172V432.726H585.221V426.69Z" fill="white"/>
<path opacity="0.6" d="M593.345 426.69H587.296V432.726H593.345V426.69Z" fill="white"/>
<path opacity="0.99" d="M601.296 426.69H595.246V432.726H601.296V426.69Z" fill="white"/>
<path opacity="0.68" d="M609.419 426.69H603.37V432.726H609.419V426.69Z" fill="white"/>
<path opacity="0.01" d="M617.543 426.69H611.493V432.726H617.543V426.69Z" fill="white"/>
<path opacity="0.82" d="M536.826 434.623H530.777V440.659H536.826V434.623Z" fill="white"/>
<path opacity="0.92" d="M544.777 434.623H538.727V440.659H544.777V434.623Z" fill="white"/>
<path opacity="0.29" d="M552.9 434.623H546.851V440.659H552.9V434.623Z" fill="white"/>
<path opacity="0.73" d="M561.024 434.623H554.974V440.659H561.024V434.623Z" fill="white"/>
<path opacity="0.42" d="M569.147 434.623H563.098V440.659H569.147V434.623Z" fill="white"/>
<path opacity="0.06" d="M577.098 434.623H571.049V440.659H577.098V434.623Z" fill="white"/>
<path opacity="0.7" d="M585.221 434.623H579.172V440.659H585.221V434.623Z" fill="white"/>
<path opacity="0.97" d="M593.345 434.623H587.296V440.659H593.345V434.623Z" fill="white"/>
<path opacity="0.51" d="M601.296 434.623H595.246V440.659H601.296V434.623Z" fill="white"/>
<path opacity="0.69" d="M609.419 434.623H603.37V440.659H609.419V434.623Z" fill="white"/>
<path opacity="0.49" d="M617.543 434.623H611.493V440.659H617.543V434.623Z" fill="white"/>
<path opacity="0.45" d="M536.826 442.555H530.777V448.591H536.826V442.555Z" fill="white"/>
<path opacity="0.46" d="M544.777 442.555H538.727V448.591H544.777V442.555Z" fill="white"/>
<path opacity="0.04" d="M552.9 442.555H546.851V448.591H552.9V442.555Z" fill="white"/>
<path opacity="0.56" d="M561.024 442.555H554.974V448.591H561.024V442.555Z" fill="white"/>
<path opacity="0.4" d="M569.147 442.555H563.098V448.591H569.147V442.555Z" fill="white"/>
<path opacity="0.59" d="M577.098 442.555H571.049V448.591H577.098V442.555Z" fill="white"/>
<path opacity="0.82" d="M585.221 442.555H579.172V448.591H585.221V442.555Z" fill="white"/>
<path opacity="0.99" d="M593.345 442.555H587.296V448.591H593.345V442.555Z" fill="white"/>
<path opacity="0.1" d="M601.296 442.555H595.246V448.591H601.296V442.555Z" fill="white"/>
<path opacity="0.87" d="M609.419 442.555H603.37V448.591H609.419V442.555Z" fill="white"/>
<path d="M617.543 442.555H611.493V448.591H617.543V442.555Z" fill="white"/>
<path d="M434.677 268.732H377.64V447.039H434.677V268.732Z" fill="#333333"/>
<path d="M403.566 259.765H377.64V269.766H403.566V259.765Z" fill="#333333"/>
<path d="M392.677 253.901H377.64V259.765H392.677V253.901Z" fill="#333333"/>
<path opacity="0.25" d="M410.653 281.32H401.319V290.632H410.653V281.32Z" fill="white"/>
<path opacity="0.15" d="M410.653 304.255H401.319V313.567H410.653V304.255Z" fill="white"/>
<path opacity="0.19" d="M410.653 349.953H401.319V359.265H410.653V349.953Z" fill="white"/>
<path opacity="0.17" d="M410.653 372.715H401.319V382.027H410.653V372.715Z" fill="white"/>
<path opacity="0.22" d="M410.653 395.478H401.319V404.79H410.653V395.478Z" fill="white"/>
<path d="M410.653 418.413H401.319V427.725H410.653V418.413Z" fill="white"/>
<path d="M392.332 368.06H338.924V383.752H392.332V368.06Z" fill="#333333"/>
<path d="M418.949 368.06H392.332V383.752H418.949V368.06Z" fill="#4D4D4D"/>
<path d="M338.924 368.059L355.517 360.127L392.332 368.059H338.924Z" fill="#333333"/>
<path d="M355.517 360.127L392.332 368.059H418.949L355.517 360.127Z" fill="#4D4D4D"/>
<path d="M404.776 379.096H326.652V450.488H404.776V379.096Z" fill="#333333"/>
<path d="M430.702 379.096H404.776V450.488H430.702V379.096Z" fill="#4D4D4D"/>
<path opacity="0.81" d="M424.653 384.097H410.653V389.27H424.653V384.097Z" fill="white"/>
<path opacity="0.76" d="M424.653 393.581H410.653V398.754H424.653V393.581Z" fill="white"/>
<path opacity="0.32" d="M424.653 403.065H410.653V408.239H424.653V403.065Z" fill="white"/>
<path opacity="0.49" d="M424.653 412.723H410.653V417.896H424.653V412.723Z" fill="white"/>
<path opacity="0.99" d="M424.653 431.691H410.653V436.865H424.653V431.691Z" fill="white"/>
<path opacity="0.1" d="M353.097 384.097H339.097V389.27H353.097V384.097Z" fill="white"/>
<path opacity="0.04" d="M372.628 384.097H358.628V389.27H372.628V384.097Z" fill="white"/>
<path opacity="0.07" d="M392.332 384.097H378.332V389.27H392.332V384.097Z" fill="white"/>
<path opacity="0.06" d="M353.097 393.581H339.097V398.754H353.097V393.581Z" fill="white"/>
<path opacity="0.44" d="M372.628 393.581H358.628V398.754H372.628V393.581Z" fill="white"/>
<path opacity="0.24" d="M392.332 393.581H378.332V398.754H392.332V393.581Z" fill="white"/>
<path opacity="0.55" d="M353.097 403.065H339.097V408.239H353.097V403.065Z" fill="white"/>
<path opacity="0.02" d="M372.628 403.065H358.628V408.239H372.628V403.065Z" fill="white"/>
<path opacity="0.14" d="M392.332 403.065H378.332V408.239H392.332V403.065Z" fill="white"/>
<path opacity="0.43" d="M353.097 412.723H339.097V417.896H353.097V412.723Z" fill="white"/>
<path opacity="0.41" d="M372.628 412.723H358.628V417.896H372.628V412.723Z" fill="white"/>
<path opacity="0.46" d="M392.332 412.723H378.332V417.896H392.332V412.723Z" fill="white"/>
<path opacity="0.45" d="M353.097 422.207H339.097V427.38H353.097V422.207Z" fill="white"/>
<path opacity="0.33" d="M372.628 422.207H358.628V427.38H372.628V422.207Z" fill="white"/>
<path opacity="0.05" d="M392.332 422.207H378.332V427.38H392.332V422.207Z" fill="white"/>
<path opacity="0.27" d="M353.097 431.691H339.097V436.865H353.097V431.691Z" fill="white"/>
<path opacity="0.15" d="M372.628 431.691H358.628V436.865H372.628V431.691Z" fill="white"/>
<path opacity="0.7" d="M392.332 431.691H378.332V436.865H392.332V431.691Z" fill="white"/>
<path d="M24.7001 307.704H-23.6953V456.524H24.7001V307.704Z" fill="#333333"/>
<path d="M79.8361 307.704H24.8728V456.524H79.8361V307.704Z" fill="#4D4D4D"/>
<path d="M24.7001 320.293H-23.6953V322.88H24.7001V320.293Z" fill="#4D4D4D"/>
<path d="M79.8361 320.293H24.8728V322.88H79.8361V320.293Z" fill="#333333"/>
<path opacity="0.25" d="M6.72455 325.811H1.53931V330.984H6.72455V325.811Z" fill="white"/>
<path opacity="0.12" d="M20.8974 325.811H15.7122V330.984H20.8974V325.811Z" fill="white"/>
<path opacity="0.47" d="M6.72455 332.881H1.53931V338.054H6.72455V332.881Z" fill="white"/>
<path opacity="0.22" d="M13.8111 332.881H8.62585V338.054H13.8111V332.881Z" fill="white"/>
<path opacity="0.32" d="M20.8974 332.881H15.7122V338.054H20.8974V332.881Z" fill="white"/>
<path opacity="0.28" d="M6.72455 339.951H1.53931V345.125H6.72455V339.951Z" fill="white"/>
<path opacity="0.2" d="M20.8974 339.951H15.7122V345.125H20.8974V339.951Z" fill="white"/>
<path opacity="0.05" d="M6.72455 347.021H1.53931V352.195H6.72455V347.021Z" fill="white"/>
<path opacity="0.08" d="M13.8111 347.021H8.62585V352.195H13.8111V347.021Z" fill="white"/>
<path opacity="0.08" d="M6.72455 354.092H1.53931V359.265H6.72455V354.092Z" fill="white"/>
<path opacity="0.02" d="M13.8111 354.092H8.62585V359.265H13.8111V354.092Z" fill="white"/>
<path opacity="0.2" d="M6.72455 361.162H1.53931V366.335H6.72455V361.162Z" fill="white"/>
<path opacity="0.23" d="M13.8111 361.162H8.62585V366.335H13.8111V361.162Z" fill="white"/>
<path opacity="0.24" d="M13.8111 368.232H8.62585V373.406H13.8111V368.232Z" fill="white"/>
<path opacity="0.02" d="M6.72455 375.302H1.53931V380.476H6.72455V375.302Z" fill="white"/>
<path opacity="0.04" d="M13.8111 375.302H8.62585V380.476H13.8111V375.302Z" fill="white"/>
<path opacity="0.3" d="M20.8974 375.302H15.7122V380.476H20.8974V375.302Z" fill="white"/>
<path opacity="0.4" d="M20.8974 382.2H15.7122V387.374H20.8974V382.2Z" fill="white"/>
<path opacity="0.19" d="M13.8111 389.271H8.62585V394.444H13.8111V389.271Z" fill="white"/>
<path opacity="0.43" d="M20.8974 389.271H15.7122V394.444H20.8974V389.271Z" fill="white"/>
<path opacity="0.42" d="M6.72455 396.341H1.53931V401.514H6.72455V396.341Z" fill="white"/>
<path opacity="0.31" d="M20.8974 396.341H15.7122V401.514H20.8974V396.341Z" fill="white"/>
<path opacity="0.31" d="M6.72455 403.411H1.53931V408.584H6.72455V403.411Z" fill="white"/>
<path opacity="0.33" d="M20.8974 403.411H15.7122V408.584H20.8974V403.411Z" fill="white"/>
<path opacity="0.17" d="M6.72455 410.481H1.53931V415.655H6.72455V410.481Z" fill="white"/>
<path opacity="0.01" d="M13.8111 410.481H8.62585V415.655H13.8111V410.481Z" fill="white"/>
<path opacity="0.48" d="M20.8974 410.481H15.7122V415.655H20.8974V410.481Z" fill="white"/>
<path opacity="0.02" d="M6.72455 417.551H1.53931V422.725H6.72455V417.551Z" fill="white"/>
<path opacity="0.17" d="M13.8111 417.551H8.62585V422.725H13.8111V417.551Z" fill="white"/>
<path opacity="0.42" d="M20.8974 417.551H15.7122V422.725H20.8974V417.551Z" fill="white"/>
<path opacity="0.02" d="M6.72455 424.622H1.53931V429.795H6.72455V424.622Z" fill="white"/>
<path opacity="0.3" d="M20.8974 424.622H15.7122V429.795H20.8974V424.622Z" fill="white"/>
<path opacity="0.05" d="M6.72455 431.692H1.53931V436.865H6.72455V431.692Z" fill="white"/>
<path opacity="0.2" d="M20.8974 431.692H15.7122V436.865H20.8974V431.692Z" fill="white"/>
<path opacity="0.27" d="M6.72455 438.762H1.53931V443.936H6.72455V438.762Z" fill="white"/>
<path opacity="0.13" d="M13.8111 438.762H8.62585V443.936H13.8111V438.762Z" fill="white"/>
<path opacity="0.12" d="M6.72455 445.832H1.53931V451.005H6.72455V445.832Z" fill="white"/>
<path opacity="0.04" d="M13.8111 445.832H8.62585V451.005H13.8111V445.832Z" fill="white"/>
<path opacity="0.3" d="M20.8974 445.832H15.7122V451.005H20.8974V445.832Z" fill="white"/>
<path opacity="0.08" d="M13.8111 325.811H8.62585V330.984H13.8111V325.811Z" fill="white"/>
<path opacity="0.08" d="M13.8111 339.951H8.62585V345.125H13.8111V339.951Z" fill="white"/>
<path opacity="0.01" d="M20.8974 347.021H15.7122V352.195H20.8974V347.021Z" fill="white"/>
<path opacity="0.12" d="M20.8974 354.092H15.7122V359.265H20.8974V354.092Z" fill="white"/>
<path opacity="0.13" d="M6.72455 368.232H1.53931V373.406H6.72455V368.232Z" fill="white"/>
<path opacity="0.07" d="M20.8974 368.232H15.7122V373.406H20.8974V368.232Z" fill="white"/>
<path opacity="0.02" d="M6.72455 382.2H1.53931V387.374H6.72455V382.2Z" fill="white"/>
<path opacity="0.14" d="M13.8111 382.2H8.62585V387.374H13.8111V382.2Z" fill="white"/>
<path opacity="0.02" d="M13.8111 396.341H8.62585V401.514H13.8111V396.341Z" fill="white"/>
<path opacity="0.06" d="M13.8111 403.411H8.62585V408.584H13.8111V403.411Z" fill="white"/>
<path opacity="0.04" d="M13.8111 424.622H8.62585V429.795H13.8111V424.622Z" fill="white"/>
<path opacity="0.04" d="M13.8111 431.692H8.62585V436.865H13.8111V431.692Z" fill="white"/>
<path opacity="0.18" d="M20.8974 438.762H15.7122V443.936H20.8974V438.762Z" fill="white"/>
<g opacity="0.7">
<path opacity="0.7" d="M35.2433 322.879H29.8853V449.971H35.2433V322.879Z" fill="#E6E6E6"/>
<path opacity="0.7" d="M44.4038 322.879H39.0458V449.971H44.4038V322.879Z" fill="#E6E6E6"/>
<path opacity="0.7" d="M53.7373 322.879H48.3793V449.971H53.7373V322.879Z" fill="#E6E6E6"/>
<path opacity="0.7" d="M63.0707 322.879H57.7126V449.971H63.0707V322.879Z" fill="#E6E6E6"/>
<path opacity="0.7" d="M72.4041 322.879H67.046V449.971H72.4041V322.879Z" fill="#E6E6E6"/>
</g>
<path d="M107.491 449.971H-0.0161133L107.491 356.506V449.971Z" fill="#333333"/>
<path d="M98.3301 433.417H61.3423V454.11H98.3301V433.417Z" fill="#4D4D4D"/>
<path d="M95.5647 428.588H64.1078V438.245H95.5647V428.588Z" fill="#4D4D4D"/>
<path d="M91.9351 431.519H67.5646L76.0338 417.379H83.4659L91.9351 431.519Z" fill="#4D4D4D"/>
<path d="M88.4783 437.555H71.1942V450.143H88.4783V437.555Z" fill="white"/>
<path d="M90.5523 442.556H69.1201V445.142H90.5523V442.556Z" fill="#4D4D4D"/>
<path d="M263.393 467.388C263.911 480.838 253.541 492.392 239.886 492.909C226.405 493.427 214.825 482.908 214.306 469.457C213.788 456.006 224.158 444.453 237.812 443.935C251.294 443.418 262.701 453.937 263.393 467.388Z" fill="#333333"/>
<path d="M259.245 460.662C259.59 468.422 253.541 474.975 245.763 475.32C237.985 475.665 231.417 469.629 231.072 461.869C230.726 454.109 236.775 447.556 244.553 447.211C252.331 446.866 258.899 452.902 259.245 460.662Z" fill="#4D4D4D"/>
<path d="M16.5765 442.039C16.5765 445.315 13.8111 448.074 10.5271 448.074C7.24311 448.074 4.47766 445.315 4.47766 442.039C4.47766 438.762 7.24311 436.003 10.5271 436.003C13.8111 436.003 16.5765 438.59 16.5765 442.039Z" fill="#333333"/>
<path d="M18.6506 448.074C18.6506 452.558 15.021 456.179 10.5271 456.179C6.03324 456.179 2.40356 452.558 2.40356 448.074C2.40356 443.591 6.03324 439.969 10.5271 439.969C15.021 439.969 18.6506 443.591 18.6506 448.074Z" fill="#333333"/>
<path d="M14.5024 436.865C14.5024 439.107 12.774 441.004 10.5271 441.004C8.28016 441.004 6.55176 439.107 6.55176 436.865C6.55176 434.623 8.28016 432.727 10.5271 432.727C12.774 432.727 14.5024 434.623 14.5024 436.865Z" fill="#333333"/>
<path d="M15.7123 442.039C15.7123 443.936 14.1567 445.488 12.2555 445.488C10.3543 445.488 8.79871 443.936 8.79871 442.039C8.79871 440.142 10.3543 438.59 12.2555 438.59C14.1567 438.59 15.7123 440.142 15.7123 442.039Z" fill="#4D4D4D"/>
<path d="M13.9839 437.382C13.9839 438.762 12.774 439.969 11.3913 439.969C10.0086 439.969 8.79871 438.762 8.79871 437.382C8.79871 436.003 10.0086 434.796 11.3913 434.796C12.774 434.623 13.9839 435.83 13.9839 437.382Z" fill="#4D4D4D"/>
<path d="M131.861 454.627C131.861 458.938 128.231 462.559 123.91 462.559C119.589 462.559 115.96 458.938 115.96 454.627C115.96 450.316 119.417 446.694 123.91 446.694C128.231 446.694 131.861 450.316 131.861 454.627Z" fill="#333333"/>
<path d="M129.096 447.901C129.096 450.833 126.849 453.247 123.91 453.247C120.972 453.247 118.725 450.833 118.725 447.901C118.725 444.97 120.972 442.556 123.91 442.556C126.676 442.556 129.096 444.97 129.096 447.901Z" fill="#333333"/>
<path d="M128.404 448.419C128.404 450.316 126.849 451.868 124.947 451.868C123.046 451.868 121.491 450.316 121.491 448.419C121.491 446.522 123.046 444.97 124.947 444.97C126.849 444.97 128.404 446.522 128.404 448.419Z" fill="#4D4D4D"/>
<path d="M121.145 460.49C120.281 468.768 112.849 474.631 104.725 473.768C96.4289 472.906 90.5523 465.491 91.4165 457.386C92.2807 449.109 99.7129 443.246 107.836 444.108C115.96 444.97 122.009 452.213 121.145 460.49Z" fill="#333333"/>
<path d="M117.343 447.212C116.824 452.73 111.985 456.869 106.454 456.352C101.096 455.834 97.1202 450.833 97.6387 445.315C98.1573 439.797 102.997 435.658 108.528 436.176C114.059 436.693 117.861 441.694 117.343 447.212Z" fill="#333333"/>
<path d="M115.96 448.247C115.614 451.868 112.33 454.455 108.873 454.11C105.244 453.765 102.651 450.488 102.997 447.039C103.343 443.418 106.626 440.831 110.083 441.176C113.713 441.521 116.306 444.798 115.96 448.247Z" fill="#4D4D4D"/>
<path d="M199.442 453.248C199.442 460.835 193.392 466.871 185.787 466.871C178.182 466.871 172.133 460.835 172.133 453.248C172.133 445.66 178.182 439.625 185.787 439.625C193.22 439.625 199.442 445.66 199.442 453.248Z" fill="#333333"/>
<path d="M204.108 466.87C204.108 477.045 195.812 485.15 185.787 485.15C175.59 485.15 167.466 476.872 167.466 466.87C167.466 456.696 175.763 448.591 185.787 448.591C195.812 448.591 204.108 456.869 204.108 466.87Z" fill="#333333"/>
<path d="M194.602 441.521C194.602 446.694 190.627 450.833 185.615 450.833C180.602 450.833 176.627 446.694 176.627 441.521C176.627 436.348 180.602 432.209 185.615 432.209C190.627 432.381 194.602 436.52 194.602 441.521Z" fill="#333333"/>
<path d="M197.368 453.247C197.368 457.558 193.911 461.18 189.417 461.18C185.096 461.18 181.466 457.731 181.466 453.247C181.466 448.936 184.923 445.315 189.417 445.315C193.738 445.487 197.368 448.936 197.368 453.247Z" fill="#4D4D4D"/>
<path d="M193.392 442.728C193.392 446.005 190.8 448.764 187.343 448.764C184.059 448.764 181.294 446.177 181.294 442.728C181.294 439.452 183.886 436.865 187.343 436.865C190.8 436.693 193.392 439.452 193.392 442.728Z" fill="#4D4D4D"/>
<path d="M169.195 464.628C169.195 474.285 161.244 482.218 151.565 482.218C141.886 482.218 133.935 474.285 133.935 464.628C133.935 454.972 141.886 447.039 151.565 447.039C161.244 447.039 169.195 454.799 169.195 464.628Z" fill="#333333"/>
<path d="M163.145 449.453C163.145 456.006 157.96 461.352 151.565 461.352C145.17 461.352 139.985 456.006 139.985 449.453C139.985 442.9 145.17 437.555 151.565 437.555C157.96 437.555 163.145 442.9 163.145 449.453Z" fill="#333333"/>
<path d="M161.59 451.005C161.59 455.316 158.133 458.593 153.812 458.593C149.491 458.593 146.034 455.144 146.034 451.005C146.034 446.694 149.491 443.245 153.812 443.245C158.133 443.245 161.59 446.694 161.59 451.005Z" fill="#4D4D4D"/>
<path d="M211.886 451.523C211.886 453.592 210.331 455.144 208.429 455.144C206.528 455.144 204.973 453.592 204.973 451.523C204.973 449.453 206.528 447.901 208.429 447.901C210.331 447.901 211.886 449.453 211.886 451.523Z" fill="#333333"/>
<path d="M286.208 447.212C286.208 453.937 280.85 459.283 274.109 459.283C267.368 459.283 262.01 453.937 262.01 447.212C262.01 440.486 267.368 435.141 274.109 435.141C280.85 435.141 286.208 440.486 286.208 447.212Z" fill="#333333"/>
<path d="M290.356 459.283C290.356 468.25 283.097 475.493 274.109 475.493C265.121 475.493 257.862 468.25 257.862 459.283C257.862 450.316 265.121 443.073 274.109 443.073C283.097 443.073 290.356 450.316 290.356 459.283Z" fill="#333333"/>
<path d="M282.06 436.865C282.06 441.349 278.43 445.143 274.109 445.143C269.788 445.143 266.158 441.521 266.158 436.865C266.158 432.382 269.788 428.588 274.109 428.588C278.43 428.588 282.06 432.382 282.06 436.865Z" fill="#333333"/>
<path d="M284.306 447.212C284.306 451.006 281.195 454.11 277.393 454.11C273.59 454.11 270.479 451.006 270.479 447.212C270.479 443.418 273.59 440.314 277.393 440.314C281.195 440.314 284.306 443.418 284.306 447.212Z" fill="#4D4D4D"/>
<path d="M281.022 437.9C281.022 440.831 278.603 443.246 275.664 443.246C272.726 443.246 270.306 440.831 270.306 437.9C270.306 434.968 272.726 432.554 275.664 432.554C278.603 432.554 281.022 434.968 281.022 437.9Z" fill="#4D4D4D"/>
<path d="M331.319 462.387C331.319 471.354 324.06 478.597 315.072 478.597C306.084 478.597 298.825 471.354 298.825 462.387C298.825 453.42 306.084 446.177 315.072 446.177C324.06 446.35 331.319 453.592 331.319 462.387Z" fill="#333333"/>
<path d="M325.615 448.592C325.615 454.627 320.776 459.628 315.072 459.628C309.195 459.628 304.356 454.8 304.356 448.592C304.356 442.556 309.195 437.728 315.072 437.728C320.948 437.728 325.615 442.556 325.615 448.592Z" fill="#333333"/>
<path d="M324.233 449.971C324.233 453.937 321.122 457.041 317.146 457.041C313.171 457.041 310.06 453.937 310.06 449.971C310.06 446.005 313.171 442.901 317.146 442.901C321.122 442.901 324.233 446.005 324.233 449.971Z" fill="#4D4D4D"/>
<path d="M595.765 468.94C595.765 483.77 583.839 495.669 568.975 495.669C554.11 495.669 542.184 483.77 542.184 468.94C542.184 454.11 554.11 442.211 568.975 442.211C583.839 442.211 595.765 454.282 595.765 468.94Z" fill="#333333"/>
<path d="M591.79 461.525C591.79 469.975 584.876 476.872 576.407 476.872C567.938 476.872 561.024 469.975 561.024 461.525C561.024 453.075 567.938 446.177 576.407 446.177C584.876 446.177 591.79 453.075 591.79 461.525Z" fill="#4D4D4D"/>
<path d="M630.16 457.386C630.16 469.802 619.962 479.976 607.518 479.976C595.073 479.976 584.876 469.802 584.876 457.386C584.876 444.97 595.073 434.796 607.518 434.796C620.135 434.796 630.16 444.798 630.16 457.386Z" fill="#333333"/>
<path d="M626.703 451.006C626.703 458.248 620.827 463.939 613.74 463.939C606.481 463.939 600.777 458.076 600.777 451.006C600.777 443.935 606.654 438.072 613.74 438.072C620.827 438.072 626.703 443.935 626.703 451.006Z" fill="#4D4D4D"/>
<path d="M572.431 461.007C572.431 473.423 562.234 483.598 549.789 483.598C537.345 483.598 527.147 473.423 527.147 461.007C527.147 448.591 537.345 438.417 549.789 438.417C562.407 438.417 572.431 448.419 572.431 461.007Z" fill="#333333"/>
<path d="M568.975 454.627C568.975 461.869 563.098 467.56 556.012 467.56C548.925 467.56 543.048 461.697 543.048 454.627C543.048 447.384 548.925 441.693 556.012 441.693C563.098 441.693 568.975 447.384 568.975 454.627Z" fill="#4D4D4D"/>
<path d="M502.604 466.181C502.604 478.597 492.406 488.771 479.962 488.771C467.517 488.771 457.32 478.597 457.32 466.181C457.32 453.765 467.517 443.591 479.962 443.591C492.579 443.591 502.604 453.765 502.604 466.181Z" fill="#333333"/>
<path d="M499.147 459.8C499.147 467.043 493.27 472.734 486.184 472.734C478.925 472.734 473.221 466.871 473.221 459.8C473.221 452.558 479.097 446.867 486.184 446.867C493.27 446.867 499.147 452.73 499.147 459.8Z" fill="#4D4D4D"/>
<path d="M475.295 462.387C475.295 474.803 465.097 484.977 452.653 484.977C440.208 484.977 430.011 474.803 430.011 462.387C430.011 449.971 440.208 439.797 452.653 439.797C465.097 439.797 475.295 449.799 475.295 462.387Z" fill="#333333"/>
<path d="M471.838 456.007C471.838 463.25 465.962 468.94 458.875 468.94C451.616 468.94 445.912 463.077 445.912 456.007C445.912 448.764 451.789 443.074 458.875 443.074C465.962 443.074 471.838 448.764 471.838 456.007Z" fill="#4D4D4D"/>
<path d="M492.925 458.765C492.925 466.008 487.048 471.699 479.962 471.699C472.702 471.699 466.999 465.836 466.999 458.765C466.999 451.523 472.875 445.832 479.962 445.832C487.221 445.832 492.925 451.695 492.925 458.765Z" fill="#4D4D4D"/>
<path d="M396.307 459.8C396.307 467.905 389.739 474.63 381.443 474.63C373.319 474.63 366.578 468.077 366.578 459.8C366.578 451.695 373.146 444.97 381.443 444.97C389.739 445.142 396.307 451.695 396.307 459.8Z" fill="#333333"/>
<path d="M394.06 455.661C394.06 460.317 390.258 464.111 385.591 464.111C380.924 464.111 377.122 460.317 377.122 455.661C377.122 451.005 380.924 447.211 385.591 447.211C390.258 447.211 394.06 451.005 394.06 455.661Z" fill="#4D4D4D"/>
<path d="M7.93457 448.074C7.93457 454.971 2.40365 460.49 -4.50996 460.49C-11.4236 460.49 -16.9545 454.971 -16.9545 448.074C-16.9545 441.176 -11.4236 435.658 -4.50996 435.658C2.23081 435.485 7.93457 441.176 7.93457 448.074Z" fill="#333333"/>
<path d="M12.0827 460.49C12.0827 469.802 4.65061 477.217 -4.68275 477.217C-14.0161 477.217 -21.4482 469.802 -21.4482 460.49C-21.4482 451.178 -14.0161 443.763 -4.68275 443.763C4.65061 443.763 12.0827 451.178 12.0827 460.49Z" fill="#333333"/>
<path d="M3.61356 437.382C3.61356 442.038 -0.0160961 445.832 -4.68279 445.832C-9.17663 445.832 -12.9791 442.038 -12.9791 437.382C-12.9791 432.726 -9.34947 428.933 -4.68279 428.933C-0.0160961 428.933 3.61356 432.726 3.61356 437.382Z" fill="#333333"/>
<path d="M6.03326 448.074C6.03326 452.04 2.74929 455.316 -1.22604 455.316C-5.20138 455.316 -8.48535 452.04 -8.48535 448.074C-8.48535 444.108 -5.20138 440.831 -1.22604 440.831C2.74929 440.831 6.03326 444.108 6.03326 448.074Z" fill="#4D4D4D"/>
<path d="M2.57648 438.417C2.57648 441.349 0.156705 443.935 -2.95444 443.935C-5.89274 443.935 -8.48535 441.521 -8.48535 438.417C-8.48535 435.486 -6.06558 432.899 -2.95444 432.899C-0.0161362 432.899 2.57648 435.313 2.57648 438.417Z" fill="#4D4D4D"/>
<path d="M66.8733 452.903C66.8733 458.421 62.3794 462.904 56.8485 462.904C51.3176 462.904 46.8237 458.421 46.8237 452.903C46.8237 447.384 51.3176 442.901 56.8485 442.901C62.3794 442.901 66.8733 447.384 66.8733 452.903Z" fill="#333333"/>
<path d="M63.4164 444.281C63.4164 448.074 60.4781 451.178 56.8485 451.178C53.2188 451.178 50.2805 448.074 50.2805 444.281C50.2805 440.487 53.2188 437.383 56.8485 437.383C60.4781 437.555 63.4164 440.487 63.4164 444.281Z" fill="#333333"/>
<path d="M65.3175 452.903C65.3175 456.179 62.7249 458.766 59.441 458.766C56.157 458.766 53.5645 456.179 53.5645 452.903C53.5645 449.799 56.157 447.212 59.441 447.212C62.7249 447.04 65.3175 449.626 65.3175 452.903Z" fill="#4D4D4D"/>
<path d="M62.5522 445.143C62.5522 447.557 60.651 449.454 58.2312 449.454C55.8114 449.454 53.9102 447.557 53.9102 445.143C53.9102 442.729 55.8114 440.832 58.2312 440.832C60.651 440.659 62.5522 442.729 62.5522 445.143Z" fill="#4D4D4D"/>
</svg>
