<svg width="729" height="449" viewBox="0 0 729 449" fill="none" xmlns="http://www.w3.org/2000/svg">
<path d="M472.694 318.568H529.731V451.868H472.694V318.568Z" fill="#333333"/>
<path d="M503.805 311.843H529.731V319.431H503.805V311.843Z" fill="#333333"/>
<path d="M514.694 307.532H529.731V311.843H514.694V307.532Z" fill="#333333"/>
<path opacity="0.06" d="M496.546 327.881H505.879V334.779H496.546V327.881Z" fill="white"/>
<path opacity="0.12" d="M496.546 344.953H505.879V351.85H496.546V344.953Z" fill="white"/>
<path opacity="0.19" d="M496.546 379.097H505.879V385.994H496.546V379.097Z" fill="white"/>
<path opacity="0.14" d="M496.546 413.241H505.879V420.139H496.546V413.241Z" fill="white"/>
<path opacity="0.1" d="M496.546 430.312H505.879V437.21H496.546V430.312Z" fill="white"/>
<path d="M615.805 333.053H693.929V404.445H615.805V333.053Z" fill="#333333"/>
<path d="M628.077 326.673H681.485V357.368H628.077V326.673Z" fill="#333333"/>
<path d="M610.102 378.061H688.226V449.453H610.102V378.061Z" fill="#333333"/>
<path d="M622.546 371.681H675.954V402.376H622.546V371.681Z" fill="#333333"/>
<path d="M506.052 368.577H584.176V450.833H506.052V368.577Z" fill="#333333"/>
<path d="M518.323 361.334H571.731V396.858H518.323V361.334Z" fill="#333333"/>
<path d="M244.544 393.582H322.668V473.079H244.544V393.582Z" fill="#333333"/>
<path d="M256.816 386.512H310.224V420.828H256.816V386.512Z" fill="#333333"/>
<path d="M413.928 229.415H501.212V450.661H413.928V229.415Z" fill="#333333"/>
<path opacity="0.46" d="M475.805 239.417H496.891V243.383H475.805V239.417Z" fill="#E6E6E6"/>
<path opacity="0.34" d="M446.94 239.417H468.027V243.383H446.94V239.417Z" fill="#E6E6E6"/>
<path opacity="0.52" d="M418.249 239.417H439.335V243.383H418.249V239.417Z" fill="#E6E6E6"/>
<path opacity="0.54" d="M475.805 248.556H496.891V252.522H475.805V248.556Z" fill="#E6E6E6"/>
<path opacity="0.3" d="M446.94 248.556H468.027V252.522H446.94V248.556Z" fill="#E6E6E6"/>
<path opacity="0.06" d="M418.249 248.556H439.335V252.522H418.249V248.556Z" fill="#E6E6E6"/>
<path opacity="0.15" d="M475.805 257.696H496.891V261.662H475.805V257.696Z" fill="#E6E6E6"/>
<path opacity="0.42" d="M446.94 257.696H468.027V261.662H446.94V257.696Z" fill="#E6E6E6"/>
<path opacity="0.48" d="M418.249 257.696H439.335V261.662H418.249V257.696Z" fill="#E6E6E6"/>
<path opacity="0.18" d="M475.805 266.835H496.891V270.801H475.805V266.835Z" fill="#E6E6E6"/>
<path opacity="0.28" d="M418.249 266.835H439.335V270.801H418.249V266.835Z" fill="#E6E6E6"/>
<path opacity="0.29" d="M475.805 275.975H496.891V279.941H475.805V275.975Z" fill="#E6E6E6"/>
<path opacity="0.28" d="M446.94 275.975H468.027V279.941H446.94V275.975Z" fill="#E6E6E6"/>
<path opacity="0.56" d="M418.249 275.975H439.335V279.941H418.249V275.975Z" fill="#E6E6E6"/>
<path opacity="0.41" d="M475.805 285.114H496.891V289.08H475.805V285.114Z" fill="#E6E6E6"/>
<path opacity="0.16" d="M446.94 285.114H468.027V289.08H446.94V285.114Z" fill="#E6E6E6"/>
<path opacity="0.4" d="M418.249 285.114H439.335V289.08H418.249V285.114Z" fill="#E6E6E6"/>
<path opacity="0.1" d="M475.805 294.254H496.891V298.22H475.805V294.254Z" fill="#E6E6E6"/>
<path opacity="0.17" d="M446.94 294.254H468.027V298.22H446.94V294.254Z" fill="#E6E6E6"/>
<path opacity="0.08" d="M418.249 294.254H439.335V298.22H418.249V294.254Z" fill="#E6E6E6"/>
<path opacity="0.49" d="M475.805 303.394H496.891V307.36H475.805V303.394Z" fill="#E6E6E6"/>
<path opacity="0.58" d="M446.94 303.394H468.027V307.36H446.94V303.394Z" fill="#E6E6E6"/>
<path opacity="0.58" d="M418.249 303.394H439.335V307.36H418.249V303.394Z" fill="#E6E6E6"/>
<path opacity="0.26" d="M475.805 312.533H496.891V316.499H475.805V312.533Z" fill="#E6E6E6"/>
<path opacity="0.37" d="M446.94 312.533H468.027V316.499H446.94V312.533Z" fill="#E6E6E6"/>
<path opacity="0.34" d="M418.249 312.533H439.335V316.499H418.249V312.533Z" fill="#E6E6E6"/>
<path opacity="0.55" d="M475.805 321.672H496.891V325.638H475.805V321.672Z" fill="#E6E6E6"/>
<path opacity="0.12" d="M446.94 321.672H468.027V325.638H446.94V321.672Z" fill="#E6E6E6"/>
<path opacity="0.6" d="M418.249 321.672H439.335V325.638H418.249V321.672Z" fill="#E6E6E6"/>
<path opacity="0.02" d="M475.805 330.812H496.891V334.778H475.805V330.812Z" fill="#E6E6E6"/>
<path opacity="0.28" d="M446.94 330.812H468.027V334.778H446.94V330.812Z" fill="#E6E6E6"/>
<path opacity="0.21" d="M418.249 330.812H439.335V334.778H418.249V330.812Z" fill="#E6E6E6"/>
<path opacity="0.57" d="M475.805 339.952H496.891V343.918H475.805V339.952Z" fill="#E6E6E6"/>
<path opacity="0.38" d="M446.94 339.952H468.027V343.918H446.94V339.952Z" fill="#E6E6E6"/>
<path opacity="0.25" d="M418.249 339.952H439.335V343.918H418.249V339.952Z" fill="#E6E6E6"/>
<path opacity="0.15" d="M475.805 349.091H496.891V353.057H475.805V349.091Z" fill="#E6E6E6"/>
<path opacity="0.47" d="M446.94 349.091H468.027V353.057H446.94V349.091Z" fill="#E6E6E6"/>
<path opacity="0.3" d="M418.249 349.091H439.335V353.057H418.249V349.091Z" fill="#E6E6E6"/>
<path opacity="0.4" d="M475.805 358.23H496.891V362.197H475.805V358.23Z" fill="#E6E6E6"/>
<path opacity="0.39" d="M446.94 358.23H468.027V362.197H446.94V358.23Z" fill="#E6E6E6"/>
<path opacity="0.24" d="M418.249 358.23H439.335V362.197H418.249V358.23Z" fill="#E6E6E6"/>
<path opacity="0.46" d="M475.805 367.37H496.891V371.336H475.805V367.37Z" fill="#E6E6E6"/>
<path opacity="0.22" d="M446.94 367.37H468.027V371.336H446.94V367.37Z" fill="#E6E6E6"/>
<path opacity="0.11" d="M418.249 367.37H439.335V371.336H418.249V367.37Z" fill="#E6E6E6"/>
<path opacity="0.11" d="M446.94 376.51H468.027V380.476H446.94V376.51Z" fill="#E6E6E6"/>
<path opacity="0.02" d="M418.249 376.51H439.335V380.476H418.249V376.51Z" fill="#E6E6E6"/>
<path opacity="0.27" d="M475.805 385.649H496.891V389.616H475.805V385.649Z" fill="#E6E6E6"/>
<path opacity="0.21" d="M446.94 385.649H468.027V389.616H446.94V385.649Z" fill="#E6E6E6"/>
<path opacity="0.49" d="M418.249 385.649H439.335V389.616H418.249V385.649Z" fill="#E6E6E6"/>
<path opacity="0.6" d="M475.805 394.789H496.891V398.755H475.805V394.789Z" fill="#E6E6E6"/>
<path opacity="0.31" d="M446.94 394.789H468.027V398.755H446.94V394.789Z" fill="#E6E6E6"/>
<path opacity="0.22" d="M418.249 394.789H439.335V398.755H418.249V394.789Z" fill="#E6E6E6"/>
<path opacity="0.54" d="M475.805 403.928H496.891V407.895H475.805V403.928Z" fill="#E6E6E6"/>
<path opacity="0.6" d="M446.94 403.928H468.027V407.895H446.94V403.928Z" fill="#E6E6E6"/>
<path opacity="0.08" d="M418.249 403.928H439.335V407.895H418.249V403.928Z" fill="#E6E6E6"/>
<path opacity="0.55" d="M446.94 413.068H468.027V417.034H446.94V413.068Z" fill="#E6E6E6"/>
<path d="M418.249 413.068H439.335V417.034H418.249V413.068Z" fill="#E6E6E6"/>
<path opacity="0.6" d="M474.423 239.417H475.805V417.034H474.423V239.417Z" fill="#E6E6E6"/>
<path opacity="0.6" d="M439.336 239.417H440.718V417.034H439.336V239.417Z" fill="#E6E6E6"/>
<path d="M370.372 229.415H413.928V450.661H370.372V229.415Z" fill="#4D4D4D"/>
<path opacity="0.69" d="M376.767 239.417H409.607V243.383H376.767V239.417Z" fill="#E6E6E6"/>
<path opacity="0.79" d="M376.767 248.556H409.607V252.522H376.767V248.556Z" fill="#E6E6E6"/>
<path opacity="0.19" d="M376.767 257.696H409.607V261.662H376.767V257.696Z" fill="#E6E6E6"/>
<path opacity="0.88" d="M376.767 266.835H409.607V270.801H376.767V266.835Z" fill="#E6E6E6"/>
<path opacity="0.5" d="M376.767 275.975H409.607V279.941H376.767V275.975Z" fill="#E6E6E6"/>
<path opacity="0.25" d="M376.767 285.114H409.607V289.08H376.767V285.114Z" fill="#E6E6E6"/>
<path opacity="0.91" d="M376.767 294.254H409.607V298.22H376.767V294.254Z" fill="#E6E6E6"/>
<path opacity="0.02" d="M376.767 303.394H409.607V307.36H376.767V303.394Z" fill="#E6E6E6"/>
<path opacity="0.53" d="M376.767 312.533H409.607V316.499H376.767V312.533Z" fill="#E6E6E6"/>
<path opacity="0.65" d="M376.767 321.672H409.607V325.638H376.767V321.672Z" fill="#E6E6E6"/>
<path d="M376.767 330.812H409.607V334.778H376.767V330.812Z" fill="#E6E6E6"/>
<path opacity="0.8" d="M376.767 339.952H409.607V343.918H376.767V339.952Z" fill="#E6E6E6"/>
<path opacity="0.82" d="M376.767 349.091H409.607V353.057H376.767V349.091Z" fill="#E6E6E6"/>
<path opacity="0.75" d="M376.767 358.23H409.607V362.197H376.767V358.23Z" fill="#E6E6E6"/>
<path opacity="0.31" d="M376.767 367.37H409.607V371.336H376.767V367.37Z" fill="#E6E6E6"/>
<path opacity="0.22" d="M376.767 376.51H409.607V380.476H376.767V376.51Z" fill="#E6E6E6"/>
<path opacity="0.43" d="M376.767 385.649H409.607V389.616H376.767V385.649Z" fill="#E6E6E6"/>
<path opacity="0.68" d="M376.767 394.789H409.607V398.755H376.767V394.789Z" fill="#E6E6E6"/>
<path opacity="0.38" d="M376.767 403.928H409.607V407.895H376.767V403.928Z" fill="#E6E6E6"/>
<path opacity="0.84" d="M376.767 413.068H409.607V417.034H376.767V413.068Z" fill="#E6E6E6"/>
<path d="M485.829 217.688V229.415H429.311V217.688H485.829ZM473.212 225.621H479.089V221.655H473.212V225.621ZM464.052 225.621H469.755V221.655H464.052V225.621ZM454.718 225.621H460.422V221.655H454.718V225.621ZM445.385 225.621H451.261V221.655H445.385V225.621ZM436.051 225.621H441.928V221.655H436.051V225.621Z" fill="#333333"/>
<path d="M418.94 221.655H420.496V225.621H418.94V221.655Z" fill="#333333"/>
<path d="M429.311 217.688V229.415H402.693V217.688H429.311ZM418.94 225.621H424.644V221.655H418.94V225.621ZM406.668 225.621H412.372V221.655H406.668V225.621Z" fill="#4D4D4D"/>
<path d="M406.841 221.655H408.397V225.621H406.841V221.655Z" fill="#333333"/>
<path d="M402.348 465.663H519.879L402.348 379.096V465.663Z" fill="#333333"/>
<path d="M577.608 182.51H587.114V218.551H577.608V182.51Z" fill="#4D4D4D"/>
<path d="M586.941 182.51H596.62V218.551H586.941V182.51Z" fill="#333333"/>
<path d="M567.756 182.51H577.435V218.551H567.756V182.51Z" fill="#666666"/>
<path d="M539.756 243.21H566.719V448.764H539.756V243.21Z" fill="#666666"/>
<path d="M598.348 243.21H621.855V448.764H598.348V243.21Z" fill="#333333"/>
<path d="M566.719 243.21H598.521V448.764H566.719V243.21Z" fill="#4D4D4D"/>
<path opacity="0.6" d="M615.114 249.246H618.571V446.005H615.114V249.246Z" fill="#E6E6E6"/>
<path opacity="0.6" d="M608.373 249.246H611.83V446.005H608.373V249.246Z" fill="#E6E6E6"/>
<path opacity="0.6" d="M601.633 249.246H605.089V446.005H601.633V249.246Z" fill="#E6E6E6"/>
<path d="M561.361 249.246H564.818V446.005H561.361V249.246Z" fill="#E6E6E6"/>
<path d="M554.62 249.246H558.077V446.005H554.62V249.246Z" fill="#E6E6E6"/>
<path d="M541.484 249.246H544.941V446.005H541.484V249.246Z" fill="#E6E6E6"/>
<path d="M547.879 249.246H551.336V446.005H547.879V249.246Z" fill="#E6E6E6"/>
<path opacity="0.8" d="M594.546 446.005H570.694V249.246H594.546V446.005ZM590.744 252.694H574.497V442.556H590.744V252.694Z" fill="#E6E6E6"/>
<path opacity="0.8" d="M587.633 439.279H577.435V255.798H587.633V439.279ZM584.176 260.109H582.966H582.274H580.892V434.968H582.274H582.966H584.176V260.109Z" fill="#E6E6E6"/>
<path opacity="0.8" d="M582.275 260.109H582.966V434.968H582.275V260.109Z" fill="#E6E6E6"/>
<path d="M570.348 207.169H594.2V243.21H570.348V207.169Z" fill="#4D4D4D"/>
<path d="M570.348 207.169H594.2V243.21H570.348V207.169Z" fill="#4D4D4D"/>
<path d="M546.496 207.169H570.348V243.21H546.496V207.169Z" fill="#666666"/>
<path d="M594.2 207.169H618.052V243.21H594.2V207.169Z" fill="#333333"/>
<path d="M567.929 182.51H596.62L587.114 189.063H577.435L567.929 182.51Z" fill="#808080"/>
<path d="M55.1112 169.231H68.9382V209.756H55.1112V169.231Z" fill="#4D4D4D"/>
<path d="M69.1113 169.231H82.9386V209.756H69.1113V169.231Z" fill="#333333"/>
<path d="M41.2838 169.231H55.1112V209.756H41.2838V169.231Z" fill="#666666"/>
<path d="M0.493652 237.692H39.5554V469.285H0.493652V237.692Z" fill="#666666"/>
<path d="M85.5312 237.692H119.408V469.285H85.5312V237.692Z" fill="#333333"/>
<path d="M39.5555 237.692H85.5311V469.285H39.5555V237.692Z" fill="#4D4D4D"/>
<path opacity="0.4" d="M109.729 244.59H114.741V466.181H109.729V244.59Z" fill="#E6E6E6"/>
<path opacity="0.4" d="M99.8768 244.59H104.889V466.181H99.8768V244.59Z" fill="#E6E6E6"/>
<path opacity="0.4" d="M90.0249 244.59H95.0374V466.181H90.0249V244.59Z" fill="#E6E6E6"/>
<path d="M31.7777 244.59H36.7902V466.181H31.7777V244.59Z" fill="#E6E6E6"/>
<path d="M21.9258 244.59H26.9384V466.181H21.9258V244.59Z" fill="#E6E6E6"/>
<path d="M3.0863 244.59H8.09863V466.181H3.0863V244.59Z" fill="#E6E6E6"/>
<path d="M12.2467 244.59H17.2592V466.181H12.2467V244.59Z" fill="#E6E6E6"/>
<path d="M79.6547 466.181H45.0864V244.59H79.6547V466.181ZM74.2966 248.384H50.7902V462.387H74.2966V248.384Z" fill="#E6E6E6"/>
<path d="M69.9755 458.766H55.1112V252.005H69.9755V458.766ZM64.7903 256.833H62.889H62.0248H60.1236V453.937H62.0248H62.889H64.7903V256.833Z" fill="#E6E6E6"/>
<path d="M62.0254 256.833H62.8889V453.937H62.0254V256.833Z" fill="#E6E6E6"/>
<path d="M44.7407 197.167H79.309V237.692H44.7407V197.167Z" fill="#4D4D4D"/>
<path d="M44.7407 197.167H79.309V237.692H44.7407V197.167Z" fill="#4D4D4D"/>
<path d="M10.1727 197.167H44.7407V237.692H10.1727V197.167Z" fill="#666666"/>
<path d="M79.136 197.167H113.704V237.692H79.136V197.167Z" fill="#333333"/>
<path d="M41.1112 169.231H82.9386L68.9385 176.647H55.1112L41.1112 169.231Z" fill="#808080"/>
<path d="M154.84 269.766H249.384V301.151H154.84V269.766Z" fill="#E6E6E6"/>
<path d="M212.223 269.766H249.384V301.151H212.223V269.766Z" fill="#B3B3B3"/>
<path d="M212.223 301.323H285.68V453.764H212.223V301.323Z" fill="#333333"/>
<path d="M97.457 301.323H212.223V453.764H97.457V301.323Z" fill="#4D4D4D"/>
<path d="M221.211 285.803H277.73V301.323H221.211V285.803Z" fill="#333333"/>
<path d="M114.568 285.803H195.285V301.323H114.568V285.803Z" fill="#4D4D4D"/>
<path d="M179.902 257.867H212.223V269.766H179.902V257.867Z" fill="#E6E6E6"/>
<path d="M196.149 245.796H212.223V257.695H196.149V245.796Z" fill="#4D4D4D"/>
<path d="M212.396 245.796H228.47V257.695H212.396V245.796Z" fill="#333333"/>
<path d="M212.223 257.867H236.939V269.766H212.223V257.867Z" fill="#B3B3B3"/>
<path d="M213.26 245.796L212.223 218.205L211.359 245.796H213.26Z" fill="#333333"/>
<path opacity="0.12" d="M262.52 307.531H268.569V313.567H262.52V307.531Z" fill="white"/>
<path opacity="0.25" d="M254.223 307.531H260.273V313.567H254.223V307.531Z" fill="white"/>
<path opacity="0.36" d="M245.927 307.531H251.977V313.567H245.927V307.531Z" fill="white"/>
<path opacity="0.12" d="M237.631 307.531H243.68V313.567H237.631V307.531Z" fill="white"/>
<path opacity="0.14" d="M229.334 307.531H235.384V313.567H229.334V307.531Z" fill="white"/>
<path opacity="0.28" d="M262.52 315.464H268.569V321.499H262.52V315.464Z" fill="white"/>
<path opacity="0.4" d="M254.223 315.464H260.273V321.499H254.223V315.464Z" fill="white"/>
<path opacity="0.16" d="M245.927 315.464H251.977V321.499H245.927V315.464Z" fill="white"/>
<path opacity="0.17" d="M229.334 315.464H235.384V321.499H229.334V315.464Z" fill="white"/>
<path opacity="0.27" d="M262.52 323.396H268.569V329.432H262.52V323.396Z" fill="white"/>
<path opacity="0.45" d="M254.223 323.396H260.273V329.432H254.223V323.396Z" fill="white"/>
<path opacity="0.45" d="M245.927 323.396H251.977V329.432H245.927V323.396Z" fill="white"/>
<path opacity="0.48" d="M237.631 323.396H243.68V329.432H237.631V323.396Z" fill="white"/>
<path opacity="0.25" d="M229.334 323.396H235.384V329.432H229.334V323.396Z" fill="white"/>
<path opacity="0.28" d="M262.52 331.329H268.569V337.364H262.52V331.329Z" fill="white"/>
<path opacity="0.13" d="M254.223 331.329H260.273V337.364H254.223V331.329Z" fill="white"/>
<path opacity="0.07" d="M245.927 331.329H251.977V337.364H245.927V331.329Z" fill="white"/>
<path opacity="0.39" d="M237.631 331.329H243.68V337.364H237.631V331.329Z" fill="white"/>
<path opacity="0.47" d="M229.334 331.329H235.384V337.364H229.334V331.329Z" fill="white"/>
<path opacity="0.28" d="M262.52 339.261H268.569V345.296H262.52V339.261Z" fill="white"/>
<path opacity="0.2" d="M254.223 339.261H260.273V345.296H254.223V339.261Z" fill="white"/>
<path opacity="0.04" d="M245.927 339.261H251.977V345.296H245.927V339.261Z" fill="white"/>
<path opacity="0.43" d="M237.631 339.261H243.68V345.296H237.631V339.261Z" fill="white"/>
<path opacity="0.48" d="M229.334 339.261H235.384V345.296H229.334V339.261Z" fill="white"/>
<path opacity="0.28" d="M262.52 347.193H268.569V353.229H262.52V347.193Z" fill="white"/>
<path opacity="0.19" d="M254.223 347.193H260.273V353.229H254.223V347.193Z" fill="white"/>
<path opacity="0.01" d="M245.927 347.193H251.977V353.229H245.927V347.193Z" fill="white"/>
<path opacity="0.27" d="M237.631 347.193H243.68V353.229H237.631V347.193Z" fill="white"/>
<path opacity="0.24" d="M229.334 347.193H235.384V353.229H229.334V347.193Z" fill="white"/>
<path opacity="0.07" d="M262.52 355.298H268.569V361.334H262.52V355.298Z" fill="white"/>
<path opacity="0.25" d="M254.223 355.298H260.273V361.334H254.223V355.298Z" fill="white"/>
<path opacity="0.26" d="M245.927 355.298H251.977V361.334H245.927V355.298Z" fill="white"/>
<path opacity="0.39" d="M237.631 355.298H243.68V361.334H237.631V355.298Z" fill="white"/>
<path opacity="0.22" d="M229.334 355.298H235.384V361.334H229.334V355.298Z" fill="white"/>
<path opacity="0.15" d="M262.52 363.231H268.569V369.267H262.52V363.231Z" fill="white"/>
<path opacity="0.23" d="M254.223 363.231H260.273V369.267H254.223V363.231Z" fill="white"/>
<path opacity="0.05" d="M245.927 363.231H251.977V369.267H245.927V363.231Z" fill="white"/>
<path opacity="0.2" d="M237.631 363.231H243.68V369.267H237.631V363.231Z" fill="white"/>
<path opacity="0.31" d="M229.334 363.231H235.384V369.267H229.334V363.231Z" fill="white"/>
<path opacity="0.15" d="M262.52 371.163H268.569V377.199H262.52V371.163Z" fill="white"/>
<path opacity="0.33" d="M254.223 371.163H260.273V377.199H254.223V371.163Z" fill="white"/>
<path opacity="0.46" d="M245.927 371.163H251.977V377.199H245.927V371.163Z" fill="white"/>
<path opacity="0.25" d="M237.631 371.163H243.68V377.199H237.631V371.163Z" fill="white"/>
<path opacity="0.43" d="M229.334 371.163H235.384V377.199H229.334V371.163Z" fill="white"/>
<path opacity="0.4" d="M262.52 379.096H268.569V385.131H262.52V379.096Z" fill="white"/>
<path opacity="0.39" d="M254.223 379.096H260.273V385.131H254.223V379.096Z" fill="white"/>
<path opacity="0.01" d="M245.927 379.096H251.977V385.131H245.927V379.096Z" fill="white"/>
<path opacity="0.12" d="M237.631 379.096H243.68V385.131H237.631V379.096Z" fill="white"/>
<path opacity="0.07" d="M229.334 379.096H235.384V385.131H229.334V379.096Z" fill="white"/>
<path opacity="0.07" d="M262.52 387.028H268.569V393.064H262.52V387.028Z" fill="white"/>
<path opacity="0.02" d="M254.223 387.028H260.273V393.064H254.223V387.028Z" fill="white"/>
<path opacity="0.12" d="M245.927 387.028H251.977V393.064H245.927V387.028Z" fill="white"/>
<path opacity="0.23" d="M237.631 387.028H243.68V393.064H237.631V387.028Z" fill="white"/>
<path opacity="0.26" d="M229.334 387.028H235.384V393.064H229.334V387.028Z" fill="white"/>
<path opacity="0.27" d="M262.52 394.961H268.569V400.996H262.52V394.961Z" fill="white"/>
<path opacity="0.38" d="M254.223 394.961H260.273V400.996H254.223V394.961Z" fill="white"/>
<path opacity="0.05" d="M245.927 394.961H251.977V400.996H245.927V394.961Z" fill="white"/>
<path opacity="0.45" d="M237.631 394.961H243.68V400.996H237.631V394.961Z" fill="white"/>
<path opacity="0.15" d="M229.334 394.961H235.384V400.996H229.334V394.961Z" fill="white"/>
<path opacity="0.06" d="M262.52 402.893H268.569V408.929H262.52V402.893Z" fill="white"/>
<path opacity="0.47" d="M254.223 402.893H260.273V408.929H254.223V402.893Z" fill="white"/>
<path opacity="0.15" d="M245.927 402.893H251.977V408.929H245.927V402.893Z" fill="white"/>
<path opacity="0.44" d="M237.631 402.893H243.68V408.929H237.631V402.893Z" fill="white"/>
<path opacity="0.14" d="M229.334 402.893H235.384V408.929H229.334V402.893Z" fill="white"/>
<path opacity="0.15" d="M262.52 410.826H268.569V416.861H262.52V410.826Z" fill="white"/>
<path opacity="0.43" d="M254.223 410.826H260.273V416.861H254.223V410.826Z" fill="white"/>
<path opacity="0.07" d="M245.927 410.826H251.977V416.861H245.927V410.826Z" fill="white"/>
<path opacity="0.47" d="M237.631 410.826H243.68V416.861H237.631V410.826Z" fill="white"/>
<path opacity="0.11" d="M229.334 410.826H235.384V416.861H229.334V410.826Z" fill="white"/>
<path opacity="0.07" d="M262.52 418.758H268.569V424.793H262.52V418.758Z" fill="white"/>
<path opacity="0.34" d="M254.223 418.758H260.273V424.793H254.223V418.758Z" fill="white"/>
<path opacity="0.5" d="M245.927 418.758H251.977V424.793H245.927V418.758Z" fill="white"/>
<path opacity="0.36" d="M237.631 418.758H243.68V424.793H237.631V418.758Z" fill="white"/>
<path opacity="0.34" d="M229.334 418.758H235.384V424.793H229.334V418.758Z" fill="white"/>
<path opacity="0.47" d="M262.52 426.69H268.569V432.726H262.52V426.69Z" fill="white"/>
<path opacity="0.41" d="M254.223 426.69H260.273V432.726H254.223V426.69Z" fill="white"/>
<path opacity="0.3" d="M245.927 426.69H251.977V432.726H245.927V426.69Z" fill="white"/>
<path opacity="0.33" d="M237.631 426.69H243.68V432.726H237.631V426.69Z" fill="white"/>
<path opacity="0.12" d="M229.334 426.69H235.384V432.726H229.334V426.69Z" fill="white"/>
<path opacity="0.24" d="M262.52 434.623H268.569V440.659H262.52V434.623Z" fill="white"/>
<path opacity="0.29" d="M254.223 434.623H260.273V440.659H254.223V434.623Z" fill="white"/>
<path opacity="0.27" d="M237.631 434.623H243.68V440.659H237.631V434.623Z" fill="white"/>
<path opacity="0.04" d="M229.334 434.623H235.384V440.659H229.334V434.623Z" fill="white"/>
<path opacity="0.11" d="M262.52 442.555H268.569V448.591H262.52V442.555Z" fill="white"/>
<path opacity="0.05" d="M254.223 442.555H260.273V448.591H254.223V442.555Z" fill="white"/>
<path opacity="0.04" d="M245.927 442.555H251.977V448.591H245.927V442.555Z" fill="white"/>
<path opacity="0.02" d="M237.631 442.555H243.68V448.591H237.631V442.555Z" fill="white"/>
<path opacity="0.3" d="M192.174 307.531H198.223V313.567H192.174V307.531Z" fill="white"/>
<path opacity="0.72" d="M184.223 307.531H190.272V313.567H184.223V307.531Z" fill="white"/>
<path opacity="0.7" d="M176.1 307.531H182.149V313.567H176.1V307.531Z" fill="white"/>
<path opacity="0.52" d="M167.976 307.531H174.026V313.567H167.976V307.531Z" fill="white"/>
<path opacity="0.2" d="M159.853 307.531H165.902V313.567H159.853V307.531Z" fill="white"/>
<path opacity="0.32" d="M151.902 307.531H157.951V313.567H151.902V307.531Z" fill="white"/>
<path opacity="0.13" d="M143.779 307.531H149.828V313.567H143.779V307.531Z" fill="white"/>
<path opacity="0.38" d="M135.655 307.531H141.704V313.567H135.655V307.531Z" fill="white"/>
<path opacity="0.61" d="M127.704 307.531H133.754V313.567H127.704V307.531Z" fill="white"/>
<path d="M119.581 307.531H125.63V313.567H119.581V307.531Z" fill="white"/>
<path opacity="0.91" d="M111.457 307.531H117.507V313.567H111.457V307.531Z" fill="white"/>
<path opacity="0.66" d="M192.174 315.464H198.223V321.499H192.174V315.464Z" fill="white"/>
<path opacity="0.31" d="M184.223 315.464H190.272V321.499H184.223V315.464Z" fill="white"/>
<path opacity="0.95" d="M176.1 315.464H182.149V321.499H176.1V315.464Z" fill="white"/>
<path opacity="0.7" d="M167.976 315.464H174.026V321.499H167.976V315.464Z" fill="white"/>
<path opacity="0.12" d="M159.853 315.464H165.902V321.499H159.853V315.464Z" fill="white"/>
<path opacity="0.24" d="M151.902 315.464H157.951V321.499H151.902V315.464Z" fill="white"/>
<path opacity="0.66" d="M143.779 315.464H149.828V321.499H143.779V315.464Z" fill="white"/>
<path opacity="0.71" d="M135.655 315.464H141.704V321.499H135.655V315.464Z" fill="white"/>
<path opacity="0.42" d="M127.704 315.464H133.754V321.499H127.704V315.464Z" fill="white"/>
<path opacity="0.09" d="M119.581 315.464H125.63V321.499H119.581V315.464Z" fill="white"/>
<path opacity="0.32" d="M111.457 315.464H117.507V321.499H111.457V315.464Z" fill="white"/>
<path opacity="0.65" d="M192.174 323.396H198.223V329.432H192.174V323.396Z" fill="white"/>
<path d="M184.223 323.396H190.272V329.432H184.223V323.396Z" fill="white"/>
<path d="M176.1 323.396H182.149V329.432H176.1V323.396Z" fill="white"/>
<path opacity="0.71" d="M167.976 323.396H174.026V329.432H167.976V323.396Z" fill="white"/>
<path opacity="0.2" d="M159.853 323.396H165.902V329.432H159.853V323.396Z" fill="white"/>
<path opacity="0.19" d="M151.902 323.396H157.951V329.432H151.902V323.396Z" fill="white"/>
<path opacity="0.62" d="M143.779 323.396H149.828V329.432H143.779V323.396Z" fill="white"/>
<path opacity="0.93" d="M135.655 323.396H141.704V329.432H135.655V323.396Z" fill="white"/>
<path opacity="0.56" d="M127.704 323.396H133.754V329.432H127.704V323.396Z" fill="white"/>
<path opacity="0.57" d="M119.581 323.396H125.63V329.432H119.581V323.396Z" fill="white"/>
<path opacity="0.52" d="M111.457 323.396H117.507V329.432H111.457V323.396Z" fill="white"/>
<path opacity="0.74" d="M192.174 331.329H198.223V337.364H192.174V331.329Z" fill="white"/>
<path opacity="0.56" d="M184.223 331.329H190.272V337.364H184.223V331.329Z" fill="white"/>
<path opacity="0.78" d="M176.1 331.329H182.149V337.364H176.1V331.329Z" fill="white"/>
<path opacity="0.41" d="M167.976 331.329H174.026V337.364H167.976V331.329Z" fill="white"/>
<path opacity="0.14" d="M159.853 331.329H165.902V337.364H159.853V331.329Z" fill="white"/>
<path opacity="0.28" d="M151.902 331.329H157.951V337.364H151.902V331.329Z" fill="white"/>
<path opacity="0.36" d="M143.779 331.329H149.828V337.364H143.779V331.329Z" fill="white"/>
<path opacity="0.14" d="M135.655 331.329H141.704V337.364H135.655V331.329Z" fill="white"/>
<path opacity="0.5" d="M127.704 331.329H133.754V337.364H127.704V331.329Z" fill="white"/>
<path opacity="0.98" d="M119.581 331.329H125.63V337.364H119.581V331.329Z" fill="white"/>
<path opacity="0.59" d="M111.457 331.329H117.507V337.364H111.457V331.329Z" fill="white"/>
<path opacity="0.07" d="M192.174 339.261H198.223V345.296H192.174V339.261Z" fill="white"/>
<path opacity="0.1" d="M184.223 339.261H190.272V345.296H184.223V339.261Z" fill="white"/>
<path opacity="0.88" d="M176.1 339.261H182.149V345.296H176.1V339.261Z" fill="white"/>
<path opacity="0.68" d="M167.976 339.261H174.026V345.296H167.976V339.261Z" fill="white"/>
<path opacity="0.81" d="M159.853 339.261H165.902V345.296H159.853V339.261Z" fill="white"/>
<path opacity="0.62" d="M151.902 339.261H157.951V345.296H151.902V339.261Z" fill="white"/>
<path opacity="0.97" d="M143.779 339.261H149.828V345.296H143.779V339.261Z" fill="white"/>
<path opacity="0.81" d="M135.655 339.261H141.704V345.296H135.655V339.261Z" fill="white"/>
<path opacity="0.79" d="M127.704 339.261H133.754V345.296H127.704V339.261Z" fill="white"/>
<path opacity="0.03" d="M119.581 339.261H125.63V345.296H119.581V339.261Z" fill="white"/>
<path opacity="0.95" d="M111.457 339.261H117.507V345.296H111.457V339.261Z" fill="white"/>
<path opacity="0.62" d="M192.174 347.193H198.223V353.229H192.174V347.193Z" fill="white"/>
<path opacity="0.22" d="M184.223 347.193H190.272V353.229H184.223V347.193Z" fill="white"/>
<path opacity="0.42" d="M176.1 347.193H182.149V353.229H176.1V347.193Z" fill="white"/>
<path opacity="0.56" d="M167.976 347.193H174.026V353.229H167.976V347.193Z" fill="white"/>
<path opacity="0.03" d="M159.853 347.193H165.902V353.229H159.853V347.193Z" fill="white"/>
<path opacity="0.64" d="M151.902 347.193H157.951V353.229H151.902V347.193Z" fill="white"/>
<path opacity="0.82" d="M143.779 347.193H149.828V353.229H143.779V347.193Z" fill="white"/>
<path opacity="0.52" d="M135.655 347.193H141.704V353.229H135.655V347.193Z" fill="white"/>
<path opacity="0.46" d="M127.704 347.193H133.754V353.229H127.704V347.193Z" fill="white"/>
<path opacity="0.27" d="M119.581 347.193H125.63V353.229H119.581V347.193Z" fill="white"/>
<path opacity="0.46" d="M111.457 347.193H117.507V353.229H111.457V347.193Z" fill="white"/>
<path opacity="0.66" d="M192.174 355.298H198.223V361.334H192.174V355.298Z" fill="white"/>
<path opacity="0.7" d="M184.223 355.298H190.272V361.334H184.223V355.298Z" fill="white"/>
<path opacity="0.94" d="M176.1 355.298H182.149V361.334H176.1V355.298Z" fill="white"/>
<path opacity="0.5" d="M167.976 355.298H174.026V361.334H167.976V355.298Z" fill="white"/>
<path opacity="0.12" d="M159.853 355.298H165.902V361.334H159.853V355.298Z" fill="white"/>
<path opacity="0.36" d="M151.902 355.298H157.951V361.334H151.902V355.298Z" fill="white"/>
<path opacity="0.51" d="M143.779 355.298H149.828V361.334H143.779V355.298Z" fill="white"/>
<path opacity="0.37" d="M135.655 355.298H141.704V361.334H135.655V355.298Z" fill="white"/>
<path opacity="0.66" d="M127.704 355.298H133.754V361.334H127.704V355.298Z" fill="white"/>
<path opacity="0.42" d="M119.581 355.298H125.63V361.334H119.581V355.298Z" fill="white"/>
<path opacity="0.5" d="M111.457 355.298H117.507V361.334H111.457V355.298Z" fill="white"/>
<path opacity="0.52" d="M192.174 363.231H198.223V369.267H192.174V363.231Z" fill="white"/>
<path opacity="0.61" d="M184.223 363.231H190.272V369.267H184.223V363.231Z" fill="white"/>
<path opacity="0.84" d="M176.1 363.231H182.149V369.267H176.1V363.231Z" fill="white"/>
<path opacity="0.89" d="M167.976 363.231H174.026V369.267H167.976V363.231Z" fill="white"/>
<path opacity="0.33" d="M159.853 363.231H165.902V369.267H159.853V363.231Z" fill="white"/>
<path opacity="0.25" d="M151.902 363.231H157.951V369.267H151.902V363.231Z" fill="white"/>
<path opacity="0.95" d="M143.779 363.231H149.828V369.267H143.779V363.231Z" fill="white"/>
<path opacity="0.09" d="M135.655 363.231H141.704V369.267H135.655V363.231Z" fill="white"/>
<path opacity="0.44" d="M127.704 363.231H133.754V369.267H127.704V363.231Z" fill="white"/>
<path opacity="0.51" d="M119.581 363.231H125.63V369.267H119.581V363.231Z" fill="white"/>
<path opacity="0.97" d="M111.457 363.231H117.507V369.267H111.457V363.231Z" fill="white"/>
<path opacity="0.26" d="M192.174 371.163H198.223V377.199H192.174V371.163Z" fill="white"/>
<path opacity="0.92" d="M184.223 371.163H190.272V377.199H184.223V371.163Z" fill="white"/>
<path opacity="0.33" d="M176.1 371.163H182.149V377.199H176.1V371.163Z" fill="white"/>
<path opacity="0.23" d="M167.976 371.163H174.026V377.199H167.976V371.163Z" fill="white"/>
<path opacity="0.42" d="M159.853 371.163H165.902V377.199H159.853V371.163Z" fill="white"/>
<path opacity="0.57" d="M151.902 371.163H157.951V377.199H151.902V371.163Z" fill="white"/>
<path opacity="0.73" d="M143.779 371.163H149.828V377.199H143.779V371.163Z" fill="white"/>
<path opacity="0.87" d="M135.655 371.163H141.704V377.199H135.655V371.163Z" fill="white"/>
<path opacity="0.22" d="M127.704 371.163H133.754V377.199H127.704V371.163Z" fill="white"/>
<path opacity="0.89" d="M119.581 371.163H125.63V377.199H119.581V371.163Z" fill="white"/>
<path opacity="0.73" d="M111.457 371.163H117.507V377.199H111.457V371.163Z" fill="white"/>
<path opacity="0.35" d="M192.174 379.096H198.223V385.131H192.174V379.096Z" fill="white"/>
<path opacity="0.81" d="M184.223 379.096H190.272V385.131H184.223V379.096Z" fill="white"/>
<path opacity="0.56" d="M176.1 379.096H182.149V385.131H176.1V379.096Z" fill="white"/>
<path opacity="0.81" d="M167.976 379.096H174.026V385.131H167.976V379.096Z" fill="white"/>
<path opacity="0.87" d="M159.853 379.096H165.902V385.131H159.853V379.096Z" fill="white"/>
<path opacity="0.39" d="M151.902 379.096H157.951V385.131H151.902V379.096Z" fill="white"/>
<path opacity="0.31" d="M143.779 379.096H149.828V385.131H143.779V379.096Z" fill="white"/>
<path opacity="0.98" d="M135.655 379.096H141.704V385.131H135.655V379.096Z" fill="white"/>
<path opacity="0.17" d="M127.704 379.096H133.754V385.131H127.704V379.096Z" fill="white"/>
<path opacity="0.06" d="M119.581 379.096H125.63V385.131H119.581V379.096Z" fill="white"/>
<path opacity="0.57" d="M111.457 379.096H117.507V385.131H111.457V379.096Z" fill="white"/>
<path opacity="0.67" d="M192.174 387.028H198.223V393.064H192.174V387.028Z" fill="white"/>
<path opacity="0.83" d="M184.223 387.028H190.272V393.064H184.223V387.028Z" fill="white"/>
<path opacity="0.99" d="M176.1 387.028H182.149V393.064H176.1V387.028Z" fill="white"/>
<path opacity="0.62" d="M167.976 387.028H174.026V393.064H167.976V387.028Z" fill="white"/>
<path opacity="0.87" d="M159.853 387.028H165.902V393.064H159.853V387.028Z" fill="white"/>
<path opacity="0.14" d="M151.902 387.028H157.951V393.064H151.902V387.028Z" fill="white"/>
<path opacity="0.12" d="M143.779 387.028H149.828V393.064H143.779V387.028Z" fill="white"/>
<path opacity="0.11" d="M135.655 387.028H141.704V393.064H135.655V387.028Z" fill="white"/>
<path opacity="0.39" d="M127.704 387.028H133.754V393.064H127.704V387.028Z" fill="white"/>
<path opacity="0.58" d="M119.581 387.028H125.63V393.064H119.581V387.028Z" fill="white"/>
<path opacity="0.54" d="M111.457 387.028H117.507V393.064H111.457V387.028Z" fill="white"/>
<path opacity="0.99" d="M192.174 394.961H198.223V400.996H192.174V394.961Z" fill="white"/>
<path opacity="0.28" d="M184.223 394.961H190.272V400.996H184.223V394.961Z" fill="white"/>
<path opacity="0.78" d="M176.1 394.961H182.149V400.996H176.1V394.961Z" fill="white"/>
<path opacity="0.65" d="M167.976 394.961H174.026V400.996H167.976V394.961Z" fill="white"/>
<path opacity="0.32" d="M159.853 394.961H165.902V400.996H159.853V394.961Z" fill="white"/>
<path opacity="0.55" d="M151.902 394.961H157.951V400.996H151.902V394.961Z" fill="white"/>
<path opacity="0.4" d="M143.779 394.961H149.828V400.996H143.779V394.961Z" fill="white"/>
<path opacity="0.22" d="M135.655 394.961H141.704V400.996H135.655V394.961Z" fill="white"/>
<path opacity="0.87" d="M127.704 394.961H133.754V400.996H127.704V394.961Z" fill="white"/>
<path opacity="0.02" d="M119.581 394.961H125.63V400.996H119.581V394.961Z" fill="white"/>
<path opacity="0.39" d="M111.457 394.961H117.507V400.996H111.457V394.961Z" fill="white"/>
<path opacity="0.89" d="M192.174 402.893H198.223V408.929H192.174V402.893Z" fill="white"/>
<path opacity="0.97" d="M184.223 402.893H190.272V408.929H184.223V402.893Z" fill="white"/>
<path opacity="0.79" d="M176.1 402.893H182.149V408.929H176.1V402.893Z" fill="white"/>
<path opacity="0.41" d="M167.976 402.893H174.026V408.929H167.976V402.893Z" fill="white"/>
<path opacity="0.13" d="M159.853 402.893H165.902V408.929H159.853V402.893Z" fill="white"/>
<path opacity="0.9" d="M151.902 402.893H157.951V408.929H151.902V402.893Z" fill="white"/>
<path opacity="0.98" d="M143.779 402.893H149.828V408.929H143.779V402.893Z" fill="white"/>
<path opacity="0.67" d="M135.655 402.893H141.704V408.929H135.655V402.893Z" fill="white"/>
<path opacity="0.65" d="M127.704 402.893H133.754V408.929H127.704V402.893Z" fill="white"/>
<path opacity="0.89" d="M119.581 402.893H125.63V408.929H119.581V402.893Z" fill="white"/>
<path opacity="0.98" d="M111.457 402.893H117.507V408.929H111.457V402.893Z" fill="white"/>
<path opacity="0.29" d="M192.174 410.826H198.223V416.861H192.174V410.826Z" fill="white"/>
<path opacity="0.74" d="M184.223 410.826H190.272V416.861H184.223V410.826Z" fill="white"/>
<path opacity="0.64" d="M176.1 410.826H182.149V416.861H176.1V410.826Z" fill="white"/>
<path opacity="0.65" d="M167.976 410.826H174.026V416.861H167.976V410.826Z" fill="white"/>
<path opacity="0.07" d="M159.853 410.826H165.902V416.861H159.853V410.826Z" fill="white"/>
<path opacity="0.16" d="M151.902 410.826H157.951V416.861H151.902V410.826Z" fill="white"/>
<path opacity="0.84" d="M143.779 410.826H149.828V416.861H143.779V410.826Z" fill="white"/>
<path opacity="0.88" d="M135.655 410.826H141.704V416.861H135.655V410.826Z" fill="white"/>
<path opacity="0.57" d="M127.704 410.826H133.754V416.861H127.704V410.826Z" fill="white"/>
<path opacity="0.31" d="M119.581 410.826H125.63V416.861H119.581V410.826Z" fill="white"/>
<path opacity="0.03" d="M111.457 410.826H117.507V416.861H111.457V410.826Z" fill="white"/>
<path opacity="0.3" d="M192.174 418.758H198.223V424.793H192.174V418.758Z" fill="white"/>
<path opacity="0.59" d="M184.223 418.758H190.272V424.793H184.223V418.758Z" fill="white"/>
<path opacity="0.93" d="M176.1 418.758H182.149V424.793H176.1V418.758Z" fill="white"/>
<path opacity="0.06" d="M167.976 418.758H174.026V424.793H167.976V418.758Z" fill="white"/>
<path opacity="0.74" d="M159.853 418.758H165.902V424.793H159.853V418.758Z" fill="white"/>
<path opacity="0.22" d="M151.902 418.758H157.951V424.793H151.902V418.758Z" fill="white"/>
<path opacity="0.51" d="M143.779 418.758H149.828V424.793H143.779V418.758Z" fill="white"/>
<path opacity="0.7" d="M135.655 418.758H141.704V424.793H135.655V418.758Z" fill="white"/>
<path opacity="0.47" d="M127.704 418.758H133.754V424.793H127.704V418.758Z" fill="white"/>
<path opacity="0.08" d="M119.581 418.758H125.63V424.793H119.581V418.758Z" fill="white"/>
<path opacity="0.93" d="M111.457 418.758H117.507V424.793H111.457V418.758Z" fill="white"/>
<path opacity="0.81" d="M192.174 426.69H198.223V432.726H192.174V426.69Z" fill="white"/>
<path opacity="0.9" d="M184.223 426.69H190.272V432.726H184.223V426.69Z" fill="white"/>
<path opacity="0.55" d="M176.1 426.69H182.149V432.726H176.1V426.69Z" fill="white"/>
<path opacity="0.14" d="M167.976 426.69H174.026V432.726H167.976V426.69Z" fill="white"/>
<path opacity="0.66" d="M159.853 426.69H165.902V432.726H159.853V426.69Z" fill="white"/>
<path opacity="0.92" d="M151.902 426.69H157.951V432.726H151.902V426.69Z" fill="white"/>
<path opacity="0.4" d="M143.779 426.69H149.828V432.726H143.779V426.69Z" fill="white"/>
<path opacity="0.6" d="M135.655 426.69H141.704V432.726H135.655V426.69Z" fill="white"/>
<path opacity="0.99" d="M127.704 426.69H133.754V432.726H127.704V426.69Z" fill="white"/>
<path opacity="0.68" d="M119.581 426.69H125.63V432.726H119.581V426.69Z" fill="white"/>
<path opacity="0.01" d="M111.457 426.69H117.507V432.726H111.457V426.69Z" fill="white"/>
<path opacity="0.82" d="M192.174 434.623H198.223V440.659H192.174V434.623Z" fill="white"/>
<path opacity="0.92" d="M184.223 434.623H190.272V440.659H184.223V434.623Z" fill="white"/>
<path opacity="0.29" d="M176.1 434.623H182.149V440.659H176.1V434.623Z" fill="white"/>
<path opacity="0.73" d="M167.976 434.623H174.026V440.659H167.976V434.623Z" fill="white"/>
<path opacity="0.42" d="M159.853 434.623H165.902V440.659H159.853V434.623Z" fill="white"/>
<path opacity="0.06" d="M151.902 434.623H157.951V440.659H151.902V434.623Z" fill="white"/>
<path opacity="0.7" d="M143.779 434.623H149.828V440.659H143.779V434.623Z" fill="white"/>
<path opacity="0.97" d="M135.655 434.623H141.704V440.659H135.655V434.623Z" fill="white"/>
<path opacity="0.51" d="M127.704 434.623H133.754V440.659H127.704V434.623Z" fill="white"/>
<path opacity="0.69" d="M119.581 434.623H125.63V440.659H119.581V434.623Z" fill="white"/>
<path opacity="0.49" d="M111.457 434.623H117.507V440.659H111.457V434.623Z" fill="white"/>
<path opacity="0.45" d="M192.174 442.555H198.223V448.591H192.174V442.555Z" fill="white"/>
<path opacity="0.46" d="M184.223 442.555H190.272V448.591H184.223V442.555Z" fill="white"/>
<path opacity="0.04" d="M176.1 442.555H182.149V448.591H176.1V442.555Z" fill="white"/>
<path opacity="0.56" d="M167.976 442.555H174.026V448.591H167.976V442.555Z" fill="white"/>
<path opacity="0.4" d="M159.853 442.555H165.902V448.591H159.853V442.555Z" fill="white"/>
<path opacity="0.59" d="M151.902 442.555H157.951V448.591H151.902V442.555Z" fill="white"/>
<path opacity="0.82" d="M143.779 442.555H149.828V448.591H143.779V442.555Z" fill="white"/>
<path opacity="0.99" d="M135.655 442.555H141.704V448.591H135.655V442.555Z" fill="white"/>
<path opacity="0.1" d="M127.704 442.555H133.754V448.591H127.704V442.555Z" fill="white"/>
<path opacity="0.87" d="M119.581 442.555H125.63V448.591H119.581V442.555Z" fill="white"/>
<path d="M111.457 442.555H117.507V448.591H111.457V442.555Z" fill="white"/>
<path d="M294.322 268.732H351.36V447.039H294.322V268.732Z" fill="#333333"/>
<path d="M325.434 259.765H351.36V269.766H325.434V259.765Z" fill="#333333"/>
<path d="M336.323 253.901H351.36V259.765H336.323V253.901Z" fill="#333333"/>
<path opacity="0.25" d="M318.347 281.32H327.681V290.632H318.347V281.32Z" fill="white"/>
<path opacity="0.15" d="M318.347 304.255H327.681V313.567H318.347V304.255Z" fill="white"/>
<path opacity="0.19" d="M318.347 349.953H327.681V359.265H318.347V349.953Z" fill="white"/>
<path opacity="0.17" d="M318.347 372.715H327.681V382.027H318.347V372.715Z" fill="white"/>
<path opacity="0.22" d="M318.347 395.478H327.681V404.79H318.347V395.478Z" fill="white"/>
<path d="M318.347 418.413H327.681V427.725H318.347V418.413Z" fill="white"/>
<path d="M336.668 368.06H390.076V383.752H336.668V368.06Z" fill="#333333"/>
<path d="M310.051 368.06H336.668V383.752H310.051V368.06Z" fill="#4D4D4D"/>
<path d="M390.076 368.059L373.483 360.127L336.668 368.059H390.076Z" fill="#333333"/>
<path d="M373.483 360.127L336.668 368.059H310.051L373.483 360.127Z" fill="#4D4D4D"/>
<path d="M324.224 379.096H402.348V450.488H324.224V379.096Z" fill="#333333"/>
<path d="M298.298 379.096H324.224V450.488H298.298V379.096Z" fill="#4D4D4D"/>
<path opacity="0.81" d="M304.347 384.097H318.347V389.27H304.347V384.097Z" fill="white"/>
<path opacity="0.76" d="M304.347 393.581H318.347V398.754H304.347V393.581Z" fill="white"/>
<path opacity="0.32" d="M304.347 403.065H318.347V408.239H304.347V403.065Z" fill="white"/>
<path opacity="0.49" d="M304.347 412.723H318.347V417.896H304.347V412.723Z" fill="white"/>
<path opacity="0.99" d="M304.347 431.691H318.347V436.865H304.347V431.691Z" fill="white"/>
<path opacity="0.1" d="M375.903 384.097H389.903V389.27H375.903V384.097Z" fill="white"/>
<path opacity="0.04" d="M356.372 384.097H370.372V389.27H356.372V384.097Z" fill="white"/>
<path opacity="0.07" d="M336.668 384.097H350.668V389.27H336.668V384.097Z" fill="white"/>
<path opacity="0.06" d="M375.903 393.581H389.903V398.754H375.903V393.581Z" fill="white"/>
<path opacity="0.44" d="M356.372 393.581H370.372V398.754H356.372V393.581Z" fill="white"/>
<path opacity="0.24" d="M336.668 393.581H350.668V398.754H336.668V393.581Z" fill="white"/>
<path opacity="0.55" d="M375.903 403.065H389.903V408.239H375.903V403.065Z" fill="white"/>
<path opacity="0.02" d="M356.372 403.065H370.372V408.239H356.372V403.065Z" fill="white"/>
<path opacity="0.14" d="M336.668 403.065H350.668V408.239H336.668V403.065Z" fill="white"/>
<path opacity="0.43" d="M375.903 412.723H389.903V417.896H375.903V412.723Z" fill="white"/>
<path opacity="0.41" d="M356.372 412.723H370.372V417.896H356.372V412.723Z" fill="white"/>
<path opacity="0.46" d="M336.668 412.723H350.668V417.896H336.668V412.723Z" fill="white"/>
<path opacity="0.45" d="M375.903 422.207H389.903V427.38H375.903V422.207Z" fill="white"/>
<path opacity="0.33" d="M356.372 422.207H370.372V427.38H356.372V422.207Z" fill="white"/>
<path opacity="0.05" d="M336.668 422.207H350.668V427.38H336.668V422.207Z" fill="white"/>
<path opacity="0.27" d="M375.903 431.691H389.903V436.865H375.903V431.691Z" fill="white"/>
<path opacity="0.15" d="M356.372 431.691H370.372V436.865H356.372V431.691Z" fill="white"/>
<path opacity="0.7" d="M336.668 431.691H350.668V436.865H336.668V431.691Z" fill="white"/>
<path d="M704.3 307.704H752.695V456.524H704.3V307.704Z" fill="#333333"/>
<path d="M649.164 307.704H704.127V456.524H649.164V307.704Z" fill="#4D4D4D"/>
<path d="M704.3 320.293H752.695V322.88H704.3V320.293Z" fill="#4D4D4D"/>
<path d="M649.164 320.293H704.127V322.88H649.164V320.293Z" fill="#333333"/>
<path opacity="0.25" d="M722.275 325.811H727.46V330.984H722.275V325.811Z" fill="white"/>
<path opacity="0.12" d="M708.102 325.811H713.287V330.984H708.102V325.811Z" fill="white"/>
<path opacity="0.47" d="M722.275 332.881H727.46V338.054H722.275V332.881Z" fill="white"/>
<path opacity="0.22" d="M715.189 332.881H720.374V338.054H715.189V332.881Z" fill="white"/>
<path opacity="0.32" d="M708.102 332.881H713.287V338.054H708.102V332.881Z" fill="white"/>
<path opacity="0.28" d="M722.275 339.951H727.46V345.125H722.275V339.951Z" fill="white"/>
<path opacity="0.2" d="M708.102 339.951H713.287V345.125H708.102V339.951Z" fill="white"/>
<path opacity="0.05" d="M722.275 347.021H727.46V352.195H722.275V347.021Z" fill="white"/>
<path opacity="0.08" d="M715.189 347.021H720.374V352.195H715.189V347.021Z" fill="white"/>
<path opacity="0.08" d="M722.275 354.092H727.46V359.265H722.275V354.092Z" fill="white"/>
<path opacity="0.02" d="M715.189 354.092H720.374V359.265H715.189V354.092Z" fill="white"/>
<path opacity="0.2" d="M722.275 361.162H727.46V366.335H722.275V361.162Z" fill="white"/>
<path opacity="0.23" d="M715.189 361.162H720.374V366.335H715.189V361.162Z" fill="white"/>
<path opacity="0.24" d="M715.189 368.232H720.374V373.406H715.189V368.232Z" fill="white"/>
<path opacity="0.02" d="M722.275 375.302H727.46V380.476H722.275V375.302Z" fill="white"/>
<path opacity="0.04" d="M715.189 375.302H720.374V380.476H715.189V375.302Z" fill="white"/>
<path opacity="0.3" d="M708.102 375.302H713.287V380.476H708.102V375.302Z" fill="white"/>
<path opacity="0.4" d="M708.102 382.2H713.287V387.374H708.102V382.2Z" fill="white"/>
<path opacity="0.19" d="M715.189 389.271H720.374V394.444H715.189V389.271Z" fill="white"/>
<path opacity="0.43" d="M708.102 389.271H713.287V394.444H708.102V389.271Z" fill="white"/>
<path opacity="0.42" d="M722.275 396.341H727.46V401.514H722.275V396.341Z" fill="white"/>
<path opacity="0.31" d="M708.102 396.341H713.287V401.514H708.102V396.341Z" fill="white"/>
<path opacity="0.31" d="M722.275 403.411H727.46V408.584H722.275V403.411Z" fill="white"/>
<path opacity="0.33" d="M708.102 403.411H713.287V408.584H708.102V403.411Z" fill="white"/>
<path opacity="0.17" d="M722.275 410.481H727.46V415.655H722.275V410.481Z" fill="white"/>
<path opacity="0.01" d="M715.189 410.481H720.374V415.655H715.189V410.481Z" fill="white"/>
<path opacity="0.48" d="M708.102 410.481H713.287V415.655H708.102V410.481Z" fill="white"/>
<path opacity="0.02" d="M722.275 417.551H727.46V422.725H722.275V417.551Z" fill="white"/>
<path opacity="0.17" d="M715.189 417.551H720.374V422.725H715.189V417.551Z" fill="white"/>
<path opacity="0.42" d="M708.102 417.551H713.287V422.725H708.102V417.551Z" fill="white"/>
<path opacity="0.02" d="M722.275 424.622H727.46V429.795H722.275V424.622Z" fill="white"/>
<path opacity="0.3" d="M708.102 424.622H713.287V429.795H708.102V424.622Z" fill="white"/>
<path opacity="0.05" d="M722.275 431.692H727.46V436.865H722.275V431.692Z" fill="white"/>
<path opacity="0.2" d="M708.102 431.692H713.287V436.865H708.102V431.692Z" fill="white"/>
<path opacity="0.27" d="M722.275 438.762H727.46V443.936H722.275V438.762Z" fill="white"/>
<path opacity="0.13" d="M715.189 438.762H720.374V443.936H715.189V438.762Z" fill="white"/>
<path opacity="0.12" d="M722.275 445.832H727.46V451.005H722.275V445.832Z" fill="white"/>
<path opacity="0.04" d="M715.189 445.832H720.374V451.005H715.189V445.832Z" fill="white"/>
<path opacity="0.3" d="M708.102 445.832H713.287V451.005H708.102V445.832Z" fill="white"/>
<path opacity="0.08" d="M715.189 325.811H720.374V330.984H715.189V325.811Z" fill="white"/>
<path opacity="0.08" d="M715.189 339.951H720.374V345.125H715.189V339.951Z" fill="white"/>
<path opacity="0.01" d="M708.102 347.021H713.287V352.195H708.102V347.021Z" fill="white"/>
<path opacity="0.12" d="M708.102 354.092H713.287V359.265H708.102V354.092Z" fill="white"/>
<path opacity="0.13" d="M722.275 368.232H727.46V373.406H722.275V368.232Z" fill="white"/>
<path opacity="0.07" d="M708.102 368.232H713.287V373.406H708.102V368.232Z" fill="white"/>
<path opacity="0.02" d="M722.275 382.2H727.46V387.374H722.275V382.2Z" fill="white"/>
<path opacity="0.14" d="M715.189 382.2H720.374V387.374H715.189V382.2Z" fill="white"/>
<path opacity="0.02" d="M715.189 396.341H720.374V401.514H715.189V396.341Z" fill="white"/>
<path opacity="0.06" d="M715.189 403.411H720.374V408.584H715.189V403.411Z" fill="white"/>
<path opacity="0.04" d="M715.189 424.622H720.374V429.795H715.189V424.622Z" fill="white"/>
<path opacity="0.04" d="M715.189 431.692H720.374V436.865H715.189V431.692Z" fill="white"/>
<path opacity="0.18" d="M708.102 438.762H713.287V443.936H708.102V438.762Z" fill="white"/>
<g opacity="0.7">
<path opacity="0.7" d="M693.756 322.879H699.115V449.971H693.756V322.879Z" fill="#E6E6E6"/>
<path opacity="0.7" d="M684.596 322.879H689.954V449.971H684.596V322.879Z" fill="#E6E6E6"/>
<path opacity="0.7" d="M675.263 322.879H680.621V449.971H675.263V322.879Z" fill="#E6E6E6"/>
<path opacity="0.7" d="M665.929 322.879H671.287V449.971H665.929V322.879Z" fill="#E6E6E6"/>
<path opacity="0.7" d="M656.596 322.879H661.954V449.971H656.596V322.879Z" fill="#E6E6E6"/>
</g>
<path d="M621.509 449.971H729.016L621.509 356.506V449.971Z" fill="#333333"/>
<path d="M630.67 433.417H667.658V454.11H630.67V433.417Z" fill="#4D4D4D"/>
<path d="M633.435 428.588H664.892V438.245H633.435V428.588Z" fill="#4D4D4D"/>
<path d="M637.065 431.519H661.435L652.966 417.379H645.534L637.065 431.519Z" fill="#4D4D4D"/>
<path d="M640.522 437.555H657.806V450.143H640.522V437.555Z" fill="white"/>
<path d="M638.448 442.556H659.88V445.142H638.448V442.556Z" fill="#4D4D4D"/>
<path d="M465.607 467.388C465.089 480.838 475.459 492.392 489.113 492.909C502.595 493.427 514.175 482.908 514.694 469.457C515.212 456.006 504.842 444.453 491.187 443.935C477.706 443.418 466.298 453.937 465.607 467.388Z" fill="#333333"/>
<path d="M469.755 460.662C469.41 468.422 475.459 474.975 483.237 475.32C491.015 475.665 497.582 469.629 497.928 461.869C498.274 454.109 492.224 447.556 484.447 447.211C476.669 446.866 470.101 452.902 469.755 460.662Z" fill="#4D4D4D"/>
<path d="M712.423 442.039C712.423 445.315 715.189 448.074 718.473 448.074C721.757 448.074 724.522 445.315 724.522 442.039C724.522 438.762 721.757 436.003 718.473 436.003C715.189 436.003 712.423 438.59 712.423 442.039Z" fill="#333333"/>
<path d="M710.349 448.074C710.349 452.558 713.979 456.179 718.473 456.179C722.966 456.179 726.596 452.558 726.596 448.074C726.596 443.591 722.966 439.969 718.473 439.969C713.979 439.969 710.349 443.591 710.349 448.074Z" fill="#333333"/>
<path d="M714.497 436.865C714.497 439.107 716.226 441.004 718.473 441.004C720.72 441.004 722.448 439.107 722.448 436.865C722.448 434.623 720.72 432.727 718.473 432.727C716.226 432.727 714.497 434.623 714.497 436.865Z" fill="#333333"/>
<path d="M713.287 442.039C713.287 443.936 714.843 445.488 716.744 445.488C718.645 445.488 720.201 443.936 720.201 442.039C720.201 440.142 718.645 438.59 716.744 438.59C714.843 438.59 713.287 440.142 713.287 442.039Z" fill="#4D4D4D"/>
<path d="M715.016 437.382C715.016 438.762 716.226 439.969 717.608 439.969C718.991 439.969 720.201 438.762 720.201 437.382C720.201 436.003 718.991 434.796 717.608 434.796C716.226 434.623 715.016 435.83 715.016 437.382Z" fill="#4D4D4D"/>
<path d="M597.139 454.627C597.139 458.938 600.768 462.559 605.089 462.559C609.41 462.559 613.04 458.938 613.04 454.627C613.04 450.316 609.583 446.694 605.089 446.694C600.768 446.694 597.139 450.316 597.139 454.627Z" fill="#333333"/>
<path d="M599.904 447.901C599.904 450.833 602.151 453.247 605.089 453.247C608.028 453.247 610.274 450.833 610.274 447.901C610.274 444.97 608.028 442.556 605.089 442.556C602.324 442.556 599.904 444.97 599.904 447.901Z" fill="#333333"/>
<path d="M600.595 448.419C600.595 450.316 602.151 451.868 604.052 451.868C605.954 451.868 607.509 450.316 607.509 448.419C607.509 446.522 605.954 444.97 604.052 444.97C602.151 444.97 600.595 446.522 600.595 448.419Z" fill="#4D4D4D"/>
<path d="M607.855 460.49C608.719 468.768 616.151 474.631 624.275 473.768C632.571 472.906 638.448 465.491 637.583 457.386C636.719 449.109 629.287 443.246 621.164 444.108C613.04 444.97 606.991 452.213 607.855 460.49Z" fill="#333333"/>
<path d="M611.657 447.212C612.176 452.73 617.015 456.869 622.546 456.352C627.904 455.834 631.88 450.833 631.361 445.315C630.843 439.797 626.003 435.658 620.472 436.176C614.941 436.693 611.139 441.694 611.657 447.212Z" fill="#333333"/>
<path d="M613.04 448.247C613.386 451.868 616.67 454.455 620.126 454.11C623.756 453.765 626.349 450.488 626.003 447.039C625.657 443.418 622.373 440.831 618.917 441.176C615.287 441.521 612.694 444.798 613.04 448.247Z" fill="#4D4D4D"/>
<path d="M529.558 453.248C529.558 460.835 535.608 466.871 543.213 466.871C550.818 466.871 556.867 460.835 556.867 453.248C556.867 445.66 550.818 439.625 543.213 439.625C535.78 439.625 529.558 445.66 529.558 453.248Z" fill="#333333"/>
<path d="M524.891 466.87C524.891 477.045 533.188 485.15 543.213 485.15C553.41 485.15 561.534 476.872 561.534 466.87C561.534 456.696 553.237 448.591 543.213 448.591C533.188 448.591 524.891 456.869 524.891 466.87Z" fill="#333333"/>
<path d="M534.398 441.521C534.398 446.694 538.373 450.833 543.385 450.833C548.398 450.833 552.373 446.694 552.373 441.521C552.373 436.348 548.398 432.209 543.385 432.209C538.373 432.381 534.398 436.52 534.398 441.521Z" fill="#333333"/>
<path d="M531.632 453.247C531.632 457.558 535.089 461.18 539.583 461.18C543.904 461.18 547.534 457.731 547.534 453.247C547.534 448.936 544.077 445.315 539.583 445.315C535.262 445.487 531.632 448.936 531.632 453.247Z" fill="#4D4D4D"/>
<path d="M535.608 442.728C535.608 446.005 538.2 448.764 541.657 448.764C544.941 448.764 547.706 446.177 547.706 442.728C547.706 439.452 545.114 436.865 541.657 436.865C538.2 436.693 535.608 439.452 535.608 442.728Z" fill="#4D4D4D"/>
<path d="M559.805 464.628C559.805 474.285 567.756 482.218 577.435 482.218C587.114 482.218 595.065 474.285 595.065 464.628C595.065 454.972 587.114 447.039 577.435 447.039C567.756 447.039 559.805 454.799 559.805 464.628Z" fill="#333333"/>
<path d="M565.855 449.453C565.855 456.006 571.04 461.352 577.435 461.352C583.83 461.352 589.015 456.006 589.015 449.453C589.015 442.9 583.83 437.555 577.435 437.555C571.04 437.555 565.855 442.9 565.855 449.453Z" fill="#333333"/>
<path d="M567.41 451.005C567.41 455.316 570.867 458.593 575.188 458.593C579.509 458.593 582.966 455.144 582.966 451.005C582.966 446.694 579.509 443.245 575.188 443.245C570.867 443.245 567.41 446.694 567.41 451.005Z" fill="#4D4D4D"/>
<path d="M517.114 451.523C517.114 453.592 518.669 455.144 520.57 455.144C522.472 455.144 524.027 453.592 524.027 451.523C524.027 449.453 522.472 447.901 520.57 447.901C518.669 447.901 517.114 449.453 517.114 451.523Z" fill="#333333"/>
<path d="M442.792 447.212C442.792 453.937 448.15 459.283 454.891 459.283C461.632 459.283 466.99 453.937 466.99 447.212C466.99 440.486 461.632 435.141 454.891 435.141C448.15 435.141 442.792 440.486 442.792 447.212Z" fill="#333333"/>
<path d="M438.644 459.283C438.644 468.25 445.903 475.493 454.891 475.493C463.879 475.493 471.138 468.25 471.138 459.283C471.138 450.316 463.879 443.073 454.891 443.073C445.903 443.073 438.644 450.316 438.644 459.283Z" fill="#333333"/>
<path d="M446.94 436.865C446.94 441.349 450.57 445.143 454.891 445.143C459.212 445.143 462.842 441.521 462.842 436.865C462.842 432.382 459.212 428.588 454.891 428.588C450.57 428.588 446.94 432.382 446.94 436.865Z" fill="#333333"/>
<path d="M444.693 447.212C444.693 451.006 447.805 454.11 451.607 454.11C455.41 454.11 458.521 451.006 458.521 447.212C458.521 443.418 455.41 440.314 451.607 440.314C447.805 440.314 444.693 443.418 444.693 447.212Z" fill="#4D4D4D"/>
<path d="M447.977 437.9C447.977 440.831 450.397 443.246 453.335 443.246C456.274 443.246 458.693 440.831 458.693 437.9C458.693 434.968 456.274 432.554 453.335 432.554C450.397 432.554 447.977 434.968 447.977 437.9Z" fill="#4D4D4D"/>
<path d="M397.681 462.387C397.681 471.354 404.94 478.597 413.928 478.597C422.916 478.597 430.175 471.354 430.175 462.387C430.175 453.42 422.916 446.177 413.928 446.177C404.94 446.35 397.681 453.592 397.681 462.387Z" fill="#333333"/>
<path d="M403.385 448.592C403.385 454.627 408.224 459.628 413.928 459.628C419.805 459.628 424.644 454.8 424.644 448.592C424.644 442.556 419.805 437.728 413.928 437.728C408.051 437.728 403.385 442.556 403.385 448.592Z" fill="#333333"/>
<path d="M404.767 449.971C404.767 453.937 407.878 457.041 411.854 457.041C415.829 457.041 418.94 453.937 418.94 449.971C418.94 446.005 415.829 442.901 411.854 442.901C407.878 442.901 404.767 446.005 404.767 449.971Z" fill="#4D4D4D"/>
<path d="M133.235 468.94C133.235 483.77 145.161 495.669 160.025 495.669C174.89 495.669 186.816 483.77 186.816 468.94C186.816 454.11 174.89 442.211 160.025 442.211C145.161 442.211 133.235 454.282 133.235 468.94Z" fill="#333333"/>
<path d="M137.21 461.525C137.21 469.975 144.124 476.872 152.593 476.872C161.062 476.872 167.976 469.975 167.976 461.525C167.976 453.075 161.062 446.177 152.593 446.177C144.124 446.177 137.21 453.075 137.21 461.525Z" fill="#4D4D4D"/>
<path d="M98.8398 457.386C98.8398 469.802 109.037 479.976 121.482 479.976C133.926 479.976 144.124 469.802 144.124 457.386C144.124 444.97 133.926 434.796 121.482 434.796C108.865 434.796 98.8398 444.798 98.8398 457.386Z" fill="#333333"/>
<path d="M102.297 451.006C102.297 458.248 108.173 463.939 115.26 463.939C122.519 463.939 128.223 458.076 128.223 451.006C128.223 443.935 122.346 438.072 115.26 438.072C108.173 438.072 102.297 443.935 102.297 451.006Z" fill="#4D4D4D"/>
<path d="M156.568 461.007C156.568 473.423 166.766 483.598 179.211 483.598C191.655 483.598 201.853 473.423 201.853 461.007C201.853 448.591 191.655 438.417 179.211 438.417C166.593 438.417 156.568 448.419 156.568 461.007Z" fill="#333333"/>
<path d="M160.025 454.627C160.025 461.869 165.902 467.56 172.988 467.56C180.075 467.56 185.951 461.697 185.951 454.627C185.951 447.384 180.075 441.693 172.988 441.693C165.902 441.693 160.025 447.384 160.025 454.627Z" fill="#4D4D4D"/>
<path d="M226.396 466.181C226.396 478.597 236.594 488.771 249.038 488.771C261.483 488.771 271.68 478.597 271.68 466.181C271.68 453.765 261.483 443.591 249.038 443.591C236.421 443.591 226.396 453.765 226.396 466.181Z" fill="#333333"/>
<path d="M229.853 459.8C229.853 467.043 235.729 472.734 242.816 472.734C250.075 472.734 255.779 466.871 255.779 459.8C255.779 452.558 249.902 446.867 242.816 446.867C235.729 446.867 229.853 452.73 229.853 459.8Z" fill="#4D4D4D"/>
<path d="M253.705 462.387C253.705 474.803 263.902 484.977 276.347 484.977C288.792 484.977 298.989 474.803 298.989 462.387C298.989 449.971 288.792 439.797 276.347 439.797C263.902 439.797 253.705 449.799 253.705 462.387Z" fill="#333333"/>
<path d="M257.162 456.007C257.162 463.25 263.038 468.94 270.125 468.94C277.384 468.94 283.088 463.077 283.088 456.007C283.088 448.764 277.211 443.074 270.125 443.074C263.038 443.074 257.162 448.764 257.162 456.007Z" fill="#4D4D4D"/>
<path d="M236.075 458.765C236.075 466.008 241.952 471.699 249.038 471.699C256.298 471.699 262.001 465.836 262.001 458.765C262.001 451.523 256.125 445.832 249.038 445.832C241.779 445.832 236.075 451.695 236.075 458.765Z" fill="#4D4D4D"/>
<path d="M332.693 459.8C332.693 467.905 339.261 474.63 347.557 474.63C355.681 474.63 362.421 468.077 362.421 459.8C362.421 451.695 355.853 444.97 347.557 444.97C339.261 445.142 332.693 451.695 332.693 459.8Z" fill="#333333"/>
<path d="M334.94 455.661C334.94 460.317 338.742 464.111 343.409 464.111C348.076 464.111 351.878 460.317 351.878 455.661C351.878 451.005 348.076 447.211 343.409 447.211C338.742 447.211 334.94 451.005 334.94 455.661Z" fill="#4D4D4D"/>
<path d="M721.065 448.074C721.065 454.971 726.596 460.49 733.51 460.49C740.423 460.49 745.954 454.971 745.954 448.074C745.954 441.176 740.423 435.658 733.51 435.658C726.769 435.485 721.065 441.176 721.065 448.074Z" fill="#333333"/>
<path d="M716.917 460.49C716.917 469.802 724.349 477.217 733.683 477.217C743.016 477.217 750.448 469.802 750.448 460.49C750.448 451.178 743.016 443.763 733.683 443.763C724.349 443.763 716.917 451.178 716.917 460.49Z" fill="#333333"/>
<path d="M725.386 437.382C725.386 442.038 729.016 445.832 733.683 445.832C738.177 445.832 741.979 442.038 741.979 437.382C741.979 432.726 738.349 428.933 733.683 428.933C729.016 428.933 725.386 432.726 725.386 437.382Z" fill="#333333"/>
<path d="M722.967 448.074C722.967 452.04 726.251 455.316 730.226 455.316C734.201 455.316 737.485 452.04 737.485 448.074C737.485 444.108 734.201 440.831 730.226 440.831C726.251 440.831 722.967 444.108 722.967 448.074Z" fill="#4D4D4D"/>
<path d="M726.423 438.417C726.423 441.349 728.843 443.935 731.954 443.935C734.893 443.935 737.485 441.521 737.485 438.417C737.485 435.486 735.065 432.899 731.954 432.899C729.016 432.899 726.423 435.313 726.423 438.417Z" fill="#4D4D4D"/>
<path d="M662.127 452.903C662.127 458.421 666.621 462.904 672.152 462.904C677.682 462.904 682.176 458.421 682.176 452.903C682.176 447.384 677.682 442.901 672.152 442.901C666.621 442.901 662.127 447.384 662.127 452.903Z" fill="#333333"/>
<path d="M665.583 444.281C665.583 448.074 668.522 451.178 672.151 451.178C675.781 451.178 678.719 448.074 678.719 444.281C678.719 440.487 675.781 437.383 672.151 437.383C668.522 437.555 665.583 440.487 665.583 444.281Z" fill="#333333"/>
<path d="M663.682 452.903C663.682 456.179 666.275 458.766 669.559 458.766C672.843 458.766 675.435 456.179 675.435 452.903C675.435 449.799 672.843 447.212 669.559 447.212C666.275 447.04 663.682 449.626 663.682 452.903Z" fill="#4D4D4D"/>
<path d="M666.448 445.143C666.448 447.557 668.349 449.454 670.769 449.454C673.189 449.454 675.09 447.557 675.09 445.143C675.09 442.729 673.189 440.832 670.769 440.832C668.349 440.659 666.448 442.729 666.448 445.143Z" fill="#4D4D4D"/>
</svg>
