<svg width="729" height="449" fill="none" xmlns="http://www.w3.org/2000/svg"><path d="M472.694 318.568h57.037v133.3h-57.037v-133.3z" fill="#333"/><path d="M503.805 311.843h25.926v7.588h-25.926v-7.588zm10.889-4.311h15.037v4.311h-15.037v-4.311z" fill="#333"/><path opacity=".06" d="M496.546 327.881h9.333v6.898h-9.333v-6.898z" fill="#fff"/><path opacity=".12" d="M496.546 344.953h9.333v6.897h-9.333v-6.897z" fill="#fff"/><path opacity=".19" d="M496.546 379.097h9.333v6.897h-9.333v-6.897z" fill="#fff"/><path opacity=".14" d="M496.546 413.241h9.333v6.898h-9.333v-6.898z" fill="#fff"/><path opacity=".1" d="M496.546 430.312h9.333v6.898h-9.333v-6.898z" fill="#fff"/><path d="M615.805 333.053h78.124v71.392h-78.124v-71.392z" fill="#333"/><path d="M628.077 326.673h53.408v30.695h-53.408v-30.695zm-17.975 51.388h78.124v71.392h-78.124v-71.392z" fill="#333"/><path d="M622.546 371.681h53.408v30.695h-53.408v-30.695zm-116.494-3.104h78.124v82.256h-78.124v-82.256z" fill="#333"/><path d="M518.323 361.334h53.408v35.524h-53.408v-35.524zm-273.779 32.248h78.124v79.497h-78.124v-79.497z" fill="#333"/><path d="M256.816 386.512h53.408v34.316h-53.408v-34.316zm157.112-157.097h87.284v221.246h-87.284V229.415z" fill="#333"/><path opacity=".46" d="M475.805 239.417h21.086v3.966h-21.086v-3.966z" fill="#E6E6E6"/><path opacity=".34" d="M446.94 239.417h21.087v3.966H446.94v-3.966z" fill="#E6E6E6"/><path opacity=".52" d="M418.249 239.417h21.086v3.966h-21.086v-3.966z" fill="#E6E6E6"/><path opacity=".54" d="M475.805 248.556h21.086v3.966h-21.086v-3.966z" fill="#E6E6E6"/><path opacity=".3" d="M446.94 248.556h21.087v3.966H446.94v-3.966z" fill="#E6E6E6"/><path opacity=".06" d="M418.249 248.556h21.086v3.966h-21.086v-3.966z" fill="#E6E6E6"/><path opacity=".15" d="M475.805 257.696h21.086v3.966h-21.086v-3.966z" fill="#E6E6E6"/><path opacity=".42" d="M446.94 257.696h21.087v3.966H446.94v-3.966z" fill="#E6E6E6"/><path opacity=".48" d="M418.249 257.696h21.086v3.966h-21.086v-3.966z" fill="#E6E6E6"/><path opacity=".18" d="M475.805 266.835h21.086v3.966h-21.086v-3.966z" fill="#E6E6E6"/><path opacity=".28" d="M418.249 266.835h21.086v3.966h-21.086v-3.966z" fill="#E6E6E6"/><path opacity=".29" d="M475.805 275.975h21.086v3.966h-21.086v-3.966z" fill="#E6E6E6"/><path opacity=".28" d="M446.94 275.975h21.087v3.966H446.94v-3.966z" fill="#E6E6E6"/><path opacity=".56" d="M418.249 275.975h21.086v3.966h-21.086v-3.966z" fill="#E6E6E6"/><path opacity=".41" d="M475.805 285.114h21.086v3.966h-21.086v-3.966z" fill="#E6E6E6"/><path opacity=".16" d="M446.94 285.114h21.087v3.966H446.94v-3.966z" fill="#E6E6E6"/><path opacity=".4" d="M418.249 285.114h21.086v3.966h-21.086v-3.966z" fill="#E6E6E6"/><path opacity=".1" d="M475.805 294.254h21.086v3.966h-21.086v-3.966z" fill="#E6E6E6"/><path opacity=".17" d="M446.94 294.254h21.087v3.966H446.94v-3.966z" fill="#E6E6E6"/><path opacity=".08" d="M418.249 294.254h21.086v3.966h-21.086v-3.966z" fill="#E6E6E6"/><path opacity=".49" d="M475.805 303.394h21.086v3.966h-21.086v-3.966z" fill="#E6E6E6"/><path opacity=".58" d="M446.94 303.394h21.087v3.966H446.94v-3.966zm-28.691 0h21.086v3.966h-21.086v-3.966z" fill="#E6E6E6"/><path opacity=".26" d="M475.805 312.533h21.086v3.966h-21.086v-3.966z" fill="#E6E6E6"/><path opacity=".37" d="M446.94 312.533h21.087v3.966H446.94v-3.966z" fill="#E6E6E6"/><path opacity=".34" d="M418.249 312.533h21.086v3.966h-21.086v-3.966z" fill="#E6E6E6"/><path opacity=".55" d="M475.805 321.672h21.086v3.966h-21.086v-3.966z" fill="#E6E6E6"/><path opacity=".12" d="M446.94 321.672h21.087v3.966H446.94v-3.966z" fill="#E6E6E6"/><path opacity=".6" d="M418.249 321.672h21.086v3.966h-21.086v-3.966z" fill="#E6E6E6"/><path opacity=".02" d="M475.805 330.812h21.086v3.966h-21.086v-3.966z" fill="#E6E6E6"/><path opacity=".28" d="M446.94 330.812h21.087v3.966H446.94v-3.966z" fill="#E6E6E6"/><path opacity=".21" d="M418.249 330.812h21.086v3.966h-21.086v-3.966z" fill="#E6E6E6"/><path opacity=".57" d="M475.805 339.952h21.086v3.966h-21.086v-3.966z" fill="#E6E6E6"/><path opacity=".38" d="M446.94 339.952h21.087v3.966H446.94v-3.966z" fill="#E6E6E6"/><path opacity=".25" d="M418.249 339.952h21.086v3.966h-21.086v-3.966z" fill="#E6E6E6"/><path opacity=".15" d="M475.805 349.091h21.086v3.966h-21.086v-3.966z" fill="#E6E6E6"/><path opacity=".47" d="M446.94 349.091h21.087v3.966H446.94v-3.966z" fill="#E6E6E6"/><path opacity=".3" d="M418.249 349.091h21.086v3.966h-21.086v-3.966z" fill="#E6E6E6"/><path opacity=".4" d="M475.805 358.23h21.086v3.967h-21.086v-3.967z" fill="#E6E6E6"/><path opacity=".39" d="M446.94 358.23h21.087v3.967H446.94v-3.967z" fill="#E6E6E6"/><path opacity=".24" d="M418.249 358.23h21.086v3.967h-21.086v-3.967z" fill="#E6E6E6"/><path opacity=".46" d="M475.805 367.37h21.086v3.966h-21.086v-3.966z" fill="#E6E6E6"/><path opacity=".22" d="M446.94 367.37h21.087v3.966H446.94v-3.966z" fill="#E6E6E6"/><path opacity=".11" d="M418.249 367.37h21.086v3.966h-21.086v-3.966zm28.691 9.14h21.087v3.966H446.94v-3.966z" fill="#E6E6E6"/><path opacity=".02" d="M418.249 376.51h21.086v3.966h-21.086v-3.966z" fill="#E6E6E6"/><path opacity=".27" d="M475.805 385.649h21.086v3.967h-21.086v-3.967z" fill="#E6E6E6"/><path opacity=".21" d="M446.94 385.649h21.087v3.967H446.94v-3.967z" fill="#E6E6E6"/><path opacity=".49" d="M418.249 385.649h21.086v3.967h-21.086v-3.967z" fill="#E6E6E6"/><path opacity=".6" d="M475.805 394.789h21.086v3.966h-21.086v-3.966z" fill="#E6E6E6"/><path opacity=".31" d="M446.94 394.789h21.087v3.966H446.94v-3.966z" fill="#E6E6E6"/><path opacity=".22" d="M418.249 394.789h21.086v3.966h-21.086v-3.966z" fill="#E6E6E6"/><path opacity=".54" d="M475.805 403.928h21.086v3.967h-21.086v-3.967z" fill="#E6E6E6"/><path opacity=".6" d="M446.94 403.928h21.087v3.967H446.94v-3.967z" fill="#E6E6E6"/><path opacity=".08" d="M418.249 403.928h21.086v3.967h-21.086v-3.967z" fill="#E6E6E6"/><path opacity=".55" d="M446.94 413.068h21.087v3.966H446.94v-3.966z" fill="#E6E6E6"/><path d="M418.249 413.068h21.086v3.966h-21.086v-3.966z" fill="#E6E6E6"/><path opacity=".6" d="M474.423 239.417h1.382v177.617h-1.382V239.417zm-35.087 0h1.382v177.617h-1.382V239.417z" fill="#E6E6E6"/><path d="M370.372 229.415h43.556v221.246h-43.556V229.415z" fill="#4D4D4D"/><path opacity=".69" d="M376.767 239.417h32.84v3.966h-32.84v-3.966z" fill="#E6E6E6"/><path opacity=".79" d="M376.767 248.556h32.84v3.966h-32.84v-3.966z" fill="#E6E6E6"/><path opacity=".19" d="M376.767 257.696h32.84v3.966h-32.84v-3.966z" fill="#E6E6E6"/><path opacity=".88" d="M376.767 266.835h32.84v3.966h-32.84v-3.966z" fill="#E6E6E6"/><path opacity=".5" d="M376.767 275.975h32.84v3.966h-32.84v-3.966z" fill="#E6E6E6"/><path opacity=".25" d="M376.767 285.114h32.84v3.966h-32.84v-3.966z" fill="#E6E6E6"/><path opacity=".91" d="M376.767 294.254h32.84v3.966h-32.84v-3.966z" fill="#E6E6E6"/><path opacity=".02" d="M376.767 303.394h32.84v3.966h-32.84v-3.966z" fill="#E6E6E6"/><path opacity=".53" d="M376.767 312.533h32.84v3.966h-32.84v-3.966z" fill="#E6E6E6"/><path opacity=".65" d="M376.767 321.672h32.84v3.966h-32.84v-3.966z" fill="#E6E6E6"/><path d="M376.767 330.812h32.84v3.966h-32.84v-3.966z" fill="#E6E6E6"/><path opacity=".8" d="M376.767 339.952h32.84v3.966h-32.84v-3.966z" fill="#E6E6E6"/><path opacity=".82" d="M376.767 349.091h32.84v3.966h-32.84v-3.966z" fill="#E6E6E6"/><path opacity=".75" d="M376.767 358.23h32.84v3.967h-32.84v-3.967z" fill="#E6E6E6"/><path opacity=".31" d="M376.767 367.37h32.84v3.966h-32.84v-3.966z" fill="#E6E6E6"/><path opacity=".22" d="M376.767 376.51h32.84v3.966h-32.84v-3.966z" fill="#E6E6E6"/><path opacity=".43" d="M376.767 385.649h32.84v3.967h-32.84v-3.967z" fill="#E6E6E6"/><path opacity=".68" d="M376.767 394.789h32.84v3.966h-32.84v-3.966z" fill="#E6E6E6"/><path opacity=".38" d="M376.767 403.928h32.84v3.967h-32.84v-3.967z" fill="#E6E6E6"/><path opacity=".84" d="M376.767 413.068h32.84v3.966h-32.84v-3.966z" fill="#E6E6E6"/><path d="M485.829 217.688v11.727h-56.518v-11.727h56.518zm-12.617 7.933h5.877v-3.966h-5.877v3.966zm-9.16 0h5.703v-3.966h-5.703v3.966zm-9.334 0h5.704v-3.966h-5.704v3.966zm-9.333 0h5.876v-3.966h-5.876v3.966zm-9.334 0h5.877v-3.966h-5.877v3.966zm-17.111-3.966h1.556v3.966h-1.556v-3.966z" fill="#333"/><path d="M429.311 217.688v11.727h-26.618v-11.727h26.618zm-10.371 7.933h5.704v-3.966h-5.704v3.966zm-12.272 0h5.704v-3.966h-5.704v3.966z" fill="#4D4D4D"/><path d="M406.841 221.655h1.556v3.966h-1.556v-3.966zm-4.493 244.008h117.531l-117.531-86.567v86.567z" fill="#333"/><path d="M577.608 182.51h9.506v36.041h-9.506V182.51z" fill="#4D4D4D"/><path d="M586.941 182.51h9.679v36.041h-9.679V182.51z" fill="#333"/><path d="M567.756 182.51h9.679v36.041h-9.679V182.51zm-28 60.7h26.963v205.554h-26.963V243.21z" fill="#666"/><path d="M598.348 243.21h23.507v205.554h-23.507V243.21z" fill="#333"/><path d="M566.719 243.21h31.802v205.554h-31.802V243.21z" fill="#4D4D4D"/><path opacity=".6" d="M615.114 249.246h3.457v196.759h-3.457V249.246zm-6.741 0h3.457v196.759h-3.457V249.246zm-6.74 0h3.456v196.759h-3.456V249.246z" fill="#E6E6E6"/><path d="M561.361 249.246h3.457v196.759h-3.457V249.246zm-6.741 0h3.457v196.759h-3.457V249.246zm-13.136 0h3.457v196.759h-3.457V249.246zm6.395 0h3.457v196.759h-3.457V249.246z" fill="#E6E6E6"/><path opacity=".8" d="M594.546 446.005h-23.852V249.246h23.852v196.759zm-3.802-193.311h-16.247v189.862h16.247V252.694z" fill="#E6E6E6"/><path opacity=".8" d="M587.633 439.279h-10.198V255.798h10.198v183.481zm-3.457-179.17h-3.284v174.859h3.284V260.109z" fill="#E6E6E6"/><path opacity=".8" d="M582.275 260.109h.691v174.859h-.691V260.109z" fill="#E6E6E6"/><path d="M570.348 207.169H594.2v36.041h-23.852v-36.041z" fill="#4D4D4D"/><path d="M570.348 207.169H594.2v36.041h-23.852v-36.041z" fill="#4D4D4D"/><path d="M546.496 207.169h23.852v36.041h-23.852v-36.041z" fill="#666"/><path d="M594.2 207.169h23.852v36.041H594.2v-36.041z" fill="#333"/><path d="M567.929 182.51h28.691l-9.506 6.553h-9.679l-9.506-6.553z" fill="gray"/><path d="M55.111 169.231h13.827v40.525H55.111v-40.525z" fill="#4D4D4D"/><path d="M69.111 169.231H82.94v40.525H69.11v-40.525z" fill="#333"/><path d="M41.284 169.231H55.11v40.525H41.284v-40.525zM.494 237.692h39.061v231.593H.494V237.692z" fill="#666"/><path d="M85.531 237.692h33.877v231.593H85.531V237.692z" fill="#333"/><path d="M39.556 237.692H85.53v231.593H39.555V237.692z" fill="#4D4D4D"/><path opacity=".4" d="M109.729 244.59h5.012v221.591h-5.012V244.59zm-9.852 0h5.012v221.591h-5.012V244.59zm-9.852 0h5.012v221.591h-5.012V244.59z" fill="#E6E6E6"/><path d="M31.778 244.59h5.012v221.591h-5.012V244.59zm-9.852 0h5.012v221.591h-5.012V244.59zm-18.84 0H8.1v221.591H3.086V244.59zm9.161 0h5.012v221.591h-5.012V244.59zm67.408 221.591H45.086V244.59h34.569v221.591zm-5.358-217.797H50.79v214.003h23.507V248.384z" fill="#E6E6E6"/><path d="M69.975 458.766H55.111V252.005h14.864v206.761zM64.79 256.833h-4.666v197.104h4.666V256.833z" fill="#E6E6E6"/><path d="M62.025 256.833h.864v197.104h-.864V256.833z" fill="#E6E6E6"/><path d="M44.74 197.167h34.57v40.525H44.741v-40.525z" fill="#4D4D4D"/><path d="M44.74 197.167h34.57v40.525H44.741v-40.525z" fill="#4D4D4D"/><path d="M10.173 197.167H44.74v40.525H10.173v-40.525z" fill="#666"/><path d="M79.136 197.167h34.568v40.525H79.136v-40.525z" fill="#333"/><path d="M41.111 169.231H82.94l-14 7.416H55.11l-14-7.416z" fill="gray"/><path d="M154.84 269.766h94.544v31.385H154.84v-31.385z" fill="#E6E6E6"/><path d="M212.223 269.766h37.161v31.385h-37.161v-31.385z" fill="#B3B3B3"/><path d="M212.223 301.323h73.457v152.441h-73.457V301.323z" fill="#333"/><path d="M97.457 301.323h114.766v152.441H97.457V301.323z" fill="#4D4D4D"/><path d="M221.211 285.803h56.519v15.52h-56.519v-15.52z" fill="#333"/><path d="M114.568 285.803h80.717v15.52h-80.717v-15.52z" fill="#4D4D4D"/><path d="M179.902 257.867h32.321v11.899h-32.321v-11.899z" fill="#E6E6E6"/><path d="M196.149 245.796h16.074v11.899h-16.074v-11.899z" fill="#4D4D4D"/><path d="M212.396 245.796h16.074v11.899h-16.074v-11.899z" fill="#333"/><path d="M212.223 257.867h24.716v11.899h-24.716v-11.899z" fill="#B3B3B3"/><path d="M213.26 245.796l-1.037-27.591-.864 27.591h1.901z" fill="#333"/><path opacity=".12" d="M262.52 307.531h6.049v6.036h-6.049v-6.036z" fill="#fff"/><path opacity=".25" d="M254.223 307.531h6.05v6.036h-6.05v-6.036z" fill="#fff"/><path opacity=".36" d="M245.927 307.531h6.05v6.036h-6.05v-6.036z" fill="#fff"/><path opacity=".12" d="M237.631 307.531h6.049v6.036h-6.049v-6.036z" fill="#fff"/><path opacity=".14" d="M229.334 307.531h6.05v6.036h-6.05v-6.036z" fill="#fff"/><path opacity=".28" d="M262.52 315.464h6.049v6.035h-6.049v-6.035z" fill="#fff"/><path opacity=".4" d="M254.223 315.464h6.05v6.035h-6.05v-6.035z" fill="#fff"/><path opacity=".16" d="M245.927 315.464h6.05v6.035h-6.05v-6.035z" fill="#fff"/><path opacity=".17" d="M229.334 315.464h6.05v6.035h-6.05v-6.035z" fill="#fff"/><path opacity=".27" d="M262.52 323.396h6.049v6.036h-6.049v-6.036z" fill="#fff"/><path opacity=".45" d="M254.223 323.396h6.05v6.036h-6.05v-6.036zm-8.296 0h6.05v6.036h-6.05v-6.036z" fill="#fff"/><path opacity=".48" d="M237.631 323.396h6.049v6.036h-6.049v-6.036z" fill="#fff"/><path opacity=".25" d="M229.334 323.396h6.05v6.036h-6.05v-6.036z" fill="#fff"/><path opacity=".28" d="M262.52 331.329h6.049v6.035h-6.049v-6.035z" fill="#fff"/><path opacity=".13" d="M254.223 331.329h6.05v6.035h-6.05v-6.035z" fill="#fff"/><path opacity=".07" d="M245.927 331.329h6.05v6.035h-6.05v-6.035z" fill="#fff"/><path opacity=".39" d="M237.631 331.329h6.049v6.035h-6.049v-6.035z" fill="#fff"/><path opacity=".47" d="M229.334 331.329h6.05v6.035h-6.05v-6.035z" fill="#fff"/><path opacity=".28" d="M262.52 339.261h6.049v6.035h-6.049v-6.035z" fill="#fff"/><path opacity=".2" d="M254.223 339.261h6.05v6.035h-6.05v-6.035z" fill="#fff"/><path opacity=".04" d="M245.927 339.261h6.05v6.035h-6.05v-6.035z" fill="#fff"/><path opacity=".43" d="M237.631 339.261h6.049v6.035h-6.049v-6.035z" fill="#fff"/><path opacity=".48" d="M229.334 339.261h6.05v6.035h-6.05v-6.035z" fill="#fff"/><path opacity=".28" d="M262.52 347.193h6.049v6.036h-6.049v-6.036z" fill="#fff"/><path opacity=".19" d="M254.223 347.193h6.05v6.036h-6.05v-6.036z" fill="#fff"/><path opacity=".01" d="M245.927 347.193h6.05v6.036h-6.05v-6.036z" fill="#fff"/><path opacity=".27" d="M237.631 347.193h6.049v6.036h-6.049v-6.036z" fill="#fff"/><path opacity=".24" d="M229.334 347.193h6.05v6.036h-6.05v-6.036z" fill="#fff"/><path opacity=".07" d="M262.52 355.298h6.049v6.036h-6.049v-6.036z" fill="#fff"/><path opacity=".25" d="M254.223 355.298h6.05v6.036h-6.05v-6.036z" fill="#fff"/><path opacity=".26" d="M245.927 355.298h6.05v6.036h-6.05v-6.036z" fill="#fff"/><path opacity=".39" d="M237.631 355.298h6.049v6.036h-6.049v-6.036z" fill="#fff"/><path opacity=".22" d="M229.334 355.298h6.05v6.036h-6.05v-6.036z" fill="#fff"/><path opacity=".15" d="M262.52 363.231h6.049v6.036h-6.049v-6.036z" fill="#fff"/><path opacity=".23" d="M254.223 363.231h6.05v6.036h-6.05v-6.036z" fill="#fff"/><path opacity=".05" d="M245.927 363.231h6.05v6.036h-6.05v-6.036z" fill="#fff"/><path opacity=".2" d="M237.631 363.231h6.049v6.036h-6.049v-6.036z" fill="#fff"/><path opacity=".31" d="M229.334 363.231h6.05v6.036h-6.05v-6.036z" fill="#fff"/><path opacity=".15" d="M262.52 371.163h6.049v6.036h-6.049v-6.036z" fill="#fff"/><path opacity=".33" d="M254.223 371.163h6.05v6.036h-6.05v-6.036z" fill="#fff"/><path opacity=".46" d="M245.927 371.163h6.05v6.036h-6.05v-6.036z" fill="#fff"/><path opacity=".25" d="M237.631 371.163h6.049v6.036h-6.049v-6.036z" fill="#fff"/><path opacity=".43" d="M229.334 371.163h6.05v6.036h-6.05v-6.036z" fill="#fff"/><path opacity=".4" d="M262.52 379.096h6.049v6.035h-6.049v-6.035z" fill="#fff"/><path opacity=".39" d="M254.223 379.096h6.05v6.035h-6.05v-6.035z" fill="#fff"/><path opacity=".01" d="M245.927 379.096h6.05v6.035h-6.05v-6.035z" fill="#fff"/><path opacity=".12" d="M237.631 379.096h6.049v6.035h-6.049v-6.035z" fill="#fff"/><path opacity=".07" d="M229.334 379.096h6.05v6.035h-6.05v-6.035zm33.186 7.932h6.049v6.036h-6.049v-6.036z" fill="#fff"/><path opacity=".02" d="M254.223 387.028h6.05v6.036h-6.05v-6.036z" fill="#fff"/><path opacity=".12" d="M245.927 387.028h6.05v6.036h-6.05v-6.036z" fill="#fff"/><path opacity=".23" d="M237.631 387.028h6.049v6.036h-6.049v-6.036z" fill="#fff"/><path opacity=".26" d="M229.334 387.028h6.05v6.036h-6.05v-6.036z" fill="#fff"/><path opacity=".27" d="M262.52 394.961h6.049v6.035h-6.049v-6.035z" fill="#fff"/><path opacity=".38" d="M254.223 394.961h6.05v6.035h-6.05v-6.035z" fill="#fff"/><path opacity=".05" d="M245.927 394.961h6.05v6.035h-6.05v-6.035z" fill="#fff"/><path opacity=".45" d="M237.631 394.961h6.049v6.035h-6.049v-6.035z" fill="#fff"/><path opacity=".15" d="M229.334 394.961h6.05v6.035h-6.05v-6.035z" fill="#fff"/><path opacity=".06" d="M262.52 402.893h6.049v6.036h-6.049v-6.036z" fill="#fff"/><path opacity=".47" d="M254.223 402.893h6.05v6.036h-6.05v-6.036z" fill="#fff"/><path opacity=".15" d="M245.927 402.893h6.05v6.036h-6.05v-6.036z" fill="#fff"/><path opacity=".44" d="M237.631 402.893h6.049v6.036h-6.049v-6.036z" fill="#fff"/><path opacity=".14" d="M229.334 402.893h6.05v6.036h-6.05v-6.036z" fill="#fff"/><path opacity=".15" d="M262.52 410.826h6.049v6.035h-6.049v-6.035z" fill="#fff"/><path opacity=".43" d="M254.223 410.826h6.05v6.035h-6.05v-6.035z" fill="#fff"/><path opacity=".07" d="M245.927 410.826h6.05v6.035h-6.05v-6.035z" fill="#fff"/><path opacity=".47" d="M237.631 410.826h6.049v6.035h-6.049v-6.035z" fill="#fff"/><path opacity=".11" d="M229.334 410.826h6.05v6.035h-6.05v-6.035z" fill="#fff"/><path opacity=".07" d="M262.52 418.758h6.049v6.035h-6.049v-6.035z" fill="#fff"/><path opacity=".34" d="M254.223 418.758h6.05v6.035h-6.05v-6.035z" fill="#fff"/><path opacity=".5" d="M245.927 418.758h6.05v6.035h-6.05v-6.035z" fill="#fff"/><path opacity=".36" d="M237.631 418.758h6.049v6.035h-6.049v-6.035z" fill="#fff"/><path opacity=".34" d="M229.334 418.758h6.05v6.035h-6.05v-6.035z" fill="#fff"/><path opacity=".47" d="M262.52 426.69h6.049v6.036h-6.049v-6.036z" fill="#fff"/><path opacity=".41" d="M254.223 426.69h6.05v6.036h-6.05v-6.036z" fill="#fff"/><path opacity=".3" d="M245.927 426.69h6.05v6.036h-6.05v-6.036z" fill="#fff"/><path opacity=".33" d="M237.631 426.69h6.049v6.036h-6.049v-6.036z" fill="#fff"/><path opacity=".12" d="M229.334 426.69h6.05v6.036h-6.05v-6.036z" fill="#fff"/><path opacity=".24" d="M262.52 434.623h6.049v6.036h-6.049v-6.036z" fill="#fff"/><path opacity=".29" d="M254.223 434.623h6.05v6.036h-6.05v-6.036z" fill="#fff"/><path opacity=".27" d="M237.631 434.623h6.049v6.036h-6.049v-6.036z" fill="#fff"/><path opacity=".04" d="M229.334 434.623h6.05v6.036h-6.05v-6.036z" fill="#fff"/><path opacity=".11" d="M262.52 442.555h6.049v6.036h-6.049v-6.036z" fill="#fff"/><path opacity=".05" d="M254.223 442.555h6.05v6.036h-6.05v-6.036z" fill="#fff"/><path opacity=".04" d="M245.927 442.555h6.05v6.036h-6.05v-6.036z" fill="#fff"/><path opacity=".02" d="M237.631 442.555h6.049v6.036h-6.049v-6.036z" fill="#fff"/><path opacity=".3" d="M192.174 307.531h6.049v6.036h-6.049v-6.036z" fill="#fff"/><path opacity=".72" d="M184.223 307.531h6.049v6.036h-6.049v-6.036z" fill="#fff"/><path opacity=".7" d="M176.1 307.531h6.049v6.036H176.1v-6.036z" fill="#fff"/><path opacity=".52" d="M167.976 307.531h6.05v6.036h-6.05v-6.036z" fill="#fff"/><path opacity=".2" d="M159.853 307.531h6.049v6.036h-6.049v-6.036z" fill="#fff"/><path opacity=".32" d="M151.902 307.531h6.049v6.036h-6.049v-6.036z" fill="#fff"/><path opacity=".13" d="M143.779 307.531h6.049v6.036h-6.049v-6.036z" fill="#fff"/><path opacity=".38" d="M135.655 307.531h6.049v6.036h-6.049v-6.036z" fill="#fff"/><path opacity=".61" d="M127.704 307.531h6.05v6.036h-6.05v-6.036z" fill="#fff"/><path d="M119.581 307.531h6.049v6.036h-6.049v-6.036z" fill="#fff"/><path opacity=".91" d="M111.457 307.531h6.05v6.036h-6.05v-6.036z" fill="#fff"/><path opacity=".66" d="M192.174 315.464h6.049v6.035h-6.049v-6.035z" fill="#fff"/><path opacity=".31" d="M184.223 315.464h6.049v6.035h-6.049v-6.035z" fill="#fff"/><path opacity=".95" d="M176.1 315.464h6.049v6.035H176.1v-6.035z" fill="#fff"/><path opacity=".7" d="M167.976 315.464h6.05v6.035h-6.05v-6.035z" fill="#fff"/><path opacity=".12" d="M159.853 315.464h6.049v6.035h-6.049v-6.035z" fill="#fff"/><path opacity=".24" d="M151.902 315.464h6.049v6.035h-6.049v-6.035z" fill="#fff"/><path opacity=".66" d="M143.779 315.464h6.049v6.035h-6.049v-6.035z" fill="#fff"/><path opacity=".71" d="M135.655 315.464h6.049v6.035h-6.049v-6.035z" fill="#fff"/><path opacity=".42" d="M127.704 315.464h6.05v6.035h-6.05v-6.035z" fill="#fff"/><path opacity=".09" d="M119.581 315.464h6.049v6.035h-6.049v-6.035z" fill="#fff"/><path opacity=".32" d="M111.457 315.464h6.05v6.035h-6.05v-6.035z" fill="#fff"/><path opacity=".65" d="M192.174 323.396h6.049v6.036h-6.049v-6.036z" fill="#fff"/><path d="M184.223 323.396h6.049v6.036h-6.049v-6.036zm-8.123 0h6.049v6.036H176.1v-6.036z" fill="#fff"/><path opacity=".71" d="M167.976 323.396h6.05v6.036h-6.05v-6.036z" fill="#fff"/><path opacity=".2" d="M159.853 323.396h6.049v6.036h-6.049v-6.036z" fill="#fff"/><path opacity=".19" d="M151.902 323.396h6.049v6.036h-6.049v-6.036z" fill="#fff"/><path opacity=".62" d="M143.779 323.396h6.049v6.036h-6.049v-6.036z" fill="#fff"/><path opacity=".93" d="M135.655 323.396h6.049v6.036h-6.049v-6.036z" fill="#fff"/><path opacity=".56" d="M127.704 323.396h6.05v6.036h-6.05v-6.036z" fill="#fff"/><path opacity=".57" d="M119.581 323.396h6.049v6.036h-6.049v-6.036z" fill="#fff"/><path opacity=".52" d="M111.457 323.396h6.05v6.036h-6.05v-6.036z" fill="#fff"/><path opacity=".74" d="M192.174 331.329h6.049v6.035h-6.049v-6.035z" fill="#fff"/><path opacity=".56" d="M184.223 331.329h6.049v6.035h-6.049v-6.035z" fill="#fff"/><path opacity=".78" d="M176.1 331.329h6.049v6.035H176.1v-6.035z" fill="#fff"/><path opacity=".41" d="M167.976 331.329h6.05v6.035h-6.05v-6.035z" fill="#fff"/><path opacity=".14" d="M159.853 331.329h6.049v6.035h-6.049v-6.035z" fill="#fff"/><path opacity=".28" d="M151.902 331.329h6.049v6.035h-6.049v-6.035z" fill="#fff"/><path opacity=".36" d="M143.779 331.329h6.049v6.035h-6.049v-6.035z" fill="#fff"/><path opacity=".14" d="M135.655 331.329h6.049v6.035h-6.049v-6.035z" fill="#fff"/><path opacity=".5" d="M127.704 331.329h6.05v6.035h-6.05v-6.035z" fill="#fff"/><path opacity=".98" d="M119.581 331.329h6.049v6.035h-6.049v-6.035z" fill="#fff"/><path opacity=".59" d="M111.457 331.329h6.05v6.035h-6.05v-6.035z" fill="#fff"/><path opacity=".07" d="M192.174 339.261h6.049v6.035h-6.049v-6.035z" fill="#fff"/><path opacity=".1" d="M184.223 339.261h6.049v6.035h-6.049v-6.035z" fill="#fff"/><path opacity=".88" d="M176.1 339.261h6.049v6.035H176.1v-6.035z" fill="#fff"/><path opacity=".68" d="M167.976 339.261h6.05v6.035h-6.05v-6.035z" fill="#fff"/><path opacity=".81" d="M159.853 339.261h6.049v6.035h-6.049v-6.035z" fill="#fff"/><path opacity=".62" d="M151.902 339.261h6.049v6.035h-6.049v-6.035z" fill="#fff"/><path opacity=".97" d="M143.779 339.261h6.049v6.035h-6.049v-6.035z" fill="#fff"/><path opacity=".81" d="M135.655 339.261h6.049v6.035h-6.049v-6.035z" fill="#fff"/><path opacity=".79" d="M127.704 339.261h6.05v6.035h-6.05v-6.035z" fill="#fff"/><path opacity=".03" d="M119.581 339.261h6.049v6.035h-6.049v-6.035z" fill="#fff"/><path opacity=".95" d="M111.457 339.261h6.05v6.035h-6.05v-6.035z" fill="#fff"/><path opacity=".62" d="M192.174 347.193h6.049v6.036h-6.049v-6.036z" fill="#fff"/><path opacity=".22" d="M184.223 347.193h6.049v6.036h-6.049v-6.036z" fill="#fff"/><path opacity=".42" d="M176.1 347.193h6.049v6.036H176.1v-6.036z" fill="#fff"/><path opacity=".56" d="M167.976 347.193h6.05v6.036h-6.05v-6.036z" fill="#fff"/><path opacity=".03" d="M159.853 347.193h6.049v6.036h-6.049v-6.036z" fill="#fff"/><path opacity=".64" d="M151.902 347.193h6.049v6.036h-6.049v-6.036z" fill="#fff"/><path opacity=".82" d="M143.779 347.193h6.049v6.036h-6.049v-6.036z" fill="#fff"/><path opacity=".52" d="M135.655 347.193h6.049v6.036h-6.049v-6.036z" fill="#fff"/><path opacity=".46" d="M127.704 347.193h6.05v6.036h-6.05v-6.036z" fill="#fff"/><path opacity=".27" d="M119.581 347.193h6.049v6.036h-6.049v-6.036z" fill="#fff"/><path opacity=".46" d="M111.457 347.193h6.05v6.036h-6.05v-6.036z" fill="#fff"/><path opacity=".66" d="M192.174 355.298h6.049v6.036h-6.049v-6.036z" fill="#fff"/><path opacity=".7" d="M184.223 355.298h6.049v6.036h-6.049v-6.036z" fill="#fff"/><path opacity=".94" d="M176.1 355.298h6.049v6.036H176.1v-6.036z" fill="#fff"/><path opacity=".5" d="M167.976 355.298h6.05v6.036h-6.05v-6.036z" fill="#fff"/><path opacity=".12" d="M159.853 355.298h6.049v6.036h-6.049v-6.036z" fill="#fff"/><path opacity=".36" d="M151.902 355.298h6.049v6.036h-6.049v-6.036z" fill="#fff"/><path opacity=".51" d="M143.779 355.298h6.049v6.036h-6.049v-6.036z" fill="#fff"/><path opacity=".37" d="M135.655 355.298h6.049v6.036h-6.049v-6.036z" fill="#fff"/><path opacity=".66" d="M127.704 355.298h6.05v6.036h-6.05v-6.036z" fill="#fff"/><path opacity=".42" d="M119.581 355.298h6.049v6.036h-6.049v-6.036z" fill="#fff"/><path opacity=".5" d="M111.457 355.298h6.05v6.036h-6.05v-6.036z" fill="#fff"/><path opacity=".52" d="M192.174 363.231h6.049v6.036h-6.049v-6.036z" fill="#fff"/><path opacity=".61" d="M184.223 363.231h6.049v6.036h-6.049v-6.036z" fill="#fff"/><path opacity=".84" d="M176.1 363.231h6.049v6.036H176.1v-6.036z" fill="#fff"/><path opacity=".89" d="M167.976 363.231h6.05v6.036h-6.05v-6.036z" fill="#fff"/><path opacity=".33" d="M159.853 363.231h6.049v6.036h-6.049v-6.036z" fill="#fff"/><path opacity=".25" d="M151.902 363.231h6.049v6.036h-6.049v-6.036z" fill="#fff"/><path opacity=".95" d="M143.779 363.231h6.049v6.036h-6.049v-6.036z" fill="#fff"/><path opacity=".09" d="M135.655 363.231h6.049v6.036h-6.049v-6.036z" fill="#fff"/><path opacity=".44" d="M127.704 363.231h6.05v6.036h-6.05v-6.036z" fill="#fff"/><path opacity=".51" d="M119.581 363.231h6.049v6.036h-6.049v-6.036z" fill="#fff"/><path opacity=".97" d="M111.457 363.231h6.05v6.036h-6.05v-6.036z" fill="#fff"/><path opacity=".26" d="M192.174 371.163h6.049v6.036h-6.049v-6.036z" fill="#fff"/><path opacity=".92" d="M184.223 371.163h6.049v6.036h-6.049v-6.036z" fill="#fff"/><path opacity=".33" d="M176.1 371.163h6.049v6.036H176.1v-6.036z" fill="#fff"/><path opacity=".23" d="M167.976 371.163h6.05v6.036h-6.05v-6.036z" fill="#fff"/><path opacity=".42" d="M159.853 371.163h6.049v6.036h-6.049v-6.036z" fill="#fff"/><path opacity=".57" d="M151.902 371.163h6.049v6.036h-6.049v-6.036z" fill="#fff"/><path opacity=".73" d="M143.779 371.163h6.049v6.036h-6.049v-6.036z" fill="#fff"/><path opacity=".87" d="M135.655 371.163h6.049v6.036h-6.049v-6.036z" fill="#fff"/><path opacity=".22" d="M127.704 371.163h6.05v6.036h-6.05v-6.036z" fill="#fff"/><path opacity=".89" d="M119.581 371.163h6.049v6.036h-6.049v-6.036z" fill="#fff"/><path opacity=".73" d="M111.457 371.163h6.05v6.036h-6.05v-6.036z" fill="#fff"/><path opacity=".35" d="M192.174 379.096h6.049v6.035h-6.049v-6.035z" fill="#fff"/><path opacity=".81" d="M184.223 379.096h6.049v6.035h-6.049v-6.035z" fill="#fff"/><path opacity=".56" d="M176.1 379.096h6.049v6.035H176.1v-6.035z" fill="#fff"/><path opacity=".81" d="M167.976 379.096h6.05v6.035h-6.05v-6.035z" fill="#fff"/><path opacity=".87" d="M159.853 379.096h6.049v6.035h-6.049v-6.035z" fill="#fff"/><path opacity=".39" d="M151.902 379.096h6.049v6.035h-6.049v-6.035z" fill="#fff"/><path opacity=".31" d="M143.779 379.096h6.049v6.035h-6.049v-6.035z" fill="#fff"/><path opacity=".98" d="M135.655 379.096h6.049v6.035h-6.049v-6.035z" fill="#fff"/><path opacity=".17" d="M127.704 379.096h6.05v6.035h-6.05v-6.035z" fill="#fff"/><path opacity=".06" d="M119.581 379.096h6.049v6.035h-6.049v-6.035z" fill="#fff"/><path opacity=".57" d="M111.457 379.096h6.05v6.035h-6.05v-6.035z" fill="#fff"/><path opacity=".67" d="M192.174 387.028h6.049v6.036h-6.049v-6.036z" fill="#fff"/><path opacity=".83" d="M184.223 387.028h6.049v6.036h-6.049v-6.036z" fill="#fff"/><path opacity=".99" d="M176.1 387.028h6.049v6.036H176.1v-6.036z" fill="#fff"/><path opacity=".62" d="M167.976 387.028h6.05v6.036h-6.05v-6.036z" fill="#fff"/><path opacity=".87" d="M159.853 387.028h6.049v6.036h-6.049v-6.036z" fill="#fff"/><path opacity=".14" d="M151.902 387.028h6.049v6.036h-6.049v-6.036z" fill="#fff"/><path opacity=".12" d="M143.779 387.028h6.049v6.036h-6.049v-6.036z" fill="#fff"/><path opacity=".11" d="M135.655 387.028h6.049v6.036h-6.049v-6.036z" fill="#fff"/><path opacity=".39" d="M127.704 387.028h6.05v6.036h-6.05v-6.036z" fill="#fff"/><path opacity=".58" d="M119.581 387.028h6.049v6.036h-6.049v-6.036z" fill="#fff"/><path opacity=".54" d="M111.457 387.028h6.05v6.036h-6.05v-6.036z" fill="#fff"/><path opacity=".99" d="M192.174 394.961h6.049v6.035h-6.049v-6.035z" fill="#fff"/><path opacity=".28" d="M184.223 394.961h6.049v6.035h-6.049v-6.035z" fill="#fff"/><path opacity=".78" d="M176.1 394.961h6.049v6.035H176.1v-6.035z" fill="#fff"/><path opacity=".65" d="M167.976 394.961h6.05v6.035h-6.05v-6.035z" fill="#fff"/><path opacity=".32" d="M159.853 394.961h6.049v6.035h-6.049v-6.035z" fill="#fff"/><path opacity=".55" d="M151.902 394.961h6.049v6.035h-6.049v-6.035z" fill="#fff"/><path opacity=".4" d="M143.779 394.961h6.049v6.035h-6.049v-6.035z" fill="#fff"/><path opacity=".22" d="M135.655 394.961h6.049v6.035h-6.049v-6.035z" fill="#fff"/><path opacity=".87" d="M127.704 394.961h6.05v6.035h-6.05v-6.035z" fill="#fff"/><path opacity=".02" d="M119.581 394.961h6.049v6.035h-6.049v-6.035z" fill="#fff"/><path opacity=".39" d="M111.457 394.961h6.05v6.035h-6.05v-6.035z" fill="#fff"/><path opacity=".89" d="M192.174 402.893h6.049v6.036h-6.049v-6.036z" fill="#fff"/><path opacity=".97" d="M184.223 402.893h6.049v6.036h-6.049v-6.036z" fill="#fff"/><path opacity=".79" d="M176.1 402.893h6.049v6.036H176.1v-6.036z" fill="#fff"/><path opacity=".41" d="M167.976 402.893h6.05v6.036h-6.05v-6.036z" fill="#fff"/><path opacity=".13" d="M159.853 402.893h6.049v6.036h-6.049v-6.036z" fill="#fff"/><path opacity=".9" d="M151.902 402.893h6.049v6.036h-6.049v-6.036z" fill="#fff"/><path opacity=".98" d="M143.779 402.893h6.049v6.036h-6.049v-6.036z" fill="#fff"/><path opacity=".67" d="M135.655 402.893h6.049v6.036h-6.049v-6.036z" fill="#fff"/><path opacity=".65" d="M127.704 402.893h6.05v6.036h-6.05v-6.036z" fill="#fff"/><path opacity=".89" d="M119.581 402.893h6.049v6.036h-6.049v-6.036z" fill="#fff"/><path opacity=".98" d="M111.457 402.893h6.05v6.036h-6.05v-6.036z" fill="#fff"/><path opacity=".29" d="M192.174 410.826h6.049v6.035h-6.049v-6.035z" fill="#fff"/><path opacity=".74" d="M184.223 410.826h6.049v6.035h-6.049v-6.035z" fill="#fff"/><path opacity=".64" d="M176.1 410.826h6.049v6.035H176.1v-6.035z" fill="#fff"/><path opacity=".65" d="M167.976 410.826h6.05v6.035h-6.05v-6.035z" fill="#fff"/><path opacity=".07" d="M159.853 410.826h6.049v6.035h-6.049v-6.035z" fill="#fff"/><path opacity=".16" d="M151.902 410.826h6.049v6.035h-6.049v-6.035z" fill="#fff"/><path opacity=".84" d="M143.779 410.826h6.049v6.035h-6.049v-6.035z" fill="#fff"/><path opacity=".88" d="M135.655 410.826h6.049v6.035h-6.049v-6.035z" fill="#fff"/><path opacity=".57" d="M127.704 410.826h6.05v6.035h-6.05v-6.035z" fill="#fff"/><path opacity=".31" d="M119.581 410.826h6.049v6.035h-6.049v-6.035z" fill="#fff"/><path opacity=".03" d="M111.457 410.826h6.05v6.035h-6.05v-6.035z" fill="#fff"/><path opacity=".3" d="M192.174 418.758h6.049v6.035h-6.049v-6.035z" fill="#fff"/><path opacity=".59" d="M184.223 418.758h6.049v6.035h-6.049v-6.035z" fill="#fff"/><path opacity=".93" d="M176.1 418.758h6.049v6.035H176.1v-6.035z" fill="#fff"/><path opacity=".06" d="M167.976 418.758h6.05v6.035h-6.05v-6.035z" fill="#fff"/><path opacity=".74" d="M159.853 418.758h6.049v6.035h-6.049v-6.035z" fill="#fff"/><path opacity=".22" d="M151.902 418.758h6.049v6.035h-6.049v-6.035z" fill="#fff"/><path opacity=".51" d="M143.779 418.758h6.049v6.035h-6.049v-6.035z" fill="#fff"/><path opacity=".7" d="M135.655 418.758h6.049v6.035h-6.049v-6.035z" fill="#fff"/><path opacity=".47" d="M127.704 418.758h6.05v6.035h-6.05v-6.035z" fill="#fff"/><path opacity=".08" d="M119.581 418.758h6.049v6.035h-6.049v-6.035z" fill="#fff"/><path opacity=".93" d="M111.457 418.758h6.05v6.035h-6.05v-6.035z" fill="#fff"/><path opacity=".81" d="M192.174 426.69h6.049v6.036h-6.049v-6.036z" fill="#fff"/><path opacity=".9" d="M184.223 426.69h6.049v6.036h-6.049v-6.036z" fill="#fff"/><path opacity=".55" d="M176.1 426.69h6.049v6.036H176.1v-6.036z" fill="#fff"/><path opacity=".14" d="M167.976 426.69h6.05v6.036h-6.05v-6.036z" fill="#fff"/><path opacity=".66" d="M159.853 426.69h6.049v6.036h-6.049v-6.036z" fill="#fff"/><path opacity=".92" d="M151.902 426.69h6.049v6.036h-6.049v-6.036z" fill="#fff"/><path opacity=".4" d="M143.779 426.69h6.049v6.036h-6.049v-6.036z" fill="#fff"/><path opacity=".6" d="M135.655 426.69h6.049v6.036h-6.049v-6.036z" fill="#fff"/><path opacity=".99" d="M127.704 426.69h6.05v6.036h-6.05v-6.036z" fill="#fff"/><path opacity=".68" d="M119.581 426.69h6.049v6.036h-6.049v-6.036z" fill="#fff"/><path opacity=".01" d="M111.457 426.69h6.05v6.036h-6.05v-6.036z" fill="#fff"/><path opacity=".82" d="M192.174 434.623h6.049v6.036h-6.049v-6.036z" fill="#fff"/><path opacity=".92" d="M184.223 434.623h6.049v6.036h-6.049v-6.036z" fill="#fff"/><path opacity=".29" d="M176.1 434.623h6.049v6.036H176.1v-6.036z" fill="#fff"/><path opacity=".73" d="M167.976 434.623h6.05v6.036h-6.05v-6.036z" fill="#fff"/><path opacity=".42" d="M159.853 434.623h6.049v6.036h-6.049v-6.036z" fill="#fff"/><path opacity=".06" d="M151.902 434.623h6.049v6.036h-6.049v-6.036z" fill="#fff"/><path opacity=".7" d="M143.779 434.623h6.049v6.036h-6.049v-6.036z" fill="#fff"/><path opacity=".97" d="M135.655 434.623h6.049v6.036h-6.049v-6.036z" fill="#fff"/><path opacity=".51" d="M127.704 434.623h6.05v6.036h-6.05v-6.036z" fill="#fff"/><path opacity=".69" d="M119.581 434.623h6.049v6.036h-6.049v-6.036z" fill="#fff"/><path opacity=".49" d="M111.457 434.623h6.05v6.036h-6.05v-6.036z" fill="#fff"/><path opacity=".45" d="M192.174 442.555h6.049v6.036h-6.049v-6.036z" fill="#fff"/><path opacity=".46" d="M184.223 442.555h6.049v6.036h-6.049v-6.036z" fill="#fff"/><path opacity=".04" d="M176.1 442.555h6.049v6.036H176.1v-6.036z" fill="#fff"/><path opacity=".56" d="M167.976 442.555h6.05v6.036h-6.05v-6.036z" fill="#fff"/><path opacity=".4" d="M159.853 442.555h6.049v6.036h-6.049v-6.036z" fill="#fff"/><path opacity=".59" d="M151.902 442.555h6.049v6.036h-6.049v-6.036z" fill="#fff"/><path opacity=".82" d="M143.779 442.555h6.049v6.036h-6.049v-6.036z" fill="#fff"/><path opacity=".99" d="M135.655 442.555h6.049v6.036h-6.049v-6.036z" fill="#fff"/><path opacity=".1" d="M127.704 442.555h6.05v6.036h-6.05v-6.036z" fill="#fff"/><path opacity=".87" d="M119.581 442.555h6.049v6.036h-6.049v-6.036z" fill="#fff"/><path d="M111.457 442.555h6.05v6.036h-6.05v-6.036z" fill="#fff"/><path d="M294.322 268.732h57.038v178.307h-57.038V268.732z" fill="#333"/><path d="M325.434 259.765h25.926v10.001h-25.926v-10.001zm10.889-5.864h15.037v5.864h-15.037v-5.864z" fill="#333"/><path opacity=".25" d="M318.347 281.32h9.334v9.312h-9.334v-9.312z" fill="#fff"/><path opacity=".15" d="M318.347 304.255h9.334v9.312h-9.334v-9.312z" fill="#fff"/><path opacity=".19" d="M318.347 349.953h9.334v9.312h-9.334v-9.312z" fill="#fff"/><path opacity=".17" d="M318.347 372.715h9.334v9.312h-9.334v-9.312z" fill="#fff"/><path opacity=".22" d="M318.347 395.478h9.334v9.312h-9.334v-9.312z" fill="#fff"/><path d="M318.347 418.413h9.334v9.312h-9.334v-9.312z" fill="#fff"/><path d="M336.668 368.06h53.408v15.692h-53.408V368.06z" fill="#333"/><path d="M310.051 368.06h26.617v15.692h-26.617V368.06z" fill="#4D4D4D"/><path d="M390.076 368.059l-16.593-7.932-36.815 7.932h53.408z" fill="#333"/><path d="M373.483 360.127l-36.815 7.932h-26.617l63.432-7.932z" fill="#4D4D4D"/><path d="M324.224 379.096h78.124v71.392h-78.124v-71.392z" fill="#333"/><path d="M298.298 379.096h25.926v71.392h-25.926v-71.392z" fill="#4D4D4D"/><path opacity=".81" d="M304.347 384.097h14v5.173h-14v-5.173z" fill="#fff"/><path opacity=".76" d="M304.347 393.581h14v5.173h-14v-5.173z" fill="#fff"/><path opacity=".32" d="M304.347 403.065h14v5.174h-14v-5.174z" fill="#fff"/><path opacity=".49" d="M304.347 412.723h14v5.173h-14v-5.173z" fill="#fff"/><path opacity=".99" d="M304.347 431.691h14v5.174h-14v-5.174z" fill="#fff"/><path opacity=".1" d="M375.903 384.097h14v5.173h-14v-5.173z" fill="#fff"/><path opacity=".04" d="M356.372 384.097h14v5.173h-14v-5.173z" fill="#fff"/><path opacity=".07" d="M336.668 384.097h14v5.173h-14v-5.173z" fill="#fff"/><path opacity=".06" d="M375.903 393.581h14v5.173h-14v-5.173z" fill="#fff"/><path opacity=".44" d="M356.372 393.581h14v5.173h-14v-5.173z" fill="#fff"/><path opacity=".24" d="M336.668 393.581h14v5.173h-14v-5.173z" fill="#fff"/><path opacity=".55" d="M375.903 403.065h14v5.174h-14v-5.174z" fill="#fff"/><path opacity=".02" d="M356.372 403.065h14v5.174h-14v-5.174z" fill="#fff"/><path opacity=".14" d="M336.668 403.065h14v5.174h-14v-5.174z" fill="#fff"/><path opacity=".43" d="M375.903 412.723h14v5.173h-14v-5.173z" fill="#fff"/><path opacity=".41" d="M356.372 412.723h14v5.173h-14v-5.173z" fill="#fff"/><path opacity=".46" d="M336.668 412.723h14v5.173h-14v-5.173z" fill="#fff"/><path opacity=".45" d="M375.903 422.207h14v5.173h-14v-5.173z" fill="#fff"/><path opacity=".33" d="M356.372 422.207h14v5.173h-14v-5.173z" fill="#fff"/><path opacity=".05" d="M336.668 422.207h14v5.173h-14v-5.173z" fill="#fff"/><path opacity=".27" d="M375.903 431.691h14v5.174h-14v-5.174z" fill="#fff"/><path opacity=".15" d="M356.372 431.691h14v5.174h-14v-5.174z" fill="#fff"/><path opacity=".7" d="M336.668 431.691h14v5.174h-14v-5.174z" fill="#fff"/><path d="M704.3 307.704h48.395v148.82H704.3v-148.82z" fill="#333"/><path d="M649.164 307.704h54.963v148.82h-54.963v-148.82zm55.136 12.589h48.395v2.587H704.3v-2.587z" fill="#4D4D4D"/><path d="M649.164 320.293h54.963v2.587h-54.963v-2.587z" fill="#333"/><path opacity=".25" d="M722.275 325.811h5.185v5.173h-5.185v-5.173z" fill="#fff"/><path opacity=".12" d="M708.102 325.811h5.185v5.173h-5.185v-5.173z" fill="#fff"/><path opacity=".47" d="M722.275 332.881h5.185v5.173h-5.185v-5.173z" fill="#fff"/><path opacity=".22" d="M715.189 332.881h5.185v5.173h-5.185v-5.173z" fill="#fff"/><path opacity=".32" d="M708.102 332.881h5.185v5.173h-5.185v-5.173z" fill="#fff"/><path opacity=".28" d="M722.275 339.951h5.185v5.174h-5.185v-5.174z" fill="#fff"/><path opacity=".2" d="M708.102 339.951h5.185v5.174h-5.185v-5.174z" fill="#fff"/><path opacity=".05" d="M722.275 347.021h5.185v5.174h-5.185v-5.174z" fill="#fff"/><path opacity=".08" d="M715.189 347.021h5.185v5.174h-5.185v-5.174zm7.086 7.071h5.185v5.173h-5.185v-5.173z" fill="#fff"/><path opacity=".02" d="M715.189 354.092h5.185v5.173h-5.185v-5.173z" fill="#fff"/><path opacity=".2" d="M722.275 361.162h5.185v5.173h-5.185v-5.173z" fill="#fff"/><path opacity=".23" d="M715.189 361.162h5.185v5.173h-5.185v-5.173z" fill="#fff"/><path opacity=".24" d="M715.189 368.232h5.185v5.174h-5.185v-5.174z" fill="#fff"/><path opacity=".02" d="M722.275 375.302h5.185v5.174h-5.185v-5.174z" fill="#fff"/><path opacity=".04" d="M715.189 375.302h5.185v5.174h-5.185v-5.174z" fill="#fff"/><path opacity=".3" d="M708.102 375.302h5.185v5.174h-5.185v-5.174z" fill="#fff"/><path opacity=".4" d="M708.102 382.2h5.185v5.174h-5.185V382.2z" fill="#fff"/><path opacity=".19" d="M715.189 389.271h5.185v5.173h-5.185v-5.173z" fill="#fff"/><path opacity=".43" d="M708.102 389.271h5.185v5.173h-5.185v-5.173z" fill="#fff"/><path opacity=".42" d="M722.275 396.341h5.185v5.173h-5.185v-5.173z" fill="#fff"/><path opacity=".31" d="M708.102 396.341h5.185v5.173h-5.185v-5.173zm14.173 7.07h5.185v5.173h-5.185v-5.173z" fill="#fff"/><path opacity=".33" d="M708.102 403.411h5.185v5.173h-5.185v-5.173z" fill="#fff"/><path opacity=".17" d="M722.275 410.481h5.185v5.174h-5.185v-5.174z" fill="#fff"/><path opacity=".01" d="M715.189 410.481h5.185v5.174h-5.185v-5.174z" fill="#fff"/><path opacity=".48" d="M708.102 410.481h5.185v5.174h-5.185v-5.174z" fill="#fff"/><path opacity=".02" d="M722.275 417.551h5.185v5.174h-5.185v-5.174z" fill="#fff"/><path opacity=".17" d="M715.189 417.551h5.185v5.174h-5.185v-5.174z" fill="#fff"/><path opacity=".42" d="M708.102 417.551h5.185v5.174h-5.185v-5.174z" fill="#fff"/><path opacity=".02" d="M722.275 424.622h5.185v5.173h-5.185v-5.173z" fill="#fff"/><path opacity=".3" d="M708.102 424.622h5.185v5.173h-5.185v-5.173z" fill="#fff"/><path opacity=".05" d="M722.275 431.692h5.185v5.173h-5.185v-5.173z" fill="#fff"/><path opacity=".2" d="M708.102 431.692h5.185v5.173h-5.185v-5.173z" fill="#fff"/><path opacity=".27" d="M722.275 438.762h5.185v5.174h-5.185v-5.174z" fill="#fff"/><path opacity=".13" d="M715.189 438.762h5.185v5.174h-5.185v-5.174z" fill="#fff"/><path opacity=".12" d="M722.275 445.832h5.185v5.173h-5.185v-5.173z" fill="#fff"/><path opacity=".04" d="M715.189 445.832h5.185v5.173h-5.185v-5.173z" fill="#fff"/><path opacity=".3" d="M708.102 445.832h5.185v5.173h-5.185v-5.173z" fill="#fff"/><path opacity=".08" d="M715.189 325.811h5.185v5.173h-5.185v-5.173zm0 14.14h5.185v5.174h-5.185v-5.174z" fill="#fff"/><path opacity=".01" d="M708.102 347.021h5.185v5.174h-5.185v-5.174z" fill="#fff"/><path opacity=".12" d="M708.102 354.092h5.185v5.173h-5.185v-5.173z" fill="#fff"/><path opacity=".13" d="M722.275 368.232h5.185v5.174h-5.185v-5.174z" fill="#fff"/><path opacity=".07" d="M708.102 368.232h5.185v5.174h-5.185v-5.174z" fill="#fff"/><path opacity=".02" d="M722.275 382.2h5.185v5.174h-5.185V382.2z" fill="#fff"/><path opacity=".14" d="M715.189 382.2h5.185v5.174h-5.185V382.2z" fill="#fff"/><path opacity=".02" d="M715.189 396.341h5.185v5.173h-5.185v-5.173z" fill="#fff"/><path opacity=".06" d="M715.189 403.411h5.185v5.173h-5.185v-5.173z" fill="#fff"/><path opacity=".04" d="M715.189 424.622h5.185v5.173h-5.185v-5.173zm0 7.07h5.185v5.173h-5.185v-5.173z" fill="#fff"/><path opacity=".18" d="M708.102 438.762h5.185v5.174h-5.185v-5.174z" fill="#fff"/><path opacity=".7" d="M693.756 322.879h5.359v127.092h-5.359V322.879zm-9.16 0h5.358v127.092h-5.358V322.879zm-9.333 0h5.358v127.092h-5.358V322.879zm-9.334 0h5.358v127.092h-5.358V322.879zm-9.333 0h5.358v127.092h-5.358V322.879z" fill="#E6E6E6"/><path d="M621.509 449.971h107.507l-107.507-93.465v93.465z" fill="#333"/><path d="M630.67 433.417h36.988v20.693H630.67v-20.693z" fill="#4D4D4D"/><path d="M633.435 428.588h31.457v9.657h-31.457v-9.657z" fill="#4D4D4D"/><path d="M637.065 431.519h24.37l-8.469-14.14h-7.432l-8.469 14.14z" fill="#4D4D4D"/><path d="M640.522 437.555h17.284v12.588h-17.284v-12.588z" fill="#fff"/><path d="M638.448 442.556h21.432v2.586h-21.432v-2.586z" fill="#4D4D4D"/><path d="M465.607 467.388c-.518 13.45 9.852 25.004 23.506 25.521 13.482.518 25.062-10.001 25.581-23.452.518-13.451-9.852-25.004-23.507-25.522-13.481-.517-24.889 10.002-25.58 23.453z" fill="#333"/><path d="M469.755 460.662c-.345 7.76 5.704 14.313 13.482 14.658 7.778.345 14.345-5.691 14.691-13.451.346-7.76-5.704-14.313-13.481-14.658-7.778-.345-14.346 5.691-14.692 13.451z" fill="#4D4D4D"/><path d="M712.423 442.039c0 3.276 2.766 6.035 6.05 6.035s6.049-2.759 6.049-6.035c0-3.277-2.765-6.036-6.049-6.036-3.284 0-6.05 2.587-6.05 6.036z" fill="#333"/><path d="M710.349 448.074c0 4.484 3.63 8.105 8.124 8.105 4.493 0 8.123-3.621 8.123-8.105 0-4.483-3.63-8.105-8.123-8.105-4.494 0-8.124 3.622-8.124 8.105z" fill="#333"/><path d="M714.497 436.865c0 2.242 1.729 4.139 3.976 4.139s3.975-1.897 3.975-4.139-1.728-4.138-3.975-4.138-3.976 1.896-3.976 4.138z" fill="#333"/><path d="M713.287 442.039a3.463 3.463 0 0 0 3.457 3.449 3.463 3.463 0 0 0 3.457-3.449 3.463 3.463 0 0 0-3.457-3.449 3.463 3.463 0 0 0-3.457 3.449z" fill="#4D4D4D"/><path d="M715.016 437.382c0 1.38 1.21 2.587 2.592 2.587 1.383 0 2.593-1.207 2.593-2.587 0-1.379-1.21-2.586-2.593-2.586-1.382-.173-2.592 1.034-2.592 2.586z" fill="#4D4D4D"/><path d="M597.139 454.627c0 4.311 3.629 7.932 7.95 7.932s7.951-3.621 7.951-7.932a7.921 7.921 0 0 0-7.951-7.933c-4.321 0-7.95 3.622-7.95 7.933z" fill="#333"/><path d="M599.904 447.901c0 2.932 2.247 5.346 5.185 5.346 2.939 0 5.185-2.414 5.185-5.346 0-2.931-2.246-5.345-5.185-5.345-2.765 0-5.185 2.414-5.185 5.345z" fill="#333"/><path d="M600.595 448.419a3.463 3.463 0 0 0 3.457 3.449 3.463 3.463 0 0 0 3.457-3.449 3.463 3.463 0 0 0-3.457-3.449 3.463 3.463 0 0 0-3.457 3.449z" fill="#4D4D4D"/><path d="M607.855 460.49c.864 8.278 8.296 14.141 16.42 13.278 8.296-.862 14.173-8.277 13.308-16.382-.864-8.277-8.296-14.14-16.419-13.278-8.124.862-14.173 8.105-13.309 16.382z" fill="#333"/><path d="M611.657 447.212c.519 5.518 5.358 9.657 10.889 9.14 5.358-.518 9.334-5.519 8.815-11.037-.518-5.518-5.358-9.657-10.889-9.139-5.531.517-9.333 5.518-8.815 11.036z" fill="#333"/><path d="M613.04 448.247c.346 3.621 3.63 6.208 7.086 5.863 3.63-.345 6.223-3.622 5.877-7.071-.346-3.621-3.63-6.208-7.086-5.863-3.63.345-6.223 3.622-5.877 7.071z" fill="#4D4D4D"/><path d="M529.558 453.248c0 7.587 6.05 13.623 13.655 13.623 7.605 0 13.654-6.036 13.654-13.623 0-7.588-6.049-13.623-13.654-13.623-7.433 0-13.655 6.035-13.655 13.623z" fill="#333"/><path d="M524.891 466.87c0 10.175 8.297 18.28 18.322 18.28 10.197 0 18.321-8.278 18.321-18.28 0-10.174-8.297-18.279-18.321-18.279-10.025 0-18.322 8.278-18.322 18.279z" fill="#333"/><path d="M534.398 441.521c0 5.173 3.975 9.312 8.987 9.312 5.013 0 8.988-4.139 8.988-9.312 0-5.173-3.975-9.312-8.988-9.312-5.012.172-8.987 4.311-8.987 9.312z" fill="#333"/><path d="M531.632 453.247a7.921 7.921 0 0 0 7.951 7.933c4.321 0 7.951-3.449 7.951-7.933a7.92 7.92 0 0 0-7.951-7.932c-4.321.172-7.951 3.621-7.951 7.932z" fill="#4D4D4D"/><path d="M535.608 442.728c0 3.277 2.592 6.036 6.049 6.036 3.284 0 6.049-2.587 6.049-6.036 0-3.276-2.592-5.863-6.049-5.863-3.457-.172-6.049 2.587-6.049 5.863z" fill="#4D4D4D"/><path d="M559.805 464.628c0 9.657 7.951 17.59 17.63 17.59 9.679 0 17.63-7.933 17.63-17.59 0-9.656-7.951-17.589-17.63-17.589-9.679 0-17.63 7.76-17.63 17.589z" fill="#333"/><path d="M565.855 449.453c0 6.553 5.185 11.899 11.58 11.899 6.395 0 11.58-5.346 11.58-11.899 0-6.553-5.185-11.898-11.58-11.898-6.395 0-11.58 5.345-11.58 11.898z" fill="#333"/><path d="M567.41 451.005c0 4.311 3.457 7.588 7.778 7.588s7.778-3.449 7.778-7.588a7.737 7.737 0 0 0-7.778-7.76 7.737 7.737 0 0 0-7.778 7.76z" fill="#4D4D4D"/><path d="M517.114 451.523c0 2.069 1.555 3.621 3.456 3.621 1.902 0 3.457-1.552 3.457-3.621 0-2.07-1.555-3.622-3.457-3.622-1.901 0-3.456 1.552-3.456 3.622zm-74.322-4.311c0 6.725 5.358 12.071 12.099 12.071 6.741 0 12.099-5.346 12.099-12.071 0-6.726-5.358-12.071-12.099-12.071-6.741 0-12.099 5.345-12.099 12.071z" fill="#333"/><path d="M438.644 459.283c0 8.967 7.259 16.21 16.247 16.21s16.247-7.243 16.247-16.21-7.259-16.21-16.247-16.21-16.247 7.243-16.247 16.21z" fill="#333"/><path d="M446.94 436.865c0 4.484 3.63 8.278 7.951 8.278s7.951-3.622 7.951-8.278c0-4.483-3.63-8.277-7.951-8.277s-7.951 3.794-7.951 8.277z" fill="#333"/><path d="M444.693 447.212c0 3.794 3.112 6.898 6.914 6.898 3.803 0 6.914-3.104 6.914-6.898 0-3.794-3.111-6.898-6.914-6.898-3.802 0-6.914 3.104-6.914 6.898z" fill="#4D4D4D"/><path d="M447.977 437.9c0 2.931 2.42 5.346 5.358 5.346 2.939 0 5.358-2.415 5.358-5.346 0-2.932-2.419-5.346-5.358-5.346-2.938 0-5.358 2.414-5.358 5.346z" fill="#4D4D4D"/><path d="M397.681 462.387c0 8.967 7.259 16.21 16.247 16.21s16.247-7.243 16.247-16.21-7.259-16.21-16.247-16.21c-8.988.173-16.247 7.415-16.247 16.21z" fill="#333"/><path d="M403.385 448.592c0 6.035 4.839 11.036 10.543 11.036 5.877 0 10.716-4.828 10.716-11.036 0-6.036-4.839-10.864-10.716-10.864-5.877 0-10.543 4.828-10.543 10.864z" fill="#333"/><path d="M404.767 449.971c0 3.966 3.111 7.07 7.087 7.07 3.975 0 7.086-3.104 7.086-7.07s-3.111-7.07-7.086-7.07c-3.976 0-7.087 3.104-7.087 7.07z" fill="#4D4D4D"/><path d="M133.235 468.94c0 14.83 11.926 26.729 26.79 26.729 14.865 0 26.791-11.899 26.791-26.729s-11.926-26.729-26.791-26.729c-14.864 0-26.79 12.071-26.79 26.729z" fill="#333"/><path d="M137.21 461.525c0 8.45 6.914 15.347 15.383 15.347s15.383-6.897 15.383-15.347-6.914-15.348-15.383-15.348-15.383 6.898-15.383 15.348z" fill="#4D4D4D"/><path d="M98.84 457.386c0 12.416 10.197 22.59 22.642 22.59 12.444 0 22.642-10.174 22.642-22.59s-10.198-22.59-22.642-22.59c-12.617 0-22.642 10.002-22.642 22.59z" fill="#333"/><path d="M102.297 451.006c0 7.242 5.876 12.933 12.963 12.933a12.93 12.93 0 0 0 12.963-12.933c0-7.071-5.877-12.934-12.963-12.934-7.087 0-12.963 5.863-12.963 12.934z" fill="#4D4D4D"/><path d="M156.568 461.007c0 12.416 10.198 22.591 22.643 22.591 12.444 0 22.642-10.175 22.642-22.591s-10.198-22.59-22.642-22.59c-12.618 0-22.643 10.002-22.643 22.59z" fill="#333"/><path d="M160.025 454.627c0 7.242 5.877 12.933 12.963 12.933 7.087 0 12.963-5.863 12.963-12.933 0-7.243-5.876-12.934-12.963-12.934-7.086 0-12.963 5.691-12.963 12.934z" fill="#4D4D4D"/><path d="M226.396 466.181c0 12.416 10.198 22.59 22.642 22.59 12.445 0 22.642-10.174 22.642-22.59s-10.197-22.59-22.642-22.59c-12.617 0-22.642 10.174-22.642 22.59z" fill="#333"/><path d="M229.853 459.8c0 7.243 5.876 12.934 12.963 12.934a12.93 12.93 0 0 0 12.963-12.934c0-7.242-5.877-12.933-12.963-12.933-7.087 0-12.963 5.863-12.963 12.933z" fill="#4D4D4D"/><path d="M253.705 462.387c0 12.416 10.197 22.59 22.642 22.59s22.642-10.174 22.642-22.59-10.197-22.59-22.642-22.59-22.642 10.002-22.642 22.59z" fill="#333"/><path d="M257.162 456.007c0 7.243 5.876 12.933 12.963 12.933a12.93 12.93 0 0 0 12.963-12.933c0-7.243-5.877-12.933-12.963-12.933-7.087 0-12.963 5.69-12.963 12.933z" fill="#4D4D4D"/><path d="M236.075 458.765c0 7.243 5.877 12.934 12.963 12.934a12.93 12.93 0 0 0 12.963-12.934c0-7.242-5.876-12.933-12.963-12.933a12.93 12.93 0 0 0-12.963 12.933z" fill="#4D4D4D"/><path d="M332.693 459.8c0 8.105 6.568 14.83 14.864 14.83 8.124 0 14.864-6.553 14.864-14.83 0-8.105-6.568-14.83-14.864-14.83-8.296.172-14.864 6.725-14.864 14.83z" fill="#333"/><path d="M334.94 455.661c0 4.656 3.802 8.45 8.469 8.45s8.469-3.794 8.469-8.45c0-4.656-3.802-8.45-8.469-8.45s-8.469 3.794-8.469 8.45z" fill="#4D4D4D"/><path d="M721.065 448.074c0 6.897 5.531 12.416 12.445 12.416 6.913 0 12.444-5.519 12.444-12.416 0-6.898-5.531-12.416-12.444-12.416-6.741-.173-12.445 5.518-12.445 12.416z" fill="#333"/><path d="M716.917 460.49c0 9.312 7.432 16.727 16.766 16.727 9.333 0 16.765-7.415 16.765-16.727 0-9.312-7.432-16.727-16.765-16.727-9.334 0-16.766 7.415-16.766 16.727z" fill="#333"/><path d="M725.386 437.382c0 4.656 3.63 8.45 8.297 8.45 4.494 0 8.296-3.794 8.296-8.45 0-4.656-3.63-8.449-8.296-8.449-4.667 0-8.297 3.793-8.297 8.449z" fill="#333"/><path d="M722.967 448.074c0 3.966 3.284 7.242 7.259 7.242 3.975 0 7.259-3.276 7.259-7.242s-3.284-7.243-7.259-7.243c-3.975 0-7.259 3.277-7.259 7.243z" fill="#4D4D4D"/><path d="M726.423 438.417c0 2.932 2.42 5.518 5.531 5.518 2.939 0 5.531-2.414 5.531-5.518 0-2.931-2.42-5.518-5.531-5.518-2.938 0-5.531 2.414-5.531 5.518z" fill="#4D4D4D"/><path d="M662.127 452.903c0 5.518 4.494 10.001 10.025 10.001 5.53 0 10.024-4.483 10.024-10.001 0-5.519-4.494-10.002-10.024-10.002-5.531 0-10.025 4.483-10.025 10.002z" fill="#333"/><path d="M665.583 444.281c0 3.793 2.939 6.897 6.568 6.897 3.63 0 6.568-3.104 6.568-6.897 0-3.794-2.938-6.898-6.568-6.898-3.629.172-6.568 3.104-6.568 6.898z" fill="#333"/><path d="M663.682 452.903c0 3.276 2.593 5.863 5.877 5.863s5.876-2.587 5.876-5.863c0-3.104-2.592-5.691-5.876-5.691-3.284-.172-5.877 2.414-5.877 5.691z" fill="#4D4D4D"/><path d="M666.448 445.143c0 2.414 1.901 4.311 4.321 4.311s4.321-1.897 4.321-4.311c0-2.414-1.901-4.311-4.321-4.311-2.42-.173-4.321 1.897-4.321 4.311z" fill="#4D4D4D"/></svg>