<svg width="34" height="33" fill="none" xmlns="http://www.w3.org/2000/svg"><path fill-rule="evenodd" clip-rule="evenodd" d="M3.335 1.255a.39.39 0 0 1 .399-.382h28.683a.39.39 0 0 1 .398.382v27.622a.39.39 0 0 1-.398.382.39.39 0 0 1-.399-.382V1.637H3.734a.39.39 0 0 1-.399-.382z" fill="#fff" stroke="#fff" stroke-width=".5" stroke-linecap="round" stroke-linejoin="round"/><path d="M3.753 29.435h.125V5.551l1.628 1.626a.52.52 0 0 0 .735-.735L3.726 3.928a.52.52 0 0 0-.736 0L.475 6.442a.52.52 0 1 0 .736.735l1.627-1.626v23.884h.915z" fill="#fff" stroke="#fff" stroke-width=".25"/><path d="M2.837 29.704v.125h24.025l-1.635 1.626a.518.518 0 0 0 0 .736.524.524 0 0 0 .738 0l2.528-2.514a.518.518 0 0 0 0-.736l-2.528-2.514a.524.524 0 0 0-.738 0 .518.518 0 0 0 0 .736l1.635 1.626H2.837v.915z" fill="#fff" stroke="#fff" stroke-width=".25"/><path fill-rule="evenodd" clip-rule="evenodd" d="M14.255.989a.395.395 0 0 1 0 .558l-4.743 4.74a.395.395 0 0 1-.559-.559l4.743-4.74a.395.395 0 0 1 .559 0zm18.313 18.826a.395.395 0 0 1 0 .558l-4.348 4.345a.396.396 0 0 1-.559-.558l4.348-4.345a.396.396 0 0 1 .559 0zM20.182.987a.395.395 0 0 1 .003.559L9.91 11.946a.396.396 0 0 1-.562-.555L19.623.991a.395.395 0 0 1 .559-.004zM32.7 13.232a.395.395 0 0 1 0 .558L22.686 23.796a.396.396 0 0 1-.56-.56L32.14 13.233a.395.395 0 0 1 .56 0zm-6.19-12.11a.395.395 0 0 1-.005.558L10.037 17.874a.395.395 0 0 1-.554-.563L25.95 1.117a.396.396 0 0 1 .558.005zm6.19 5.922a.395.395 0 0 1 0 .559L16.1 24.19a.395.395 0 0 1-.56-.559l16.6-16.588a.395.395 0 0 1 .56 0zm-.264-5.924a.395.395 0 0 1 0 .558L9.776 24.323a.395.395 0 0 1-.56-.559L31.877 1.12a.395.395 0 0 1 .56 0z" fill="#fff" stroke="#fff" stroke-width=".5" stroke-linecap="round" stroke-linejoin="round"/></svg>