<svg width="729" height="449" fill="none" xmlns="http://www.w3.org/2000/svg"><path d="M256.306 318.568h-57.037v133.3h57.037v-133.3z" fill="#333"/><path d="M225.195 311.843h-25.926v7.588h25.926v-7.588zm-10.889-4.311h-15.037v4.311h15.037v-4.311z" fill="#333"/><path opacity=".06" d="M232.454 327.881h-9.333v6.898h9.333v-6.898z" fill="#fff"/><path opacity=".12" d="M232.454 344.953h-9.333v6.897h9.333v-6.897z" fill="#fff"/><path opacity=".19" d="M232.454 379.097h-9.333v6.897h9.333v-6.897z" fill="#fff"/><path opacity=".14" d="M232.454 413.241h-9.333v6.898h9.333v-6.898z" fill="#fff"/><path opacity=".1" d="M232.454 430.312h-9.333v6.898h9.333v-6.898z" fill="#fff"/><path d="M113.194 333.053H35.07v71.392h78.124v-71.392z" fill="#333"/><path d="M100.923 326.673H47.515v30.695h53.408v-30.695zm17.975 51.388H40.774v71.392h78.124v-71.392z" fill="#333"/><path d="M106.454 371.681H53.046v30.695h53.408v-30.695zm116.494-3.104h-78.124v82.256h78.124v-82.256z" fill="#333"/><path d="M210.676 361.334h-53.407v35.524h53.407v-35.524zm273.78 32.248h-78.124v79.497h78.124v-79.497z" fill="#333"/><path d="M472.184 386.512h-53.408v34.316h53.408v-34.316zM315.072 229.415h-87.284v221.246h87.284V229.415z" fill="#333"/><path opacity=".46" d="M253.195 239.417h-21.086v3.966h21.086v-3.966z" fill="#E6E6E6"/><path opacity=".34" d="M282.059 239.417h-21.086v3.966h21.086v-3.966z" fill="#E6E6E6"/><path opacity=".52" d="M310.751 239.417h-21.087v3.966h21.087v-3.966z" fill="#E6E6E6"/><path opacity=".54" d="M253.195 248.556h-21.086v3.966h21.086v-3.966z" fill="#E6E6E6"/><path opacity=".3" d="M282.059 248.556h-21.086v3.966h21.086v-3.966z" fill="#E6E6E6"/><path opacity=".06" d="M310.751 248.556h-21.087v3.966h21.087v-3.966z" fill="#E6E6E6"/><path opacity=".15" d="M253.195 257.696h-21.086v3.966h21.086v-3.966z" fill="#E6E6E6"/><path opacity=".42" d="M282.059 257.696h-21.086v3.966h21.086v-3.966z" fill="#E6E6E6"/><path opacity=".48" d="M310.751 257.696h-21.087v3.966h21.087v-3.966z" fill="#E6E6E6"/><path opacity=".18" d="M253.195 266.835h-21.086v3.966h21.086v-3.966z" fill="#E6E6E6"/><path opacity=".28" d="M310.751 266.835h-21.087v3.966h21.087v-3.966z" fill="#E6E6E6"/><path opacity=".29" d="M253.195 275.975h-21.086v3.966h21.086v-3.966z" fill="#E6E6E6"/><path opacity=".28" d="M282.059 275.975h-21.086v3.966h21.086v-3.966z" fill="#E6E6E6"/><path opacity=".56" d="M310.751 275.975h-21.087v3.966h21.087v-3.966z" fill="#E6E6E6"/><path opacity=".41" d="M253.195 285.114h-21.086v3.966h21.086v-3.966z" fill="#E6E6E6"/><path opacity=".16" d="M282.059 285.114h-21.086v3.966h21.086v-3.966z" fill="#E6E6E6"/><path opacity=".4" d="M310.751 285.114h-21.087v3.966h21.087v-3.966z" fill="#E6E6E6"/><path opacity=".1" d="M253.195 294.254h-21.086v3.966h21.086v-3.966z" fill="#E6E6E6"/><path opacity=".17" d="M282.059 294.254h-21.086v3.966h21.086v-3.966z" fill="#E6E6E6"/><path opacity=".08" d="M310.751 294.254h-21.087v3.966h21.087v-3.966z" fill="#E6E6E6"/><path opacity=".49" d="M253.195 303.394h-21.086v3.966h21.086v-3.966z" fill="#E6E6E6"/><path opacity=".58" d="M282.059 303.394h-21.086v3.966h21.086v-3.966zm28.692 0h-21.087v3.966h21.087v-3.966z" fill="#E6E6E6"/><path opacity=".26" d="M253.195 312.533h-21.086v3.966h21.086v-3.966z" fill="#E6E6E6"/><path opacity=".37" d="M282.059 312.533h-21.086v3.966h21.086v-3.966z" fill="#E6E6E6"/><path opacity=".34" d="M310.751 312.533h-21.087v3.966h21.087v-3.966z" fill="#E6E6E6"/><path opacity=".55" d="M253.195 321.672h-21.086v3.966h21.086v-3.966z" fill="#E6E6E6"/><path opacity=".12" d="M282.059 321.672h-21.086v3.966h21.086v-3.966z" fill="#E6E6E6"/><path opacity=".6" d="M310.751 321.672h-21.087v3.966h21.087v-3.966z" fill="#E6E6E6"/><path opacity=".02" d="M253.195 330.812h-21.086v3.966h21.086v-3.966z" fill="#E6E6E6"/><path opacity=".28" d="M282.059 330.812h-21.086v3.966h21.086v-3.966z" fill="#E6E6E6"/><path opacity=".21" d="M310.751 330.812h-21.087v3.966h21.087v-3.966z" fill="#E6E6E6"/><path opacity=".57" d="M253.195 339.952h-21.086v3.966h21.086v-3.966z" fill="#E6E6E6"/><path opacity=".38" d="M282.059 339.952h-21.086v3.966h21.086v-3.966z" fill="#E6E6E6"/><path opacity=".25" d="M310.751 339.952h-21.087v3.966h21.087v-3.966z" fill="#E6E6E6"/><path opacity=".15" d="M253.195 349.091h-21.086v3.966h21.086v-3.966z" fill="#E6E6E6"/><path opacity=".47" d="M282.059 349.091h-21.086v3.966h21.086v-3.966z" fill="#E6E6E6"/><path opacity=".3" d="M310.751 349.091h-21.087v3.966h21.087v-3.966z" fill="#E6E6E6"/><path opacity=".4" d="M253.195 358.23h-21.086v3.967h21.086v-3.967z" fill="#E6E6E6"/><path opacity=".39" d="M282.059 358.23h-21.086v3.967h21.086v-3.967z" fill="#E6E6E6"/><path opacity=".24" d="M310.751 358.23h-21.087v3.967h21.087v-3.967z" fill="#E6E6E6"/><path opacity=".46" d="M253.195 367.37h-21.086v3.966h21.086v-3.966z" fill="#E6E6E6"/><path opacity=".22" d="M282.059 367.37h-21.086v3.966h21.086v-3.966z" fill="#E6E6E6"/><path opacity=".11" d="M310.751 367.37h-21.087v3.966h21.087v-3.966zm-28.692 9.14h-21.086v3.966h21.086v-3.966z" fill="#E6E6E6"/><path opacity=".02" d="M310.751 376.51h-21.087v3.966h21.087v-3.966z" fill="#E6E6E6"/><path opacity=".27" d="M253.195 385.649h-21.086v3.967h21.086v-3.967z" fill="#E6E6E6"/><path opacity=".21" d="M282.059 385.649h-21.086v3.967h21.086v-3.967z" fill="#E6E6E6"/><path opacity=".49" d="M310.751 385.649h-21.087v3.967h21.087v-3.967z" fill="#E6E6E6"/><path opacity=".6" d="M253.195 394.789h-21.086v3.966h21.086v-3.966z" fill="#E6E6E6"/><path opacity=".31" d="M282.059 394.789h-21.086v3.966h21.086v-3.966z" fill="#E6E6E6"/><path opacity=".22" d="M310.751 394.789h-21.087v3.966h21.087v-3.966z" fill="#E6E6E6"/><path opacity=".54" d="M253.195 403.928h-21.086v3.967h21.086v-3.967z" fill="#E6E6E6"/><path opacity=".6" d="M282.059 403.928h-21.086v3.967h21.086v-3.967z" fill="#E6E6E6"/><path opacity=".08" d="M310.751 403.928h-21.087v3.967h21.087v-3.967z" fill="#E6E6E6"/><path opacity=".55" d="M282.059 413.068h-21.086v3.966h21.086v-3.966z" fill="#E6E6E6"/><path d="M310.751 413.068h-21.087v3.966h21.087v-3.966z" fill="#E6E6E6"/><path opacity=".6" d="M254.577 239.417h-1.382v177.617h1.382V239.417zm35.086 0h-1.381v177.617h1.381V239.417z" fill="#E6E6E6"/><path d="M358.628 229.415h-43.556v221.246h43.556V229.415z" fill="#4D4D4D"/><path opacity=".69" d="M352.233 239.417h-32.84v3.966h32.84v-3.966z" fill="#E6E6E6"/><path opacity=".79" d="M352.233 248.556h-32.84v3.966h32.84v-3.966z" fill="#E6E6E6"/><path opacity=".19" d="M352.233 257.696h-32.84v3.966h32.84v-3.966z" fill="#E6E6E6"/><path opacity=".88" d="M352.233 266.835h-32.84v3.966h32.84v-3.966z" fill="#E6E6E6"/><path opacity=".5" d="M352.233 275.975h-32.84v3.966h32.84v-3.966z" fill="#E6E6E6"/><path opacity=".25" d="M352.233 285.114h-32.84v3.966h32.84v-3.966z" fill="#E6E6E6"/><path opacity=".91" d="M352.233 294.254h-32.84v3.966h32.84v-3.966z" fill="#E6E6E6"/><path opacity=".02" d="M352.233 303.394h-32.84v3.966h32.84v-3.966z" fill="#E6E6E6"/><path opacity=".53" d="M352.233 312.533h-32.84v3.966h32.84v-3.966z" fill="#E6E6E6"/><path opacity=".65" d="M352.233 321.672h-32.84v3.966h32.84v-3.966z" fill="#E6E6E6"/><path d="M352.233 330.812h-32.84v3.966h32.84v-3.966z" fill="#E6E6E6"/><path opacity=".8" d="M352.233 339.952h-32.84v3.966h32.84v-3.966z" fill="#E6E6E6"/><path opacity=".82" d="M352.233 349.091h-32.84v3.966h32.84v-3.966z" fill="#E6E6E6"/><path opacity=".75" d="M352.233 358.23h-32.84v3.967h32.84v-3.967z" fill="#E6E6E6"/><path opacity=".31" d="M352.233 367.37h-32.84v3.966h32.84v-3.966z" fill="#E6E6E6"/><path opacity=".22" d="M352.233 376.51h-32.84v3.966h32.84v-3.966z" fill="#E6E6E6"/><path opacity=".43" d="M352.233 385.649h-32.84v3.967h32.84v-3.967z" fill="#E6E6E6"/><path opacity=".68" d="M352.233 394.789h-32.84v3.966h32.84v-3.966z" fill="#E6E6E6"/><path opacity=".38" d="M352.233 403.928h-32.84v3.967h32.84v-3.967z" fill="#E6E6E6"/><path opacity=".84" d="M352.233 413.068h-32.84v3.966h32.84v-3.966z" fill="#E6E6E6"/><path d="M243.17 217.688v11.727h56.519v-11.727H243.17zm12.618 7.933h-5.877v-3.966h5.877v3.966zm9.16 0h-5.704v-3.966h5.704v3.966zm9.334 0h-5.704v-3.966h5.704v3.966zm9.333 0h-5.877v-3.966h5.877v3.966zm9.333 0h-5.876v-3.966h5.876v3.966zm17.112-3.966h-1.556v3.966h1.556v-3.966z" fill="#333"/><path d="M299.689 217.688v11.727h26.618v-11.727h-26.618zm10.371 7.933h-5.704v-3.966h5.704v3.966zm12.271 0h-5.703v-3.966h5.703v3.966z" fill="#4D4D4D"/><path d="M322.159 221.655h-1.556v3.966h1.556v-3.966zm4.493 244.008H209.121l117.531-86.567v86.567z" fill="#333"/><path d="M151.392 182.51h-9.506v36.041h9.506V182.51z" fill="#4D4D4D"/><path d="M142.059 182.51h-9.679v36.041h9.679V182.51z" fill="#333"/><path d="M161.244 182.51h-9.679v36.041h9.679V182.51zm28 60.7h-26.963v205.554h26.963V243.21z" fill="#666"/><path d="M130.651 243.21h-23.506v205.554h23.506V243.21z" fill="#333"/><path d="M162.281 243.21h-31.803v205.554h31.803V243.21z" fill="#4D4D4D"/><path opacity=".6" d="M113.886 249.246h-3.457v196.759h3.457V249.246zm6.741 0h-3.457v196.759h3.457V249.246zm6.74 0h-3.456v196.759h3.456V249.246z" fill="#E6E6E6"/><path d="M167.639 249.246h-3.457v196.759h3.457V249.246zm6.741 0h-3.457v196.759h3.457V249.246zm13.136 0h-3.457v196.759h3.457V249.246zm-6.395 0h-3.457v196.759h3.457V249.246z" fill="#E6E6E6"/><path opacity=".8" d="M134.454 446.005h23.852V249.246h-23.852v196.759zm3.802-193.311h16.247v189.862h-16.247V252.694z" fill="#E6E6E6"/><path opacity=".8" d="M141.367 439.279h10.198V255.798h-10.198v183.481zm3.457-179.17h3.284v174.859h-3.284V260.109z" fill="#E6E6E6"/><path opacity=".8" d="M146.725 260.109h-.691v174.859h.691V260.109z" fill="#E6E6E6"/><path d="M158.651 207.169H134.8v36.041h23.851v-36.041z" fill="#4D4D4D"/><path d="M158.651 207.169H134.8v36.041h23.851v-36.041z" fill="#4D4D4D"/><path d="M182.503 207.169h-23.852v36.041h23.852v-36.041z" fill="#666"/><path d="M134.8 207.169h-23.852v36.041H134.8v-36.041z" fill="#333"/><path d="M161.071 182.51H132.38l9.506 6.553h9.679l9.506-6.553z" fill="gray"/><path d="M673.889 169.231h-13.827v40.525h13.827v-40.525z" fill="#4D4D4D"/><path d="M659.889 169.231h-13.828v40.525h13.828v-40.525z" fill="#333"/><path d="M687.716 169.231h-13.827v40.525h13.827v-40.525zm40.79 68.461h-39.062v231.593h39.062V237.692z" fill="#666"/><path d="M643.469 237.692h-33.877v231.593h33.877V237.692z" fill="#333"/><path d="M689.444 237.692h-45.975v231.593h45.975V237.692z" fill="#4D4D4D"/><path opacity=".4" d="M619.271 244.59h-5.012v221.591h5.012V244.59zm9.852 0h-5.012v221.591h5.012V244.59zm9.852 0h-5.012v221.591h5.012V244.59z" fill="#E6E6E6"/><path d="M697.222 244.59h-5.012v221.591h5.012V244.59zm9.852 0h-5.012v221.591h5.012V244.59zm18.84 0h-5.013v221.591h5.013V244.59zm-9.161 0h-5.012v221.591h5.012V244.59zm-67.408 221.591h34.568V244.59h-34.568v221.591zm5.358-217.797h23.507v214.003h-23.507V248.384z" fill="#E6E6E6"/><path d="M659.024 458.766h14.865V252.005h-14.865v206.761zm5.186-201.933h4.666v197.104h-4.666V256.833z" fill="#E6E6E6"/><path d="M666.974 256.833h-.863v197.104h.863V256.833z" fill="#E6E6E6"/><path d="M684.259 197.167h-34.568v40.525h34.568v-40.525z" fill="#4D4D4D"/><path d="M684.259 197.167h-34.568v40.525h34.568v-40.525z" fill="#4D4D4D"/><path d="M718.827 197.167h-34.568v40.525h34.568v-40.525z" fill="#666"/><path d="M649.864 197.167h-34.568v40.525h34.568v-40.525z" fill="#333"/><path d="M687.889 169.231h-41.828l14 7.416h13.828l14-7.416z" fill="gray"/><path d="M574.16 269.766h-94.544v31.385h94.544v-31.385z" fill="#E6E6E6"/><path d="M516.777 269.766h-37.161v31.385h37.161v-31.385z" fill="#B3B3B3"/><path d="M516.777 301.323H443.32v152.441h73.457V301.323z" fill="#333"/><path d="M631.543 301.323H516.777v152.441h114.766V301.323z" fill="#4D4D4D"/><path d="M507.789 285.803H451.27v15.52h56.519v-15.52z" fill="#333"/><path d="M614.432 285.803h-80.717v15.52h80.717v-15.52z" fill="#4D4D4D"/><path d="M549.098 257.867h-32.321v11.899h32.321v-11.899z" fill="#E6E6E6"/><path d="M532.851 245.796h-16.074v11.899h16.074v-11.899z" fill="#4D4D4D"/><path d="M516.604 245.796H500.53v11.899h16.074v-11.899z" fill="#333"/><path d="M516.777 257.867H492.06v11.899h24.717v-11.899z" fill="#B3B3B3"/><path d="M515.74 245.796l1.037-27.591.864 27.591h-1.901z" fill="#333"/><path opacity=".12" d="M466.48 307.531h-6.049v6.036h6.049v-6.036z" fill="#fff"/><path opacity=".25" d="M474.776 307.531h-6.049v6.036h6.049v-6.036z" fill="#fff"/><path opacity=".36" d="M483.073 307.531h-6.05v6.036h6.05v-6.036z" fill="#fff"/><path opacity=".12" d="M491.369 307.531h-6.049v6.036h6.049v-6.036z" fill="#fff"/><path opacity=".14" d="M499.665 307.531h-6.049v6.036h6.049v-6.036z" fill="#fff"/><path opacity=".28" d="M466.48 315.464h-6.049v6.035h6.049v-6.035z" fill="#fff"/><path opacity=".4" d="M474.776 315.464h-6.049v6.035h6.049v-6.035z" fill="#fff"/><path opacity=".16" d="M483.073 315.464h-6.05v6.035h6.05v-6.035z" fill="#fff"/><path opacity=".17" d="M499.665 315.464h-6.049v6.035h6.049v-6.035z" fill="#fff"/><path opacity=".27" d="M466.48 323.396h-6.049v6.036h6.049v-6.036z" fill="#fff"/><path opacity=".45" d="M474.776 323.396h-6.049v6.036h6.049v-6.036zm8.297 0h-6.05v6.036h6.05v-6.036z" fill="#fff"/><path opacity=".48" d="M491.369 323.396h-6.049v6.036h6.049v-6.036z" fill="#fff"/><path opacity=".25" d="M499.665 323.396h-6.049v6.036h6.049v-6.036z" fill="#fff"/><path opacity=".28" d="M466.48 331.329h-6.049v6.035h6.049v-6.035z" fill="#fff"/><path opacity=".13" d="M474.776 331.329h-6.049v6.035h6.049v-6.035z" fill="#fff"/><path opacity=".07" d="M483.073 331.329h-6.05v6.035h6.05v-6.035z" fill="#fff"/><path opacity=".39" d="M491.369 331.329h-6.049v6.035h6.049v-6.035z" fill="#fff"/><path opacity=".47" d="M499.665 331.329h-6.049v6.035h6.049v-6.035z" fill="#fff"/><path opacity=".28" d="M466.48 339.261h-6.049v6.035h6.049v-6.035z" fill="#fff"/><path opacity=".2" d="M474.776 339.261h-6.049v6.035h6.049v-6.035z" fill="#fff"/><path opacity=".04" d="M483.073 339.261h-6.05v6.035h6.05v-6.035z" fill="#fff"/><path opacity=".43" d="M491.369 339.261h-6.049v6.035h6.049v-6.035z" fill="#fff"/><path opacity=".48" d="M499.665 339.261h-6.049v6.035h6.049v-6.035z" fill="#fff"/><path opacity=".28" d="M466.48 347.193h-6.049v6.036h6.049v-6.036z" fill="#fff"/><path opacity=".19" d="M474.776 347.193h-6.049v6.036h6.049v-6.036z" fill="#fff"/><path opacity=".01" d="M483.073 347.193h-6.05v6.036h6.05v-6.036z" fill="#fff"/><path opacity=".27" d="M491.369 347.193h-6.049v6.036h6.049v-6.036z" fill="#fff"/><path opacity=".24" d="M499.665 347.193h-6.049v6.036h6.049v-6.036z" fill="#fff"/><path opacity=".07" d="M466.48 355.298h-6.049v6.036h6.049v-6.036z" fill="#fff"/><path opacity=".25" d="M474.776 355.298h-6.049v6.036h6.049v-6.036z" fill="#fff"/><path opacity=".26" d="M483.073 355.298h-6.05v6.036h6.05v-6.036z" fill="#fff"/><path opacity=".39" d="M491.369 355.298h-6.049v6.036h6.049v-6.036z" fill="#fff"/><path opacity=".22" d="M499.665 355.298h-6.049v6.036h6.049v-6.036z" fill="#fff"/><path opacity=".15" d="M466.48 363.231h-6.049v6.036h6.049v-6.036z" fill="#fff"/><path opacity=".23" d="M474.776 363.231h-6.049v6.036h6.049v-6.036z" fill="#fff"/><path opacity=".05" d="M483.073 363.231h-6.05v6.036h6.05v-6.036z" fill="#fff"/><path opacity=".2" d="M491.369 363.231h-6.049v6.036h6.049v-6.036z" fill="#fff"/><path opacity=".31" d="M499.665 363.231h-6.049v6.036h6.049v-6.036z" fill="#fff"/><path opacity=".15" d="M466.48 371.163h-6.049v6.036h6.049v-6.036z" fill="#fff"/><path opacity=".33" d="M474.776 371.163h-6.049v6.036h6.049v-6.036z" fill="#fff"/><path opacity=".46" d="M483.073 371.163h-6.05v6.036h6.05v-6.036z" fill="#fff"/><path opacity=".25" d="M491.369 371.163h-6.049v6.036h6.049v-6.036z" fill="#fff"/><path opacity=".43" d="M499.665 371.163h-6.049v6.036h6.049v-6.036z" fill="#fff"/><path opacity=".4" d="M466.48 379.096h-6.049v6.035h6.049v-6.035z" fill="#fff"/><path opacity=".39" d="M474.776 379.096h-6.049v6.035h6.049v-6.035z" fill="#fff"/><path opacity=".01" d="M483.073 379.096h-6.05v6.035h6.05v-6.035z" fill="#fff"/><path opacity=".12" d="M491.369 379.096h-6.049v6.035h6.049v-6.035z" fill="#fff"/><path opacity=".07" d="M499.665 379.096h-6.049v6.035h6.049v-6.035zm-33.185 7.932h-6.049v6.036h6.049v-6.036z" fill="#fff"/><path opacity=".02" d="M474.776 387.028h-6.049v6.036h6.049v-6.036z" fill="#fff"/><path opacity=".12" d="M483.073 387.028h-6.05v6.036h6.05v-6.036z" fill="#fff"/><path opacity=".23" d="M491.369 387.028h-6.049v6.036h6.049v-6.036z" fill="#fff"/><path opacity=".26" d="M499.665 387.028h-6.049v6.036h6.049v-6.036z" fill="#fff"/><path opacity=".27" d="M466.48 394.961h-6.049v6.035h6.049v-6.035z" fill="#fff"/><path opacity=".38" d="M474.776 394.961h-6.049v6.035h6.049v-6.035z" fill="#fff"/><path opacity=".05" d="M483.073 394.961h-6.05v6.035h6.05v-6.035z" fill="#fff"/><path opacity=".45" d="M491.369 394.961h-6.049v6.035h6.049v-6.035z" fill="#fff"/><path opacity=".15" d="M499.665 394.961h-6.049v6.035h6.049v-6.035z" fill="#fff"/><path opacity=".06" d="M466.48 402.893h-6.049v6.036h6.049v-6.036z" fill="#fff"/><path opacity=".47" d="M474.776 402.893h-6.049v6.036h6.049v-6.036z" fill="#fff"/><path opacity=".15" d="M483.073 402.893h-6.05v6.036h6.05v-6.036z" fill="#fff"/><path opacity=".44" d="M491.369 402.893h-6.049v6.036h6.049v-6.036z" fill="#fff"/><path opacity=".14" d="M499.665 402.893h-6.049v6.036h6.049v-6.036z" fill="#fff"/><path opacity=".15" d="M466.48 410.826h-6.049v6.035h6.049v-6.035z" fill="#fff"/><path opacity=".43" d="M474.776 410.826h-6.049v6.035h6.049v-6.035z" fill="#fff"/><path opacity=".07" d="M483.073 410.826h-6.05v6.035h6.05v-6.035z" fill="#fff"/><path opacity=".47" d="M491.369 410.826h-6.049v6.035h6.049v-6.035z" fill="#fff"/><path opacity=".11" d="M499.665 410.826h-6.049v6.035h6.049v-6.035z" fill="#fff"/><path opacity=".07" d="M466.48 418.758h-6.049v6.035h6.049v-6.035z" fill="#fff"/><path opacity=".34" d="M474.776 418.758h-6.049v6.035h6.049v-6.035z" fill="#fff"/><path opacity=".5" d="M483.073 418.758h-6.05v6.035h6.05v-6.035z" fill="#fff"/><path opacity=".36" d="M491.369 418.758h-6.049v6.035h6.049v-6.035z" fill="#fff"/><path opacity=".34" d="M499.665 418.758h-6.049v6.035h6.049v-6.035z" fill="#fff"/><path opacity=".47" d="M466.48 426.69h-6.049v6.036h6.049v-6.036z" fill="#fff"/><path opacity=".41" d="M474.776 426.69h-6.049v6.036h6.049v-6.036z" fill="#fff"/><path opacity=".3" d="M483.073 426.69h-6.05v6.036h6.05v-6.036z" fill="#fff"/><path opacity=".33" d="M491.369 426.69h-6.049v6.036h6.049v-6.036z" fill="#fff"/><path opacity=".12" d="M499.665 426.69h-6.049v6.036h6.049v-6.036z" fill="#fff"/><path opacity=".24" d="M466.48 434.623h-6.049v6.036h6.049v-6.036z" fill="#fff"/><path opacity=".29" d="M474.776 434.623h-6.049v6.036h6.049v-6.036z" fill="#fff"/><path opacity=".27" d="M491.369 434.623h-6.049v6.036h6.049v-6.036z" fill="#fff"/><path opacity=".04" d="M499.665 434.623h-6.049v6.036h6.049v-6.036z" fill="#fff"/><path opacity=".11" d="M466.48 442.555h-6.049v6.036h6.049v-6.036z" fill="#fff"/><path opacity=".05" d="M474.776 442.555h-6.049v6.036h6.049v-6.036z" fill="#fff"/><path opacity=".04" d="M483.073 442.555h-6.05v6.036h6.05v-6.036z" fill="#fff"/><path opacity=".02" d="M491.369 442.555h-6.049v6.036h6.049v-6.036z" fill="#fff"/><path opacity=".3" d="M536.826 307.531h-6.049v6.036h6.049v-6.036z" fill="#fff"/><path opacity=".72" d="M544.777 307.531h-6.05v6.036h6.05v-6.036z" fill="#fff"/><path opacity=".7" d="M552.9 307.531h-6.049v6.036h6.049v-6.036z" fill="#fff"/><path opacity=".52" d="M561.024 307.531h-6.05v6.036h6.05v-6.036z" fill="#fff"/><path opacity=".2" d="M569.147 307.531h-6.049v6.036h6.049v-6.036z" fill="#fff"/><path opacity=".32" d="M577.098 307.531h-6.049v6.036h6.049v-6.036z" fill="#fff"/><path opacity=".13" d="M585.221 307.531h-6.049v6.036h6.049v-6.036z" fill="#fff"/><path opacity=".38" d="M593.345 307.531h-6.049v6.036h6.049v-6.036z" fill="#fff"/><path opacity=".61" d="M601.296 307.531h-6.05v6.036h6.05v-6.036z" fill="#fff"/><path d="M609.419 307.531h-6.049v6.036h6.049v-6.036z" fill="#fff"/><path opacity=".91" d="M617.543 307.531h-6.05v6.036h6.05v-6.036z" fill="#fff"/><path opacity=".66" d="M536.826 315.464h-6.049v6.035h6.049v-6.035z" fill="#fff"/><path opacity=".31" d="M544.777 315.464h-6.05v6.035h6.05v-6.035z" fill="#fff"/><path opacity=".95" d="M552.9 315.464h-6.049v6.035h6.049v-6.035z" fill="#fff"/><path opacity=".7" d="M561.024 315.464h-6.05v6.035h6.05v-6.035z" fill="#fff"/><path opacity=".12" d="M569.147 315.464h-6.049v6.035h6.049v-6.035z" fill="#fff"/><path opacity=".24" d="M577.098 315.464h-6.049v6.035h6.049v-6.035z" fill="#fff"/><path opacity=".66" d="M585.221 315.464h-6.049v6.035h6.049v-6.035z" fill="#fff"/><path opacity=".71" d="M593.345 315.464h-6.049v6.035h6.049v-6.035z" fill="#fff"/><path opacity=".42" d="M601.296 315.464h-6.05v6.035h6.05v-6.035z" fill="#fff"/><path opacity=".09" d="M609.419 315.464h-6.049v6.035h6.049v-6.035z" fill="#fff"/><path opacity=".32" d="M617.543 315.464h-6.05v6.035h6.05v-6.035z" fill="#fff"/><path opacity=".65" d="M536.826 323.396h-6.049v6.036h6.049v-6.036z" fill="#fff"/><path d="M544.777 323.396h-6.05v6.036h6.05v-6.036zm8.123 0h-6.049v6.036h6.049v-6.036z" fill="#fff"/><path opacity=".71" d="M561.024 323.396h-6.05v6.036h6.05v-6.036z" fill="#fff"/><path opacity=".2" d="M569.147 323.396h-6.049v6.036h6.049v-6.036z" fill="#fff"/><path opacity=".19" d="M577.098 323.396h-6.049v6.036h6.049v-6.036z" fill="#fff"/><path opacity=".62" d="M585.221 323.396h-6.049v6.036h6.049v-6.036z" fill="#fff"/><path opacity=".93" d="M593.345 323.396h-6.049v6.036h6.049v-6.036z" fill="#fff"/><path opacity=".56" d="M601.296 323.396h-6.05v6.036h6.05v-6.036z" fill="#fff"/><path opacity=".57" d="M609.419 323.396h-6.049v6.036h6.049v-6.036z" fill="#fff"/><path opacity=".52" d="M617.543 323.396h-6.05v6.036h6.05v-6.036z" fill="#fff"/><path opacity=".74" d="M536.826 331.329h-6.049v6.035h6.049v-6.035z" fill="#fff"/><path opacity=".56" d="M544.777 331.329h-6.05v6.035h6.05v-6.035z" fill="#fff"/><path opacity=".78" d="M552.9 331.329h-6.049v6.035h6.049v-6.035z" fill="#fff"/><path opacity=".41" d="M561.024 331.329h-6.05v6.035h6.05v-6.035z" fill="#fff"/><path opacity=".14" d="M569.147 331.329h-6.049v6.035h6.049v-6.035z" fill="#fff"/><path opacity=".28" d="M577.098 331.329h-6.049v6.035h6.049v-6.035z" fill="#fff"/><path opacity=".36" d="M585.221 331.329h-6.049v6.035h6.049v-6.035z" fill="#fff"/><path opacity=".14" d="M593.345 331.329h-6.049v6.035h6.049v-6.035z" fill="#fff"/><path opacity=".5" d="M601.296 331.329h-6.05v6.035h6.05v-6.035z" fill="#fff"/><path opacity=".98" d="M609.419 331.329h-6.049v6.035h6.049v-6.035z" fill="#fff"/><path opacity=".59" d="M617.543 331.329h-6.05v6.035h6.05v-6.035z" fill="#fff"/><path opacity=".07" d="M536.826 339.261h-6.049v6.035h6.049v-6.035z" fill="#fff"/><path opacity=".1" d="M544.777 339.261h-6.05v6.035h6.05v-6.035z" fill="#fff"/><path opacity=".88" d="M552.9 339.261h-6.049v6.035h6.049v-6.035z" fill="#fff"/><path opacity=".68" d="M561.024 339.261h-6.05v6.035h6.05v-6.035z" fill="#fff"/><path opacity=".81" d="M569.147 339.261h-6.049v6.035h6.049v-6.035z" fill="#fff"/><path opacity=".62" d="M577.098 339.261h-6.049v6.035h6.049v-6.035z" fill="#fff"/><path opacity=".97" d="M585.221 339.261h-6.049v6.035h6.049v-6.035z" fill="#fff"/><path opacity=".81" d="M593.345 339.261h-6.049v6.035h6.049v-6.035z" fill="#fff"/><path opacity=".79" d="M601.296 339.261h-6.05v6.035h6.05v-6.035z" fill="#fff"/><path opacity=".03" d="M609.419 339.261h-6.049v6.035h6.049v-6.035z" fill="#fff"/><path opacity=".95" d="M617.543 339.261h-6.05v6.035h6.05v-6.035z" fill="#fff"/><path opacity=".62" d="M536.826 347.193h-6.049v6.036h6.049v-6.036z" fill="#fff"/><path opacity=".22" d="M544.777 347.193h-6.05v6.036h6.05v-6.036z" fill="#fff"/><path opacity=".42" d="M552.9 347.193h-6.049v6.036h6.049v-6.036z" fill="#fff"/><path opacity=".56" d="M561.024 347.193h-6.05v6.036h6.05v-6.036z" fill="#fff"/><path opacity=".03" d="M569.147 347.193h-6.049v6.036h6.049v-6.036z" fill="#fff"/><path opacity=".64" d="M577.098 347.193h-6.049v6.036h6.049v-6.036z" fill="#fff"/><path opacity=".82" d="M585.221 347.193h-6.049v6.036h6.049v-6.036z" fill="#fff"/><path opacity=".52" d="M593.345 347.193h-6.049v6.036h6.049v-6.036z" fill="#fff"/><path opacity=".46" d="M601.296 347.193h-6.05v6.036h6.05v-6.036z" fill="#fff"/><path opacity=".27" d="M609.419 347.193h-6.049v6.036h6.049v-6.036z" fill="#fff"/><path opacity=".46" d="M617.543 347.193h-6.05v6.036h6.05v-6.036z" fill="#fff"/><path opacity=".66" d="M536.826 355.298h-6.049v6.036h6.049v-6.036z" fill="#fff"/><path opacity=".7" d="M544.777 355.298h-6.05v6.036h6.05v-6.036z" fill="#fff"/><path opacity=".94" d="M552.9 355.298h-6.049v6.036h6.049v-6.036z" fill="#fff"/><path opacity=".5" d="M561.024 355.298h-6.05v6.036h6.05v-6.036z" fill="#fff"/><path opacity=".12" d="M569.147 355.298h-6.049v6.036h6.049v-6.036z" fill="#fff"/><path opacity=".36" d="M577.098 355.298h-6.049v6.036h6.049v-6.036z" fill="#fff"/><path opacity=".51" d="M585.221 355.298h-6.049v6.036h6.049v-6.036z" fill="#fff"/><path opacity=".37" d="M593.345 355.298h-6.049v6.036h6.049v-6.036z" fill="#fff"/><path opacity=".66" d="M601.296 355.298h-6.05v6.036h6.05v-6.036z" fill="#fff"/><path opacity=".42" d="M609.419 355.298h-6.049v6.036h6.049v-6.036z" fill="#fff"/><path opacity=".5" d="M617.543 355.298h-6.05v6.036h6.05v-6.036z" fill="#fff"/><path opacity=".52" d="M536.826 363.231h-6.049v6.036h6.049v-6.036z" fill="#fff"/><path opacity=".61" d="M544.777 363.231h-6.05v6.036h6.05v-6.036z" fill="#fff"/><path opacity=".84" d="M552.9 363.231h-6.049v6.036h6.049v-6.036z" fill="#fff"/><path opacity=".89" d="M561.024 363.231h-6.05v6.036h6.05v-6.036z" fill="#fff"/><path opacity=".33" d="M569.147 363.231h-6.049v6.036h6.049v-6.036z" fill="#fff"/><path opacity=".25" d="M577.098 363.231h-6.049v6.036h6.049v-6.036z" fill="#fff"/><path opacity=".95" d="M585.221 363.231h-6.049v6.036h6.049v-6.036z" fill="#fff"/><path opacity=".09" d="M593.345 363.231h-6.049v6.036h6.049v-6.036z" fill="#fff"/><path opacity=".44" d="M601.296 363.231h-6.05v6.036h6.05v-6.036z" fill="#fff"/><path opacity=".51" d="M609.419 363.231h-6.049v6.036h6.049v-6.036z" fill="#fff"/><path opacity=".97" d="M617.543 363.231h-6.05v6.036h6.05v-6.036z" fill="#fff"/><path opacity=".26" d="M536.826 371.163h-6.049v6.036h6.049v-6.036z" fill="#fff"/><path opacity=".92" d="M544.777 371.163h-6.05v6.036h6.05v-6.036z" fill="#fff"/><path opacity=".33" d="M552.9 371.163h-6.049v6.036h6.049v-6.036z" fill="#fff"/><path opacity=".23" d="M561.024 371.163h-6.05v6.036h6.05v-6.036z" fill="#fff"/><path opacity=".42" d="M569.147 371.163h-6.049v6.036h6.049v-6.036z" fill="#fff"/><path opacity=".57" d="M577.098 371.163h-6.049v6.036h6.049v-6.036z" fill="#fff"/><path opacity=".73" d="M585.221 371.163h-6.049v6.036h6.049v-6.036z" fill="#fff"/><path opacity=".87" d="M593.345 371.163h-6.049v6.036h6.049v-6.036z" fill="#fff"/><path opacity=".22" d="M601.296 371.163h-6.05v6.036h6.05v-6.036z" fill="#fff"/><path opacity=".89" d="M609.419 371.163h-6.049v6.036h6.049v-6.036z" fill="#fff"/><path opacity=".73" d="M617.543 371.163h-6.05v6.036h6.05v-6.036z" fill="#fff"/><path opacity=".35" d="M536.826 379.096h-6.049v6.035h6.049v-6.035z" fill="#fff"/><path opacity=".81" d="M544.777 379.096h-6.05v6.035h6.05v-6.035z" fill="#fff"/><path opacity=".56" d="M552.9 379.096h-6.049v6.035h6.049v-6.035z" fill="#fff"/><path opacity=".81" d="M561.024 379.096h-6.05v6.035h6.05v-6.035z" fill="#fff"/><path opacity=".87" d="M569.147 379.096h-6.049v6.035h6.049v-6.035z" fill="#fff"/><path opacity=".39" d="M577.098 379.096h-6.049v6.035h6.049v-6.035z" fill="#fff"/><path opacity=".31" d="M585.221 379.096h-6.049v6.035h6.049v-6.035z" fill="#fff"/><path opacity=".98" d="M593.345 379.096h-6.049v6.035h6.049v-6.035z" fill="#fff"/><path opacity=".17" d="M601.296 379.096h-6.05v6.035h6.05v-6.035z" fill="#fff"/><path opacity=".06" d="M609.419 379.096h-6.049v6.035h6.049v-6.035z" fill="#fff"/><path opacity=".57" d="M617.543 379.096h-6.05v6.035h6.05v-6.035z" fill="#fff"/><path opacity=".67" d="M536.826 387.028h-6.049v6.036h6.049v-6.036z" fill="#fff"/><path opacity=".83" d="M544.777 387.028h-6.05v6.036h6.05v-6.036z" fill="#fff"/><path opacity=".99" d="M552.9 387.028h-6.049v6.036h6.049v-6.036z" fill="#fff"/><path opacity=".62" d="M561.024 387.028h-6.05v6.036h6.05v-6.036z" fill="#fff"/><path opacity=".87" d="M569.147 387.028h-6.049v6.036h6.049v-6.036z" fill="#fff"/><path opacity=".14" d="M577.098 387.028h-6.049v6.036h6.049v-6.036z" fill="#fff"/><path opacity=".12" d="M585.221 387.028h-6.049v6.036h6.049v-6.036z" fill="#fff"/><path opacity=".11" d="M593.345 387.028h-6.049v6.036h6.049v-6.036z" fill="#fff"/><path opacity=".39" d="M601.296 387.028h-6.05v6.036h6.05v-6.036z" fill="#fff"/><path opacity=".58" d="M609.419 387.028h-6.049v6.036h6.049v-6.036z" fill="#fff"/><path opacity=".54" d="M617.543 387.028h-6.05v6.036h6.05v-6.036z" fill="#fff"/><path opacity=".99" d="M536.826 394.961h-6.049v6.035h6.049v-6.035z" fill="#fff"/><path opacity=".28" d="M544.777 394.961h-6.05v6.035h6.05v-6.035z" fill="#fff"/><path opacity=".78" d="M552.9 394.961h-6.049v6.035h6.049v-6.035z" fill="#fff"/><path opacity=".65" d="M561.024 394.961h-6.05v6.035h6.05v-6.035z" fill="#fff"/><path opacity=".32" d="M569.147 394.961h-6.049v6.035h6.049v-6.035z" fill="#fff"/><path opacity=".55" d="M577.098 394.961h-6.049v6.035h6.049v-6.035z" fill="#fff"/><path opacity=".4" d="M585.221 394.961h-6.049v6.035h6.049v-6.035z" fill="#fff"/><path opacity=".22" d="M593.345 394.961h-6.049v6.035h6.049v-6.035z" fill="#fff"/><path opacity=".87" d="M601.296 394.961h-6.05v6.035h6.05v-6.035z" fill="#fff"/><path opacity=".02" d="M609.419 394.961h-6.049v6.035h6.049v-6.035z" fill="#fff"/><path opacity=".39" d="M617.543 394.961h-6.05v6.035h6.05v-6.035z" fill="#fff"/><path opacity=".89" d="M536.826 402.893h-6.049v6.036h6.049v-6.036z" fill="#fff"/><path opacity=".97" d="M544.777 402.893h-6.05v6.036h6.05v-6.036z" fill="#fff"/><path opacity=".79" d="M552.9 402.893h-6.049v6.036h6.049v-6.036z" fill="#fff"/><path opacity=".41" d="M561.024 402.893h-6.05v6.036h6.05v-6.036z" fill="#fff"/><path opacity=".13" d="M569.147 402.893h-6.049v6.036h6.049v-6.036z" fill="#fff"/><path opacity=".9" d="M577.098 402.893h-6.049v6.036h6.049v-6.036z" fill="#fff"/><path opacity=".98" d="M585.221 402.893h-6.049v6.036h6.049v-6.036z" fill="#fff"/><path opacity=".67" d="M593.345 402.893h-6.049v6.036h6.049v-6.036z" fill="#fff"/><path opacity=".65" d="M601.296 402.893h-6.05v6.036h6.05v-6.036z" fill="#fff"/><path opacity=".89" d="M609.419 402.893h-6.049v6.036h6.049v-6.036z" fill="#fff"/><path opacity=".98" d="M617.543 402.893h-6.05v6.036h6.05v-6.036z" fill="#fff"/><path opacity=".29" d="M536.826 410.826h-6.049v6.035h6.049v-6.035z" fill="#fff"/><path opacity=".74" d="M544.777 410.826h-6.05v6.035h6.05v-6.035z" fill="#fff"/><path opacity=".64" d="M552.9 410.826h-6.049v6.035h6.049v-6.035z" fill="#fff"/><path opacity=".65" d="M561.024 410.826h-6.05v6.035h6.05v-6.035z" fill="#fff"/><path opacity=".07" d="M569.147 410.826h-6.049v6.035h6.049v-6.035z" fill="#fff"/><path opacity=".16" d="M577.098 410.826h-6.049v6.035h6.049v-6.035z" fill="#fff"/><path opacity=".84" d="M585.221 410.826h-6.049v6.035h6.049v-6.035z" fill="#fff"/><path opacity=".88" d="M593.345 410.826h-6.049v6.035h6.049v-6.035z" fill="#fff"/><path opacity=".57" d="M601.296 410.826h-6.05v6.035h6.05v-6.035z" fill="#fff"/><path opacity=".31" d="M609.419 410.826h-6.049v6.035h6.049v-6.035z" fill="#fff"/><path opacity=".03" d="M617.543 410.826h-6.05v6.035h6.05v-6.035z" fill="#fff"/><path opacity=".3" d="M536.826 418.758h-6.049v6.035h6.049v-6.035z" fill="#fff"/><path opacity=".59" d="M544.777 418.758h-6.05v6.035h6.05v-6.035z" fill="#fff"/><path opacity=".93" d="M552.9 418.758h-6.049v6.035h6.049v-6.035z" fill="#fff"/><path opacity=".06" d="M561.024 418.758h-6.05v6.035h6.05v-6.035z" fill="#fff"/><path opacity=".74" d="M569.147 418.758h-6.049v6.035h6.049v-6.035z" fill="#fff"/><path opacity=".22" d="M577.098 418.758h-6.049v6.035h6.049v-6.035z" fill="#fff"/><path opacity=".51" d="M585.221 418.758h-6.049v6.035h6.049v-6.035z" fill="#fff"/><path opacity=".7" d="M593.345 418.758h-6.049v6.035h6.049v-6.035z" fill="#fff"/><path opacity=".47" d="M601.296 418.758h-6.05v6.035h6.05v-6.035z" fill="#fff"/><path opacity=".08" d="M609.419 418.758h-6.049v6.035h6.049v-6.035z" fill="#fff"/><path opacity=".93" d="M617.543 418.758h-6.05v6.035h6.05v-6.035z" fill="#fff"/><path opacity=".81" d="M536.826 426.69h-6.049v6.036h6.049v-6.036z" fill="#fff"/><path opacity=".9" d="M544.777 426.69h-6.05v6.036h6.05v-6.036z" fill="#fff"/><path opacity=".55" d="M552.9 426.69h-6.049v6.036h6.049v-6.036z" fill="#fff"/><path opacity=".14" d="M561.024 426.69h-6.05v6.036h6.05v-6.036z" fill="#fff"/><path opacity=".66" d="M569.147 426.69h-6.049v6.036h6.049v-6.036z" fill="#fff"/><path opacity=".92" d="M577.098 426.69h-6.049v6.036h6.049v-6.036z" fill="#fff"/><path opacity=".4" d="M585.221 426.69h-6.049v6.036h6.049v-6.036z" fill="#fff"/><path opacity=".6" d="M593.345 426.69h-6.049v6.036h6.049v-6.036z" fill="#fff"/><path opacity=".99" d="M601.296 426.69h-6.05v6.036h6.05v-6.036z" fill="#fff"/><path opacity=".68" d="M609.419 426.69h-6.049v6.036h6.049v-6.036z" fill="#fff"/><path opacity=".01" d="M617.543 426.69h-6.05v6.036h6.05v-6.036z" fill="#fff"/><path opacity=".82" d="M536.826 434.623h-6.049v6.036h6.049v-6.036z" fill="#fff"/><path opacity=".92" d="M544.777 434.623h-6.05v6.036h6.05v-6.036z" fill="#fff"/><path opacity=".29" d="M552.9 434.623h-6.049v6.036h6.049v-6.036z" fill="#fff"/><path opacity=".73" d="M561.024 434.623h-6.05v6.036h6.05v-6.036z" fill="#fff"/><path opacity=".42" d="M569.147 434.623h-6.049v6.036h6.049v-6.036z" fill="#fff"/><path opacity=".06" d="M577.098 434.623h-6.049v6.036h6.049v-6.036z" fill="#fff"/><path opacity=".7" d="M585.221 434.623h-6.049v6.036h6.049v-6.036z" fill="#fff"/><path opacity=".97" d="M593.345 434.623h-6.049v6.036h6.049v-6.036z" fill="#fff"/><path opacity=".51" d="M601.296 434.623h-6.05v6.036h6.05v-6.036z" fill="#fff"/><path opacity=".69" d="M609.419 434.623h-6.049v6.036h6.049v-6.036z" fill="#fff"/><path opacity=".49" d="M617.543 434.623h-6.05v6.036h6.05v-6.036z" fill="#fff"/><path opacity=".45" d="M536.826 442.555h-6.049v6.036h6.049v-6.036z" fill="#fff"/><path opacity=".46" d="M544.777 442.555h-6.05v6.036h6.05v-6.036z" fill="#fff"/><path opacity=".04" d="M552.9 442.555h-6.049v6.036h6.049v-6.036z" fill="#fff"/><path opacity=".56" d="M561.024 442.555h-6.05v6.036h6.05v-6.036z" fill="#fff"/><path opacity=".4" d="M569.147 442.555h-6.049v6.036h6.049v-6.036z" fill="#fff"/><path opacity=".59" d="M577.098 442.555h-6.049v6.036h6.049v-6.036z" fill="#fff"/><path opacity=".82" d="M585.221 442.555h-6.049v6.036h6.049v-6.036z" fill="#fff"/><path opacity=".99" d="M593.345 442.555h-6.049v6.036h6.049v-6.036z" fill="#fff"/><path opacity=".1" d="M601.296 442.555h-6.05v6.036h6.05v-6.036z" fill="#fff"/><path opacity=".87" d="M609.419 442.555h-6.049v6.036h6.049v-6.036z" fill="#fff"/><path d="M617.543 442.555h-6.05v6.036h6.05v-6.036z" fill="#fff"/><path d="M434.677 268.732H377.64v178.307h57.037V268.732z" fill="#333"/><path d="M403.566 259.765H377.64v10.001h25.926v-10.001zm-10.889-5.864H377.64v5.864h15.037v-5.864z" fill="#333"/><path opacity=".25" d="M410.653 281.32h-9.334v9.312h9.334v-9.312z" fill="#fff"/><path opacity=".15" d="M410.653 304.255h-9.334v9.312h9.334v-9.312z" fill="#fff"/><path opacity=".19" d="M410.653 349.953h-9.334v9.312h9.334v-9.312z" fill="#fff"/><path opacity=".17" d="M410.653 372.715h-9.334v9.312h9.334v-9.312z" fill="#fff"/><path opacity=".22" d="M410.653 395.478h-9.334v9.312h9.334v-9.312z" fill="#fff"/><path d="M410.653 418.413h-9.334v9.312h9.334v-9.312z" fill="#fff"/><path d="M392.332 368.06h-53.408v15.692h53.408V368.06z" fill="#333"/><path d="M418.949 368.06h-26.617v15.692h26.617V368.06z" fill="#4D4D4D"/><path d="M338.924 368.059l16.593-7.932 36.815 7.932h-53.408z" fill="#333"/><path d="M355.517 360.127l36.815 7.932h26.617l-63.432-7.932z" fill="#4D4D4D"/><path d="M404.776 379.096h-78.124v71.392h78.124v-71.392z" fill="#333"/><path d="M430.702 379.096h-25.926v71.392h25.926v-71.392z" fill="#4D4D4D"/><path opacity=".81" d="M424.653 384.097h-14v5.173h14v-5.173z" fill="#fff"/><path opacity=".76" d="M424.653 393.581h-14v5.173h14v-5.173z" fill="#fff"/><path opacity=".32" d="M424.653 403.065h-14v5.174h14v-5.174z" fill="#fff"/><path opacity=".49" d="M424.653 412.723h-14v5.173h14v-5.173z" fill="#fff"/><path opacity=".99" d="M424.653 431.691h-14v5.174h14v-5.174z" fill="#fff"/><path opacity=".1" d="M353.097 384.097h-14v5.173h14v-5.173z" fill="#fff"/><path opacity=".04" d="M372.628 384.097h-14v5.173h14v-5.173z" fill="#fff"/><path opacity=".07" d="M392.332 384.097h-14v5.173h14v-5.173z" fill="#fff"/><path opacity=".06" d="M353.097 393.581h-14v5.173h14v-5.173z" fill="#fff"/><path opacity=".44" d="M372.628 393.581h-14v5.173h14v-5.173z" fill="#fff"/><path opacity=".24" d="M392.332 393.581h-14v5.173h14v-5.173z" fill="#fff"/><path opacity=".55" d="M353.097 403.065h-14v5.174h14v-5.174z" fill="#fff"/><path opacity=".02" d="M372.628 403.065h-14v5.174h14v-5.174z" fill="#fff"/><path opacity=".14" d="M392.332 403.065h-14v5.174h14v-5.174z" fill="#fff"/><path opacity=".43" d="M353.097 412.723h-14v5.173h14v-5.173z" fill="#fff"/><path opacity=".41" d="M372.628 412.723h-14v5.173h14v-5.173z" fill="#fff"/><path opacity=".46" d="M392.332 412.723h-14v5.173h14v-5.173z" fill="#fff"/><path opacity=".45" d="M353.097 422.207h-14v5.173h14v-5.173z" fill="#fff"/><path opacity=".33" d="M372.628 422.207h-14v5.173h14v-5.173z" fill="#fff"/><path opacity=".05" d="M392.332 422.207h-14v5.173h14v-5.173z" fill="#fff"/><path opacity=".27" d="M353.097 431.691h-14v5.174h14v-5.174z" fill="#fff"/><path opacity=".15" d="M372.628 431.691h-14v5.174h14v-5.174z" fill="#fff"/><path opacity=".7" d="M392.332 431.691h-14v5.174h14v-5.174z" fill="#fff"/><path d="M24.7 307.704h-48.395v148.82H24.7v-148.82z" fill="#333"/><path d="M79.836 307.704H24.873v148.82h54.963v-148.82zM24.7 320.293h-48.395v2.587H24.7v-2.587z" fill="#4D4D4D"/><path d="M79.836 320.293H24.873v2.587h54.963v-2.587z" fill="#333"/><path opacity=".25" d="M6.725 325.811H1.539v5.173h5.186v-5.173z" fill="#fff"/><path opacity=".12" d="M20.897 325.811h-5.185v5.173h5.185v-5.173z" fill="#fff"/><path opacity=".47" d="M6.725 332.881H1.539v5.173h5.186v-5.173z" fill="#fff"/><path opacity=".22" d="M13.811 332.881H8.626v5.173h5.185v-5.173z" fill="#fff"/><path opacity=".32" d="M20.897 332.881h-5.185v5.173h5.185v-5.173z" fill="#fff"/><path opacity=".28" d="M6.725 339.951H1.539v5.174h5.186v-5.174z" fill="#fff"/><path opacity=".2" d="M20.897 339.951h-5.185v5.174h5.185v-5.174z" fill="#fff"/><path opacity=".05" d="M6.725 347.021H1.539v5.174h5.186v-5.174z" fill="#fff"/><path opacity=".08" d="M13.811 347.021H8.626v5.174h5.185v-5.174zm-7.086 7.071H1.539v5.173h5.186v-5.173z" fill="#fff"/><path opacity=".02" d="M13.811 354.092H8.626v5.173h5.185v-5.173z" fill="#fff"/><path opacity=".2" d="M6.725 361.162H1.539v5.173h5.186v-5.173z" fill="#fff"/><path opacity=".23" d="M13.811 361.162H8.626v5.173h5.185v-5.173z" fill="#fff"/><path opacity=".24" d="M13.811 368.232H8.626v5.174h5.185v-5.174z" fill="#fff"/><path opacity=".02" d="M6.725 375.302H1.539v5.174h5.186v-5.174z" fill="#fff"/><path opacity=".04" d="M13.811 375.302H8.626v5.174h5.185v-5.174z" fill="#fff"/><path opacity=".3" d="M20.897 375.302h-5.185v5.174h5.185v-5.174z" fill="#fff"/><path opacity=".4" d="M20.897 382.2h-5.185v5.174h5.185V382.2z" fill="#fff"/><path opacity=".19" d="M13.811 389.271H8.626v5.173h5.185v-5.173z" fill="#fff"/><path opacity=".43" d="M20.897 389.271h-5.185v5.173h5.185v-5.173z" fill="#fff"/><path opacity=".42" d="M6.725 396.341H1.539v5.173h5.186v-5.173z" fill="#fff"/><path opacity=".31" d="M20.897 396.341h-5.185v5.173h5.185v-5.173zm-14.172 7.07H1.539v5.173h5.186v-5.173z" fill="#fff"/><path opacity=".33" d="M20.897 403.411h-5.185v5.173h5.185v-5.173z" fill="#fff"/><path opacity=".17" d="M6.725 410.481H1.539v5.174h5.186v-5.174z" fill="#fff"/><path opacity=".01" d="M13.811 410.481H8.626v5.174h5.185v-5.174z" fill="#fff"/><path opacity=".48" d="M20.897 410.481h-5.185v5.174h5.185v-5.174z" fill="#fff"/><path opacity=".02" d="M6.725 417.551H1.539v5.174h5.186v-5.174z" fill="#fff"/><path opacity=".17" d="M13.811 417.551H8.626v5.174h5.185v-5.174z" fill="#fff"/><path opacity=".42" d="M20.897 417.551h-5.185v5.174h5.185v-5.174z" fill="#fff"/><path opacity=".02" d="M6.725 424.622H1.539v5.173h5.186v-5.173z" fill="#fff"/><path opacity=".3" d="M20.897 424.622h-5.185v5.173h5.185v-5.173z" fill="#fff"/><path opacity=".05" d="M6.725 431.692H1.539v5.173h5.186v-5.173z" fill="#fff"/><path opacity=".2" d="M20.897 431.692h-5.185v5.173h5.185v-5.173z" fill="#fff"/><path opacity=".27" d="M6.725 438.762H1.539v5.174h5.186v-5.174z" fill="#fff"/><path opacity=".13" d="M13.811 438.762H8.626v5.174h5.185v-5.174z" fill="#fff"/><path opacity=".12" d="M6.725 445.832H1.539v5.173h5.186v-5.173z" fill="#fff"/><path opacity=".04" d="M13.811 445.832H8.626v5.173h5.185v-5.173z" fill="#fff"/><path opacity=".3" d="M20.897 445.832h-5.185v5.173h5.185v-5.173z" fill="#fff"/><path opacity=".08" d="M13.811 325.811H8.626v5.173h5.185v-5.173zm0 14.14H8.626v5.174h5.185v-5.174z" fill="#fff"/><path opacity=".01" d="M20.897 347.021h-5.185v5.174h5.185v-5.174z" fill="#fff"/><path opacity=".12" d="M20.897 354.092h-5.185v5.173h5.185v-5.173z" fill="#fff"/><path opacity=".13" d="M6.725 368.232H1.539v5.174h5.186v-5.174z" fill="#fff"/><path opacity=".07" d="M20.897 368.232h-5.185v5.174h5.185v-5.174z" fill="#fff"/><path opacity=".02" d="M6.725 382.2H1.539v5.174h5.186V382.2z" fill="#fff"/><path opacity=".14" d="M13.811 382.2H8.626v5.174h5.185V382.2z" fill="#fff"/><path opacity=".02" d="M13.811 396.341H8.626v5.173h5.185v-5.173z" fill="#fff"/><path opacity=".06" d="M13.811 403.411H8.626v5.173h5.185v-5.173z" fill="#fff"/><path opacity=".04" d="M13.811 424.622H8.626v5.173h5.185v-5.173zm0 7.07H8.626v5.173h5.185v-5.173z" fill="#fff"/><path opacity=".18" d="M20.897 438.762h-5.185v5.174h5.185v-5.174z" fill="#fff"/><path opacity=".7" d="M35.243 322.879h-5.358v127.092h5.358V322.879zm9.161 0h-5.358v127.092h5.358V322.879zm9.333 0H48.38v127.092h5.358V322.879zm9.333 0h-5.357v127.092h5.358V322.879zm9.334 0h-5.358v127.092h5.358V322.879z" fill="#E6E6E6"/><path d="M107.491 449.971H-.016l107.507-93.465v93.465z" fill="#333"/><path d="M98.33 433.417H61.342v20.693H98.33v-20.693z" fill="#4D4D4D"/><path d="M95.565 428.588H64.108v9.657h31.457v-9.657z" fill="#4D4D4D"/><path d="M91.935 431.519h-24.37l8.469-14.14h7.432l8.47 14.14z" fill="#4D4D4D"/><path d="M88.478 437.555H71.194v12.588h17.284v-12.588z" fill="#fff"/><path d="M90.552 442.556H69.12v2.586h21.432v-2.586z" fill="#4D4D4D"/><path d="M263.393 467.388c.518 13.45-9.852 25.004-23.507 25.521-13.481.518-25.061-10.001-25.58-23.452-.518-13.451 9.852-25.004 23.506-25.522 13.482-.517 24.889 10.002 25.581 23.453z" fill="#333"/><path d="M259.245 460.662c.345 7.76-5.704 14.313-13.482 14.658-7.778.345-14.346-5.691-14.691-13.451-.346-7.76 5.703-14.313 13.481-14.658 7.778-.345 14.346 5.691 14.692 13.451z" fill="#4D4D4D"/><path d="M16.576 442.039c0 3.276-2.765 6.035-6.049 6.035-3.284 0-6.05-2.759-6.05-6.035 0-3.277 2.766-6.036 6.05-6.036s6.05 2.587 6.05 6.036z" fill="#333"/><path d="M18.65 448.074c0 4.484-3.629 8.105-8.123 8.105s-8.123-3.621-8.123-8.105c0-4.483 3.63-8.105 8.123-8.105 4.494 0 8.124 3.622 8.124 8.105z" fill="#333"/><path d="M14.502 436.865c0 2.242-1.728 4.139-3.975 4.139s-3.975-1.897-3.975-4.139 1.728-4.138 3.975-4.138 3.975 1.896 3.975 4.138z" fill="#333"/><path d="M15.712 442.039a3.463 3.463 0 0 1-3.457 3.449 3.463 3.463 0 0 1-3.456-3.449 3.463 3.463 0 0 1 3.457-3.449 3.463 3.463 0 0 1 3.456 3.449z" fill="#4D4D4D"/><path d="M13.984 437.382c0 1.38-1.21 2.587-2.593 2.587-1.382 0-2.592-1.207-2.592-2.587 0-1.379 1.21-2.586 2.592-2.586 1.383-.173 2.593 1.034 2.593 2.586z" fill="#4D4D4D"/><path d="M131.861 454.627c0 4.311-3.63 7.932-7.951 7.932s-7.95-3.621-7.95-7.932a7.92 7.92 0 0 1 7.95-7.933c4.321 0 7.951 3.622 7.951 7.933z" fill="#333"/><path d="M129.096 447.901c0 2.932-2.247 5.346-5.186 5.346-2.938 0-5.185-2.414-5.185-5.346 0-2.931 2.247-5.345 5.185-5.345 2.766 0 5.186 2.414 5.186 5.345z" fill="#333"/><path d="M128.404 448.419a3.463 3.463 0 0 1-3.457 3.449 3.462 3.462 0 0 1-3.456-3.449 3.462 3.462 0 0 1 3.456-3.449 3.463 3.463 0 0 1 3.457 3.449z" fill="#4D4D4D"/><path d="M121.145 460.49c-.864 8.278-8.296 14.141-16.42 13.278-8.296-.862-14.173-8.277-13.308-16.382.864-8.277 8.296-14.14 16.419-13.278 8.124.862 14.173 8.105 13.309 16.382z" fill="#333"/><path d="M117.343 447.212c-.519 5.518-5.358 9.657-10.889 9.14-5.358-.518-9.334-5.519-8.815-11.037.518-5.518 5.358-9.657 10.889-9.139 5.531.517 9.333 5.518 8.815 11.036z" fill="#333"/><path d="M115.96 448.247c-.346 3.621-3.63 6.208-7.087 5.863-3.629-.345-6.222-3.622-5.876-7.071.346-3.621 3.629-6.208 7.086-5.863 3.63.345 6.223 3.622 5.877 7.071z" fill="#4D4D4D"/><path d="M199.442 453.248c0 7.587-6.05 13.623-13.655 13.623-7.605 0-13.654-6.036-13.654-13.623 0-7.588 6.049-13.623 13.654-13.623 7.433 0 13.655 6.035 13.655 13.623z" fill="#333"/><path d="M204.108 466.87c0 10.175-8.296 18.28-18.321 18.28-10.197 0-18.321-8.278-18.321-18.28 0-10.174 8.297-18.279 18.321-18.279 10.025 0 18.321 8.278 18.321 18.279z" fill="#333"/><path d="M194.602 441.521c0 5.173-3.975 9.312-8.987 9.312-5.013 0-8.988-4.139-8.988-9.312 0-5.173 3.975-9.312 8.988-9.312 5.012.172 8.987 4.311 8.987 9.312z" fill="#333"/><path d="M197.368 453.247a7.921 7.921 0 0 1-7.951 7.933c-4.321 0-7.951-3.449-7.951-7.933a7.92 7.92 0 0 1 7.951-7.932c4.321.172 7.951 3.621 7.951 7.932z" fill="#4D4D4D"/><path d="M193.392 442.728c0 3.277-2.592 6.036-6.049 6.036-3.284 0-6.049-2.587-6.049-6.036 0-3.276 2.592-5.863 6.049-5.863 3.457-.172 6.049 2.587 6.049 5.863z" fill="#4D4D4D"/><path d="M169.195 464.628c0 9.657-7.951 17.59-17.63 17.59-9.679 0-17.63-7.933-17.63-17.59 0-9.656 7.951-17.589 17.63-17.589 9.679 0 17.63 7.76 17.63 17.589z" fill="#333"/><path d="M163.145 449.453c0 6.553-5.185 11.899-11.58 11.899-6.395 0-11.58-5.346-11.58-11.899 0-6.553 5.185-11.898 11.58-11.898 6.395 0 11.58 5.345 11.58 11.898z" fill="#333"/><path d="M161.59 451.005c0 4.311-3.457 7.588-7.778 7.588s-7.778-3.449-7.778-7.588a7.737 7.737 0 0 1 7.778-7.76 7.737 7.737 0 0 1 7.778 7.76z" fill="#4D4D4D"/><path d="M211.886 451.523c0 2.069-1.555 3.621-3.457 3.621-1.901 0-3.456-1.552-3.456-3.621 0-2.07 1.555-3.622 3.456-3.622 1.902 0 3.457 1.552 3.457 3.622zm74.322-4.311c0 6.725-5.358 12.071-12.099 12.071-6.741 0-12.099-5.346-12.099-12.071 0-6.726 5.358-12.071 12.099-12.071 6.741 0 12.099 5.345 12.099 12.071z" fill="#333"/><path d="M290.356 459.283c0 8.967-7.259 16.21-16.247 16.21s-16.247-7.243-16.247-16.21 7.259-16.21 16.247-16.21 16.247 7.243 16.247 16.21z" fill="#333"/><path d="M282.06 436.865c0 4.484-3.63 8.278-7.951 8.278s-7.951-3.622-7.951-8.278c0-4.483 3.63-8.277 7.951-8.277s7.951 3.794 7.951 8.277z" fill="#333"/><path d="M284.306 447.212c0 3.794-3.111 6.898-6.913 6.898-3.803 0-6.914-3.104-6.914-6.898 0-3.794 3.111-6.898 6.914-6.898 3.802 0 6.913 3.104 6.913 6.898z" fill="#4D4D4D"/><path d="M281.022 437.9c0 2.931-2.419 5.346-5.358 5.346-2.938 0-5.358-2.415-5.358-5.346 0-2.932 2.42-5.346 5.358-5.346 2.939 0 5.358 2.414 5.358 5.346z" fill="#4D4D4D"/><path d="M331.319 462.387c0 8.967-7.259 16.21-16.247 16.21s-16.247-7.243-16.247-16.21 7.259-16.21 16.247-16.21c8.988.173 16.247 7.415 16.247 16.21z" fill="#333"/><path d="M325.615 448.592c0 6.035-4.839 11.036-10.543 11.036-5.877 0-10.716-4.828-10.716-11.036 0-6.036 4.839-10.864 10.716-10.864 5.876 0 10.543 4.828 10.543 10.864z" fill="#333"/><path d="M324.233 449.971c0 3.966-3.111 7.07-7.087 7.07-3.975 0-7.086-3.104-7.086-7.07s3.111-7.07 7.086-7.07c3.976 0 7.087 3.104 7.087 7.07z" fill="#4D4D4D"/><path d="M595.765 468.94c0 14.83-11.926 26.729-26.79 26.729-14.865 0-26.791-11.899-26.791-26.729s11.926-26.729 26.791-26.729c14.864 0 26.79 12.071 26.79 26.729z" fill="#333"/><path d="M591.79 461.525c0 8.45-6.914 15.347-15.383 15.347s-15.383-6.897-15.383-15.347 6.914-15.348 15.383-15.348 15.383 6.898 15.383 15.348z" fill="#4D4D4D"/><path d="M630.16 457.386c0 12.416-10.198 22.59-22.642 22.59-12.445 0-22.642-10.174-22.642-22.59s10.197-22.59 22.642-22.59c12.617 0 22.642 10.002 22.642 22.59z" fill="#333"/><path d="M626.703 451.006c0 7.242-5.876 12.933-12.963 12.933a12.93 12.93 0 0 1-12.963-12.933c0-7.071 5.877-12.934 12.963-12.934 7.087 0 12.963 5.863 12.963 12.934z" fill="#4D4D4D"/><path d="M572.431 461.007c0 12.416-10.197 22.591-22.642 22.591-12.444 0-22.642-10.175-22.642-22.591s10.198-22.59 22.642-22.59c12.618 0 22.642 10.002 22.642 22.59z" fill="#333"/><path d="M568.975 454.627c0 7.242-5.877 12.933-12.963 12.933-7.087 0-12.964-5.863-12.964-12.933 0-7.243 5.877-12.934 12.964-12.934 7.086 0 12.963 5.691 12.963 12.934z" fill="#4D4D4D"/><path d="M502.604 466.181c0 12.416-10.198 22.59-22.642 22.59-12.445 0-22.642-10.174-22.642-22.59s10.197-22.59 22.642-22.59c12.617 0 22.642 10.174 22.642 22.59z" fill="#333"/><path d="M499.147 459.8c0 7.243-5.877 12.934-12.963 12.934a12.93 12.93 0 0 1-12.963-12.934c0-7.242 5.876-12.933 12.963-12.933 7.086 0 12.963 5.863 12.963 12.933z" fill="#4D4D4D"/><path d="M475.295 462.387c0 12.416-10.198 22.59-22.642 22.59-12.445 0-22.642-10.174-22.642-22.59s10.197-22.59 22.642-22.59c12.444 0 22.642 10.002 22.642 22.59z" fill="#333"/><path d="M471.838 456.007c0 7.243-5.876 12.933-12.963 12.933a12.93 12.93 0 0 1-12.963-12.933c0-7.243 5.877-12.933 12.963-12.933 7.087 0 12.963 5.69 12.963 12.933z" fill="#4D4D4D"/><path d="M492.925 458.765c0 7.243-5.877 12.934-12.963 12.934a12.93 12.93 0 0 1-12.963-12.934c0-7.242 5.876-12.933 12.963-12.933a12.93 12.93 0 0 1 12.963 12.933z" fill="#4D4D4D"/><path d="M396.307 459.8c0 8.105-6.568 14.83-14.864 14.83-8.124 0-14.865-6.553-14.865-14.83 0-8.105 6.568-14.83 14.865-14.83 8.296.172 14.864 6.725 14.864 14.83z" fill="#333"/><path d="M394.06 455.661c0 4.656-3.802 8.45-8.469 8.45s-8.469-3.794-8.469-8.45c0-4.656 3.802-8.45 8.469-8.45s8.469 3.794 8.469 8.45z" fill="#4D4D4D"/><path d="M7.935 448.074c0 6.897-5.531 12.416-12.445 12.416-6.914 0-12.445-5.519-12.445-12.416 0-6.898 5.531-12.416 12.445-12.416 6.74-.173 12.445 5.518 12.445 12.416z" fill="#333"/><path d="M12.083 460.49c0 9.312-7.432 16.727-16.766 16.727-9.333 0-16.765-7.415-16.765-16.727 0-9.312 7.432-16.727 16.765-16.727 9.334 0 16.766 7.415 16.766 16.727z" fill="#333"/><path d="M3.614 437.382c0 4.656-3.63 8.45-8.297 8.45-4.494 0-8.296-3.794-8.296-8.45 0-4.656 3.63-8.449 8.296-8.449 4.667 0 8.297 3.793 8.297 8.449z" fill="#333"/><path d="M6.033 448.074c0 3.966-3.284 7.242-7.259 7.242-3.975 0-7.26-3.276-7.26-7.242s3.285-7.243 7.26-7.243c3.975 0 7.26 3.277 7.26 7.243z" fill="#4D4D4D"/><path d="M2.576 438.417c0 2.932-2.42 5.518-5.53 5.518-2.939 0-5.531-2.414-5.531-5.518 0-2.931 2.42-5.518 5.53-5.518 2.939 0 5.531 2.414 5.531 5.518z" fill="#4D4D4D"/><path d="M66.873 452.903c0 5.518-4.494 10.001-10.025 10.001-5.53 0-10.024-4.483-10.024-10.001 0-5.519 4.494-10.002 10.025-10.002 5.53 0 10.024 4.483 10.024 10.002z" fill="#333"/><path d="M63.416 444.281c0 3.793-2.938 6.897-6.567 6.897-3.63 0-6.568-3.104-6.568-6.897 0-3.794 2.938-6.898 6.568-6.898 3.63.172 6.567 3.104 6.567 6.898z" fill="#333"/><path d="M65.317 452.903c0 3.276-2.592 5.863-5.876 5.863-3.284 0-5.877-2.587-5.877-5.863 0-3.104 2.593-5.691 5.877-5.691 3.284-.172 5.876 2.414 5.876 5.691z" fill="#4D4D4D"/><path d="M62.552 445.143c0 2.414-1.901 4.311-4.32 4.311-2.42 0-4.322-1.897-4.322-4.311 0-2.414 1.901-4.311 4.321-4.311 2.42-.173 4.321 1.897 4.321 4.311z" fill="#4D4D4D"/></svg>