<svg height="512" width="512" xmlns="http://www.w3.org/2000/svg"><g id="Filled_outline" data-name="Filled outline"><path d="M472 168l-4.528-3.623a344.366 344.366 0 0 0-77.089-46.584L319.9 89.839a21.915 21.915 0 0 0-26.315 6.928 21.914 21.914 0 0 0 4.965 31.1L360 168H192a24 24 0 0 0-24 24 24 24 0 0 0 24 24h-8a24 24 0 0 0-24 24 24 24 0 0 0 24 24h16a24 24 0 0 0-24 24 24 24 0 0 0 24 24h24a24 24 0 0 0-24 24 24 24 0 0 0 24 24h146.334c35.292 0 70.1-16.217 101.666-32h24V168z" fill="#fdb683"/><circle cx="232" cy="120" fill="#4db6e4" r="16"/><path d="M262.367 488L184 104h-64L41.633 488z" fill="#4db6e4"/><path d="M104 24H16v56h80a24 24 0 0 1 24 24h64a80 80 0 0 0-80-80z" fill="#dfdfdd"/><path d="M408 296l-4.528-3.622a344.333 344.333 0 0 0-77.089-46.585L272 225.839a21.913 21.913 0 0 0-26.314 6.928 21.913 21.913 0 0 0 4.964 31.1L296 296H128a24 24 0 0 0-24 24 24 24 0 0 0 24 24h-8a24 24 0 0 0-24 24 24 24 0 0 0 24 24h16a24 24 0 0 0-24 24 24 24 0 0 0 24 24h24a24 24 0 0 0-24 24 24 24 0 0 0 24 24h146.334c35.292 0 78.1-16.217 109.666-32h80V296z" fill="#fdc8a2"/><path d="M85.917 189h108.167v15.999H85.917z" fill="#3ba5d3" transform="rotate(-86.85 140 197.082)"/><path d="M164.5 184.859h16.001v87.281H164.5z" fill="#3ba5d3" transform="rotate(-4.44 173.564 228.634)"/><circle cx="48" cy="336" fill="#4db6e4" r="16"/><circle cx="312" cy="392" fill="#4db6e4" r="16"/><path d="M474.8 160H496v16h-24a8 8 0 0 1-4.994-1.75l-4.53-3.62a336.36 336.36 0 0 0-75.176-45.455l-70.35-27.9c-.084-.033-.168-.068-.252-.1a13.915 13.915 0 0 0-13.655 24.078l61.33 40.052a7.991 7.991 0 0 1 3.464 5.114 102.646 102.646 0 0 0 16.917 36.268c16.772 22.478 40.477 32.351 70.445 29.357l1.592 15.92q-6.115.612-11.773.6c-37.933 0-60.724-19.527-73.463-36.817A119.7 119.7 0 0 1 353.835 176H219v-16h114.118l-38.942-25.432a6.218 6.218 0 0 1-.215-.145 29.918 29.918 0 0 1-6.77-42.455 29.895 29.895 0 0 1 35.776-9.518l70.362 27.9c.087.034.173.07.258.107a352.3 352.3 0 0 1 78.882 47.673zm-297.3-48l33.673 161.632 15.664-3.264-34.848-167.247A88.1 88.1 0 0 0 104 16H16v16h88a72.108 72.108 0 0 1 71.559 64h-48.572A32.056 32.056 0 0 0 96 72H16v16h80a16.006 16.006 0 0 1 15.968 15.367L72.155 302.431l15.69 3.138L126.559 112zm230.969 174.13a352.5 352.5 0 0 0-78.879-47.667c-.059-.025-.117-.051-.177-.074L294.264 224H312v-16h-77.667v16h6.754c-.506.578-1 1.171-1.469 1.795a29.915 29.915 0 0 0 6.635 42.353L272.3 288H128a31.984 31.984 0 0 0-24.485 52.581A31.995 31.995 0 0 0 120 400h128v-16H120a16 16 0 0 1 0-32h128v-16H128a16 16 0 0 1 0-32h168a8 8 0 0 0 4.849-14.363l-45.017-34.305a7.877 7.877 0 0 0-.261-.19A13.914 13.914 0 0 1 269.126 231c.059.025.117.051.177.074l53.961 22.089a336.52 336.52 0 0 1 75.21 45.465C401.305 300.889 404.1 304 408 304h88v-16h-85.193zm3.953 162.715C393.688 458.212 345.846 480 306.334 480H160a16 16 0 0 1 0-32h88v-16H136a16.019 16.019 0 0 1-16-16h-16a32.044 32.044 0 0 0 28.411 31.8A31.99 31.99 0 0 0 160 496h146.334c17.583 0 55.33-4.184 111.546-32H496v-16h-80a7.994 7.994 0 0 0-3.578.845zm-267.435-197.4l6-108-15.974-.886-6 108zm16.038-65.8l7 87 15.95-1.284-7-87zM72 336a24 24 0 1 1-24-24 24.028 24.028 0 0 1 24 24zm-16 0a8 8 0 1 0-8 8 8.009 8.009 0 0 0 8-8zm176-192a24 24 0 1 1 24-24 24.028 24.028 0 0 1-24 24zm0-16a8 8 0 1 0-8-8 8.009 8.009 0 0 0 8 8zm80 288a24 24 0 1 1 24-24 24.028 24.028 0 0 1-24 24zm0-16a8 8 0 1 0-8-8 8.009 8.009 0 0 0 8 8z"/></g></svg>