<svg width="34" height="33" fill="none" xmlns="http://www.w3.org/2000/svg"><path d="M24.794 3.073c-.263-1.254-1.405-2.2-2.77-2.2a.558.558 0 0 0-.567.55c0 .304.254.55.566.55.936 0 1.697.74 1.697 1.65 0 .91-.761 1.65-1.697 1.65a.558.558 0 0 0-.566.55c0 .303.254.55.566.55 1.365 0 2.508-.947 2.77-2.2h7.41v4.949H1.663v-4.95h9.615a.558.558 0 0 0 .566-.55.558.558 0 0 0-.566-.55H10.25c.234-.638.856-1.1 1.593-1.1.935 0 1.696.741 1.696 1.65 0 .91-.761 1.65-1.696 1.65a.558.558 0 0 0-.566.55c0 .304.253.55.566.55 1.559 0 2.828-1.233 2.828-2.75 0-1.516-1.27-2.749-2.828-2.749-1.366 0-2.508.946-2.771 2.2H.53v29.145h32.804V3.073h-8.541zm7.41 28.045H1.662V10.222h30.542v20.896z" fill="#fff"/><path d="M15.236 1.973c.936 0 1.697.74 1.697 1.65 0 .91-.761 1.65-1.697 1.65a.558.558 0 0 0-.566.55c0 .303.254.55.566.55 1.56 0 2.828-1.234 2.828-2.75 0-1.517-1.269-2.75-2.828-2.75a.558.558 0 0 0-.566.55c0 .304.254.55.566.55zm3.394 0c.935 0 1.696.74 1.696 1.65 0 .91-.76 1.65-1.696 1.65a.558.558 0 0 0-.566.55c0 .303.253.55.566.55 1.559 0 2.828-1.234 2.828-2.75 0-1.517-1.27-2.75-2.828-2.75a.558.558 0 0 0-.566.55c0 .304.253.55.566.55zM5.621 14.62h12.443a.558.558 0 0 0 .566-.55.558.558 0 0 0-.566-.55H5.621a.558.558 0 0 0-.565.55c0 .304.253.55.565.55zm22.623 7.7h-8.483a.558.558 0 0 0-.566.55c0 .303.254.549.566.549h8.483a.558.558 0 0 0 .566-.55.558.558 0 0 0-.566-.55zm-22.623-3.3h5.656a.558.558 0 0 0 .566-.55.558.558 0 0 0-.566-.55H5.621a.558.558 0 0 0-.565.55c0 .304.253.55.565.55zm22.624 7.699h-5.656a.558.558 0 0 0-.566.55c0 .304.254.55.566.55h5.656a.558.558 0 0 0 .565-.55.558.558 0 0 0-.565-.55zM16.367 18.47c0 .304.254.55.566.55h8.484a.558.558 0 0 0 .565-.55.558.558 0 0 0-.565-.55h-8.484a.558.558 0 0 0-.566.55zm-1.861.39a.57.57 0 0 0 .164-.39.568.568 0 0 0-.164-.39.604.604 0 0 0-.803 0 .568.568 0 0 0-.164.39.57.57 0 0 0 .164.39.58.58 0 0 0 .402.16.58.58 0 0 0 .4-.16zm-6.623 4.01c0 .303.254.549.566.549h8.484a.558.558 0 0 0 .565-.55.558.558 0 0 0-.565-.55H8.449a.558.558 0 0 0-.566.55zm-2.263.55a.602.602 0 0 0 .402-.16.57.57 0 0 0 .164-.39.545.545 0 0 0-.164-.385.598.598 0 0 0-.802-.006.568.568 0 0 0-.164.39.57.57 0 0 0 .164.391.59.59 0 0 0 .4.16zm22.624-4.4a.58.58 0 0 0 .401-.16.546.546 0 0 0 0-.78.604.604 0 0 0-.802 0 .568.568 0 0 0-.164.39.57.57 0 0 0 .164.39.58.58 0 0 0 .401.16zm-8.484 7.699H5.622a.558.558 0 0 0-.565.55c0 .304.253.55.565.55h14.14a.558.558 0 0 0 .565-.55.558.558 0 0 0-.565-.55z" fill="#fff"/></svg>