<?xml version="1.0" encoding="iso-8859-1"?>
<!-- Generator: Adobe Illustrator 19.0.0, SVG Export Plug-In . SVG Version: 6.00 Build 0)  -->
<svg version="1.1" id="Layer_1" xmlns="http://www.w3.org/2000/svg" xmlns:xlink="http://www.w3.org/1999/xlink" x="0px" y="0px"
	 viewBox="0 0 512 512" style="enable-background:new 0 0 512 512;" xml:space="preserve">
<path style="fill:#FF5752;" d="M256,0C114.509,0,0,114.498,0,256c0,141.491,114.498,256,256,256c141.491,0,256-114.497,256-256
	C512,114.51,397.503,0,256,0z M256,44.522c50.304,0,96.552,17.665,132.893,47.103L91.625,388.893
	C62.187,352.552,44.522,306.304,44.522,256C44.522,139.39,139.39,44.522,256,44.522z M256,467.478
	c-50.304,0-96.552-17.665-132.893-47.103l297.268-297.268c29.438,36.341,47.103,82.589,47.103,132.893
	C467.478,372.61,372.61,467.478,256,467.478z"/>
<path style="fill:#DB3A3C;" d="M256,0v44.522c50.304,0,96.552,17.665,132.893,47.103L256,224.519v62.964l164.375-164.375
	c29.438,36.341,47.103,82.589,47.103,132.893c0,116.61-94.868,211.478-211.478,211.478V512c141.491,0,256-114.497,256-256
	C512,114.51,397.503,0,256,0z"/>
<g>
</g>
<g>
</g>
<g>
</g>
<g>
</g>
<g>
</g>
<g>
</g>
<g>
</g>
<g>
</g>
<g>
</g>
<g>
</g>
<g>
</g>
<g>
</g>
<g>
</g>
<g>
</g>
<g>
</g>
</svg>
