<svg id="Layer_1" xmlns="http://www.w3.org/2000/svg" viewBox="0 0 512 512"><path d="M256 0C114.509 0 0 114.498 0 256c0 141.491 114.498 256 256 256 141.491 0 256-114.497 256-256C512 114.51 397.503 0 256 0zm0 44.522c50.304 0 96.552 17.665 132.893 47.103L91.625 388.893C62.187 352.552 44.522 306.304 44.522 256 44.522 139.39 139.39 44.522 256 44.522zm0 422.956c-50.304 0-96.552-17.665-132.893-47.103l297.268-297.268c29.438 36.341 47.103 82.589 47.103 132.893 0 116.61-94.868 211.478-211.478 211.478z" fill="#ff5752"/><path d="M256 0v44.522c50.304 0 96.552 17.665 132.893 47.103L256 224.519v62.964l164.375-164.375c29.438 36.341 47.103 82.589 47.103 132.893 0 116.61-94.868 211.478-211.478 211.478V512c141.491 0 256-114.497 256-256C512 114.51 397.503 0 256 0z" fill="#db3a3c"/></svg>