<svg width="15" height="15" viewBox="0 0 15 15" fill="none" xmlns="http://www.w3.org/2000/svg">
<path d="M10.5153 1.59375H4.51112C2.85311 1.59375 1.50903 2.9369 1.50903 4.59375V10.5938C1.50903 12.2506 2.85311 13.5938 4.51112 13.5938H10.5153C12.1733 13.5938 13.5174 12.2506 13.5174 10.5938V4.59375C13.5174 2.9369 12.1733 1.59375 10.5153 1.59375Z" stroke="white" stroke-width="1.5"/>
<path d="M9.91494 7.21585C9.98904 7.71517 9.90368 8.22513 9.67102 8.67319C9.43836 9.12125 9.07023 9.4846 8.619 9.71155C8.16776 9.93849 7.65641 10.0175 7.15766 9.93729C6.65891 9.8571 6.19816 9.62179 5.84096 9.26486C5.48375 8.90792 5.24827 8.44752 5.16802 7.94914C5.08776 7.45077 5.16682 6.93979 5.39393 6.4889C5.62105 6.03801 5.98467 5.67015 6.43306 5.43766C6.88146 5.20517 7.3918 5.11989 7.89151 5.19393C8.40122 5.26946 8.87311 5.50679 9.23747 5.87089C9.60184 6.23498 9.83935 6.70651 9.91494 7.21585Z" stroke="white" stroke-width="1.5" stroke-linecap="round" stroke-linejoin="round"/>
</svg>
