<svg height="512" viewBox="0 0 58 58" width="512" xmlns="http://www.w3.org/2000/svg"><g id="Page-1" fill="none" fill-rule="evenodd"><g id="067---Interior-Design" transform="translate(-1)"><path id="Path" d="M54 20.39V56a2.006 2.006 0 0 1-2 2H8a2.006 2.006 0 0 1-2-2V20.39L30 4.53z" fill="#f5efca"/><path id="Path" d="M58.68 21.06a1.954 1.954 0 0 1-2.76.6L54 20.39 30 4.53 6 20.39l-1.92 1.27a1.952 1.952 0 0 1-2.76-.6 2.1 2.1 0 0 1 .58-2.85L28.91.33c.66-.44 1.52-.44 2.18 0L58.1 18.21a2.1 2.1 0 0 1 .58 2.85z" fill="#e64c3c"/><path id="Path" d="M30.7 28.33l-8.37 8.37-9.75-9.76c-.77-.77-.77-2.02 0-2.79l5.57-5.57c.77-.77 2.02-.77 2.79 0l2.08 2.08 1.41 1.41 2.07 2.07 1.42 1.41zm16.72 19.52l-5.57 5.57c-.77.77-2.02.77-2.79 0l-9.76-9.75 8.37-8.37 2.78 2.78 1.41 1.42 2.07 2.07 1.41 1.41 2.08 2.08c.77.77.77 2.02 0 2.79z" fill="#3b97d3"/><path id="Path" d="M46.03 26.94l-2.09 2.09-6.97-6.97 2.09-2.09a2.945 2.945 0 0 1 4.18 0l2.79 2.79a2.945 2.945 0 0 1 0 4.18z" fill="#fb7b76"/><path id="Rectangle" d="M36.242 22.361h4.936v9.857h-4.936z" fill="#95a5a5" transform="rotate(-45 38.708 27.299)"/><path id="Path" d="M40.45 32.52L23.03 49.94l-1.66-3.89-.43-.99-.99-.43-3.89-1.66 17.42-17.42 2.78 2.78 1.41 1.41z" fill="#f0c419"/><path id="Path" d="M23.03 49.94l-4.22 1.2a4.92 4.92 0 0 0-3.95-3.95l1.2-4.22 4.88 2.09z" fill="#fac176"/><path id="Path" d="M18.81 51.14l-3.95 1.13a.912.912 0 0 1-1.13-1.13l1.13-3.95a4.92 4.92 0 0 1 3.95 3.95z" fill="#35495e"/><path id="Path" d="M37.67 29.74l-16.3 16.31-.43-.99-.99-.43 16.31-16.3z" fill="#f29c1f"/><g fill="#2980ba"><path id="Path" d="M24.43 22.07l-2.78 2.79a1.014 1.014 0 0 1-1.42 0 1.008 1.008 0 0 1 0-1.42l2.79-2.78zm3.49 3.48l-2.09 2.1c-.19.185-.445.289-.71.29a1.042 1.042 0 0 1-.71-.29 1.008 1.008 0 0 1 0-1.42l2.09-2.09zm17.42 17.43l-2.78 2.79a1.042 1.042 0 0 1-.71.29 1.024 1.024 0 0 1-.71-.29 1.008 1.008 0 0 1 0-1.42l2.79-2.78zm-3.48-3.48l-2.09 2.09a1.014 1.014 0 0 1-1.42 0 1.008 1.008 0 0 1 0-1.42l2.1-2.09z"/></g></g></g></svg>