<svg id="Capa_1" height="512" viewBox="0 0 510 510" width="512" xmlns="http://www.w3.org/2000/svg" xmlns:xlink="http://www.w3.org/1999/xlink"><linearGradient id="SVGID_1_" gradientUnits="userSpaceOnUse" x1="218.973" x2="380.27" y1="158.336" y2="504.608"><stop offset="0" stop-color="#e3e5e4"/><stop offset="1" stop-color="#cbd0e4"/></linearGradient><linearGradient id="lg1"><stop offset="0" stop-color="#ebeff0"/><stop offset="1" stop-color="#e3e5e4"/></linearGradient><linearGradient id="SVGID_2_" gradientUnits="userSpaceOnUse" x1="207.043" x2="290.353" xlink:href="#lg1" y1="381.647" y2="464.957"/><linearGradient id="lg2"><stop offset="0" stop-color="#cbd0e4" stop-opacity="0"/><stop offset="1" stop-color="#6a7d83"/></linearGradient><linearGradient id="SVGID_3_" gradientUnits="userSpaceOnUse" x1="255" x2="255" xlink:href="#lg2" y1="395.097" y2="480.645"/><linearGradient id="lg3"><stop offset="0" stop-color="#ff637b"/><stop offset="1" stop-color="#f90217"/></linearGradient><linearGradient id="SVGID_4_" gradientUnits="userSpaceOnUse" x1="17.333" x2="58.022" xlink:href="#lg3" y1="255" y2="255"/><linearGradient id="SVGID_5_" gradientUnits="userSpaceOnUse" x1="419.959" x2="357.292" xlink:href="#lg2" y1="254.052" y2="188.052"/><linearGradient id="SVGID_6_" gradientUnits="userSpaceOnUse" x1="483.333" x2="514.667" xlink:href="#lg3" y1="255" y2="255"/><linearGradient id="lg4"><stop offset="0" stop-color="#f90217" stop-opacity="0"/><stop offset=".267" stop-color="#e7010f" stop-opacity=".267"/><stop offset=".723" stop-color="#ce0004" stop-opacity=".723"/><stop offset="1" stop-color="#c50000"/></linearGradient><linearGradient id="SVGID_7_" gradientUnits="userSpaceOnUse" x1="500.767" x2="458.767" xlink:href="#lg4" y1="169.548" y2="122.048"/><linearGradient id="SVGID_8_" gradientTransform="matrix(-1 0 0 1 971.233 0)" gradientUnits="userSpaceOnUse" x1="962" x2="920" xlink:href="#lg4" y1="169.548" y2="122.048"/><linearGradient id="SVGID_9_" gradientUnits="userSpaceOnUse" x1="234.406" x2="346.189" xlink:href="#lg1" y1="54.061" y2="189.691"/><linearGradient id="SVGID_10_" gradientUnits="userSpaceOnUse" x1="261.026" x2="390.36" xlink:href="#lg3" y1="90.574" y2="308.574"/><path d="M462.393 459.282H47.607C31.256 459.282 18 446.026 18 429.674L0 80.325c0-16.352 13.256-29.607 29.607-29.607h450.785c16.352 0 29.607 13.256 29.607 29.607l-18 349.349c.001 16.352-13.255 29.608-29.606 29.608z" fill="url(#SVGID_1_)"/><path d="M480.393 459.282H29.607C13.256 459.282 0 446.026 0 429.674c0-8.258 3.41-16.149 9.423-21.808l222.585-209.465c12.918-12.156 33.066-12.156 45.984 0l222.585 209.465A29.943 29.943 0 0 1 510 429.674c0 16.352-13.256 29.608-29.607 29.608z" fill="url(#SVGID_2_)"/><path d="M4.235 352.963v76.711c0 16.352 13.036 29.607 29.116 29.607h443.298c16.08 0 29.116-13.256 29.116-29.607v-76.711z" fill="url(#SVGID_3_)"/><path d="M0 80.326v349.349c0 16.352 13.256 29.607 29.607 29.607h19.16V50.718h-19.16C13.256 50.718 0 63.974 0 80.326z" fill="url(#SVGID_4_)"/><path d="M10.423 102.133L392 459.282h88.393c16.352 0 29.607-13.256 29.607-29.607V80.326c0-16.352-13.256-27.607-29.607-27.607H29.607C13.256 52.718 1 63.974 1 80.326c0 8.257 3.41 16.148 9.423 21.807z" fill="url(#SVGID_5_)"/><path d="M510 80.326v349.349c0 16.352-13.256 29.607-29.607 29.607h-19.16V50.718h19.16c16.351 0 29.607 13.256 29.607 29.608z" fill="url(#SVGID_6_)"/><path d="M480.393 52.718h-19.16v180.996H510V82.326c0-16.352-13.256-29.608-29.607-29.608z" fill="url(#SVGID_7_)"/><path d="M29.607 52.718h19.16v180.996H0V82.326c0-16.352 13.256-29.608 29.607-29.608z" fill="url(#SVGID_8_)"/><path d="M480.393 50.718H29.607C13.256 50.718 0 63.974 0 80.326c0 8.258 3.41 13.149 9.423 18.808l222.585 209.465c12.918 12.156 33.066 12.156 45.984 0L500.577 99.133C506.59 93.474 510 88.583 510 80.326c0-16.352-13.256-29.608-29.607-29.608z" fill="url(#SVGID_9_)"/><path d="M479.775 50.718c-1.179 0-2.313.45-3.171 1.257L277.992 238.881c-12.918 12.156-33.066 12.156-45.984 0L33.397 51.976a4.627 4.627 0 0 0-3.171-1.258C15.119 50.718 1.978 61.797.208 76.8a29.95 29.95 0 0 0 9.216 25.333l222.585 209.465c12.918 12.156 33.066 12.156 45.984 0l222.585-209.465a29.95 29.95 0 0 0 9.216-25.333c-1.771-15.003-14.912-26.082-30.019-26.082z" fill="url(#SVGID_10_)"/></svg>