<svg width="29" height="29" fill="none" xmlns="http://www.w3.org/2000/svg"><g clip-path="url(#clip0)"><path d="M14.5 9.355a3.278 3.278 0 0 0 3.274-3.274A3.278 3.278 0 0 0 14.5 2.806a3.278 3.278 0 0 0-3.274 3.275A3.278 3.278 0 0 0 14.5 9.355zm0-5.613c1.29 0 2.339 1.05 2.339 2.339a2.342 2.342 0 0 1-1.871 2.291V6.548h-.936v1.824a2.343 2.343 0 0 1-1.87-2.291c0-1.29 1.048-2.34 2.338-2.34z" fill="#E3B873"/><path d="M14.032 5.145a.468.468 0 1 1 .936 0 .468.468 0 0 1-.936 0z" fill="#E3B873"/><path d="M14.501 6.698v1.75" stroke="#E3B873" stroke-linecap="round"/><path d="M27.168 22.137l-2.378-.528v-.684a3.27 3.27 0 0 0 1.404-2.683v-.935a3.276 3.276 0 0 0-2.807-3.237v-2.225l-4.322-1.73.667-.667-.668-1.001a5.16 5.16 0 0 0 .336-.81l1.18-.237V4.762l-1.18-.237a5.134 5.134 0 0 0-.335-.81l.668-1.002L17.868.848l-1.002.669a5.093 5.093 0 0 0-.81-.336L15.819 0H13.18l-.236 1.18c-.28.089-.55.202-.81.336L11.133.848 9.268 2.713l.668 1.002a5.09 5.09 0 0 0-.336.81l-1.18.237V7.4l1.18.236c.088.28.201.55.335.81l-.668 1.002.668.667-4.322 1.73v2.225a3.276 3.276 0 0 0-2.807 3.236v.936c0 1.11.557 2.09 1.404 2.683v.683l-2.378.529A2.325 2.325 0 0 0 0 24.42V29h29v-4.58a2.324 2.324 0 0 0-1.832-2.283zm-3.313-.282c-.116.18-.438.597-.936.597-.497 0-.82-.418-.935-.597v-.476a3.27 3.27 0 0 0 1.87 0v.476zm1.403-4.549v.936c0 1.29-1.05 2.339-2.339 2.339a2.342 2.342 0 0 1-2.338-2.34v-.934c0-1.29 1.049-2.34 2.338-2.34 1.29 0 2.34 1.05 2.34 2.34zm-2.806-4.828v1.592a3.276 3.276 0 0 0-2.807 3.236v.936c0 1.11.556 2.09 1.403 2.683v.683l-2.338.52-2.339-.52v-.683a3.27 3.27 0 0 0 1.403-2.683v-.936a3.276 3.276 0 0 0-2.806-3.236v-1.91h.85l.237-1.18c.28-.089.55-.201.81-.336l1.002.668.478-.477 4.107 1.642zm-2.807 15.586H9.355V24.42c0-.663.452-1.226 1.099-1.37l2.428-.54c.268.354.8.877 1.618.877.818 0 1.35-.523 1.617-.877l2.43.54a1.395 1.395 0 0 1 1.098 1.37v3.644zM14.5 14.968a2.341 2.341 0 0 1 2.339 2.338v.936c0 1.29-1.05 2.339-2.339 2.339a2.341 2.341 0 0 1-2.339-2.34v-.934c0-1.29 1.05-2.34 2.339-2.34zm0 6.548c.325 0 .639-.049.935-.138v.477c-.116.18-.438.597-.935.597-.497 0-.82-.418-.935-.597v-.476c.296.088.61.137.935.137zM9.355 6.633V5.529l.997-.2.073-.285c.1-.392.254-.766.46-1.111l.15-.254-.564-.846.78-.78.847.564.254-.152a4.17 4.17 0 0 1 1.11-.46l.286-.072.2-.998h1.104l.2.998.285.072c.392.1.766.255 1.11.46l.254.151.847-.564.78.78-.564.847.151.253c.206.346.36.72.46 1.111l.073.286.997.2v1.104l-.997.2-.073.285c-.1.392-.254.765-.46 1.11l-.15.254.564.847-.78.78-.847-.564-.254.15a4.17 4.17 0 0 1-1.11.46l-.286.073-.2.998h-1.104l-.2-.997-.285-.073a4.184 4.184 0 0 1-1.11-.46l-.254-.15-.847.564-.78-.781.564-.847-.151-.253a4.17 4.17 0 0 1-.46-1.111l-.073-.285-.997-.2zm1.3 4.202l.478.478 1.002-.668c.26.135.53.247.81.335l.236 1.181h.851v1.909a3.276 3.276 0 0 0-2.806 3.236v.936c0 1.11.556 2.09 1.403 2.683v.683l-2.339.52-2.338-.52v-.683a3.27 3.27 0 0 0 1.403-2.683v-.936a3.276 3.276 0 0 0-2.807-3.236v-1.592l4.107-1.643zm-6.913 7.407v-.936a2.342 2.342 0 0 1 2.339-2.338 2.34 2.34 0 0 1 2.338 2.338v.936a2.341 2.341 0 0 1-2.338 2.339 2.341 2.341 0 0 1-2.34-2.34zm2.339 3.274c.325 0 .639-.049.935-.138v.477c-.116.18-.438.597-.935.597-.498 0-.821-.42-.936-.597v-.477c.297.089.61.138.936.138zM.935 24.42c0-.663.452-1.226 1.1-1.37l2.428-.54c.268.354.8.877 1.618.877.818 0 1.35-.523 1.617-.877l1.366.304a2.32 2.32 0 0 0-.645 1.606v3.644H.935V24.42zm27.13 3.644H20.58V24.42c0-.621-.244-1.185-.645-1.606l1.366-.304c.267.354.8.877 1.617.877.818 0 1.35-.523 1.618-.877l2.429.54a1.395 1.395 0 0 1 1.098 1.37v3.644z" fill="#E3B873"/></g><defs><clipPath id="clip0"><path fill="#fff" d="M0 0h29v29H0z"/></clipPath></defs></svg>