<svg width="637" height="311" viewBox="0 0 637 311" fill="none" xmlns="http://www.w3.org/2000/svg">
<path d="M525.907 107.647H566.923V303.67H525.907V107.647Z" fill="#333333"/>
<path d="M537.217 97.7095H555.861V108.765H537.217V97.7095Z" fill="#333333"/>
<path d="M541.07 91.2498H551.884V97.5851H541.07V91.2498Z" fill="#333333"/>
<path d="M547.161 107.274L546.415 0.443359L545.793 107.274H547.161Z" fill="#333333"/>
<path opacity="0.09" d="M544.302 122.43H548.652V126.777H544.302V122.43Z" fill="white"/>
<path opacity="0.33" d="M544.302 136.218H548.652V140.566H544.302V136.218Z" fill="white"/>
<path opacity="0.37" d="M544.302 150.131H548.652V154.479H544.302V150.131Z" fill="white"/>
<path opacity="0.14" d="M544.302 163.92H548.652V168.268H544.302V163.92Z" fill="white"/>
<path opacity="0.3" d="M544.302 177.833H548.652V182.181H544.302V177.833Z" fill="white"/>
<path opacity="0.16" d="M544.302 191.621H548.652V195.969H544.302V191.621Z" fill="white"/>
<path opacity="0.34" d="M544.302 205.534H548.652V209.882H544.302V205.534Z" fill="white"/>
<path opacity="0.29" d="M544.302 219.323H548.652V223.671H544.302V219.323Z" fill="white"/>
<path opacity="0.12" d="M544.302 233.236H548.652V237.584H544.302V233.236Z" fill="white"/>
<path d="M600.854 151.995H729.371V323.049H600.854V151.995Z" fill="#4D4D4D"/>
<path d="M634.537 159.075H641.373V165.907H634.537V159.075Z" fill="white"/>
<path d="M625.464 159.075H632.3V165.907H625.464V159.075Z" fill="white"/>
<path d="M634.537 168.019H641.373V174.852H634.537V168.019Z" fill="white"/>
<path d="M625.464 168.019H632.3V174.852H625.464V168.019Z" fill="white"/>
<path d="M634.537 176.963H641.373V183.796H634.537V176.963Z" fill="white"/>
<path d="M625.464 176.963H632.3V183.796H625.464V176.963Z" fill="white"/>
<path d="M634.537 185.783H641.373V192.615H634.537V185.783Z" fill="white"/>
<path d="M625.464 185.783H632.3V192.615H625.464V185.783Z" fill="white"/>
<path d="M634.537 194.727H641.373V201.559H634.537V194.727Z" fill="white"/>
<path d="M625.464 194.727H632.3V201.559H625.464V194.727Z" fill="white"/>
<path d="M634.537 203.671H641.373V210.503H634.537V203.671Z" fill="white"/>
<path d="M625.464 203.671H632.3V210.503H625.464V203.671Z" fill="white"/>
<path d="M634.537 212.615H641.373V219.447H634.537V212.615Z" fill="white"/>
<path d="M625.464 212.615H632.3V219.447H625.464V212.615Z" fill="white"/>
<path d="M634.537 221.559H641.373V228.391H634.537V221.559Z" fill="white"/>
<path d="M625.464 221.559H632.3V228.391H625.464V221.559Z" fill="white"/>
<path d="M634.537 230.379H641.373V237.211H634.537V230.379Z" fill="white"/>
<path d="M625.464 230.379H632.3V237.211H625.464V230.379Z" fill="white"/>
<path d="M634.537 239.323H641.373V246.155H634.537V239.323Z" fill="white"/>
<path d="M625.464 239.323H632.3V246.155H625.464V239.323Z" fill="white"/>
<path d="M634.537 248.267H641.373V255.099H634.537V248.267Z" fill="white"/>
<path d="M625.464 248.267H632.3V255.099H625.464V248.267Z" fill="white"/>
<path d="M634.537 257.211H641.373V264.043H634.537V257.211Z" fill="white"/>
<path d="M625.464 257.211H632.3V264.043H625.464V257.211Z" fill="white"/>
<path d="M634.537 266.155H641.373V272.987H634.537V266.155Z" fill="white"/>
<path d="M625.464 266.155H632.3V272.987H625.464V266.155Z" fill="white"/>
<path d="M634.537 274.975H641.373V281.807H634.537V274.975Z" fill="white"/>
<path d="M625.464 274.975H632.3V281.807H625.464V274.975Z" fill="white"/>
<path d="M616.391 274.975H623.227V281.807H616.391V274.975Z" fill="white"/>
<path d="M634.537 283.919H641.373V290.751H634.537V283.919Z" fill="white"/>
<path d="M625.464 283.919H632.3V290.751H625.464V283.919Z" fill="white"/>
<path d="M616.391 283.919H623.227V290.751H616.391V283.919Z" fill="white"/>
<path d="M634.537 292.863H641.373V299.695H634.537V292.863Z" fill="white"/>
<path d="M625.464 292.863H632.3V299.695H625.464V292.863Z" fill="white"/>
<path d="M616.391 292.863H623.227V299.695H616.391V292.863Z" fill="white"/>
<path d="M634.537 301.807H641.373V308.639H634.537V301.807Z" fill="white"/>
<path d="M625.464 301.807H632.3V308.639H625.464V301.807Z" fill="white"/>
<path d="M616.391 301.807H623.227V308.639H616.391V301.807Z" fill="white"/>
<path d="M634.537 310.75H641.373V317.583H634.537V310.75Z" fill="white"/>
<path d="M625.464 310.75H632.3V317.583H625.464V310.75Z" fill="white"/>
<path d="M616.391 310.75H623.227V317.583H616.391V310.75Z" fill="white"/>
<path d="M619.871 134.604H710.355V151.995H619.871V134.604Z" fill="#4D4D4D"/>
<path opacity="0.19" d="M616.391 159.075H623.227V165.907H616.391V159.075Z" fill="white"/>
<path opacity="0.24" d="M616.391 168.019H623.227V174.851H616.391V168.019Z" fill="white"/>
<path opacity="0.29" d="M616.391 176.963H623.227V183.795H616.391V176.963Z" fill="white"/>
<path opacity="0.39" d="M616.391 185.783H623.227V192.615H616.391V185.783Z" fill="white"/>
<path opacity="0.21" d="M616.391 194.727H623.227V201.559H616.391V194.727Z" fill="white"/>
<path opacity="0.48" d="M616.391 203.671H623.227V210.503H616.391V203.671Z" fill="white"/>
<path opacity="0.32" d="M616.391 212.615H623.227V219.447H616.391V212.615Z" fill="white"/>
<path opacity="0.13" d="M616.391 221.559H623.227V228.391H616.391V221.559Z" fill="white"/>
<path opacity="0.19" d="M616.391 230.379H623.227V237.211H616.391V230.379Z" fill="white"/>
<path opacity="0.03" d="M616.391 239.323H623.227V246.155H616.391V239.323Z" fill="white"/>
<path opacity="0.36" d="M616.391 248.267H623.227V255.099H616.391V248.267Z" fill="white"/>
<path opacity="0.25" d="M616.391 257.211H623.227V264.043H616.391V257.211Z" fill="white"/>
<path d="M616.391 266.155H623.227V272.987H616.391V266.155Z" fill="white"/>
<path d="M340.34 229.633H381.356V325.657H340.34V229.633Z" fill="#333333"/>
<path d="M362.712 224.789H381.356V230.254H362.712V224.789Z" fill="#333333"/>
<path d="M370.543 221.683H381.356V224.789H370.543V221.683Z" fill="#333333"/>
<path opacity="0.06" d="M357.492 236.341H364.204V241.31H357.492V236.341Z" fill="white"/>
<path opacity="0.12" d="M357.492 248.639H364.204V253.608H357.492V248.639Z" fill="white"/>
<path opacity="0.19" d="M357.492 273.235H364.204V278.204H357.492V273.235Z" fill="white"/>
<path opacity="0.14" d="M357.492 297.831H364.204V302.8H357.492V297.831Z" fill="white"/>
<path opacity="0.1" d="M357.492 310.129H364.204V315.098H357.492V310.129Z" fill="white"/>
<path d="M443.253 240.068H499.433V291.496H443.253V240.068Z" fill="#333333"/>
<path d="M452.078 235.472H490.484V257.583H452.078V235.472Z" fill="#333333"/>
<path d="M439.152 272.49H495.331V323.918H439.152V272.49Z" fill="#333333"/>
<path d="M448.1 267.894H486.506V290.005H448.1V267.894Z" fill="#333333"/>
<path d="M364.328 265.658H420.508V324.912H364.328V265.658Z" fill="#333333"/>
<path d="M373.153 260.44H411.559V286.03H373.153V260.44Z" fill="#333333"/>
<path d="M176.276 283.67H232.455V340.937H176.276V283.67Z" fill="#333333"/>
<path d="M185.1 278.577H223.506V303.297H185.1V278.577Z" fill="#333333"/>
<path d="M298.081 165.41H360.848V324.788H298.081V165.41Z" fill="#333333"/>
<path opacity="0.46" d="M342.577 172.615H357.741V175.473H342.577V172.615Z" fill="#E6E6E6"/>
<path opacity="0.34" d="M321.821 172.615H336.984V175.473H321.821V172.615Z" fill="#E6E6E6"/>
<path opacity="0.52" d="M301.188 172.615H316.352V175.473H301.188V172.615Z" fill="#E6E6E6"/>
<path opacity="0.54" d="M342.577 179.199H357.741V182.056H342.577V179.199Z" fill="#E6E6E6"/>
<path opacity="0.3" d="M321.821 179.199H336.984V182.056H321.821V179.199Z" fill="#E6E6E6"/>
<path opacity="0.06" d="M301.188 179.199H316.352V182.056H301.188V179.199Z" fill="#E6E6E6"/>
<path opacity="0.15" d="M342.577 185.783H357.741V188.64H342.577V185.783Z" fill="#E6E6E6"/>
<path opacity="0.42" d="M321.821 185.783H336.984V188.64H321.821V185.783Z" fill="#E6E6E6"/>
<path opacity="0.48" d="M301.188 185.783H316.352V188.64H301.188V185.783Z" fill="#E6E6E6"/>
<path opacity="0.18" d="M342.577 192.367H357.741V195.224H342.577V192.367Z" fill="#E6E6E6"/>
<path opacity="0.28" d="M301.188 192.367H316.352V195.224H301.188V192.367Z" fill="#E6E6E6"/>
<path opacity="0.29" d="M342.577 198.95H357.741V201.808H342.577V198.95Z" fill="#E6E6E6"/>
<path opacity="0.28" d="M321.821 198.95H336.984V201.808H321.821V198.95Z" fill="#E6E6E6"/>
<path opacity="0.56" d="M301.188 198.95H316.352V201.808H301.188V198.95Z" fill="#E6E6E6"/>
<path opacity="0.41" d="M342.577 205.534H357.741V208.392H342.577V205.534Z" fill="#E6E6E6"/>
<path opacity="0.16" d="M321.821 205.534H336.984V208.392H321.821V205.534Z" fill="#E6E6E6"/>
<path opacity="0.4" d="M301.188 205.534H316.352V208.392H301.188V205.534Z" fill="#E6E6E6"/>
<path opacity="0.1" d="M342.577 212.118H357.741V214.975H342.577V212.118Z" fill="#E6E6E6"/>
<path opacity="0.17" d="M321.821 212.118H336.984V214.975H321.821V212.118Z" fill="#E6E6E6"/>
<path opacity="0.08" d="M301.188 212.118H316.352V214.975H301.188V212.118Z" fill="#E6E6E6"/>
<path opacity="0.49" d="M342.577 218.702H357.741V221.559H342.577V218.702Z" fill="#E6E6E6"/>
<path opacity="0.58" d="M321.821 218.702H336.984V221.559H321.821V218.702Z" fill="#E6E6E6"/>
<path opacity="0.58" d="M301.188 218.702H316.352V221.559H301.188V218.702Z" fill="#E6E6E6"/>
<path opacity="0.26" d="M342.577 225.286H357.741V228.143H342.577V225.286Z" fill="#E6E6E6"/>
<path opacity="0.37" d="M321.821 225.286H336.984V228.143H321.821V225.286Z" fill="#E6E6E6"/>
<path opacity="0.34" d="M301.188 225.286H316.352V228.143H301.188V225.286Z" fill="#E6E6E6"/>
<path opacity="0.55" d="M342.577 231.869H357.741V234.727H342.577V231.869Z" fill="#E6E6E6"/>
<path opacity="0.12" d="M321.821 231.869H336.984V234.727H321.821V231.869Z" fill="#E6E6E6"/>
<path opacity="0.6" d="M301.188 231.869H316.352V234.727H301.188V231.869Z" fill="#E6E6E6"/>
<path opacity="0.02" d="M342.577 238.453H357.741V241.31H342.577V238.453Z" fill="#E6E6E6"/>
<path opacity="0.28" d="M321.821 238.453H336.984V241.31H321.821V238.453Z" fill="#E6E6E6"/>
<path opacity="0.21" d="M301.188 238.453H316.352V241.31H301.188V238.453Z" fill="#E6E6E6"/>
<path opacity="0.57" d="M342.577 245.037H357.741V247.894H342.577V245.037Z" fill="#E6E6E6"/>
<path opacity="0.38" d="M321.821 245.037H336.984V247.894H321.821V245.037Z" fill="#E6E6E6"/>
<path opacity="0.25" d="M301.188 245.037H316.352V247.894H301.188V245.037Z" fill="#E6E6E6"/>
<path opacity="0.15" d="M342.577 251.621H357.741V254.478H342.577V251.621Z" fill="#E6E6E6"/>
<path opacity="0.47" d="M321.821 251.621H336.984V254.478H321.821V251.621Z" fill="#E6E6E6"/>
<path opacity="0.3" d="M301.188 251.621H316.352V254.478H301.188V251.621Z" fill="#E6E6E6"/>
<path opacity="0.4" d="M342.577 258.205H357.741V261.062H342.577V258.205Z" fill="#E6E6E6"/>
<path opacity="0.39" d="M321.821 258.205H336.984V261.062H321.821V258.205Z" fill="#E6E6E6"/>
<path opacity="0.24" d="M301.188 258.205H316.352V261.062H301.188V258.205Z" fill="#E6E6E6"/>
<path opacity="0.46" d="M342.577 264.788H357.741V267.646H342.577V264.788Z" fill="#E6E6E6"/>
<path opacity="0.22" d="M321.821 264.788H336.984V267.646H321.821V264.788Z" fill="#E6E6E6"/>
<path opacity="0.11" d="M301.188 264.788H316.352V267.646H301.188V264.788Z" fill="#E6E6E6"/>
<path opacity="0.11" d="M321.821 271.372H336.984V274.229H321.821V271.372Z" fill="#E6E6E6"/>
<path opacity="0.02" d="M301.188 271.372H316.352V274.229H301.188V271.372Z" fill="#E6E6E6"/>
<path opacity="0.27" d="M342.577 277.956H357.741V280.813H342.577V277.956Z" fill="#E6E6E6"/>
<path opacity="0.21" d="M321.821 277.956H336.984V280.813H321.821V277.956Z" fill="#E6E6E6"/>
<path opacity="0.49" d="M301.188 277.956H316.352V280.813H301.188V277.956Z" fill="#E6E6E6"/>
<path opacity="0.6" d="M342.577 284.54H357.741V287.397H342.577V284.54Z" fill="#E6E6E6"/>
<path opacity="0.31" d="M321.821 284.54H336.984V287.397H321.821V284.54Z" fill="#E6E6E6"/>
<path opacity="0.22" d="M301.188 284.54H316.352V287.397H301.188V284.54Z" fill="#E6E6E6"/>
<path opacity="0.54" d="M342.577 291.124H357.741V293.981H342.577V291.124Z" fill="#E6E6E6"/>
<path opacity="0.6" d="M321.821 291.124H336.984V293.981H321.821V291.124Z" fill="#E6E6E6"/>
<path opacity="0.08" d="M301.188 291.124H316.352V293.981H301.188V291.124Z" fill="#E6E6E6"/>
<path opacity="0.55" d="M321.821 297.707H336.984V300.564H321.821V297.707Z" fill="#E6E6E6"/>
<path d="M301.188 297.707H316.352V300.564H301.188V297.707Z" fill="#E6E6E6"/>
<path opacity="0.6" d="M341.583 172.615H342.577V300.564H341.583V172.615Z" fill="#E6E6E6"/>
<path opacity="0.6" d="M316.352 172.615H317.346V300.564H316.352V172.615Z" fill="#E6E6E6"/>
<path d="M266.76 165.41H298.081V324.788H266.76V165.41Z" fill="#4D4D4D"/>
<path opacity="0.69" d="M271.358 172.615H294.974V175.473H271.358V172.615Z" fill="#E6E6E6"/>
<path opacity="0.79" d="M271.358 179.199H294.974V182.056H271.358V179.199Z" fill="#E6E6E6"/>
<path opacity="0.19" d="M271.358 185.783H294.974V188.64H271.358V185.783Z" fill="#E6E6E6"/>
<path opacity="0.88" d="M271.358 192.367H294.974V195.224H271.358V192.367Z" fill="#E6E6E6"/>
<path opacity="0.5" d="M271.358 198.95H294.974V201.808H271.358V198.95Z" fill="#E6E6E6"/>
<path opacity="0.25" d="M271.358 205.534H294.974V208.392H271.358V205.534Z" fill="#E6E6E6"/>
<path opacity="0.91" d="M271.358 212.118H294.974V214.975H271.358V212.118Z" fill="#E6E6E6"/>
<path opacity="0.02" d="M271.358 218.702H294.974V221.559H271.358V218.702Z" fill="#E6E6E6"/>
<path opacity="0.53" d="M271.358 225.286H294.974V228.143H271.358V225.286Z" fill="#E6E6E6"/>
<path opacity="0.65" d="M271.358 231.869H294.974V234.727H271.358V231.869Z" fill="#E6E6E6"/>
<path d="M271.358 238.453H294.974V241.31H271.358V238.453Z" fill="#E6E6E6"/>
<path opacity="0.8" d="M271.358 245.037H294.974V247.894H271.358V245.037Z" fill="#E6E6E6"/>
<path opacity="0.82" d="M271.358 251.621H294.974V254.478H271.358V251.621Z" fill="#E6E6E6"/>
<path opacity="0.75" d="M271.358 258.205H294.974V261.062H271.358V258.205Z" fill="#E6E6E6"/>
<path opacity="0.31" d="M271.358 264.788H294.974V267.646H271.358V264.788Z" fill="#E6E6E6"/>
<path opacity="0.22" d="M271.358 271.372H294.974V274.229H271.358V271.372Z" fill="#E6E6E6"/>
<path opacity="0.43" d="M271.358 277.956H294.974V280.813H271.358V277.956Z" fill="#E6E6E6"/>
<path opacity="0.68" d="M271.358 284.54H294.974V287.397H271.358V284.54Z" fill="#E6E6E6"/>
<path opacity="0.38" d="M271.358 291.124H294.974V293.981H271.358V291.124Z" fill="#E6E6E6"/>
<path opacity="0.84" d="M271.358 297.707H294.974V300.564H271.358V297.707Z" fill="#E6E6E6"/>
<path d="M349.786 156.963V165.41H309.143V156.963H349.786ZM340.713 162.678H344.939V159.82H340.713V162.678ZM334.125 162.678H338.227V159.82H334.125V162.678ZM327.414 162.678H331.515V159.82H327.414V162.678ZM320.702 162.678H324.928V159.82H320.702V162.678ZM313.99 162.678H318.216V159.82H313.99V162.678Z" fill="#333333"/>
<path d="M301.685 159.821H302.804V162.678H301.685V159.821Z" fill="#333333"/>
<path d="M309.143 156.963V165.41H290.002V156.963H309.143ZM301.685 162.678H305.787V159.82H301.685V162.678ZM292.861 162.678H296.962V159.82H292.861V162.678Z" fill="#4D4D4D"/>
<path d="M292.985 159.821H294.104V162.678H292.985V159.821Z" fill="#333333"/>
<path d="M289.754 335.595H374.272L289.754 273.235V335.595Z" fill="#333333"/>
<path d="M415.785 131.622H422.621V157.585H415.785V131.622Z" fill="#4D4D4D"/>
<path d="M422.496 131.622H429.457V157.585H422.496V131.622Z" fill="#333333"/>
<path d="M408.7 131.622H415.66V157.585H408.7V131.622Z" fill="#666666"/>
<path d="M388.565 175.348H407.954V323.421H388.565V175.348Z" fill="#666666"/>
<path d="M430.7 175.348H447.603V323.421H430.7V175.348Z" fill="#333333"/>
<path d="M407.954 175.348H430.824V323.421H407.954V175.348Z" fill="#4D4D4D"/>
<path opacity="0.6" d="M442.756 179.696H445.242V321.434H442.756V179.696Z" fill="#E6E6E6"/>
<path opacity="0.6" d="M437.909 179.696H440.394V321.434H437.909V179.696Z" fill="#E6E6E6"/>
<path opacity="0.6" d="M433.061 179.696H435.547V321.434H433.061V179.696Z" fill="#E6E6E6"/>
<path d="M404.101 179.696H406.587V321.434H404.101V179.696Z" fill="#E6E6E6"/>
<path d="M399.254 179.696H401.74V321.434H399.254V179.696Z" fill="#E6E6E6"/>
<path d="M389.808 179.696H392.294V321.434H389.808V179.696Z" fill="#E6E6E6"/>
<path d="M394.407 179.696H396.892V321.434H394.407V179.696Z" fill="#E6E6E6"/>
<path opacity="0.8" d="M427.965 321.434H410.813V179.696H427.965V321.434ZM425.231 182.18H413.548V318.949H425.231V182.18Z" fill="#E6E6E6"/>
<path opacity="0.8" d="M422.994 316.589H415.66V184.417H422.994V316.589ZM420.508 187.522H419.638H419.141H418.146V313.483H419.141H419.638H420.508V187.522Z" fill="#E6E6E6"/>
<path opacity="0.8" d="M419.141 187.522H419.638V313.483H419.141V187.522Z" fill="#E6E6E6"/>
<path d="M410.565 149.386H427.717V175.348H410.565V149.386Z" fill="#4D4D4D"/>
<path d="M410.565 149.386H427.717V175.348H410.565V149.386Z" fill="#4D4D4D"/>
<path d="M393.412 149.386H410.565V175.348H393.412V149.386Z" fill="#666666"/>
<path d="M427.717 149.386H444.869V175.348H427.717V149.386Z" fill="#333333"/>
<path d="M408.824 131.622H429.457L422.621 136.342H415.66L408.824 131.622Z" fill="#808080"/>
<path d="M40.0525 122.057H49.9958V151.249H40.0525V122.057Z" fill="#4D4D4D"/>
<path d="M50.1201 122.057H60.0634V151.249H50.1201V122.057Z" fill="#333333"/>
<path d="M30.1091 122.057H40.0525V151.249H30.1091V122.057Z" fill="#666666"/>
<path d="M0.776489 171.373H28.8663V338.203H0.776489V171.373Z" fill="#666666"/>
<path d="M61.9278 171.373H86.2888V338.203H61.9278V171.373Z" fill="#333333"/>
<path d="M28.8663 171.373H61.9278V338.203H28.8663V171.373Z" fill="#4D4D4D"/>
<path opacity="0.4" d="M79.3286 176.342H82.9329V335.968H79.3286V176.342Z" fill="#E6E6E6"/>
<path opacity="0.4" d="M72.2439 176.342H75.8484V335.968H72.2439V176.342Z" fill="#E6E6E6"/>
<path opacity="0.4" d="M65.1593 176.342H68.7638V335.968H65.1593V176.342Z" fill="#E6E6E6"/>
<path d="M23.2731 176.342H26.8776V335.968H23.2731V176.342Z" fill="#E6E6E6"/>
<path d="M16.1886 176.342H19.793V335.968H16.1886V176.342Z" fill="#E6E6E6"/>
<path d="M2.64087 176.342H6.2453V335.968H2.64087V176.342Z" fill="#E6E6E6"/>
<path d="M9.22827 176.342H12.8328V335.968H9.22827V176.342Z" fill="#E6E6E6"/>
<path d="M57.7018 335.968H32.8436V176.342H57.7018V335.968ZM53.8489 179.075H36.9452V333.235H53.8489V179.075Z" fill="#E6E6E6"/>
<path d="M50.7416 330.626H40.0525V181.684H50.7416V330.626ZM47.0128 185.162H45.6456H45.0241H43.657V327.148H45.0241H45.6456H47.0128V185.162Z" fill="#E6E6E6"/>
<path d="M45.0241 185.162H45.6456V327.148H45.0241V185.162Z" fill="#E6E6E6"/>
<path d="M32.595 142.181H57.4532V171.373H32.595V142.181Z" fill="#4D4D4D"/>
<path d="M32.595 142.181H57.4532V171.373H32.595V142.181Z" fill="#4D4D4D"/>
<path d="M7.73676 142.181H32.595V171.373H7.73676V142.181Z" fill="#666666"/>
<path d="M57.329 142.181H82.1873V171.373H57.329V142.181Z" fill="#333333"/>
<path d="M29.9849 122.057H60.0634L49.9958 127.398H40.0525L29.9849 122.057Z" fill="#808080"/>
<path d="M111.768 194.479H179.756V217.087H111.768V194.479Z" fill="#E6E6E6"/>
<path d="M153.033 194.479H179.756V217.087H153.033V194.479Z" fill="#B3B3B3"/>
<path d="M153.033 217.211H205.857V327.024H153.033V217.211Z" fill="#333333"/>
<path d="M70.5038 217.211H153.033V327.024H70.5038V217.211Z" fill="#4D4D4D"/>
<path d="M159.496 206.031H200.14V217.211H159.496V206.031Z" fill="#333333"/>
<path d="M82.8087 206.031H140.853V217.211H82.8087V206.031Z" fill="#4D4D4D"/>
<path d="M129.791 185.907H153.033V194.479H129.791V185.907Z" fill="#E6E6E6"/>
<path d="M141.474 177.212H153.033V185.783H141.474V177.212Z" fill="#4D4D4D"/>
<path d="M153.157 177.212H164.717V185.783H153.157V177.212Z" fill="#333333"/>
<path d="M153.033 185.907H170.807V194.479H153.033V185.907Z" fill="#B3B3B3"/>
<path d="M153.779 177.212L153.033 157.336L152.412 177.212H153.779Z" fill="#333333"/>
<path opacity="0.12" d="M189.202 221.683H193.552V226.031H189.202V221.683Z" fill="white"/>
<path opacity="0.25" d="M183.236 221.683H187.586V226.031H183.236V221.683Z" fill="white"/>
<path opacity="0.36" d="M177.27 221.683H181.62V226.031H177.27V221.683Z" fill="white"/>
<path opacity="0.12" d="M171.304 221.683H175.654V226.031H171.304V221.683Z" fill="white"/>
<path opacity="0.14" d="M165.338 221.683H169.688V226.031H165.338V221.683Z" fill="white"/>
<path opacity="0.28" d="M189.202 227.398H193.552V231.745H189.202V227.398Z" fill="white"/>
<path opacity="0.4" d="M183.236 227.398H187.586V231.745H183.236V227.398Z" fill="white"/>
<path opacity="0.16" d="M177.27 227.398H181.62V231.745H177.27V227.398Z" fill="white"/>
<path opacity="0.17" d="M165.338 227.398H169.688V231.745H165.338V227.398Z" fill="white"/>
<path opacity="0.27" d="M189.202 233.112H193.552V237.46H189.202V233.112Z" fill="white"/>
<path opacity="0.45" d="M183.236 233.112H187.586V237.46H183.236V233.112Z" fill="white"/>
<path opacity="0.45" d="M177.27 233.112H181.62V237.46H177.27V233.112Z" fill="white"/>
<path opacity="0.48" d="M171.304 233.112H175.654V237.46H171.304V233.112Z" fill="white"/>
<path opacity="0.25" d="M165.338 233.112H169.688V237.46H165.338V233.112Z" fill="white"/>
<path opacity="0.28" d="M189.202 238.826H193.552V243.174H189.202V238.826Z" fill="white"/>
<path opacity="0.13" d="M183.236 238.826H187.586V243.174H183.236V238.826Z" fill="white"/>
<path opacity="0.07" d="M177.27 238.826H181.62V243.174H177.27V238.826Z" fill="white"/>
<path opacity="0.39" d="M171.304 238.826H175.654V243.174H171.304V238.826Z" fill="white"/>
<path opacity="0.47" d="M165.338 238.826H169.688V243.174H165.338V238.826Z" fill="white"/>
<path opacity="0.28" d="M189.202 244.54H193.552V248.888H189.202V244.54Z" fill="white"/>
<path opacity="0.2" d="M183.236 244.54H187.586V248.888H183.236V244.54Z" fill="white"/>
<path opacity="0.04" d="M177.27 244.54H181.62V248.888H177.27V244.54Z" fill="white"/>
<path opacity="0.43" d="M171.304 244.54H175.654V248.888H171.304V244.54Z" fill="white"/>
<path opacity="0.48" d="M165.338 244.54H169.688V248.888H165.338V244.54Z" fill="white"/>
<path opacity="0.28" d="M189.202 250.254H193.552V254.602H189.202V250.254Z" fill="white"/>
<path opacity="0.19" d="M183.236 250.254H187.586V254.602H183.236V250.254Z" fill="white"/>
<path opacity="0.01" d="M177.27 250.254H181.62V254.602H177.27V250.254Z" fill="white"/>
<path opacity="0.27" d="M171.304 250.254H175.654V254.602H171.304V250.254Z" fill="white"/>
<path opacity="0.24" d="M165.338 250.254H169.688V254.602H165.338V250.254Z" fill="white"/>
<path opacity="0.07" d="M189.202 256.093H193.552V260.441H189.202V256.093Z" fill="white"/>
<path opacity="0.25" d="M183.236 256.093H187.586V260.441H183.236V256.093Z" fill="white"/>
<path opacity="0.26" d="M177.27 256.093H181.62V260.441H177.27V256.093Z" fill="white"/>
<path opacity="0.39" d="M171.304 256.093H175.654V260.441H171.304V256.093Z" fill="white"/>
<path opacity="0.22" d="M165.338 256.093H169.688V260.441H165.338V256.093Z" fill="white"/>
<path opacity="0.15" d="M189.202 261.807H193.552V266.155H189.202V261.807Z" fill="white"/>
<path opacity="0.23" d="M183.236 261.807H187.586V266.155H183.236V261.807Z" fill="white"/>
<path opacity="0.05" d="M177.27 261.807H181.62V266.155H177.27V261.807Z" fill="white"/>
<path opacity="0.2" d="M171.304 261.807H175.654V266.155H171.304V261.807Z" fill="white"/>
<path opacity="0.31" d="M165.338 261.807H169.688V266.155H165.338V261.807Z" fill="white"/>
<path opacity="0.15" d="M189.202 267.521H193.552V271.869H189.202V267.521Z" fill="white"/>
<path opacity="0.33" d="M183.236 267.521H187.586V271.869H183.236V267.521Z" fill="white"/>
<path opacity="0.46" d="M177.27 267.521H181.62V271.869H177.27V267.521Z" fill="white"/>
<path opacity="0.25" d="M171.304 267.521H175.654V271.869H171.304V267.521Z" fill="white"/>
<path opacity="0.43" d="M165.338 267.521H169.688V271.869H165.338V267.521Z" fill="white"/>
<path opacity="0.4" d="M189.202 273.236H193.552V277.583H189.202V273.236Z" fill="white"/>
<path opacity="0.39" d="M183.236 273.236H187.586V277.583H183.236V273.236Z" fill="white"/>
<path opacity="0.01" d="M177.27 273.236H181.62V277.583H177.27V273.236Z" fill="white"/>
<path opacity="0.12" d="M171.304 273.236H175.654V277.583H171.304V273.236Z" fill="white"/>
<path opacity="0.07" d="M165.338 273.236H169.688V277.583H165.338V273.236Z" fill="white"/>
<path opacity="0.07" d="M189.202 278.95H193.552V283.298H189.202V278.95Z" fill="white"/>
<path opacity="0.02" d="M183.236 278.95H187.586V283.298H183.236V278.95Z" fill="white"/>
<path opacity="0.12" d="M177.27 278.95H181.62V283.298H177.27V278.95Z" fill="white"/>
<path opacity="0.23" d="M171.304 278.95H175.654V283.298H171.304V278.95Z" fill="white"/>
<path opacity="0.26" d="M165.338 278.95H169.688V283.298H165.338V278.95Z" fill="white"/>
<path opacity="0.27" d="M189.202 284.664H193.552V289.012H189.202V284.664Z" fill="white"/>
<path opacity="0.38" d="M183.236 284.664H187.586V289.012H183.236V284.664Z" fill="white"/>
<path opacity="0.05" d="M177.27 284.664H181.62V289.012H177.27V284.664Z" fill="white"/>
<path opacity="0.45" d="M171.304 284.664H175.654V289.012H171.304V284.664Z" fill="white"/>
<path opacity="0.15" d="M165.338 284.664H169.688V289.012H165.338V284.664Z" fill="white"/>
<path opacity="0.06" d="M189.202 290.378H193.552V294.726H189.202V290.378Z" fill="white"/>
<path opacity="0.47" d="M183.236 290.378H187.586V294.726H183.236V290.378Z" fill="white"/>
<path opacity="0.15" d="M177.27 290.378H181.62V294.726H177.27V290.378Z" fill="white"/>
<path opacity="0.44" d="M171.304 290.378H175.654V294.726H171.304V290.378Z" fill="white"/>
<path opacity="0.14" d="M165.338 290.378H169.688V294.726H165.338V290.378Z" fill="white"/>
<path opacity="0.15" d="M189.202 296.093H193.552V300.44H189.202V296.093Z" fill="white"/>
<path opacity="0.43" d="M183.236 296.093H187.586V300.44H183.236V296.093Z" fill="white"/>
<path opacity="0.07" d="M177.27 296.093H181.62V300.44H177.27V296.093Z" fill="white"/>
<path opacity="0.47" d="M171.304 296.093H175.654V300.44H171.304V296.093Z" fill="white"/>
<path opacity="0.11" d="M165.338 296.093H169.688V300.44H165.338V296.093Z" fill="white"/>
<path opacity="0.07" d="M189.202 301.807H193.552V306.154H189.202V301.807Z" fill="white"/>
<path opacity="0.34" d="M183.236 301.807H187.586V306.154H183.236V301.807Z" fill="white"/>
<path opacity="0.5" d="M177.27 301.807H181.62V306.154H177.27V301.807Z" fill="white"/>
<path opacity="0.36" d="M171.304 301.807H175.654V306.154H171.304V301.807Z" fill="white"/>
<path opacity="0.34" d="M165.338 301.807H169.688V306.154H165.338V301.807Z" fill="white"/>
<path opacity="0.47" d="M189.202 307.521H193.552V311.869H189.202V307.521Z" fill="white"/>
<path opacity="0.41" d="M183.236 307.521H187.586V311.869H183.236V307.521Z" fill="white"/>
<path opacity="0.3" d="M177.27 307.521H181.62V311.869H177.27V307.521Z" fill="white"/>
<path opacity="0.33" d="M171.304 307.521H175.654V311.869H171.304V307.521Z" fill="white"/>
<path opacity="0.12" d="M165.338 307.521H169.688V311.869H165.338V307.521Z" fill="white"/>
<path opacity="0.3" d="M138.615 221.683H142.966V226.031H138.615V221.683Z" fill="white"/>
<path opacity="0.72" d="M132.898 221.683H137.248V226.031H132.898V221.683Z" fill="white"/>
<path opacity="0.7" d="M127.056 221.683H131.406V226.031H127.056V221.683Z" fill="white"/>
<path opacity="0.52" d="M121.215 221.683H125.565V226.031H121.215V221.683Z" fill="white"/>
<path opacity="0.2" d="M115.373 221.683H119.723V226.031H115.373V221.683Z" fill="white"/>
<path opacity="0.32" d="M109.656 221.683H114.006V226.031H109.656V221.683Z" fill="white"/>
<path opacity="0.13" d="M103.814 221.683H108.164V226.031H103.814V221.683Z" fill="white"/>
<path opacity="0.38" d="M97.9722 221.683H102.322V226.031H97.9722V221.683Z" fill="white"/>
<path opacity="0.61" d="M92.2548 221.683H96.605V226.031H92.2548V221.683Z" fill="white"/>
<path d="M86.4131 221.683H90.7634V226.031H86.4131V221.683Z" fill="white"/>
<path opacity="0.91" d="M80.5715 221.683H84.9216V226.031H80.5715V221.683Z" fill="white"/>
<path opacity="0.66" d="M138.615 227.398H142.966V231.745H138.615V227.398Z" fill="white"/>
<path opacity="0.31" d="M132.898 227.398H137.248V231.745H132.898V227.398Z" fill="white"/>
<path opacity="0.95" d="M127.056 227.398H131.406V231.745H127.056V227.398Z" fill="white"/>
<path opacity="0.7" d="M121.215 227.398H125.565V231.745H121.215V227.398Z" fill="white"/>
<path opacity="0.12" d="M115.373 227.398H119.723V231.745H115.373V227.398Z" fill="white"/>
<path opacity="0.24" d="M109.656 227.398H114.006V231.745H109.656V227.398Z" fill="white"/>
<path opacity="0.66" d="M103.814 227.398H108.164V231.745H103.814V227.398Z" fill="white"/>
<path opacity="0.71" d="M97.9722 227.398H102.322V231.745H97.9722V227.398Z" fill="white"/>
<path opacity="0.42" d="M92.2548 227.398H96.605V231.745H92.2548V227.398Z" fill="white"/>
<path opacity="0.09" d="M86.4131 227.398H90.7634V231.745H86.4131V227.398Z" fill="white"/>
<path opacity="0.32" d="M80.5715 227.398H84.9216V231.745H80.5715V227.398Z" fill="white"/>
<path opacity="0.65" d="M138.615 233.112H142.966V237.46H138.615V233.112Z" fill="white"/>
<path d="M132.898 233.112H137.248V237.46H132.898V233.112Z" fill="white"/>
<path d="M127.056 233.112H131.406V237.46H127.056V233.112Z" fill="white"/>
<path opacity="0.71" d="M121.215 233.112H125.565V237.46H121.215V233.112Z" fill="white"/>
<path opacity="0.2" d="M115.373 233.112H119.723V237.46H115.373V233.112Z" fill="white"/>
<path opacity="0.19" d="M109.656 233.112H114.006V237.46H109.656V233.112Z" fill="white"/>
<path opacity="0.62" d="M103.814 233.112H108.164V237.46H103.814V233.112Z" fill="white"/>
<path opacity="0.93" d="M97.9722 233.112H102.322V237.46H97.9722V233.112Z" fill="white"/>
<path opacity="0.56" d="M92.2548 233.112H96.605V237.46H92.2548V233.112Z" fill="white"/>
<path opacity="0.57" d="M86.4131 233.112H90.7634V237.46H86.4131V233.112Z" fill="white"/>
<path opacity="0.52" d="M80.5715 233.112H84.9216V237.46H80.5715V233.112Z" fill="white"/>
<path opacity="0.74" d="M138.615 238.826H142.966V243.174H138.615V238.826Z" fill="white"/>
<path opacity="0.56" d="M132.898 238.826H137.248V243.174H132.898V238.826Z" fill="white"/>
<path opacity="0.78" d="M127.056 238.826H131.406V243.174H127.056V238.826Z" fill="white"/>
<path opacity="0.41" d="M121.215 238.826H125.565V243.174H121.215V238.826Z" fill="white"/>
<path opacity="0.14" d="M115.373 238.826H119.723V243.174H115.373V238.826Z" fill="white"/>
<path opacity="0.28" d="M109.656 238.826H114.006V243.174H109.656V238.826Z" fill="white"/>
<path opacity="0.36" d="M103.814 238.826H108.164V243.174H103.814V238.826Z" fill="white"/>
<path opacity="0.14" d="M97.9722 238.826H102.322V243.174H97.9722V238.826Z" fill="white"/>
<path opacity="0.5" d="M92.2548 238.826H96.605V243.174H92.2548V238.826Z" fill="white"/>
<path opacity="0.98" d="M86.4131 238.826H90.7634V243.174H86.4131V238.826Z" fill="white"/>
<path opacity="0.59" d="M80.5715 238.826H84.9216V243.174H80.5715V238.826Z" fill="white"/>
<path opacity="0.07" d="M138.615 244.54H142.966V248.888H138.615V244.54Z" fill="white"/>
<path opacity="0.1" d="M132.898 244.54H137.248V248.888H132.898V244.54Z" fill="white"/>
<path opacity="0.88" d="M127.056 244.54H131.406V248.888H127.056V244.54Z" fill="white"/>
<path opacity="0.68" d="M121.215 244.54H125.565V248.888H121.215V244.54Z" fill="white"/>
<path opacity="0.81" d="M115.373 244.54H119.723V248.888H115.373V244.54Z" fill="white"/>
<path opacity="0.62" d="M109.656 244.54H114.006V248.888H109.656V244.54Z" fill="white"/>
<path opacity="0.97" d="M103.814 244.54H108.164V248.888H103.814V244.54Z" fill="white"/>
<path opacity="0.81" d="M97.9722 244.54H102.322V248.888H97.9722V244.54Z" fill="white"/>
<path opacity="0.79" d="M92.2548 244.54H96.605V248.888H92.2548V244.54Z" fill="white"/>
<path opacity="0.03" d="M86.4131 244.54H90.7634V248.888H86.4131V244.54Z" fill="white"/>
<path opacity="0.95" d="M80.5715 244.54H84.9216V248.888H80.5715V244.54Z" fill="white"/>
<path opacity="0.62" d="M138.615 250.254H142.966V254.602H138.615V250.254Z" fill="white"/>
<path opacity="0.22" d="M132.898 250.254H137.248V254.602H132.898V250.254Z" fill="white"/>
<path opacity="0.42" d="M127.056 250.254H131.406V254.602H127.056V250.254Z" fill="white"/>
<path opacity="0.56" d="M121.215 250.254H125.565V254.602H121.215V250.254Z" fill="white"/>
<path opacity="0.03" d="M115.373 250.254H119.723V254.602H115.373V250.254Z" fill="white"/>
<path opacity="0.64" d="M109.656 250.254H114.006V254.602H109.656V250.254Z" fill="white"/>
<path opacity="0.82" d="M103.814 250.254H108.164V254.602H103.814V250.254Z" fill="white"/>
<path opacity="0.52" d="M97.9722 250.254H102.322V254.602H97.9722V250.254Z" fill="white"/>
<path opacity="0.46" d="M92.2548 250.254H96.605V254.602H92.2548V250.254Z" fill="white"/>
<path opacity="0.27" d="M86.4131 250.254H90.7634V254.602H86.4131V250.254Z" fill="white"/>
<path opacity="0.46" d="M80.5715 250.254H84.9216V254.602H80.5715V250.254Z" fill="white"/>
<path opacity="0.66" d="M138.615 256.093H142.966V260.441H138.615V256.093Z" fill="white"/>
<path opacity="0.7" d="M132.898 256.093H137.248V260.441H132.898V256.093Z" fill="white"/>
<path opacity="0.94" d="M127.056 256.093H131.406V260.441H127.056V256.093Z" fill="white"/>
<path opacity="0.5" d="M121.215 256.093H125.565V260.441H121.215V256.093Z" fill="white"/>
<path opacity="0.12" d="M115.373 256.093H119.723V260.441H115.373V256.093Z" fill="white"/>
<path opacity="0.36" d="M109.656 256.093H114.006V260.441H109.656V256.093Z" fill="white"/>
<path opacity="0.51" d="M103.814 256.093H108.164V260.441H103.814V256.093Z" fill="white"/>
<path opacity="0.37" d="M97.9722 256.093H102.322V260.441H97.9722V256.093Z" fill="white"/>
<path opacity="0.66" d="M92.2548 256.093H96.605V260.441H92.2548V256.093Z" fill="white"/>
<path opacity="0.42" d="M86.4131 256.093H90.7634V260.441H86.4131V256.093Z" fill="white"/>
<path opacity="0.5" d="M80.5715 256.093H84.9216V260.441H80.5715V256.093Z" fill="white"/>
<path opacity="0.52" d="M138.615 261.807H142.966V266.155H138.615V261.807Z" fill="white"/>
<path opacity="0.61" d="M132.898 261.807H137.248V266.155H132.898V261.807Z" fill="white"/>
<path opacity="0.84" d="M127.056 261.807H131.406V266.155H127.056V261.807Z" fill="white"/>
<path opacity="0.89" d="M121.215 261.807H125.565V266.155H121.215V261.807Z" fill="white"/>
<path opacity="0.33" d="M115.373 261.807H119.723V266.155H115.373V261.807Z" fill="white"/>
<path opacity="0.25" d="M109.656 261.807H114.006V266.155H109.656V261.807Z" fill="white"/>
<path opacity="0.95" d="M103.814 261.807H108.164V266.155H103.814V261.807Z" fill="white"/>
<path opacity="0.09" d="M97.9722 261.807H102.322V266.155H97.9722V261.807Z" fill="white"/>
<path opacity="0.44" d="M92.2548 261.807H96.605V266.155H92.2548V261.807Z" fill="white"/>
<path opacity="0.51" d="M86.4131 261.807H90.7634V266.155H86.4131V261.807Z" fill="white"/>
<path opacity="0.97" d="M80.5715 261.807H84.9216V266.155H80.5715V261.807Z" fill="white"/>
<path opacity="0.26" d="M138.615 267.521H142.966V271.869H138.615V267.521Z" fill="white"/>
<path opacity="0.92" d="M132.898 267.521H137.248V271.869H132.898V267.521Z" fill="white"/>
<path opacity="0.33" d="M127.056 267.521H131.406V271.869H127.056V267.521Z" fill="white"/>
<path opacity="0.23" d="M121.215 267.521H125.565V271.869H121.215V267.521Z" fill="white"/>
<path opacity="0.42" d="M115.373 267.521H119.723V271.869H115.373V267.521Z" fill="white"/>
<path opacity="0.57" d="M109.656 267.521H114.006V271.869H109.656V267.521Z" fill="white"/>
<path opacity="0.73" d="M103.814 267.521H108.164V271.869H103.814V267.521Z" fill="white"/>
<path opacity="0.87" d="M97.9722 267.521H102.322V271.869H97.9722V267.521Z" fill="white"/>
<path opacity="0.22" d="M92.2548 267.521H96.605V271.869H92.2548V267.521Z" fill="white"/>
<path opacity="0.89" d="M86.4131 267.521H90.7634V271.869H86.4131V267.521Z" fill="white"/>
<path opacity="0.73" d="M80.5715 267.521H84.9216V271.869H80.5715V267.521Z" fill="white"/>
<path opacity="0.35" d="M138.615 273.236H142.966V277.583H138.615V273.236Z" fill="white"/>
<path opacity="0.81" d="M132.898 273.236H137.248V277.583H132.898V273.236Z" fill="white"/>
<path opacity="0.56" d="M127.056 273.236H131.406V277.583H127.056V273.236Z" fill="white"/>
<path opacity="0.81" d="M121.215 273.236H125.565V277.583H121.215V273.236Z" fill="white"/>
<path opacity="0.87" d="M115.373 273.236H119.723V277.583H115.373V273.236Z" fill="white"/>
<path opacity="0.39" d="M109.656 273.236H114.006V277.583H109.656V273.236Z" fill="white"/>
<path opacity="0.31" d="M103.814 273.236H108.164V277.583H103.814V273.236Z" fill="white"/>
<path opacity="0.98" d="M97.9722 273.236H102.322V277.583H97.9722V273.236Z" fill="white"/>
<path opacity="0.17" d="M92.2548 273.236H96.605V277.583H92.2548V273.236Z" fill="white"/>
<path opacity="0.06" d="M86.4131 273.236H90.7634V277.583H86.4131V273.236Z" fill="white"/>
<path opacity="0.57" d="M80.5715 273.236H84.9216V277.583H80.5715V273.236Z" fill="white"/>
<path opacity="0.67" d="M138.615 278.95H142.966V283.298H138.615V278.95Z" fill="white"/>
<path opacity="0.83" d="M132.898 278.95H137.248V283.298H132.898V278.95Z" fill="white"/>
<path opacity="0.99" d="M127.056 278.95H131.406V283.298H127.056V278.95Z" fill="white"/>
<path opacity="0.62" d="M121.215 278.95H125.565V283.298H121.215V278.95Z" fill="white"/>
<path opacity="0.87" d="M115.373 278.95H119.723V283.298H115.373V278.95Z" fill="white"/>
<path opacity="0.14" d="M109.656 278.95H114.006V283.298H109.656V278.95Z" fill="white"/>
<path opacity="0.12" d="M103.814 278.95H108.164V283.298H103.814V278.95Z" fill="white"/>
<path opacity="0.11" d="M97.9722 278.95H102.322V283.298H97.9722V278.95Z" fill="white"/>
<path opacity="0.39" d="M92.2548 278.95H96.605V283.298H92.2548V278.95Z" fill="white"/>
<path opacity="0.58" d="M86.4131 278.95H90.7634V283.298H86.4131V278.95Z" fill="white"/>
<path opacity="0.54" d="M80.5715 278.95H84.9216V283.298H80.5715V278.95Z" fill="white"/>
<path opacity="0.99" d="M138.615 284.664H142.966V289.012H138.615V284.664Z" fill="white"/>
<path opacity="0.28" d="M132.898 284.664H137.248V289.012H132.898V284.664Z" fill="white"/>
<path opacity="0.78" d="M127.056 284.664H131.406V289.012H127.056V284.664Z" fill="white"/>
<path opacity="0.65" d="M121.215 284.664H125.565V289.012H121.215V284.664Z" fill="white"/>
<path opacity="0.32" d="M115.373 284.664H119.723V289.012H115.373V284.664Z" fill="white"/>
<path opacity="0.55" d="M109.656 284.664H114.006V289.012H109.656V284.664Z" fill="white"/>
<path opacity="0.4" d="M103.814 284.664H108.164V289.012H103.814V284.664Z" fill="white"/>
<path opacity="0.22" d="M97.9722 284.664H102.322V289.012H97.9722V284.664Z" fill="white"/>
<path opacity="0.87" d="M92.2548 284.664H96.605V289.012H92.2548V284.664Z" fill="white"/>
<path opacity="0.02" d="M86.4131 284.664H90.7634V289.012H86.4131V284.664Z" fill="white"/>
<path opacity="0.39" d="M80.5715 284.664H84.9216V289.012H80.5715V284.664Z" fill="white"/>
<path opacity="0.89" d="M138.615 290.378H142.966V294.726H138.615V290.378Z" fill="white"/>
<path opacity="0.97" d="M132.898 290.378H137.248V294.726H132.898V290.378Z" fill="white"/>
<path opacity="0.79" d="M127.056 290.378H131.406V294.726H127.056V290.378Z" fill="white"/>
<path opacity="0.41" d="M121.215 290.378H125.565V294.726H121.215V290.378Z" fill="white"/>
<path opacity="0.13" d="M115.373 290.378H119.723V294.726H115.373V290.378Z" fill="white"/>
<path opacity="0.9" d="M109.656 290.378H114.006V294.726H109.656V290.378Z" fill="white"/>
<path opacity="0.98" d="M103.814 290.378H108.164V294.726H103.814V290.378Z" fill="white"/>
<path opacity="0.67" d="M97.9722 290.378H102.322V294.726H97.9722V290.378Z" fill="white"/>
<path opacity="0.65" d="M92.2548 290.378H96.605V294.726H92.2548V290.378Z" fill="white"/>
<path opacity="0.89" d="M86.4131 290.378H90.7634V294.726H86.4131V290.378Z" fill="white"/>
<path opacity="0.98" d="M80.5715 290.378H84.9216V294.726H80.5715V290.378Z" fill="white"/>
<path opacity="0.29" d="M138.615 296.093H142.966V300.44H138.615V296.093Z" fill="white"/>
<path opacity="0.74" d="M132.898 296.093H137.248V300.44H132.898V296.093Z" fill="white"/>
<path opacity="0.64" d="M127.056 296.093H131.406V300.44H127.056V296.093Z" fill="white"/>
<path opacity="0.65" d="M121.215 296.093H125.565V300.44H121.215V296.093Z" fill="white"/>
<path opacity="0.07" d="M115.373 296.093H119.723V300.44H115.373V296.093Z" fill="white"/>
<path opacity="0.16" d="M109.656 296.093H114.006V300.44H109.656V296.093Z" fill="white"/>
<path opacity="0.84" d="M103.814 296.093H108.164V300.44H103.814V296.093Z" fill="white"/>
<path opacity="0.88" d="M97.9722 296.093H102.322V300.44H97.9722V296.093Z" fill="white"/>
<path opacity="0.57" d="M92.2548 296.093H96.605V300.44H92.2548V296.093Z" fill="white"/>
<path opacity="0.31" d="M86.4131 296.093H90.7634V300.44H86.4131V296.093Z" fill="white"/>
<path opacity="0.03" d="M80.5715 296.093H84.9216V300.44H80.5715V296.093Z" fill="white"/>
<path opacity="0.3" d="M138.615 301.807H142.966V306.154H138.615V301.807Z" fill="white"/>
<path opacity="0.59" d="M132.898 301.807H137.248V306.154H132.898V301.807Z" fill="white"/>
<path opacity="0.93" d="M127.056 301.807H131.406V306.154H127.056V301.807Z" fill="white"/>
<path opacity="0.06" d="M121.215 301.807H125.565V306.154H121.215V301.807Z" fill="white"/>
<path opacity="0.74" d="M115.373 301.807H119.723V306.154H115.373V301.807Z" fill="white"/>
<path opacity="0.22" d="M109.656 301.807H114.006V306.154H109.656V301.807Z" fill="white"/>
<path opacity="0.51" d="M103.814 301.807H108.164V306.154H103.814V301.807Z" fill="white"/>
<path opacity="0.7" d="M97.9722 301.807H102.322V306.154H97.9722V301.807Z" fill="white"/>
<path opacity="0.47" d="M92.2548 301.807H96.605V306.154H92.2548V301.807Z" fill="white"/>
<path opacity="0.08" d="M86.4131 301.807H90.7634V306.154H86.4131V301.807Z" fill="white"/>
<path opacity="0.93" d="M80.5715 301.807H84.9216V306.154H80.5715V301.807Z" fill="white"/>
<path opacity="0.81" d="M138.615 307.521H142.966V311.869H138.615V307.521Z" fill="white"/>
<path opacity="0.9" d="M132.898 307.521H137.248V311.869H132.898V307.521Z" fill="white"/>
<path opacity="0.55" d="M127.056 307.521H131.406V311.869H127.056V307.521Z" fill="white"/>
<path opacity="0.14" d="M121.215 307.521H125.565V311.869H121.215V307.521Z" fill="white"/>
<path opacity="0.66" d="M115.373 307.521H119.723V311.869H115.373V307.521Z" fill="white"/>
<path opacity="0.92" d="M109.656 307.521H114.006V311.869H109.656V307.521Z" fill="white"/>
<path opacity="0.4" d="M103.814 307.521H108.164V311.869H103.814V307.521Z" fill="white"/>
<path opacity="0.6" d="M97.9722 307.521H102.322V311.869H97.9722V307.521Z" fill="white"/>
<path opacity="0.99" d="M92.2548 307.521H96.605V311.869H92.2548V307.521Z" fill="white"/>
<path opacity="0.68" d="M86.4131 307.521H90.7634V311.869H86.4131V307.521Z" fill="white"/>
<path opacity="0.01" d="M80.5715 307.521H84.9216V311.869H80.5715V307.521Z" fill="white"/>
<path d="M212.072 193.733H253.088V322.179H212.072V193.733Z" fill="#333333"/>
<path d="M234.444 187.273H253.088V194.478H234.444V187.273Z" fill="#333333"/>
<path d="M242.274 183.05H253.088V187.274H242.274V183.05Z" fill="#333333"/>
<path opacity="0.25" d="M229.348 202.801H236.06V209.509H229.348V202.801Z" fill="white"/>
<path opacity="0.15" d="M229.348 219.323H236.06V226.031H229.348V219.323Z" fill="white"/>
<path opacity="0.19" d="M229.348 252.242H236.06V258.95H229.348V252.242Z" fill="white"/>
<path opacity="0.17" d="M229.348 268.639H236.06V275.347H229.348V268.639Z" fill="white"/>
<path opacity="0.22" d="M229.348 285.036H236.06V291.744H229.348V285.036Z" fill="white"/>
<path d="M229.348 301.558H236.06V308.266H229.348V301.558Z" fill="white"/>
<path d="M242.523 265.285H280.929V276.59H242.523V265.285Z" fill="#333333"/>
<path d="M223.382 265.285H242.523V276.59H223.382V265.285Z" fill="#4D4D4D"/>
<path d="M280.929 265.285L268.997 259.571L242.523 265.285H280.929Z" fill="#333333"/>
<path d="M268.997 259.571L242.523 265.285H223.382L268.997 259.571Z" fill="#4D4D4D"/>
<path d="M233.574 273.235H289.754V324.663H233.574V273.235Z" fill="#333333"/>
<path d="M214.93 273.235H233.574V324.663H214.93V273.235Z" fill="#4D4D4D"/>
<path opacity="0.81" d="M219.28 276.838H229.348V280.565H219.28V276.838Z" fill="white"/>
<path opacity="0.76" d="M219.28 283.67H229.348V287.397H219.28V283.67Z" fill="white"/>
<path opacity="0.32" d="M219.28 290.502H229.348V294.229H219.28V290.502Z" fill="white"/>
<path opacity="0.49" d="M219.28 297.459H229.348V301.185H219.28V297.459Z" fill="white"/>
<path opacity="0.1" d="M270.737 276.838H280.805V280.565H270.737V276.838Z" fill="white"/>
<path opacity="0.04" d="M256.692 276.838H266.76V280.565H256.692V276.838Z" fill="white"/>
<path opacity="0.07" d="M242.523 276.838H252.59V280.565H242.523V276.838Z" fill="white"/>
<path opacity="0.06" d="M270.737 283.67H280.805V287.397H270.737V283.67Z" fill="white"/>
<path opacity="0.44" d="M256.692 283.67H266.76V287.397H256.692V283.67Z" fill="white"/>
<path opacity="0.24" d="M242.523 283.67H252.59V287.397H242.523V283.67Z" fill="white"/>
<path opacity="0.55" d="M270.737 290.502H280.805V294.229H270.737V290.502Z" fill="white"/>
<path opacity="0.02" d="M256.692 290.502H266.76V294.229H256.692V290.502Z" fill="white"/>
<path opacity="0.14" d="M242.523 290.502H252.59V294.229H242.523V290.502Z" fill="white"/>
<path opacity="0.43" d="M270.737 297.459H280.805V301.185H270.737V297.459Z" fill="white"/>
<path opacity="0.41" d="M256.692 297.459H266.76V301.185H256.692V297.459Z" fill="white"/>
<path opacity="0.46" d="M242.523 297.459H252.59V301.185H242.523V297.459Z" fill="white"/>
<path opacity="0.45" d="M270.737 304.291H280.805V308.018H270.737V304.291Z" fill="white"/>
<path opacity="0.33" d="M256.692 304.291H266.76V308.018H256.692V304.291Z" fill="white"/>
<path opacity="0.05" d="M242.523 304.291H252.59V308.018H242.523V304.291Z" fill="white"/>
<path d="M506.89 221.807H541.692V329.011H506.89V221.807Z" fill="#333333"/>
<path d="M467.241 221.807H506.766V329.011H467.241V221.807Z" fill="#4D4D4D"/>
<path d="M506.89 230.876H541.692V232.739H506.89V230.876Z" fill="#4D4D4D"/>
<path d="M467.241 230.876H506.766V232.739H467.241V230.876Z" fill="#333333"/>
<path opacity="0.47" d="M535.104 234.851H538.833V238.577H535.104V234.851Z" fill="white"/>
<path opacity="0.26" d="M530.008 234.851H533.737V238.577H530.008V234.851Z" fill="white"/>
<path opacity="0.32" d="M524.912 234.851H528.641V238.577H524.912V234.851Z" fill="white"/>
<path opacity="0.25" d="M519.816 234.851H523.545V238.577H519.816V234.851Z" fill="white"/>
<path opacity="0.12" d="M509.625 234.851H513.353V238.577H509.625V234.851Z" fill="white"/>
<path opacity="0.32" d="M535.104 239.944H538.833V243.671H535.104V239.944Z" fill="white"/>
<path opacity="0.22" d="M524.912 239.944H528.641V243.671H524.912V239.944Z" fill="white"/>
<path opacity="0.47" d="M519.816 239.944H523.545V243.671H519.816V239.944Z" fill="white"/>
<path opacity="0.22" d="M514.72 239.944H518.449V243.671H514.72V239.944Z" fill="white"/>
<path opacity="0.32" d="M509.625 239.944H513.353V243.671H509.625V239.944Z" fill="white"/>
<path opacity="0.37" d="M535.104 245.037H538.833V248.764H535.104V245.037Z" fill="white"/>
<path opacity="0.34" d="M530.008 245.037H533.737V248.764H530.008V245.037Z" fill="white"/>
<path opacity="0.18" d="M524.912 245.037H528.641V248.764H524.912V245.037Z" fill="white"/>
<path opacity="0.28" d="M519.816 245.037H523.545V248.764H519.816V245.037Z" fill="white"/>
<path opacity="0.2" d="M509.625 245.037H513.353V248.764H509.625V245.037Z" fill="white"/>
<path opacity="0.18" d="M535.104 250.13H538.833V253.857H535.104V250.13Z" fill="white"/>
<path opacity="0.33" d="M524.912 250.13H528.641V253.857H524.912V250.13Z" fill="white"/>
<path opacity="0.05" d="M519.816 250.13H523.545V253.857H519.816V250.13Z" fill="white"/>
<path opacity="0.08" d="M514.72 250.13H518.449V253.857H514.72V250.13Z" fill="white"/>
<path opacity="0.08" d="M519.816 255.223H523.545V258.95H519.816V255.223Z" fill="white"/>
<path opacity="0.02" d="M514.72 255.223H518.449V258.95H514.72V255.223Z" fill="white"/>
<path opacity="0.03" d="M535.104 260.316H538.833V264.043H535.104V260.316Z" fill="white"/>
<path opacity="0.46" d="M530.008 260.316H533.737V264.043H530.008V260.316Z" fill="white"/>
<path opacity="0.05" d="M524.912 260.316H528.641V264.043H524.912V260.316Z" fill="white"/>
<path opacity="0.2" d="M519.816 260.316H523.545V264.043H519.816V260.316Z" fill="white"/>
<path opacity="0.23" d="M514.72 260.316H518.449V264.043H514.72V260.316Z" fill="white"/>
<path opacity="0.17" d="M535.104 265.409H538.833V269.136H535.104V265.409Z" fill="white"/>
<path opacity="0.08" d="M530.008 265.409H533.737V269.136H530.008V265.409Z" fill="white"/>
<path opacity="0.14" d="M524.912 265.409H528.641V269.136H524.912V265.409Z" fill="white"/>
<path opacity="0.24" d="M514.72 265.409H518.449V269.136H514.72V265.409Z" fill="white"/>
<path opacity="0.28" d="M535.104 270.502H538.833V274.229H535.104V270.502Z" fill="white"/>
<path opacity="0.3" d="M530.008 270.502H533.737V274.229H530.008V270.502Z" fill="white"/>
<path opacity="0.23" d="M524.912 270.502H528.641V274.229H524.912V270.502Z" fill="white"/>
<path opacity="0.02" d="M519.816 270.502H523.545V274.229H519.816V270.502Z" fill="white"/>
<path opacity="0.04" d="M514.72 270.502H518.449V274.229H514.72V270.502Z" fill="white"/>
<path opacity="0.3" d="M509.625 270.502H513.353V274.229H509.625V270.502Z" fill="white"/>
<path opacity="0.08" d="M530.008 275.471H533.737V279.198H530.008V275.471Z" fill="white"/>
<path opacity="0.4" d="M509.625 275.471H513.353V279.198H509.625V275.471Z" fill="white"/>
<path opacity="0.31" d="M535.104 280.564H538.833V284.291H535.104V280.564Z" fill="white"/>
<path opacity="0.31" d="M530.008 280.564H533.737V284.291H530.008V280.564Z" fill="white"/>
<path opacity="0.12" d="M524.912 280.564H528.641V284.291H524.912V280.564Z" fill="white"/>
<path opacity="0.19" d="M514.72 280.564H518.449V284.291H514.72V280.564Z" fill="white"/>
<path opacity="0.43" d="M509.625 280.564H513.353V284.291H509.625V280.564Z" fill="white"/>
<path opacity="0.12" d="M535.104 285.658H538.833V289.385H535.104V285.658Z" fill="white"/>
<path opacity="0.42" d="M519.816 285.658H523.545V289.385H519.816V285.658Z" fill="white"/>
<path opacity="0.31" d="M509.625 285.658H513.353V289.385H509.625V285.658Z" fill="white"/>
<path opacity="0.23" d="M535.104 290.751H538.833V294.477H535.104V290.751Z" fill="white"/>
<path opacity="0.31" d="M519.816 290.751H523.545V294.477H519.816V290.751Z" fill="white"/>
<path opacity="0.33" d="M509.625 290.751H513.353V294.477H509.625V290.751Z" fill="white"/>
<path opacity="0.49" d="M535.104 295.844H538.833V299.571H535.104V295.844Z" fill="white"/>
<path opacity="0.06" d="M530.008 295.844H533.737V299.571H530.008V295.844Z" fill="white"/>
<path opacity="0.17" d="M519.816 295.844H523.545V299.571H519.816V295.844Z" fill="white"/>
<path opacity="0.01" d="M514.72 295.844H518.449V299.571H514.72V295.844Z" fill="white"/>
<path opacity="0.48" d="M509.625 295.844H513.353V299.571H509.625V295.844Z" fill="white"/>
<path opacity="0.05" d="M535.104 300.937H538.833V304.664H535.104V300.937Z" fill="white"/>
<path opacity="0.23" d="M530.008 300.937H533.737V304.664H530.008V300.937Z" fill="white"/>
<path opacity="0.28" d="M524.912 300.937H528.641V304.664H524.912V300.937Z" fill="white"/>
<path opacity="0.02" d="M519.816 300.937H523.545V304.664H519.816V300.937Z" fill="white"/>
<path opacity="0.17" d="M514.72 300.937H518.449V304.664H514.72V300.937Z" fill="white"/>
<path opacity="0.42" d="M509.625 300.937H513.353V304.664H509.625V300.937Z" fill="white"/>
<path opacity="0.13" d="M535.104 306.03H538.833V309.757H535.104V306.03Z" fill="white"/>
<path opacity="0.11" d="M524.912 306.03H528.641V309.757H524.912V306.03Z" fill="white"/>
<path opacity="0.02" d="M519.816 306.03H523.545V309.757H519.816V306.03Z" fill="white"/>
<path opacity="0.3" d="M509.625 306.03H513.353V309.757H509.625V306.03Z" fill="white"/>
<path opacity="0.08" d="M514.72 234.851H518.449V238.577H514.72V234.851Z" fill="white"/>
<path opacity="0.1" d="M530.008 239.944H533.737V243.671H530.008V239.944Z" fill="white"/>
<path opacity="0.08" d="M514.72 245.037H518.449V248.764H514.72V245.037Z" fill="white"/>
<path opacity="0.1" d="M530.008 250.13H533.737V253.857H530.008V250.13Z" fill="white"/>
<path opacity="0.01" d="M509.625 250.13H513.353V253.857H509.625V250.13Z" fill="white"/>
<path opacity="0.17" d="M535.104 255.223H538.833V258.95H535.104V255.223Z" fill="white"/>
<path opacity="0.01" d="M530.008 255.223H533.737V258.95H530.008V255.223Z" fill="white"/>
<path opacity="0.15" d="M524.912 255.223H528.641V258.95H524.912V255.223Z" fill="white"/>
<path opacity="0.12" d="M509.625 255.223H513.353V258.95H509.625V255.223Z" fill="white"/>
<path opacity="0.13" d="M519.816 265.409H523.545V269.136H519.816V265.409Z" fill="white"/>
<path opacity="0.07" d="M509.625 265.409H513.353V269.136H509.625V265.409Z" fill="white"/>
<path opacity="0.13" d="M535.104 275.471H538.833V279.198H535.104V275.471Z" fill="white"/>
<path opacity="0.02" d="M524.912 275.471H528.641V279.198H524.912V275.471Z" fill="white"/>
<path opacity="0.02" d="M519.816 275.471H523.545V279.198H519.816V275.471Z" fill="white"/>
<path opacity="0.14" d="M514.72 275.471H518.449V279.198H514.72V275.471Z" fill="white"/>
<path opacity="0.09" d="M524.912 285.658H528.641V289.385H524.912V285.658Z" fill="white"/>
<path opacity="0.02" d="M514.72 285.658H518.449V289.385H514.72V285.658Z" fill="white"/>
<path opacity="0.19" d="M524.912 290.751H528.641V294.477H524.912V290.751Z" fill="white"/>
<path opacity="0.06" d="M514.72 290.751H518.449V294.477H514.72V290.751Z" fill="white"/>
<path opacity="0.16" d="M524.912 295.844H528.641V299.571H524.912V295.844Z" fill="white"/>
<path opacity="0.19" d="M530.008 306.03H533.737V309.757H530.008V306.03Z" fill="white"/>
<path opacity="0.04" d="M514.72 306.03H518.449V309.757H514.72V306.03Z" fill="white"/>
<g opacity="0.7">
<path opacity="0.7" d="M499.308 232.739H503.161V324.291H499.308V232.739Z" fill="#E6E6E6"/>
<path opacity="0.7" d="M492.721 232.739H496.574V324.291H492.721V232.739Z" fill="#E6E6E6"/>
<path opacity="0.7" d="M486.009 232.739H489.862V324.291H486.009V232.739Z" fill="#E6E6E6"/>
<path opacity="0.7" d="M479.298 232.739H483.151V324.291H479.298V232.739Z" fill="#E6E6E6"/>
<path opacity="0.7" d="M472.586 232.739H476.439V324.291H472.586V232.739Z" fill="#E6E6E6"/>
</g>
<path d="M584.448 169.261L592.154 148.889L571.522 169.261H584.448Z" fill="#4D4D4D"/>
<path d="M602.47 169.261L592.154 148.889L584.448 169.261H602.47Z" fill="#333333"/>
<path d="M584.448 169.261H602.47V191H584.448V169.261Z" fill="#333333"/>
<path d="M571.522 169.261H584.448V191H571.522V169.261Z" fill="#4D4D4D"/>
<path d="M566.177 267.024H620.741V329.508H566.177V267.024Z" fill="#333333"/>
<path d="M573.635 222.304H613.159V267.024H573.635V222.304Z" fill="#333333"/>
<path d="M579.352 177.584H607.442V222.304H579.352V177.584Z" fill="#333333"/>
<path d="M560.087 177.584H579.476V222.304H560.087V177.584Z" fill="#4D4D4D"/>
<path d="M532.619 267.024H566.177V329.508H532.619V267.024Z" fill="#4D4D4D"/>
<path d="M548.155 222.304H573.635V267.024H548.155V222.304Z" fill="#4D4D4D"/>
<path opacity="0.53" d="M566.799 180.814H572.64V186.652H566.799V180.814Z" fill="white"/>
<path opacity="0.34" d="M566.799 188.143H572.64V193.981H566.799V188.143Z" fill="white"/>
<path opacity="0.9" d="M566.799 195.348H572.64V201.186H566.799V195.348Z" fill="white"/>
<path opacity="0.14" d="M566.799 202.553H572.64V208.391H566.799V202.553Z" fill="white"/>
<path d="M566.799 209.882H572.64V215.72H566.799V209.882Z" fill="white"/>
<path opacity="0.29" d="M562.448 226.155H568.29V231.993H562.448V226.155Z" fill="white"/>
<path opacity="0.81" d="M553.499 226.155H559.341V231.993H553.499V226.155Z" fill="white"/>
<path opacity="0.18" d="M562.448 233.484H568.29V239.323H562.448V233.484Z" fill="white"/>
<path opacity="0.41" d="M553.499 233.484H559.341V239.323H553.499V233.484Z" fill="white"/>
<path opacity="0.03" d="M553.499 240.938H559.341V246.776H553.499V240.938Z" fill="white"/>
<path opacity="0.85" d="M562.448 248.391H568.29V254.229H562.448V248.391Z" fill="white"/>
<path opacity="0.06" d="M553.499 248.391H559.341V254.229H553.499V248.391Z" fill="white"/>
<path opacity="0.94" d="M562.448 255.72H568.29V261.558H562.448V255.72Z" fill="white"/>
<path opacity="0.25" d="M553.499 255.72H559.341V261.558H553.499V255.72Z" fill="white"/>
<path opacity="0.6" d="M554.245 270.875H560.087V276.713H554.245V270.875Z" fill="white"/>
<path opacity="0.83" d="M546.415 270.875H552.256V276.713H546.415V270.875Z" fill="white"/>
<path opacity="0.74" d="M538.585 270.875H544.426V276.713H538.585V270.875Z" fill="white"/>
<path opacity="0.35" d="M546.415 277.956H552.256V283.794H546.415V277.956Z" fill="white"/>
<path opacity="0.54" d="M538.585 277.956H544.426V283.794H538.585V277.956Z" fill="white"/>
<path opacity="0.2" d="M554.245 285.036H560.087V290.875H554.245V285.036Z" fill="white"/>
<path opacity="0.04" d="M546.415 285.036H552.256V290.875H546.415V285.036Z" fill="white"/>
<path opacity="0.86" d="M538.585 285.036H544.426V290.875H538.585V285.036Z" fill="white"/>
<path opacity="0.06" d="M554.245 292.117H560.087V297.956H554.245V292.117Z" fill="white"/>
<path opacity="0.01" d="M546.415 292.117H552.256V297.956H546.415V292.117Z" fill="white"/>
<path opacity="0.39" d="M538.585 292.117H544.426V297.956H538.585V292.117Z" fill="white"/>
<path opacity="0.1" d="M554.245 299.322H560.087V305.16H554.245V299.322Z" fill="white"/>
<path d="M546.415 299.322H552.256V305.16H546.415V299.322Z" fill="white"/>
<path opacity="0.62" d="M538.585 299.322H544.426V305.16H538.585V299.322Z" fill="white"/>
<path opacity="0.48" d="M554.245 306.651H560.087V312.49H554.245V306.651Z" fill="white"/>
<path opacity="0.27" d="M546.415 306.651H552.256V312.49H546.415V306.651Z" fill="white"/>
<path opacity="0.42" d="M538.585 306.651H544.426V312.49H538.585V306.651Z" fill="white"/>
<path opacity="0.27" d="M609.058 270.875H614.899V276.713H609.058V270.875Z" fill="white"/>
<path opacity="0.11" d="M602.47 226.155H608.312V231.993H602.47V226.155Z" fill="white"/>
<path opacity="0.41" d="M597.871 180.814H603.713V186.652H597.871V180.814Z" fill="white"/>
<path opacity="0.38" d="M590.538 180.814H596.38V186.652H590.538V180.814Z" fill="white"/>
<path opacity="0.02" d="M583.081 180.814H588.922V186.652H583.081V180.814Z" fill="white"/>
<path opacity="0.46" d="M597.871 188.143H603.713V193.981H597.871V188.143Z" fill="white"/>
<path opacity="0.31" d="M590.538 188.143H596.38V193.981H590.538V188.143Z" fill="white"/>
<path opacity="0.61" d="M583.081 188.143H588.922V193.981H583.081V188.143Z" fill="white"/>
<path opacity="0.03" d="M597.871 195.348H603.713V201.186H597.871V195.348Z" fill="white"/>
<path opacity="0.03" d="M590.538 195.348H596.38V201.186H590.538V195.348Z" fill="white"/>
<path opacity="0.46" d="M583.081 195.348H588.922V201.186H583.081V195.348Z" fill="white"/>
<path opacity="0.32" d="M597.871 202.553H603.713V208.391H597.871V202.553Z" fill="white"/>
<path opacity="0.14" d="M590.538 202.553H596.38V208.391H590.538V202.553Z" fill="white"/>
<path opacity="0.3" d="M583.081 202.553H588.922V208.391H583.081V202.553Z" fill="white"/>
<path opacity="0.04" d="M597.871 209.882H603.713V215.72H597.871V209.882Z" fill="white"/>
<path opacity="0.64" d="M590.538 209.882H596.38V215.72H590.538V209.882Z" fill="white"/>
<path opacity="0.05" d="M583.081 209.882H588.922V215.72H583.081V209.882Z" fill="white"/>
<path opacity="0.15" d="M595.013 226.155H600.854V231.993H595.013V226.155Z" fill="white"/>
<path opacity="0.15" d="M587.555 226.155H593.397V231.993H587.555V226.155Z" fill="white"/>
<path opacity="0.52" d="M580.222 226.155H586.064V231.993H580.222V226.155Z" fill="white"/>
<path opacity="0.58" d="M602.47 233.484H608.312V239.323H602.47V233.484Z" fill="white"/>
<path opacity="0.62" d="M595.013 233.484H600.854V239.323H595.013V233.484Z" fill="white"/>
<path opacity="0.04" d="M587.555 233.484H593.397V239.323H587.555V233.484Z" fill="white"/>
<path opacity="0.06" d="M580.222 233.484H586.064V239.323H580.222V233.484Z" fill="white"/>
<path opacity="0.3" d="M602.47 240.938H608.312V246.776H602.47V240.938Z" fill="white"/>
<path opacity="0.01" d="M595.013 240.938H600.854V246.776H595.013V240.938Z" fill="white"/>
<path opacity="0.37" d="M587.555 240.938H593.397V246.776H587.555V240.938Z" fill="white"/>
<path opacity="0.62" d="M580.222 240.938H586.064V246.776H580.222V240.938Z" fill="white"/>
<path opacity="0.54" d="M602.47 248.391H608.312V254.229H602.47V248.391Z" fill="white"/>
<path opacity="0.21" d="M595.013 248.391H600.854V254.229H595.013V248.391Z" fill="white"/>
<path opacity="0.41" d="M587.555 248.391H593.397V254.229H587.555V248.391Z" fill="white"/>
<path opacity="0.1" d="M580.222 248.391H586.064V254.229H580.222V248.391Z" fill="white"/>
<path opacity="0.17" d="M602.47 255.72H608.312V261.558H602.47V255.72Z" fill="white"/>
<path opacity="0.17" d="M595.013 255.72H600.854V261.558H595.013V255.72Z" fill="white"/>
<path opacity="0.13" d="M587.555 255.72H593.397V261.558H587.555V255.72Z" fill="white"/>
<path opacity="0.5" d="M580.222 255.72H586.064V261.558H580.222V255.72Z" fill="white"/>
<path opacity="0.06" d="M601.6 270.875H607.442V276.713H601.6V270.875Z" fill="white"/>
<path opacity="0.27" d="M594.267 270.875H600.109V276.713H594.267V270.875Z" fill="white"/>
<path opacity="0.51" d="M586.809 270.875H592.651V276.713H586.809V270.875Z" fill="white"/>
<path opacity="0.42" d="M579.352 270.875H585.194V276.713H579.352V270.875Z" fill="white"/>
<path opacity="0.64" d="M572.019 270.875H577.861V276.713H572.019V270.875Z" fill="white"/>
<path opacity="0.29" d="M609.058 277.956H614.899V283.794H609.058V277.956Z" fill="white"/>
<path opacity="0.6" d="M601.6 277.956H607.442V283.794H601.6V277.956Z" fill="white"/>
<path opacity="0.2" d="M594.267 277.956H600.109V283.794H594.267V277.956Z" fill="white"/>
<path opacity="0.24" d="M586.809 277.956H592.651V283.794H586.809V277.956Z" fill="white"/>
<path opacity="0.62" d="M579.352 277.956H585.194V283.794H579.352V277.956Z" fill="white"/>
<path opacity="0.62" d="M572.019 277.956H577.861V283.794H572.019V277.956Z" fill="white"/>
<path opacity="0.25" d="M609.058 285.036H614.899V290.875H609.058V285.036Z" fill="white"/>
<path opacity="0.36" d="M601.6 285.036H607.442V290.875H601.6V285.036Z" fill="white"/>
<path opacity="0.16" d="M594.267 285.036H600.109V290.875H594.267V285.036Z" fill="white"/>
<path opacity="0.1" d="M586.809 285.036H592.651V290.875H586.809V285.036Z" fill="white"/>
<path opacity="0.04" d="M579.352 285.036H585.194V290.875H579.352V285.036Z" fill="white"/>
<path opacity="0.44" d="M572.019 285.036H577.861V290.875H572.019V285.036Z" fill="white"/>
<path opacity="0.68" d="M609.058 292.117H614.899V297.956H609.058V292.117Z" fill="white"/>
<path opacity="0.01" d="M601.6 292.117H607.442V297.956H601.6V292.117Z" fill="white"/>
<path opacity="0.29" d="M594.267 292.117H600.109V297.956H594.267V292.117Z" fill="white"/>
<path opacity="0.66" d="M586.809 292.117H592.651V297.956H586.809V292.117Z" fill="white"/>
<path opacity="0.12" d="M579.352 292.117H585.194V297.956H579.352V292.117Z" fill="white"/>
<path opacity="0.34" d="M572.019 292.117H577.861V297.956H572.019V292.117Z" fill="white"/>
<path opacity="0.36" d="M609.058 299.322H614.899V305.16H609.058V299.322Z" fill="white"/>
<path opacity="0.5" d="M601.6 299.322H607.442V305.16H601.6V299.322Z" fill="white"/>
<path opacity="0.07" d="M594.267 299.322H600.109V305.16H594.267V299.322Z" fill="white"/>
<path opacity="0.64" d="M586.809 299.322H592.651V305.16H586.809V299.322Z" fill="white"/>
<path opacity="0.4" d="M579.352 299.322H585.194V305.16H579.352V299.322Z" fill="white"/>
<path opacity="0.27" d="M572.019 299.322H577.861V305.16H572.019V299.322Z" fill="white"/>
<path opacity="0.09" d="M609.058 306.651H614.899V312.49H609.058V306.651Z" fill="white"/>
<path opacity="0.47" d="M601.6 306.651H607.442V312.49H601.6V306.651Z" fill="white"/>
<path opacity="0.57" d="M594.267 306.651H600.109V312.49H594.267V306.651Z" fill="white"/>
<path opacity="0.12" d="M586.809 306.651H592.651V312.49H586.809V306.651Z" fill="white"/>
<path opacity="0.23" d="M579.352 306.651H585.194V312.49H579.352V306.651Z" fill="white"/>
<path opacity="0.36" d="M572.019 306.651H577.861V312.49H572.019V306.651Z" fill="white"/>
<path d="M447.355 324.291H524.664L447.355 256.962V324.291Z" fill="#333333"/>
<path d="M613.159 325.657H720.298L613.159 232.49V325.657Z" fill="#333333"/>
<path d="M455.931 308.887H478.552V315.844H455.931V308.887Z" fill="#4D4D4D"/>
<path d="M458.541 310.999H476.066L469.976 300.813H464.631L458.541 310.999Z" fill="#4D4D4D"/>
<path d="M552.629 318.701C552.629 323.545 556.482 327.52 561.205 327.52C565.929 327.52 569.782 323.545 569.782 318.701C569.782 313.856 565.929 309.881 561.205 309.881C556.482 309.757 552.629 313.732 552.629 318.701Z" fill="#333333"/>
<path d="M321.821 314.85C321.821 318.08 324.431 320.813 327.538 320.813C330.645 320.813 333.255 318.204 333.255 314.85C333.255 311.62 330.645 308.887 327.538 308.887C324.431 308.887 321.821 311.62 321.821 314.85Z" fill="#333333"/>
<path d="M522.054 315.222C522.054 318.576 524.664 321.309 528.02 321.309C531.251 321.309 533.986 318.576 533.986 315.222C533.986 311.868 531.376 309.135 528.02 309.135C524.664 309.135 522.054 311.868 522.054 315.222Z" fill="#333333"/>
</svg>
