<svg width="637" height="311" fill="none" xmlns="http://www.w3.org/2000/svg"><path d="M525.907 107.647h41.016V303.67h-41.016V107.647z" fill="#333"/><path d="M537.217 97.71h18.644v11.055h-18.644V97.71zm3.853-6.46h10.814v6.335H541.07V91.25z" fill="#333"/><path d="M547.161 107.274L546.415.444l-.622 106.83h1.368z" fill="#333"/><path opacity=".09" d="M544.302 122.43h4.35v4.347h-4.35v-4.347z" fill="#fff"/><path opacity=".33" d="M544.302 136.218h4.35v4.348h-4.35v-4.348z" fill="#fff"/><path opacity=".37" d="M544.302 150.131h4.35v4.348h-4.35v-4.348z" fill="#fff"/><path opacity=".14" d="M544.302 163.92h4.35v4.348h-4.35v-4.348z" fill="#fff"/><path opacity=".3" d="M544.302 177.833h4.35v4.348h-4.35v-4.348z" fill="#fff"/><path opacity=".16" d="M544.302 191.621h4.35v4.348h-4.35v-4.348z" fill="#fff"/><path opacity=".34" d="M544.302 205.534h4.35v4.348h-4.35v-4.348z" fill="#fff"/><path opacity=".29" d="M544.302 219.323h4.35v4.348h-4.35v-4.348z" fill="#fff"/><path opacity=".12" d="M544.302 233.236h4.35v4.348h-4.35v-4.348z" fill="#fff"/><path d="M600.854 151.995h128.517v171.054H600.854V151.995z" fill="#4D4D4D"/><path d="M634.537 159.075h6.836v6.832h-6.836v-6.832zm-9.073 0h6.836v6.832h-6.836v-6.832zm9.073 8.944h6.836v6.833h-6.836v-6.833zm-9.073 0h6.836v6.833h-6.836v-6.833zm9.073 8.944h6.836v6.833h-6.836v-6.833zm-9.073 0h6.836v6.833h-6.836v-6.833zm9.073 8.82h6.836v6.832h-6.836v-6.832zm-9.073 0h6.836v6.832h-6.836v-6.832zm9.073 8.944h6.836v6.832h-6.836v-6.832zm-9.073 0h6.836v6.832h-6.836v-6.832zm9.073 8.944h6.836v6.832h-6.836v-6.832zm-9.073 0h6.836v6.832h-6.836v-6.832zm9.073 8.944h6.836v6.832h-6.836v-6.832zm-9.073 0h6.836v6.832h-6.836v-6.832zm9.073 8.944h6.836v6.832h-6.836v-6.832zm-9.073 0h6.836v6.832h-6.836v-6.832zm9.073 8.82h6.836v6.832h-6.836v-6.832zm-9.073 0h6.836v6.832h-6.836v-6.832zm9.073 8.944h6.836v6.832h-6.836v-6.832zm-9.073 0h6.836v6.832h-6.836v-6.832zm9.073 8.944h6.836v6.832h-6.836v-6.832zm-9.073 0h6.836v6.832h-6.836v-6.832zm9.073 8.944h6.836v6.832h-6.836v-6.832zm-9.073 0h6.836v6.832h-6.836v-6.832zm9.073 8.944h6.836v6.832h-6.836v-6.832zm-9.073 0h6.836v6.832h-6.836v-6.832zm9.073 8.82h6.836v6.832h-6.836v-6.832zm-9.073 0h6.836v6.832h-6.836v-6.832zm-9.073 0h6.836v6.832h-6.836v-6.832zm18.146 8.944h6.836v6.832h-6.836v-6.832zm-9.073 0h6.836v6.832h-6.836v-6.832zm-9.073 0h6.836v6.832h-6.836v-6.832zm18.146 8.944h6.836v6.832h-6.836v-6.832zm-9.073 0h6.836v6.832h-6.836v-6.832zm-9.073 0h6.836v6.832h-6.836v-6.832zm18.146 8.944h6.836v6.832h-6.836v-6.832zm-9.073 0h6.836v6.832h-6.836v-6.832zm-9.073 0h6.836v6.832h-6.836v-6.832zm18.146 8.943h6.836v6.833h-6.836v-6.833zm-9.073 0h6.836v6.833h-6.836v-6.833zm-9.073 0h6.836v6.833h-6.836v-6.833z" fill="#fff"/><path d="M619.871 134.604h90.484v17.391h-90.484v-17.391z" fill="#4D4D4D"/><path opacity=".19" d="M616.391 159.075h6.836v6.832h-6.836v-6.832z" fill="#fff"/><path opacity=".24" d="M616.391 168.019h6.836v6.832h-6.836v-6.832z" fill="#fff"/><path opacity=".29" d="M616.391 176.963h6.836v6.832h-6.836v-6.832z" fill="#fff"/><path opacity=".39" d="M616.391 185.783h6.836v6.832h-6.836v-6.832z" fill="#fff"/><path opacity=".21" d="M616.391 194.727h6.836v6.832h-6.836v-6.832z" fill="#fff"/><path opacity=".48" d="M616.391 203.671h6.836v6.832h-6.836v-6.832z" fill="#fff"/><path opacity=".32" d="M616.391 212.615h6.836v6.832h-6.836v-6.832z" fill="#fff"/><path opacity=".13" d="M616.391 221.559h6.836v6.832h-6.836v-6.832z" fill="#fff"/><path opacity=".19" d="M616.391 230.379h6.836v6.832h-6.836v-6.832z" fill="#fff"/><path opacity=".03" d="M616.391 239.323h6.836v6.832h-6.836v-6.832z" fill="#fff"/><path opacity=".36" d="M616.391 248.267h6.836v6.832h-6.836v-6.832z" fill="#fff"/><path opacity=".25" d="M616.391 257.211h6.836v6.832h-6.836v-6.832z" fill="#fff"/><path d="M616.391 266.155h6.836v6.832h-6.836v-6.832z" fill="#fff"/><path d="M340.34 229.633h41.016v96.024H340.34v-96.024z" fill="#333"/><path d="M362.712 224.789h18.644v5.465h-18.644v-5.465zm7.831-3.106h10.813v3.106h-10.813v-3.106z" fill="#333"/><path opacity=".06" d="M357.492 236.341h6.712v4.969h-6.712v-4.969z" fill="#fff"/><path opacity=".12" d="M357.492 248.639h6.712v4.969h-6.712v-4.969z" fill="#fff"/><path opacity=".19" d="M357.492 273.235h6.712v4.969h-6.712v-4.969z" fill="#fff"/><path opacity=".14" d="M357.492 297.831h6.712v4.969h-6.712v-4.969z" fill="#fff"/><path opacity=".1" d="M357.492 310.129h6.712v4.969h-6.712v-4.969z" fill="#fff"/><path d="M443.253 240.068h56.18v51.428h-56.18v-51.428z" fill="#333"/><path d="M452.078 235.472h38.406v22.111h-38.406v-22.111zm-12.926 37.018h56.179v51.428h-56.179V272.49z" fill="#333"/><path d="M448.1 267.894h38.406v22.111H448.1v-22.111zm-83.772-2.236h56.18v59.254h-56.18v-59.254z" fill="#333"/><path d="M373.153 260.44h38.406v25.59h-38.406v-25.59zm-196.877 23.23h56.179v57.267h-56.179V283.67z" fill="#333"/><path d="M185.1 278.577h38.406v24.72H185.1v-24.72zM298.081 165.41h62.767v159.378h-62.767V165.41z" fill="#333"/><path opacity=".46" d="M342.577 172.615h15.164v2.858h-15.164v-2.858z" fill="#E6E6E6"/><path opacity=".34" d="M321.821 172.615h15.163v2.858h-15.163v-2.858z" fill="#E6E6E6"/><path opacity=".52" d="M301.188 172.615h15.164v2.858h-15.164v-2.858z" fill="#E6E6E6"/><path opacity=".54" d="M342.577 179.199h15.164v2.857h-15.164v-2.857z" fill="#E6E6E6"/><path opacity=".3" d="M321.821 179.199h15.163v2.857h-15.163v-2.857z" fill="#E6E6E6"/><path opacity=".06" d="M301.188 179.199h15.164v2.857h-15.164v-2.857z" fill="#E6E6E6"/><path opacity=".15" d="M342.577 185.783h15.164v2.857h-15.164v-2.857z" fill="#E6E6E6"/><path opacity=".42" d="M321.821 185.783h15.163v2.857h-15.163v-2.857z" fill="#E6E6E6"/><path opacity=".48" d="M301.188 185.783h15.164v2.857h-15.164v-2.857z" fill="#E6E6E6"/><path opacity=".18" d="M342.577 192.367h15.164v2.857h-15.164v-2.857z" fill="#E6E6E6"/><path opacity=".28" d="M301.188 192.367h15.164v2.857h-15.164v-2.857z" fill="#E6E6E6"/><path opacity=".29" d="M342.577 198.95h15.164v2.858h-15.164v-2.858z" fill="#E6E6E6"/><path opacity=".28" d="M321.821 198.95h15.163v2.858h-15.163v-2.858z" fill="#E6E6E6"/><path opacity=".56" d="M301.188 198.95h15.164v2.858h-15.164v-2.858z" fill="#E6E6E6"/><path opacity=".41" d="M342.577 205.534h15.164v2.858h-15.164v-2.858z" fill="#E6E6E6"/><path opacity=".16" d="M321.821 205.534h15.163v2.858h-15.163v-2.858z" fill="#E6E6E6"/><path opacity=".4" d="M301.188 205.534h15.164v2.858h-15.164v-2.858z" fill="#E6E6E6"/><path opacity=".1" d="M342.577 212.118h15.164v2.857h-15.164v-2.857z" fill="#E6E6E6"/><path opacity=".17" d="M321.821 212.118h15.163v2.857h-15.163v-2.857z" fill="#E6E6E6"/><path opacity=".08" d="M301.188 212.118h15.164v2.857h-15.164v-2.857z" fill="#E6E6E6"/><path opacity=".49" d="M342.577 218.702h15.164v2.857h-15.164v-2.857z" fill="#E6E6E6"/><path opacity=".58" d="M321.821 218.702h15.163v2.857h-15.163v-2.857zm-20.633 0h15.164v2.857h-15.164v-2.857z" fill="#E6E6E6"/><path opacity=".26" d="M342.577 225.286h15.164v2.857h-15.164v-2.857z" fill="#E6E6E6"/><path opacity=".37" d="M321.821 225.286h15.163v2.857h-15.163v-2.857z" fill="#E6E6E6"/><path opacity=".34" d="M301.188 225.286h15.164v2.857h-15.164v-2.857z" fill="#E6E6E6"/><path opacity=".55" d="M342.577 231.869h15.164v2.858h-15.164v-2.858z" fill="#E6E6E6"/><path opacity=".12" d="M321.821 231.869h15.163v2.858h-15.163v-2.858z" fill="#E6E6E6"/><path opacity=".6" d="M301.188 231.869h15.164v2.858h-15.164v-2.858z" fill="#E6E6E6"/><path opacity=".02" d="M342.577 238.453h15.164v2.857h-15.164v-2.857z" fill="#E6E6E6"/><path opacity=".28" d="M321.821 238.453h15.163v2.857h-15.163v-2.857z" fill="#E6E6E6"/><path opacity=".21" d="M301.188 238.453h15.164v2.857h-15.164v-2.857z" fill="#E6E6E6"/><path opacity=".57" d="M342.577 245.037h15.164v2.857h-15.164v-2.857z" fill="#E6E6E6"/><path opacity=".38" d="M321.821 245.037h15.163v2.857h-15.163v-2.857z" fill="#E6E6E6"/><path opacity=".25" d="M301.188 245.037h15.164v2.857h-15.164v-2.857z" fill="#E6E6E6"/><path opacity=".15" d="M342.577 251.621h15.164v2.857h-15.164v-2.857z" fill="#E6E6E6"/><path opacity=".47" d="M321.821 251.621h15.163v2.857h-15.163v-2.857z" fill="#E6E6E6"/><path opacity=".3" d="M301.188 251.621h15.164v2.857h-15.164v-2.857z" fill="#E6E6E6"/><path opacity=".4" d="M342.577 258.205h15.164v2.857h-15.164v-2.857z" fill="#E6E6E6"/><path opacity=".39" d="M321.821 258.205h15.163v2.857h-15.163v-2.857z" fill="#E6E6E6"/><path opacity=".24" d="M301.188 258.205h15.164v2.857h-15.164v-2.857z" fill="#E6E6E6"/><path opacity=".46" d="M342.577 264.788h15.164v2.858h-15.164v-2.858z" fill="#E6E6E6"/><path opacity=".22" d="M321.821 264.788h15.163v2.858h-15.163v-2.858z" fill="#E6E6E6"/><path opacity=".11" d="M301.188 264.788h15.164v2.858h-15.164v-2.858zm20.633 6.584h15.163v2.857h-15.163v-2.857z" fill="#E6E6E6"/><path opacity=".02" d="M301.188 271.372h15.164v2.857h-15.164v-2.857z" fill="#E6E6E6"/><path opacity=".27" d="M342.577 277.956h15.164v2.857h-15.164v-2.857z" fill="#E6E6E6"/><path opacity=".21" d="M321.821 277.956h15.163v2.857h-15.163v-2.857z" fill="#E6E6E6"/><path opacity=".49" d="M301.188 277.956h15.164v2.857h-15.164v-2.857z" fill="#E6E6E6"/><path opacity=".6" d="M342.577 284.54h15.164v2.857h-15.164v-2.857z" fill="#E6E6E6"/><path opacity=".31" d="M321.821 284.54h15.163v2.857h-15.163v-2.857z" fill="#E6E6E6"/><path opacity=".22" d="M301.188 284.54h15.164v2.857h-15.164v-2.857z" fill="#E6E6E6"/><path opacity=".54" d="M342.577 291.124h15.164v2.857h-15.164v-2.857z" fill="#E6E6E6"/><path opacity=".6" d="M321.821 291.124h15.163v2.857h-15.163v-2.857z" fill="#E6E6E6"/><path opacity=".08" d="M301.188 291.124h15.164v2.857h-15.164v-2.857z" fill="#E6E6E6"/><path opacity=".55" d="M321.821 297.707h15.163v2.857h-15.163v-2.857z" fill="#E6E6E6"/><path d="M301.188 297.707h15.164v2.857h-15.164v-2.857z" fill="#E6E6E6"/><path opacity=".6" d="M341.583 172.615h.994v127.949h-.994V172.615zm-25.231 0h.994v127.949h-.994V172.615z" fill="#E6E6E6"/><path d="M266.76 165.41h31.321v159.378H266.76V165.41z" fill="#4D4D4D"/><path opacity=".69" d="M271.358 172.615h23.616v2.858h-23.616v-2.858z" fill="#E6E6E6"/><path opacity=".79" d="M271.358 179.199h23.616v2.857h-23.616v-2.857z" fill="#E6E6E6"/><path opacity=".19" d="M271.358 185.783h23.616v2.857h-23.616v-2.857z" fill="#E6E6E6"/><path opacity=".88" d="M271.358 192.367h23.616v2.857h-23.616v-2.857z" fill="#E6E6E6"/><path opacity=".5" d="M271.358 198.95h23.616v2.858h-23.616v-2.858z" fill="#E6E6E6"/><path opacity=".25" d="M271.358 205.534h23.616v2.858h-23.616v-2.858z" fill="#E6E6E6"/><path opacity=".91" d="M271.358 212.118h23.616v2.857h-23.616v-2.857z" fill="#E6E6E6"/><path opacity=".02" d="M271.358 218.702h23.616v2.857h-23.616v-2.857z" fill="#E6E6E6"/><path opacity=".53" d="M271.358 225.286h23.616v2.857h-23.616v-2.857z" fill="#E6E6E6"/><path opacity=".65" d="M271.358 231.869h23.616v2.858h-23.616v-2.858z" fill="#E6E6E6"/><path d="M271.358 238.453h23.616v2.857h-23.616v-2.857z" fill="#E6E6E6"/><path opacity=".8" d="M271.358 245.037h23.616v2.857h-23.616v-2.857z" fill="#E6E6E6"/><path opacity=".82" d="M271.358 251.621h23.616v2.857h-23.616v-2.857z" fill="#E6E6E6"/><path opacity=".75" d="M271.358 258.205h23.616v2.857h-23.616v-2.857z" fill="#E6E6E6"/><path opacity=".31" d="M271.358 264.788h23.616v2.858h-23.616v-2.858z" fill="#E6E6E6"/><path opacity=".22" d="M271.358 271.372h23.616v2.857h-23.616v-2.857z" fill="#E6E6E6"/><path opacity=".43" d="M271.358 277.956h23.616v2.857h-23.616v-2.857z" fill="#E6E6E6"/><path opacity=".68" d="M271.358 284.54h23.616v2.857h-23.616v-2.857z" fill="#E6E6E6"/><path opacity=".38" d="M271.358 291.124h23.616v2.857h-23.616v-2.857z" fill="#E6E6E6"/><path opacity=".84" d="M271.358 297.707h23.616v2.857h-23.616v-2.857z" fill="#E6E6E6"/><path d="M349.786 156.963v8.447h-40.643v-8.447h40.643zm-9.073 5.715h4.226v-2.858h-4.226v2.858zm-6.588 0h4.102v-2.858h-4.102v2.858zm-6.711 0h4.101v-2.858h-4.101v2.858zm-6.712 0h4.226v-2.858h-4.226v2.858zm-6.712 0h4.226v-2.858h-4.226v2.858zm-12.305-2.857h1.119v2.857h-1.119v-2.857z" fill="#333"/><path d="M309.143 156.963v8.447h-19.141v-8.447h19.141zm-7.458 5.715h4.102v-2.858h-4.102v2.858zm-8.824 0h4.101v-2.858h-4.101v2.858z" fill="#4D4D4D"/><path d="M292.985 159.821h1.119v2.857h-1.119v-2.857zm-3.231 175.774h84.518l-84.518-62.36v62.36z" fill="#333"/><path d="M415.785 131.622h6.836v25.963h-6.836v-25.963z" fill="#4D4D4D"/><path d="M422.496 131.622h6.961v25.963h-6.961v-25.963z" fill="#333"/><path d="M408.7 131.622h6.96v25.963h-6.96v-25.963zm-20.135 43.726h19.389v148.073h-19.389V175.348z" fill="#666"/><path d="M430.7 175.348h16.903v148.073H430.7V175.348z" fill="#333"/><path d="M407.954 175.348h22.87v148.073h-22.87V175.348z" fill="#4D4D4D"/><path opacity=".6" d="M442.756 179.696h2.486v141.738h-2.486V179.696zm-4.847 0h2.485v141.738h-2.485V179.696zm-4.848 0h2.486v141.738h-2.486V179.696z" fill="#E6E6E6"/><path d="M404.101 179.696h2.486v141.738h-2.486V179.696zm-4.847 0h2.486v141.738h-2.486V179.696zm-9.446 0h2.486v141.738h-2.486V179.696zm4.599 0h2.485v141.738h-2.485V179.696z" fill="#E6E6E6"/><path opacity=".8" d="M427.965 321.434h-17.152V179.696h17.152v141.738zm-2.734-139.254h-11.683v136.769h11.683V182.18z" fill="#E6E6E6"/><path opacity=".8" d="M422.994 316.589h-7.334V184.417h7.334v132.172zm-2.486-129.067h-2.362v125.961h2.362V187.522z" fill="#E6E6E6"/><path opacity=".8" d="M419.141 187.522h.497v125.961h-.497V187.522z" fill="#E6E6E6"/><path d="M410.565 149.386h17.152v25.962h-17.152v-25.962z" fill="#4D4D4D"/><path d="M410.565 149.386h17.152v25.962h-17.152v-25.962z" fill="#4D4D4D"/><path d="M393.412 149.386h17.153v25.962h-17.153v-25.962z" fill="#666"/><path d="M427.717 149.386h17.152v25.962h-17.152v-25.962z" fill="#333"/><path d="M408.824 131.622h20.633l-6.836 4.72h-6.961l-6.836-4.72z" fill="gray"/><path d="M40.053 122.057h9.943v29.192h-9.944v-29.192z" fill="#4D4D4D"/><path d="M50.12 122.057h9.943v29.192H50.12v-29.192z" fill="#333"/><path d="M30.11 122.057h9.943v29.192h-9.944v-29.192zM.776 171.373h28.09v166.83H.776v-166.83z" fill="#666"/><path d="M61.928 171.373h24.36v166.83h-24.36v-166.83z" fill="#333"/><path d="M28.866 171.373h33.062v166.83H28.866v-166.83z" fill="#4D4D4D"/><path opacity=".4" d="M79.329 176.342h3.604v159.626h-3.604V176.342zm-7.085 0h3.604v159.626h-3.604V176.342zm-7.084 0h3.604v159.626h-3.605V176.342z" fill="#E6E6E6"/><path d="M23.273 176.342h3.605v159.626h-3.605V176.342zm-7.084 0h3.604v159.626h-3.604V176.342zm-13.549 0h3.605v159.626H2.641V176.342zm6.588 0h3.605v159.626H9.228V176.342zm48.474 159.626H32.844V176.342h24.858v159.626zm-3.853-156.893H36.945v154.16H53.85v-154.16z" fill="#E6E6E6"/><path d="M50.742 330.626h-10.69V181.684h10.69v148.942zm-3.73-145.464h-3.355v141.986h3.356V185.162z" fill="#E6E6E6"/><path d="M45.024 185.162h.622v141.986h-.622V185.162z" fill="#E6E6E6"/><path d="M32.595 142.181h24.858v29.192H32.595v-29.192z" fill="#4D4D4D"/><path d="M32.595 142.181h24.858v29.192H32.595v-29.192z" fill="#4D4D4D"/><path d="M7.737 142.181h24.858v29.192H7.737v-29.192z" fill="#666"/><path d="M57.329 142.181h24.858v29.192H57.33v-29.192z" fill="#333"/><path d="M29.985 122.057h30.078l-10.067 5.341h-9.944l-10.067-5.341z" fill="gray"/><path d="M111.768 194.479h67.988v22.608h-67.988v-22.608z" fill="#E6E6E6"/><path d="M153.033 194.479h26.723v22.608h-26.723v-22.608z" fill="#B3B3B3"/><path d="M153.033 217.211h52.824v109.813h-52.824V217.211z" fill="#333"/><path d="M70.504 217.211h82.529v109.813h-82.53V217.211z" fill="#4D4D4D"/><path d="M159.496 206.031h40.644v11.18h-40.644v-11.18z" fill="#333"/><path d="M82.809 206.031h58.044v11.18H82.809v-11.18z" fill="#4D4D4D"/><path d="M129.791 185.907h23.242v8.572h-23.242v-8.572z" fill="#E6E6E6"/><path d="M141.474 177.212h11.559v8.571h-11.559v-8.571z" fill="#4D4D4D"/><path d="M153.157 177.212h11.56v8.571h-11.56v-8.571z" fill="#333"/><path d="M153.033 185.907h17.774v8.572h-17.774v-8.572z" fill="#B3B3B3"/><path d="M153.779 177.212l-.746-19.876-.621 19.876h1.367z" fill="#333"/><path opacity=".12" d="M189.202 221.683h4.35v4.348h-4.35v-4.348z" fill="#fff"/><path opacity=".25" d="M183.236 221.683h4.35v4.348h-4.35v-4.348z" fill="#fff"/><path opacity=".36" d="M177.27 221.683h4.35v4.348h-4.35v-4.348z" fill="#fff"/><path opacity=".12" d="M171.304 221.683h4.35v4.348h-4.35v-4.348z" fill="#fff"/><path opacity=".14" d="M165.338 221.683h4.35v4.348h-4.35v-4.348z" fill="#fff"/><path opacity=".28" d="M189.202 227.398h4.35v4.347h-4.35v-4.347z" fill="#fff"/><path opacity=".4" d="M183.236 227.398h4.35v4.347h-4.35v-4.347z" fill="#fff"/><path opacity=".16" d="M177.27 227.398h4.35v4.347h-4.35v-4.347z" fill="#fff"/><path opacity=".17" d="M165.338 227.398h4.35v4.347h-4.35v-4.347z" fill="#fff"/><path opacity=".27" d="M189.202 233.112h4.35v4.348h-4.35v-4.348z" fill="#fff"/><path opacity=".45" d="M183.236 233.112h4.35v4.348h-4.35v-4.348zm-5.966 0h4.35v4.348h-4.35v-4.348z" fill="#fff"/><path opacity=".48" d="M171.304 233.112h4.35v4.348h-4.35v-4.348z" fill="#fff"/><path opacity=".25" d="M165.338 233.112h4.35v4.348h-4.35v-4.348z" fill="#fff"/><path opacity=".28" d="M189.202 238.826h4.35v4.348h-4.35v-4.348z" fill="#fff"/><path opacity=".13" d="M183.236 238.826h4.35v4.348h-4.35v-4.348z" fill="#fff"/><path opacity=".07" d="M177.27 238.826h4.35v4.348h-4.35v-4.348z" fill="#fff"/><path opacity=".39" d="M171.304 238.826h4.35v4.348h-4.35v-4.348z" fill="#fff"/><path opacity=".47" d="M165.338 238.826h4.35v4.348h-4.35v-4.348z" fill="#fff"/><path opacity=".28" d="M189.202 244.54h4.35v4.348h-4.35v-4.348z" fill="#fff"/><path opacity=".2" d="M183.236 244.54h4.35v4.348h-4.35v-4.348z" fill="#fff"/><path opacity=".04" d="M177.27 244.54h4.35v4.348h-4.35v-4.348z" fill="#fff"/><path opacity=".43" d="M171.304 244.54h4.35v4.348h-4.35v-4.348z" fill="#fff"/><path opacity=".48" d="M165.338 244.54h4.35v4.348h-4.35v-4.348z" fill="#fff"/><path opacity=".28" d="M189.202 250.254h4.35v4.348h-4.35v-4.348z" fill="#fff"/><path opacity=".19" d="M183.236 250.254h4.35v4.348h-4.35v-4.348z" fill="#fff"/><path opacity=".01" d="M177.27 250.254h4.35v4.348h-4.35v-4.348z" fill="#fff"/><path opacity=".27" d="M171.304 250.254h4.35v4.348h-4.35v-4.348z" fill="#fff"/><path opacity=".24" d="M165.338 250.254h4.35v4.348h-4.35v-4.348z" fill="#fff"/><path opacity=".07" d="M189.202 256.093h4.35v4.348h-4.35v-4.348z" fill="#fff"/><path opacity=".25" d="M183.236 256.093h4.35v4.348h-4.35v-4.348z" fill="#fff"/><path opacity=".26" d="M177.27 256.093h4.35v4.348h-4.35v-4.348z" fill="#fff"/><path opacity=".39" d="M171.304 256.093h4.35v4.348h-4.35v-4.348z" fill="#fff"/><path opacity=".22" d="M165.338 256.093h4.35v4.348h-4.35v-4.348z" fill="#fff"/><path opacity=".15" d="M189.202 261.807h4.35v4.348h-4.35v-4.348z" fill="#fff"/><path opacity=".23" d="M183.236 261.807h4.35v4.348h-4.35v-4.348z" fill="#fff"/><path opacity=".05" d="M177.27 261.807h4.35v4.348h-4.35v-4.348z" fill="#fff"/><path opacity=".2" d="M171.304 261.807h4.35v4.348h-4.35v-4.348z" fill="#fff"/><path opacity=".31" d="M165.338 261.807h4.35v4.348h-4.35v-4.348z" fill="#fff"/><path opacity=".15" d="M189.202 267.521h4.35v4.348h-4.35v-4.348z" fill="#fff"/><path opacity=".33" d="M183.236 267.521h4.35v4.348h-4.35v-4.348z" fill="#fff"/><path opacity=".46" d="M177.27 267.521h4.35v4.348h-4.35v-4.348z" fill="#fff"/><path opacity=".25" d="M171.304 267.521h4.35v4.348h-4.35v-4.348z" fill="#fff"/><path opacity=".43" d="M165.338 267.521h4.35v4.348h-4.35v-4.348z" fill="#fff"/><path opacity=".4" d="M189.202 273.236h4.35v4.347h-4.35v-4.347z" fill="#fff"/><path opacity=".39" d="M183.236 273.236h4.35v4.347h-4.35v-4.347z" fill="#fff"/><path opacity=".01" d="M177.27 273.236h4.35v4.347h-4.35v-4.347z" fill="#fff"/><path opacity=".12" d="M171.304 273.236h4.35v4.347h-4.35v-4.347z" fill="#fff"/><path opacity=".07" d="M165.338 273.236h4.35v4.347h-4.35v-4.347zm23.864 5.714h4.35v4.348h-4.35v-4.348z" fill="#fff"/><path opacity=".02" d="M183.236 278.95h4.35v4.348h-4.35v-4.348z" fill="#fff"/><path opacity=".12" d="M177.27 278.95h4.35v4.348h-4.35v-4.348z" fill="#fff"/><path opacity=".23" d="M171.304 278.95h4.35v4.348h-4.35v-4.348z" fill="#fff"/><path opacity=".26" d="M165.338 278.95h4.35v4.348h-4.35v-4.348z" fill="#fff"/><path opacity=".27" d="M189.202 284.664h4.35v4.348h-4.35v-4.348z" fill="#fff"/><path opacity=".38" d="M183.236 284.664h4.35v4.348h-4.35v-4.348z" fill="#fff"/><path opacity=".05" d="M177.27 284.664h4.35v4.348h-4.35v-4.348z" fill="#fff"/><path opacity=".45" d="M171.304 284.664h4.35v4.348h-4.35v-4.348z" fill="#fff"/><path opacity=".15" d="M165.338 284.664h4.35v4.348h-4.35v-4.348z" fill="#fff"/><path opacity=".06" d="M189.202 290.378h4.35v4.348h-4.35v-4.348z" fill="#fff"/><path opacity=".47" d="M183.236 290.378h4.35v4.348h-4.35v-4.348z" fill="#fff"/><path opacity=".15" d="M177.27 290.378h4.35v4.348h-4.35v-4.348z" fill="#fff"/><path opacity=".44" d="M171.304 290.378h4.35v4.348h-4.35v-4.348z" fill="#fff"/><path opacity=".14" d="M165.338 290.378h4.35v4.348h-4.35v-4.348z" fill="#fff"/><path opacity=".15" d="M189.202 296.093h4.35v4.347h-4.35v-4.347z" fill="#fff"/><path opacity=".43" d="M183.236 296.093h4.35v4.347h-4.35v-4.347z" fill="#fff"/><path opacity=".07" d="M177.27 296.093h4.35v4.347h-4.35v-4.347z" fill="#fff"/><path opacity=".47" d="M171.304 296.093h4.35v4.347h-4.35v-4.347z" fill="#fff"/><path opacity=".11" d="M165.338 296.093h4.35v4.347h-4.35v-4.347z" fill="#fff"/><path opacity=".07" d="M189.202 301.807h4.35v4.347h-4.35v-4.347z" fill="#fff"/><path opacity=".34" d="M183.236 301.807h4.35v4.347h-4.35v-4.347z" fill="#fff"/><path opacity=".5" d="M177.27 301.807h4.35v4.347h-4.35v-4.347z" fill="#fff"/><path opacity=".36" d="M171.304 301.807h4.35v4.347h-4.35v-4.347z" fill="#fff"/><path opacity=".34" d="M165.338 301.807h4.35v4.347h-4.35v-4.347z" fill="#fff"/><path opacity=".47" d="M189.202 307.521h4.35v4.348h-4.35v-4.348z" fill="#fff"/><path opacity=".41" d="M183.236 307.521h4.35v4.348h-4.35v-4.348z" fill="#fff"/><path opacity=".3" d="M177.27 307.521h4.35v4.348h-4.35v-4.348z" fill="#fff"/><path opacity=".33" d="M171.304 307.521h4.35v4.348h-4.35v-4.348z" fill="#fff"/><path opacity=".12" d="M165.338 307.521h4.35v4.348h-4.35v-4.348z" fill="#fff"/><path opacity=".3" d="M138.615 221.683h4.351v4.348h-4.351v-4.348z" fill="#fff"/><path opacity=".72" d="M132.898 221.683h4.35v4.348h-4.35v-4.348z" fill="#fff"/><path opacity=".7" d="M127.056 221.683h4.35v4.348h-4.35v-4.348z" fill="#fff"/><path opacity=".52" d="M121.215 221.683h4.35v4.348h-4.35v-4.348z" fill="#fff"/><path opacity=".2" d="M115.373 221.683h4.35v4.348h-4.35v-4.348z" fill="#fff"/><path opacity=".32" d="M109.656 221.683h4.35v4.348h-4.35v-4.348z" fill="#fff"/><path opacity=".13" d="M103.814 221.683h4.35v4.348h-4.35v-4.348z" fill="#fff"/><path opacity=".38" d="M97.972 221.683h4.35v4.348h-4.35v-4.348z" fill="#fff"/><path opacity=".61" d="M92.255 221.683h4.35v4.348h-4.35v-4.348z" fill="#fff"/><path d="M86.413 221.683h4.35v4.348h-4.35v-4.348z" fill="#fff"/><path opacity=".91" d="M80.572 221.683h4.35v4.348h-4.35v-4.348z" fill="#fff"/><path opacity=".66" d="M138.615 227.398h4.351v4.347h-4.351v-4.347z" fill="#fff"/><path opacity=".31" d="M132.898 227.398h4.35v4.347h-4.35v-4.347z" fill="#fff"/><path opacity=".95" d="M127.056 227.398h4.35v4.347h-4.35v-4.347z" fill="#fff"/><path opacity=".7" d="M121.215 227.398h4.35v4.347h-4.35v-4.347z" fill="#fff"/><path opacity=".12" d="M115.373 227.398h4.35v4.347h-4.35v-4.347z" fill="#fff"/><path opacity=".24" d="M109.656 227.398h4.35v4.347h-4.35v-4.347z" fill="#fff"/><path opacity=".66" d="M103.814 227.398h4.35v4.347h-4.35v-4.347z" fill="#fff"/><path opacity=".71" d="M97.972 227.398h4.35v4.347h-4.35v-4.347z" fill="#fff"/><path opacity=".42" d="M92.255 227.398h4.35v4.347h-4.35v-4.347z" fill="#fff"/><path opacity=".09" d="M86.413 227.398h4.35v4.347h-4.35v-4.347z" fill="#fff"/><path opacity=".32" d="M80.572 227.398h4.35v4.347h-4.35v-4.347z" fill="#fff"/><path opacity=".65" d="M138.615 233.112h4.351v4.348h-4.351v-4.348z" fill="#fff"/><path d="M132.898 233.112h4.35v4.348h-4.35v-4.348zm-5.842 0h4.35v4.348h-4.35v-4.348z" fill="#fff"/><path opacity=".71" d="M121.215 233.112h4.35v4.348h-4.35v-4.348z" fill="#fff"/><path opacity=".2" d="M115.373 233.112h4.35v4.348h-4.35v-4.348z" fill="#fff"/><path opacity=".19" d="M109.656 233.112h4.35v4.348h-4.35v-4.348z" fill="#fff"/><path opacity=".62" d="M103.814 233.112h4.35v4.348h-4.35v-4.348z" fill="#fff"/><path opacity=".93" d="M97.972 233.112h4.35v4.348h-4.35v-4.348z" fill="#fff"/><path opacity=".56" d="M92.255 233.112h4.35v4.348h-4.35v-4.348z" fill="#fff"/><path opacity=".57" d="M86.413 233.112h4.35v4.348h-4.35v-4.348z" fill="#fff"/><path opacity=".52" d="M80.572 233.112h4.35v4.348h-4.35v-4.348z" fill="#fff"/><path opacity=".74" d="M138.615 238.826h4.351v4.348h-4.351v-4.348z" fill="#fff"/><path opacity=".56" d="M132.898 238.826h4.35v4.348h-4.35v-4.348z" fill="#fff"/><path opacity=".78" d="M127.056 238.826h4.35v4.348h-4.35v-4.348z" fill="#fff"/><path opacity=".41" d="M121.215 238.826h4.35v4.348h-4.35v-4.348z" fill="#fff"/><path opacity=".14" d="M115.373 238.826h4.35v4.348h-4.35v-4.348z" fill="#fff"/><path opacity=".28" d="M109.656 238.826h4.35v4.348h-4.35v-4.348z" fill="#fff"/><path opacity=".36" d="M103.814 238.826h4.35v4.348h-4.35v-4.348z" fill="#fff"/><path opacity=".14" d="M97.972 238.826h4.35v4.348h-4.35v-4.348z" fill="#fff"/><path opacity=".5" d="M92.255 238.826h4.35v4.348h-4.35v-4.348z" fill="#fff"/><path opacity=".98" d="M86.413 238.826h4.35v4.348h-4.35v-4.348z" fill="#fff"/><path opacity=".59" d="M80.572 238.826h4.35v4.348h-4.35v-4.348z" fill="#fff"/><path opacity=".07" d="M138.615 244.54h4.351v4.348h-4.351v-4.348z" fill="#fff"/><path opacity=".1" d="M132.898 244.54h4.35v4.348h-4.35v-4.348z" fill="#fff"/><path opacity=".88" d="M127.056 244.54h4.35v4.348h-4.35v-4.348z" fill="#fff"/><path opacity=".68" d="M121.215 244.54h4.35v4.348h-4.35v-4.348z" fill="#fff"/><path opacity=".81" d="M115.373 244.54h4.35v4.348h-4.35v-4.348z" fill="#fff"/><path opacity=".62" d="M109.656 244.54h4.35v4.348h-4.35v-4.348z" fill="#fff"/><path opacity=".97" d="M103.814 244.54h4.35v4.348h-4.35v-4.348z" fill="#fff"/><path opacity=".81" d="M97.972 244.54h4.35v4.348h-4.35v-4.348z" fill="#fff"/><path opacity=".79" d="M92.255 244.54h4.35v4.348h-4.35v-4.348z" fill="#fff"/><path opacity=".03" d="M86.413 244.54h4.35v4.348h-4.35v-4.348z" fill="#fff"/><path opacity=".95" d="M80.572 244.54h4.35v4.348h-4.35v-4.348z" fill="#fff"/><path opacity=".62" d="M138.615 250.254h4.351v4.348h-4.351v-4.348z" fill="#fff"/><path opacity=".22" d="M132.898 250.254h4.35v4.348h-4.35v-4.348z" fill="#fff"/><path opacity=".42" d="M127.056 250.254h4.35v4.348h-4.35v-4.348z" fill="#fff"/><path opacity=".56" d="M121.215 250.254h4.35v4.348h-4.35v-4.348z" fill="#fff"/><path opacity=".03" d="M115.373 250.254h4.35v4.348h-4.35v-4.348z" fill="#fff"/><path opacity=".64" d="M109.656 250.254h4.35v4.348h-4.35v-4.348z" fill="#fff"/><path opacity=".82" d="M103.814 250.254h4.35v4.348h-4.35v-4.348z" fill="#fff"/><path opacity=".52" d="M97.972 250.254h4.35v4.348h-4.35v-4.348z" fill="#fff"/><path opacity=".46" d="M92.255 250.254h4.35v4.348h-4.35v-4.348z" fill="#fff"/><path opacity=".27" d="M86.413 250.254h4.35v4.348h-4.35v-4.348z" fill="#fff"/><path opacity=".46" d="M80.572 250.254h4.35v4.348h-4.35v-4.348z" fill="#fff"/><path opacity=".66" d="M138.615 256.093h4.351v4.348h-4.351v-4.348z" fill="#fff"/><path opacity=".7" d="M132.898 256.093h4.35v4.348h-4.35v-4.348z" fill="#fff"/><path opacity=".94" d="M127.056 256.093h4.35v4.348h-4.35v-4.348z" fill="#fff"/><path opacity=".5" d="M121.215 256.093h4.35v4.348h-4.35v-4.348z" fill="#fff"/><path opacity=".12" d="M115.373 256.093h4.35v4.348h-4.35v-4.348z" fill="#fff"/><path opacity=".36" d="M109.656 256.093h4.35v4.348h-4.35v-4.348z" fill="#fff"/><path opacity=".51" d="M103.814 256.093h4.35v4.348h-4.35v-4.348z" fill="#fff"/><path opacity=".37" d="M97.972 256.093h4.35v4.348h-4.35v-4.348z" fill="#fff"/><path opacity=".66" d="M92.255 256.093h4.35v4.348h-4.35v-4.348z" fill="#fff"/><path opacity=".42" d="M86.413 256.093h4.35v4.348h-4.35v-4.348z" fill="#fff"/><path opacity=".5" d="M80.572 256.093h4.35v4.348h-4.35v-4.348z" fill="#fff"/><path opacity=".52" d="M138.615 261.807h4.351v4.348h-4.351v-4.348z" fill="#fff"/><path opacity=".61" d="M132.898 261.807h4.35v4.348h-4.35v-4.348z" fill="#fff"/><path opacity=".84" d="M127.056 261.807h4.35v4.348h-4.35v-4.348z" fill="#fff"/><path opacity=".89" d="M121.215 261.807h4.35v4.348h-4.35v-4.348z" fill="#fff"/><path opacity=".33" d="M115.373 261.807h4.35v4.348h-4.35v-4.348z" fill="#fff"/><path opacity=".25" d="M109.656 261.807h4.35v4.348h-4.35v-4.348z" fill="#fff"/><path opacity=".95" d="M103.814 261.807h4.35v4.348h-4.35v-4.348z" fill="#fff"/><path opacity=".09" d="M97.972 261.807h4.35v4.348h-4.35v-4.348z" fill="#fff"/><path opacity=".44" d="M92.255 261.807h4.35v4.348h-4.35v-4.348z" fill="#fff"/><path opacity=".51" d="M86.413 261.807h4.35v4.348h-4.35v-4.348z" fill="#fff"/><path opacity=".97" d="M80.572 261.807h4.35v4.348h-4.35v-4.348z" fill="#fff"/><path opacity=".26" d="M138.615 267.521h4.351v4.348h-4.351v-4.348z" fill="#fff"/><path opacity=".92" d="M132.898 267.521h4.35v4.348h-4.35v-4.348z" fill="#fff"/><path opacity=".33" d="M127.056 267.521h4.35v4.348h-4.35v-4.348z" fill="#fff"/><path opacity=".23" d="M121.215 267.521h4.35v4.348h-4.35v-4.348z" fill="#fff"/><path opacity=".42" d="M115.373 267.521h4.35v4.348h-4.35v-4.348z" fill="#fff"/><path opacity=".57" d="M109.656 267.521h4.35v4.348h-4.35v-4.348z" fill="#fff"/><path opacity=".73" d="M103.814 267.521h4.35v4.348h-4.35v-4.348z" fill="#fff"/><path opacity=".87" d="M97.972 267.521h4.35v4.348h-4.35v-4.348z" fill="#fff"/><path opacity=".22" d="M92.255 267.521h4.35v4.348h-4.35v-4.348z" fill="#fff"/><path opacity=".89" d="M86.413 267.521h4.35v4.348h-4.35v-4.348z" fill="#fff"/><path opacity=".73" d="M80.572 267.521h4.35v4.348h-4.35v-4.348z" fill="#fff"/><path opacity=".35" d="M138.615 273.236h4.351v4.347h-4.351v-4.347z" fill="#fff"/><path opacity=".81" d="M132.898 273.236h4.35v4.347h-4.35v-4.347z" fill="#fff"/><path opacity=".56" d="M127.056 273.236h4.35v4.347h-4.35v-4.347z" fill="#fff"/><path opacity=".81" d="M121.215 273.236h4.35v4.347h-4.35v-4.347z" fill="#fff"/><path opacity=".87" d="M115.373 273.236h4.35v4.347h-4.35v-4.347z" fill="#fff"/><path opacity=".39" d="M109.656 273.236h4.35v4.347h-4.35v-4.347z" fill="#fff"/><path opacity=".31" d="M103.814 273.236h4.35v4.347h-4.35v-4.347z" fill="#fff"/><path opacity=".98" d="M97.972 273.236h4.35v4.347h-4.35v-4.347z" fill="#fff"/><path opacity=".17" d="M92.255 273.236h4.35v4.347h-4.35v-4.347z" fill="#fff"/><path opacity=".06" d="M86.413 273.236h4.35v4.347h-4.35v-4.347z" fill="#fff"/><path opacity=".57" d="M80.572 273.236h4.35v4.347h-4.35v-4.347z" fill="#fff"/><path opacity=".67" d="M138.615 278.95h4.351v4.348h-4.351v-4.348z" fill="#fff"/><path opacity=".83" d="M132.898 278.95h4.35v4.348h-4.35v-4.348z" fill="#fff"/><path opacity=".99" d="M127.056 278.95h4.35v4.348h-4.35v-4.348z" fill="#fff"/><path opacity=".62" d="M121.215 278.95h4.35v4.348h-4.35v-4.348z" fill="#fff"/><path opacity=".87" d="M115.373 278.95h4.35v4.348h-4.35v-4.348z" fill="#fff"/><path opacity=".14" d="M109.656 278.95h4.35v4.348h-4.35v-4.348z" fill="#fff"/><path opacity=".12" d="M103.814 278.95h4.35v4.348h-4.35v-4.348z" fill="#fff"/><path opacity=".11" d="M97.972 278.95h4.35v4.348h-4.35v-4.348z" fill="#fff"/><path opacity=".39" d="M92.255 278.95h4.35v4.348h-4.35v-4.348z" fill="#fff"/><path opacity=".58" d="M86.413 278.95h4.35v4.348h-4.35v-4.348z" fill="#fff"/><path opacity=".54" d="M80.572 278.95h4.35v4.348h-4.35v-4.348z" fill="#fff"/><path opacity=".99" d="M138.615 284.664h4.351v4.348h-4.351v-4.348z" fill="#fff"/><path opacity=".28" d="M132.898 284.664h4.35v4.348h-4.35v-4.348z" fill="#fff"/><path opacity=".78" d="M127.056 284.664h4.35v4.348h-4.35v-4.348z" fill="#fff"/><path opacity=".65" d="M121.215 284.664h4.35v4.348h-4.35v-4.348z" fill="#fff"/><path opacity=".32" d="M115.373 284.664h4.35v4.348h-4.35v-4.348z" fill="#fff"/><path opacity=".55" d="M109.656 284.664h4.35v4.348h-4.35v-4.348z" fill="#fff"/><path opacity=".4" d="M103.814 284.664h4.35v4.348h-4.35v-4.348z" fill="#fff"/><path opacity=".22" d="M97.972 284.664h4.35v4.348h-4.35v-4.348z" fill="#fff"/><path opacity=".87" d="M92.255 284.664h4.35v4.348h-4.35v-4.348z" fill="#fff"/><path opacity=".02" d="M86.413 284.664h4.35v4.348h-4.35v-4.348z" fill="#fff"/><path opacity=".39" d="M80.572 284.664h4.35v4.348h-4.35v-4.348z" fill="#fff"/><path opacity=".89" d="M138.615 290.378h4.351v4.348h-4.351v-4.348z" fill="#fff"/><path opacity=".97" d="M132.898 290.378h4.35v4.348h-4.35v-4.348z" fill="#fff"/><path opacity=".79" d="M127.056 290.378h4.35v4.348h-4.35v-4.348z" fill="#fff"/><path opacity=".41" d="M121.215 290.378h4.35v4.348h-4.35v-4.348z" fill="#fff"/><path opacity=".13" d="M115.373 290.378h4.35v4.348h-4.35v-4.348z" fill="#fff"/><path opacity=".9" d="M109.656 290.378h4.35v4.348h-4.35v-4.348z" fill="#fff"/><path opacity=".98" d="M103.814 290.378h4.35v4.348h-4.35v-4.348z" fill="#fff"/><path opacity=".67" d="M97.972 290.378h4.35v4.348h-4.35v-4.348z" fill="#fff"/><path opacity=".65" d="M92.255 290.378h4.35v4.348h-4.35v-4.348z" fill="#fff"/><path opacity=".89" d="M86.413 290.378h4.35v4.348h-4.35v-4.348z" fill="#fff"/><path opacity=".98" d="M80.572 290.378h4.35v4.348h-4.35v-4.348z" fill="#fff"/><path opacity=".29" d="M138.615 296.093h4.351v4.347h-4.351v-4.347z" fill="#fff"/><path opacity=".74" d="M132.898 296.093h4.35v4.347h-4.35v-4.347z" fill="#fff"/><path opacity=".64" d="M127.056 296.093h4.35v4.347h-4.35v-4.347z" fill="#fff"/><path opacity=".65" d="M121.215 296.093h4.35v4.347h-4.35v-4.347z" fill="#fff"/><path opacity=".07" d="M115.373 296.093h4.35v4.347h-4.35v-4.347z" fill="#fff"/><path opacity=".16" d="M109.656 296.093h4.35v4.347h-4.35v-4.347z" fill="#fff"/><path opacity=".84" d="M103.814 296.093h4.35v4.347h-4.35v-4.347z" fill="#fff"/><path opacity=".88" d="M97.972 296.093h4.35v4.347h-4.35v-4.347z" fill="#fff"/><path opacity=".57" d="M92.255 296.093h4.35v4.347h-4.35v-4.347z" fill="#fff"/><path opacity=".31" d="M86.413 296.093h4.35v4.347h-4.35v-4.347z" fill="#fff"/><path opacity=".03" d="M80.572 296.093h4.35v4.347h-4.35v-4.347z" fill="#fff"/><path opacity=".3" d="M138.615 301.807h4.351v4.347h-4.351v-4.347z" fill="#fff"/><path opacity=".59" d="M132.898 301.807h4.35v4.347h-4.35v-4.347z" fill="#fff"/><path opacity=".93" d="M127.056 301.807h4.35v4.347h-4.35v-4.347z" fill="#fff"/><path opacity=".06" d="M121.215 301.807h4.35v4.347h-4.35v-4.347z" fill="#fff"/><path opacity=".74" d="M115.373 301.807h4.35v4.347h-4.35v-4.347z" fill="#fff"/><path opacity=".22" d="M109.656 301.807h4.35v4.347h-4.35v-4.347z" fill="#fff"/><path opacity=".51" d="M103.814 301.807h4.35v4.347h-4.35v-4.347z" fill="#fff"/><path opacity=".7" d="M97.972 301.807h4.35v4.347h-4.35v-4.347z" fill="#fff"/><path opacity=".47" d="M92.255 301.807h4.35v4.347h-4.35v-4.347z" fill="#fff"/><path opacity=".08" d="M86.413 301.807h4.35v4.347h-4.35v-4.347z" fill="#fff"/><path opacity=".93" d="M80.572 301.807h4.35v4.347h-4.35v-4.347z" fill="#fff"/><path opacity=".81" d="M138.615 307.521h4.351v4.348h-4.351v-4.348z" fill="#fff"/><path opacity=".9" d="M132.898 307.521h4.35v4.348h-4.35v-4.348z" fill="#fff"/><path opacity=".55" d="M127.056 307.521h4.35v4.348h-4.35v-4.348z" fill="#fff"/><path opacity=".14" d="M121.215 307.521h4.35v4.348h-4.35v-4.348z" fill="#fff"/><path opacity=".66" d="M115.373 307.521h4.35v4.348h-4.35v-4.348z" fill="#fff"/><path opacity=".92" d="M109.656 307.521h4.35v4.348h-4.35v-4.348z" fill="#fff"/><path opacity=".4" d="M103.814 307.521h4.35v4.348h-4.35v-4.348z" fill="#fff"/><path opacity=".6" d="M97.972 307.521h4.35v4.348h-4.35v-4.348z" fill="#fff"/><path opacity=".99" d="M92.255 307.521h4.35v4.348h-4.35v-4.348z" fill="#fff"/><path opacity=".68" d="M86.413 307.521h4.35v4.348h-4.35v-4.348z" fill="#fff"/><path opacity=".01" d="M80.572 307.521h4.35v4.348h-4.35v-4.348z" fill="#fff"/><path d="M212.072 193.733h41.016v128.446h-41.016V193.733z" fill="#333"/><path d="M234.444 187.273h18.644v7.205h-18.644v-7.205z" fill="#333"/><path d="M242.274 183.05h10.814v4.224h-10.814v-4.224z" fill="#333"/><path opacity=".25" d="M229.348 202.801h6.712v6.708h-6.712v-6.708z" fill="#fff"/><path opacity=".15" d="M229.348 219.323h6.712v6.708h-6.712v-6.708z" fill="#fff"/><path opacity=".19" d="M229.348 252.242h6.712v6.708h-6.712v-6.708z" fill="#fff"/><path opacity=".17" d="M229.348 268.639h6.712v6.708h-6.712v-6.708z" fill="#fff"/><path opacity=".22" d="M229.348 285.036h6.712v6.708h-6.712v-6.708z" fill="#fff"/><path d="M229.348 301.558h6.712v6.708h-6.712v-6.708z" fill="#fff"/><path d="M242.523 265.285h38.406v11.305h-38.406v-11.305z" fill="#333"/><path d="M223.382 265.285h19.141v11.305h-19.141v-11.305z" fill="#4D4D4D"/><path d="M280.929 265.285l-11.932-5.714-26.474 5.714h38.406z" fill="#333"/><path d="M268.997 259.571l-26.474 5.714h-19.141l45.615-5.714z" fill="#4D4D4D"/><path d="M233.574 273.235h56.18v51.428h-56.18v-51.428z" fill="#333"/><path d="M214.93 273.235h18.644v51.428H214.93v-51.428z" fill="#4D4D4D"/><path opacity=".81" d="M219.28 276.838h10.068v3.727H219.28v-3.727z" fill="#fff"/><path opacity=".76" d="M219.28 283.67h10.068v3.727H219.28v-3.727z" fill="#fff"/><path opacity=".32" d="M219.28 290.502h10.068v3.727H219.28v-3.727z" fill="#fff"/><path opacity=".49" d="M219.28 297.459h10.068v3.726H219.28v-3.726z" fill="#fff"/><path opacity=".1" d="M270.737 276.838h10.068v3.727h-10.068v-3.727z" fill="#fff"/><path opacity=".04" d="M256.692 276.838h10.068v3.727h-10.068v-3.727z" fill="#fff"/><path opacity=".07" d="M242.523 276.838h10.067v3.727h-10.067v-3.727z" fill="#fff"/><path opacity=".06" d="M270.737 283.67h10.068v3.727h-10.068v-3.727z" fill="#fff"/><path opacity=".44" d="M256.692 283.67h10.068v3.727h-10.068v-3.727z" fill="#fff"/><path opacity=".24" d="M242.523 283.67h10.067v3.727h-10.067v-3.727z" fill="#fff"/><path opacity=".55" d="M270.737 290.502h10.068v3.727h-10.068v-3.727z" fill="#fff"/><path opacity=".02" d="M256.692 290.502h10.068v3.727h-10.068v-3.727z" fill="#fff"/><path opacity=".14" d="M242.523 290.502h10.067v3.727h-10.067v-3.727z" fill="#fff"/><path opacity=".43" d="M270.737 297.459h10.068v3.726h-10.068v-3.726z" fill="#fff"/><path opacity=".41" d="M256.692 297.459h10.068v3.726h-10.068v-3.726z" fill="#fff"/><path opacity=".46" d="M242.523 297.459h10.067v3.726h-10.067v-3.726z" fill="#fff"/><path opacity=".45" d="M270.737 304.291h10.068v3.727h-10.068v-3.727z" fill="#fff"/><path opacity=".33" d="M256.692 304.291h10.068v3.727h-10.068v-3.727z" fill="#fff"/><path opacity=".05" d="M242.523 304.291h10.067v3.727h-10.067v-3.727z" fill="#fff"/><path d="M506.89 221.807h34.802v107.204H506.89V221.807z" fill="#333"/><path d="M467.241 221.807h39.525v107.204h-39.525V221.807zm39.649 9.069h34.802v1.863H506.89v-1.863z" fill="#4D4D4D"/><path d="M467.241 230.876h39.525v1.863h-39.525v-1.863z" fill="#333"/><path opacity=".47" d="M535.104 234.851h3.729v3.726h-3.729v-3.726z" fill="#fff"/><path opacity=".26" d="M530.008 234.851h3.729v3.726h-3.729v-3.726z" fill="#fff"/><path opacity=".32" d="M524.912 234.851h3.729v3.726h-3.729v-3.726z" fill="#fff"/><path opacity=".25" d="M519.816 234.851h3.729v3.726h-3.729v-3.726z" fill="#fff"/><path opacity=".12" d="M509.625 234.851h3.728v3.726h-3.728v-3.726z" fill="#fff"/><path opacity=".32" d="M535.104 239.944h3.729v3.727h-3.729v-3.727z" fill="#fff"/><path opacity=".22" d="M524.912 239.944h3.729v3.727h-3.729v-3.727z" fill="#fff"/><path opacity=".47" d="M519.816 239.944h3.729v3.727h-3.729v-3.727z" fill="#fff"/><path opacity=".22" d="M514.72 239.944h3.729v3.727h-3.729v-3.727z" fill="#fff"/><path opacity=".32" d="M509.625 239.944h3.728v3.727h-3.728v-3.727z" fill="#fff"/><path opacity=".37" d="M535.104 245.037h3.729v3.727h-3.729v-3.727z" fill="#fff"/><path opacity=".34" d="M530.008 245.037h3.729v3.727h-3.729v-3.727z" fill="#fff"/><path opacity=".18" d="M524.912 245.037h3.729v3.727h-3.729v-3.727z" fill="#fff"/><path opacity=".28" d="M519.816 245.037h3.729v3.727h-3.729v-3.727z" fill="#fff"/><path opacity=".2" d="M509.625 245.037h3.728v3.727h-3.728v-3.727z" fill="#fff"/><path opacity=".18" d="M535.104 250.13h3.729v3.727h-3.729v-3.727z" fill="#fff"/><path opacity=".33" d="M524.912 250.13h3.729v3.727h-3.729v-3.727z" fill="#fff"/><path opacity=".05" d="M519.816 250.13h3.729v3.727h-3.729v-3.727z" fill="#fff"/><path opacity=".08" d="M514.72 250.13h3.729v3.727h-3.729v-3.727zm5.096 5.093h3.729v3.727h-3.729v-3.727z" fill="#fff"/><path opacity=".02" d="M514.72 255.223h3.729v3.727h-3.729v-3.727z" fill="#fff"/><path opacity=".03" d="M535.104 260.316h3.729v3.727h-3.729v-3.727z" fill="#fff"/><path opacity=".46" d="M530.008 260.316h3.729v3.727h-3.729v-3.727z" fill="#fff"/><path opacity=".05" d="M524.912 260.316h3.729v3.727h-3.729v-3.727z" fill="#fff"/><path opacity=".2" d="M519.816 260.316h3.729v3.727h-3.729v-3.727z" fill="#fff"/><path opacity=".23" d="M514.72 260.316h3.729v3.727h-3.729v-3.727z" fill="#fff"/><path opacity=".17" d="M535.104 265.409h3.729v3.727h-3.729v-3.727z" fill="#fff"/><path opacity=".08" d="M530.008 265.409h3.729v3.727h-3.729v-3.727z" fill="#fff"/><path opacity=".14" d="M524.912 265.409h3.729v3.727h-3.729v-3.727z" fill="#fff"/><path opacity=".24" d="M514.72 265.409h3.729v3.727h-3.729v-3.727z" fill="#fff"/><path opacity=".28" d="M535.104 270.502h3.729v3.727h-3.729v-3.727z" fill="#fff"/><path opacity=".3" d="M530.008 270.502h3.729v3.727h-3.729v-3.727z" fill="#fff"/><path opacity=".23" d="M524.912 270.502h3.729v3.727h-3.729v-3.727z" fill="#fff"/><path opacity=".02" d="M519.816 270.502h3.729v3.727h-3.729v-3.727z" fill="#fff"/><path opacity=".04" d="M514.72 270.502h3.729v3.727h-3.729v-3.727z" fill="#fff"/><path opacity=".3" d="M509.625 270.502h3.728v3.727h-3.728v-3.727z" fill="#fff"/><path opacity=".08" d="M530.008 275.471h3.729v3.727h-3.729v-3.727z" fill="#fff"/><path opacity=".4" d="M509.625 275.471h3.728v3.727h-3.728v-3.727z" fill="#fff"/><path opacity=".31" d="M535.104 280.564h3.729v3.727h-3.729v-3.727zm-5.096 0h3.729v3.727h-3.729v-3.727z" fill="#fff"/><path opacity=".12" d="M524.912 280.564h3.729v3.727h-3.729v-3.727z" fill="#fff"/><path opacity=".19" d="M514.72 280.564h3.729v3.727h-3.729v-3.727z" fill="#fff"/><path opacity=".43" d="M509.625 280.564h3.728v3.727h-3.728v-3.727z" fill="#fff"/><path opacity=".12" d="M535.104 285.658h3.729v3.727h-3.729v-3.727z" fill="#fff"/><path opacity=".42" d="M519.816 285.658h3.729v3.727h-3.729v-3.727z" fill="#fff"/><path opacity=".31" d="M509.625 285.658h3.728v3.727h-3.728v-3.727z" fill="#fff"/><path opacity=".23" d="M535.104 290.751h3.729v3.726h-3.729v-3.726z" fill="#fff"/><path opacity=".31" d="M519.816 290.751h3.729v3.726h-3.729v-3.726z" fill="#fff"/><path opacity=".33" d="M509.625 290.751h3.728v3.726h-3.728v-3.726z" fill="#fff"/><path opacity=".49" d="M535.104 295.844h3.729v3.727h-3.729v-3.727z" fill="#fff"/><path opacity=".06" d="M530.008 295.844h3.729v3.727h-3.729v-3.727z" fill="#fff"/><path opacity=".17" d="M519.816 295.844h3.729v3.727h-3.729v-3.727z" fill="#fff"/><path opacity=".01" d="M514.72 295.844h3.729v3.727h-3.729v-3.727z" fill="#fff"/><path opacity=".48" d="M509.625 295.844h3.728v3.727h-3.728v-3.727z" fill="#fff"/><path opacity=".05" d="M535.104 300.937h3.729v3.727h-3.729v-3.727z" fill="#fff"/><path opacity=".23" d="M530.008 300.937h3.729v3.727h-3.729v-3.727z" fill="#fff"/><path opacity=".28" d="M524.912 300.937h3.729v3.727h-3.729v-3.727z" fill="#fff"/><path opacity=".02" d="M519.816 300.937h3.729v3.727h-3.729v-3.727z" fill="#fff"/><path opacity=".17" d="M514.72 300.937h3.729v3.727h-3.729v-3.727z" fill="#fff"/><path opacity=".42" d="M509.625 300.937h3.728v3.727h-3.728v-3.727z" fill="#fff"/><path opacity=".13" d="M535.104 306.03h3.729v3.727h-3.729v-3.727z" fill="#fff"/><path opacity=".11" d="M524.912 306.03h3.729v3.727h-3.729v-3.727z" fill="#fff"/><path opacity=".02" d="M519.816 306.03h3.729v3.727h-3.729v-3.727z" fill="#fff"/><path opacity=".3" d="M509.625 306.03h3.728v3.727h-3.728v-3.727z" fill="#fff"/><path opacity=".08" d="M514.72 234.851h3.729v3.726h-3.729v-3.726z" fill="#fff"/><path opacity=".1" d="M530.008 239.944h3.729v3.727h-3.729v-3.727z" fill="#fff"/><path opacity=".08" d="M514.72 245.037h3.729v3.727h-3.729v-3.727z" fill="#fff"/><path opacity=".1" d="M530.008 250.13h3.729v3.727h-3.729v-3.727z" fill="#fff"/><path opacity=".01" d="M509.625 250.13h3.728v3.727h-3.728v-3.727z" fill="#fff"/><path opacity=".17" d="M535.104 255.223h3.729v3.727h-3.729v-3.727z" fill="#fff"/><path opacity=".01" d="M530.008 255.223h3.729v3.727h-3.729v-3.727z" fill="#fff"/><path opacity=".15" d="M524.912 255.223h3.729v3.727h-3.729v-3.727z" fill="#fff"/><path opacity=".12" d="M509.625 255.223h3.728v3.727h-3.728v-3.727z" fill="#fff"/><path opacity=".13" d="M519.816 265.409h3.729v3.727h-3.729v-3.727z" fill="#fff"/><path opacity=".07" d="M509.625 265.409h3.728v3.727h-3.728v-3.727z" fill="#fff"/><path opacity=".13" d="M535.104 275.471h3.729v3.727h-3.729v-3.727z" fill="#fff"/><path opacity=".02" d="M524.912 275.471h3.729v3.727h-3.729v-3.727zm-5.096 0h3.729v3.727h-3.729v-3.727z" fill="#fff"/><path opacity=".14" d="M514.72 275.471h3.729v3.727h-3.729v-3.727z" fill="#fff"/><path opacity=".09" d="M524.912 285.658h3.729v3.727h-3.729v-3.727z" fill="#fff"/><path opacity=".02" d="M514.72 285.658h3.729v3.727h-3.729v-3.727z" fill="#fff"/><path opacity=".19" d="M524.912 290.751h3.729v3.726h-3.729v-3.726z" fill="#fff"/><path opacity=".06" d="M514.72 290.751h3.729v3.726h-3.729v-3.726z" fill="#fff"/><path opacity=".16" d="M524.912 295.844h3.729v3.727h-3.729v-3.727z" fill="#fff"/><path opacity=".19" d="M530.008 306.03h3.729v3.727h-3.729v-3.727z" fill="#fff"/><path opacity=".04" d="M514.72 306.03h3.729v3.727h-3.729v-3.727z" fill="#fff"/><path opacity=".7" d="M499.308 232.739h3.853v91.552h-3.853v-91.552zm-6.587 0h3.853v91.552h-3.853v-91.552zm-6.712 0h3.853v91.552h-3.853v-91.552zm-6.711 0h3.853v91.552h-3.853v-91.552zm-6.712 0h3.853v91.552h-3.853v-91.552z" fill="#E6E6E6"/><path d="M584.448 169.261l7.706-20.372-20.632 20.372h12.926z" fill="#4D4D4D"/><path d="M602.47 169.261l-10.316-20.372-7.706 20.372h18.022z" fill="#333"/><path d="M584.448 169.261h18.022V191h-18.022v-21.739z" fill="#333"/><path d="M571.522 169.261h12.926V191h-12.926v-21.739z" fill="#4D4D4D"/><path d="M566.177 267.024h54.564v62.484h-54.564v-62.484zm7.458-44.72h39.524v44.72h-39.524v-44.72zm5.717-44.72h28.09v44.72h-28.09v-44.72z" fill="#333"/><path d="M560.087 177.584h19.389v44.72h-19.389v-44.72zm-27.468 89.44h33.558v62.484h-33.558v-62.484zm15.536-44.72h25.48v44.72h-25.48v-44.72z" fill="#4D4D4D"/><path opacity=".53" d="M566.799 180.814h5.841v5.838h-5.841v-5.838z" fill="#fff"/><path opacity=".34" d="M566.799 188.143h5.841v5.838h-5.841v-5.838z" fill="#fff"/><path opacity=".9" d="M566.799 195.348h5.841v5.838h-5.841v-5.838z" fill="#fff"/><path opacity=".14" d="M566.799 202.553h5.841v5.838h-5.841v-5.838z" fill="#fff"/><path d="M566.799 209.882h5.841v5.838h-5.841v-5.838z" fill="#fff"/><path opacity=".29" d="M562.448 226.155h5.842v5.838h-5.842v-5.838z" fill="#fff"/><path opacity=".81" d="M553.499 226.155h5.842v5.838h-5.842v-5.838z" fill="#fff"/><path opacity=".18" d="M562.448 233.484h5.842v5.839h-5.842v-5.839z" fill="#fff"/><path opacity=".41" d="M553.499 233.484h5.842v5.839h-5.842v-5.839z" fill="#fff"/><path opacity=".03" d="M553.499 240.938h5.842v5.838h-5.842v-5.838z" fill="#fff"/><path opacity=".85" d="M562.448 248.391h5.842v5.838h-5.842v-5.838z" fill="#fff"/><path opacity=".06" d="M553.499 248.391h5.842v5.838h-5.842v-5.838z" fill="#fff"/><path opacity=".94" d="M562.448 255.72h5.842v5.838h-5.842v-5.838z" fill="#fff"/><path opacity=".25" d="M553.499 255.72h5.842v5.838h-5.842v-5.838z" fill="#fff"/><path opacity=".6" d="M554.245 270.875h5.842v5.838h-5.842v-5.838z" fill="#fff"/><path opacity=".83" d="M546.415 270.875h5.841v5.838h-5.841v-5.838z" fill="#fff"/><path opacity=".74" d="M538.585 270.875h5.841v5.838h-5.841v-5.838z" fill="#fff"/><path opacity=".35" d="M546.415 277.956h5.841v5.838h-5.841v-5.838z" fill="#fff"/><path opacity=".54" d="M538.585 277.956h5.841v5.838h-5.841v-5.838z" fill="#fff"/><path opacity=".2" d="M554.245 285.036h5.842v5.839h-5.842v-5.839z" fill="#fff"/><path opacity=".04" d="M546.415 285.036h5.841v5.839h-5.841v-5.839z" fill="#fff"/><path opacity=".86" d="M538.585 285.036h5.841v5.839h-5.841v-5.839z" fill="#fff"/><path opacity=".06" d="M554.245 292.117h5.842v5.839h-5.842v-5.839z" fill="#fff"/><path opacity=".01" d="M546.415 292.117h5.841v5.839h-5.841v-5.839z" fill="#fff"/><path opacity=".39" d="M538.585 292.117h5.841v5.839h-5.841v-5.839z" fill="#fff"/><path opacity=".1" d="M554.245 299.322h5.842v5.838h-5.842v-5.838z" fill="#fff"/><path d="M546.415 299.322h5.841v5.838h-5.841v-5.838z" fill="#fff"/><path opacity=".62" d="M538.585 299.322h5.841v5.838h-5.841v-5.838z" fill="#fff"/><path opacity=".48" d="M554.245 306.651h5.842v5.839h-5.842v-5.839z" fill="#fff"/><path opacity=".27" d="M546.415 306.651h5.841v5.839h-5.841v-5.839z" fill="#fff"/><path opacity=".42" d="M538.585 306.651h5.841v5.839h-5.841v-5.839z" fill="#fff"/><path opacity=".27" d="M609.058 270.875h5.841v5.838h-5.841v-5.838z" fill="#fff"/><path opacity=".11" d="M602.47 226.155h5.842v5.838h-5.842v-5.838z" fill="#fff"/><path opacity=".41" d="M597.871 180.814h5.842v5.838h-5.842v-5.838z" fill="#fff"/><path opacity=".38" d="M590.538 180.814h5.842v5.838h-5.842v-5.838z" fill="#fff"/><path opacity=".02" d="M583.081 180.814h5.841v5.838h-5.841v-5.838z" fill="#fff"/><path opacity=".46" d="M597.871 188.143h5.842v5.838h-5.842v-5.838z" fill="#fff"/><path opacity=".31" d="M590.538 188.143h5.842v5.838h-5.842v-5.838z" fill="#fff"/><path opacity=".61" d="M583.081 188.143h5.841v5.838h-5.841v-5.838z" fill="#fff"/><path opacity=".03" d="M597.871 195.348h5.842v5.838h-5.842v-5.838zm-7.333 0h5.842v5.838h-5.842v-5.838z" fill="#fff"/><path opacity=".46" d="M583.081 195.348h5.841v5.838h-5.841v-5.838z" fill="#fff"/><path opacity=".32" d="M597.871 202.553h5.842v5.838h-5.842v-5.838z" fill="#fff"/><path opacity=".14" d="M590.538 202.553h5.842v5.838h-5.842v-5.838z" fill="#fff"/><path opacity=".3" d="M583.081 202.553h5.841v5.838h-5.841v-5.838z" fill="#fff"/><path opacity=".04" d="M597.871 209.882h5.842v5.838h-5.842v-5.838z" fill="#fff"/><path opacity=".64" d="M590.538 209.882h5.842v5.838h-5.842v-5.838z" fill="#fff"/><path opacity=".05" d="M583.081 209.882h5.841v5.838h-5.841v-5.838z" fill="#fff"/><path opacity=".15" d="M595.013 226.155h5.841v5.838h-5.841v-5.838zm-7.458 0h5.842v5.838h-5.842v-5.838z" fill="#fff"/><path opacity=".52" d="M580.222 226.155h5.842v5.838h-5.842v-5.838z" fill="#fff"/><path opacity=".58" d="M602.47 233.484h5.842v5.839h-5.842v-5.839z" fill="#fff"/><path opacity=".62" d="M595.013 233.484h5.841v5.839h-5.841v-5.839z" fill="#fff"/><path opacity=".04" d="M587.555 233.484h5.842v5.839h-5.842v-5.839z" fill="#fff"/><path opacity=".06" d="M580.222 233.484h5.842v5.839h-5.842v-5.839z" fill="#fff"/><path opacity=".3" d="M602.47 240.938h5.842v5.838h-5.842v-5.838z" fill="#fff"/><path opacity=".01" d="M595.013 240.938h5.841v5.838h-5.841v-5.838z" fill="#fff"/><path opacity=".37" d="M587.555 240.938h5.842v5.838h-5.842v-5.838z" fill="#fff"/><path opacity=".62" d="M580.222 240.938h5.842v5.838h-5.842v-5.838z" fill="#fff"/><path opacity=".54" d="M602.47 248.391h5.842v5.838h-5.842v-5.838z" fill="#fff"/><path opacity=".21" d="M595.013 248.391h5.841v5.838h-5.841v-5.838z" fill="#fff"/><path opacity=".41" d="M587.555 248.391h5.842v5.838h-5.842v-5.838z" fill="#fff"/><path opacity=".1" d="M580.222 248.391h5.842v5.838h-5.842v-5.838z" fill="#fff"/><path opacity=".17" d="M602.47 255.72h5.842v5.838h-5.842v-5.838zm-7.457 0h5.841v5.838h-5.841v-5.838z" fill="#fff"/><path opacity=".13" d="M587.555 255.72h5.842v5.838h-5.842v-5.838z" fill="#fff"/><path opacity=".5" d="M580.222 255.72h5.842v5.838h-5.842v-5.838z" fill="#fff"/><path opacity=".06" d="M601.6 270.875h5.842v5.838H601.6v-5.838z" fill="#fff"/><path opacity=".27" d="M594.267 270.875h5.842v5.838h-5.842v-5.838z" fill="#fff"/><path opacity=".51" d="M586.809 270.875h5.842v5.838h-5.842v-5.838z" fill="#fff"/><path opacity=".42" d="M579.352 270.875h5.842v5.838h-5.842v-5.838z" fill="#fff"/><path opacity=".64" d="M572.019 270.875h5.842v5.838h-5.842v-5.838z" fill="#fff"/><path opacity=".29" d="M609.058 277.956h5.841v5.838h-5.841v-5.838z" fill="#fff"/><path opacity=".6" d="M601.6 277.956h5.842v5.838H601.6v-5.838z" fill="#fff"/><path opacity=".2" d="M594.267 277.956h5.842v5.838h-5.842v-5.838z" fill="#fff"/><path opacity=".24" d="M586.809 277.956h5.842v5.838h-5.842v-5.838z" fill="#fff"/><path opacity=".62" d="M579.352 277.956h5.842v5.838h-5.842v-5.838zm-7.333 0h5.842v5.838h-5.842v-5.838z" fill="#fff"/><path opacity=".25" d="M609.058 285.036h5.841v5.839h-5.841v-5.839z" fill="#fff"/><path opacity=".36" d="M601.6 285.036h5.842v5.839H601.6v-5.839z" fill="#fff"/><path opacity=".16" d="M594.267 285.036h5.842v5.839h-5.842v-5.839z" fill="#fff"/><path opacity=".1" d="M586.809 285.036h5.842v5.839h-5.842v-5.839z" fill="#fff"/><path opacity=".04" d="M579.352 285.036h5.842v5.839h-5.842v-5.839z" fill="#fff"/><path opacity=".44" d="M572.019 285.036h5.842v5.839h-5.842v-5.839z" fill="#fff"/><path opacity=".68" d="M609.058 292.117h5.841v5.839h-5.841v-5.839z" fill="#fff"/><path opacity=".01" d="M601.6 292.117h5.842v5.839H601.6v-5.839z" fill="#fff"/><path opacity=".29" d="M594.267 292.117h5.842v5.839h-5.842v-5.839z" fill="#fff"/><path opacity=".66" d="M586.809 292.117h5.842v5.839h-5.842v-5.839z" fill="#fff"/><path opacity=".12" d="M579.352 292.117h5.842v5.839h-5.842v-5.839z" fill="#fff"/><path opacity=".34" d="M572.019 292.117h5.842v5.839h-5.842v-5.839z" fill="#fff"/><path opacity=".36" d="M609.058 299.322h5.841v5.838h-5.841v-5.838z" fill="#fff"/><path opacity=".5" d="M601.6 299.322h5.842v5.838H601.6v-5.838z" fill="#fff"/><path opacity=".07" d="M594.267 299.322h5.842v5.838h-5.842v-5.838z" fill="#fff"/><path opacity=".64" d="M586.809 299.322h5.842v5.838h-5.842v-5.838z" fill="#fff"/><path opacity=".4" d="M579.352 299.322h5.842v5.838h-5.842v-5.838z" fill="#fff"/><path opacity=".27" d="M572.019 299.322h5.842v5.838h-5.842v-5.838z" fill="#fff"/><path opacity=".09" d="M609.058 306.651h5.841v5.839h-5.841v-5.839z" fill="#fff"/><path opacity=".47" d="M601.6 306.651h5.842v5.839H601.6v-5.839z" fill="#fff"/><path opacity=".57" d="M594.267 306.651h5.842v5.839h-5.842v-5.839z" fill="#fff"/><path opacity=".12" d="M586.809 306.651h5.842v5.839h-5.842v-5.839z" fill="#fff"/><path opacity=".23" d="M579.352 306.651h5.842v5.839h-5.842v-5.839z" fill="#fff"/><path opacity=".36" d="M572.019 306.651h5.842v5.839h-5.842v-5.839z" fill="#fff"/><path d="M447.355 324.291h77.309l-77.309-67.329v67.329zm165.804 1.366h107.139L613.159 232.49v93.167z" fill="#333"/><path d="M455.931 308.887h22.621v6.957h-22.621v-6.957z" fill="#4D4D4D"/><path d="M458.541 310.999h17.525l-6.09-10.186h-5.345l-6.09 10.186z" fill="#4D4D4D"/><path d="M552.629 318.701c0 4.844 3.853 8.819 8.576 8.819 4.724 0 8.577-3.975 8.577-8.819 0-4.845-3.853-8.82-8.577-8.82-4.723-.124-8.576 3.851-8.576 8.82zm-230.808-3.851c0 3.23 2.61 5.963 5.717 5.963 3.107 0 5.717-2.609 5.717-5.963 0-3.23-2.61-5.963-5.717-5.963-3.107 0-5.717 2.733-5.717 5.963zm200.233.372c0 3.354 2.61 6.087 5.966 6.087 3.231 0 5.966-2.733 5.966-6.087 0-3.354-2.61-6.087-5.966-6.087-3.356 0-5.966 2.733-5.966 6.087z" fill="#333"/></svg>