<svg width="637" height="311" fill="none" xmlns="http://www.w3.org/2000/svg"><path d="M111.093 107.647H70.077V303.67h41.016V107.647z" fill="#333"/><path d="M99.783 97.71H81.139v11.055h18.644V97.71zm-3.853-6.46H85.116v6.335H95.93V91.25z" fill="#333"/><path d="M89.84 107.274L90.584.444l.622 106.83h-1.368z" fill="#333"/><path opacity=".09" d="M92.698 122.43h-4.35v4.347h4.35v-4.347z" fill="#fff"/><path opacity=".33" d="M92.698 136.218h-4.35v4.348h4.35v-4.348z" fill="#fff"/><path opacity=".37" d="M92.698 150.131h-4.35v4.348h4.35v-4.348z" fill="#fff"/><path opacity=".14" d="M92.698 163.92h-4.35v4.348h4.35v-4.348z" fill="#fff"/><path opacity=".3" d="M92.698 177.833h-4.35v4.348h4.35v-4.348z" fill="#fff"/><path opacity=".16" d="M92.698 191.621h-4.35v4.348h4.35v-4.348z" fill="#fff"/><path opacity=".34" d="M92.698 205.534h-4.35v4.348h4.35v-4.348z" fill="#fff"/><path opacity=".29" d="M92.698 219.323h-4.35v4.348h4.35v-4.348z" fill="#fff"/><path opacity=".12" d="M92.698 233.236h-4.35v4.348h4.35v-4.348z" fill="#fff"/><path d="M36.146 151.995H-92.371v171.054H36.145V151.995z" fill="#4D4D4D"/><path d="M2.463 159.075h-6.836v6.832h6.836v-6.832zm9.073 0H4.7v6.832h6.836v-6.832zm-9.073 8.944h-6.836v6.833h6.836v-6.833zm9.073 0H4.7v6.833h6.836v-6.833zm-9.073 8.944h-6.836v6.833h6.836v-6.833zm9.073 0H4.7v6.833h6.836v-6.833zm-9.073 8.82h-6.836v6.832h6.836v-6.832zm9.073 0H4.7v6.832h6.836v-6.832zm-9.073 8.944h-6.836v6.832h6.836v-6.832zm9.073 0H4.7v6.832h6.836v-6.832zm-9.073 8.944h-6.836v6.832h6.836v-6.832zm9.073 0H4.7v6.832h6.836v-6.832zm-9.073 8.944h-6.836v6.832h6.836v-6.832zm9.073 0H4.7v6.832h6.836v-6.832zm-9.073 8.944h-6.836v6.832h6.836v-6.832zm9.073 0H4.7v6.832h6.836v-6.832zm-9.073 8.82h-6.836v6.832h6.836v-6.832zm9.073 0H4.7v6.832h6.836v-6.832zm-9.073 8.944h-6.836v6.832h6.836v-6.832zm9.073 0H4.7v6.832h6.836v-6.832zm-9.073 8.944h-6.836v6.832h6.836v-6.832zm9.073 0H4.7v6.832h6.836v-6.832zm-9.073 8.944h-6.836v6.832h6.836v-6.832zm9.073 0H4.7v6.832h6.836v-6.832zm-9.073 8.944h-6.836v6.832h6.836v-6.832zm9.073 0H4.7v6.832h6.836v-6.832zm-9.073 8.82h-6.836v6.832h6.836v-6.832zm9.073 0H4.7v6.832h6.836v-6.832zm9.074 0h-6.837v6.832h6.836v-6.832zm-18.147 8.944h-6.836v6.832h6.836v-6.832zm9.073 0H4.7v6.832h6.836v-6.832zm9.074 0h-6.837v6.832h6.836v-6.832zm-18.147 8.944h-6.836v6.832h6.836v-6.832zm9.073 0H4.7v6.832h6.836v-6.832zm9.074 0h-6.837v6.832h6.836v-6.832zm-18.147 8.944h-6.836v6.832h6.836v-6.832zm9.073 0H4.7v6.832h6.836v-6.832zm9.074 0h-6.837v6.832h6.836v-6.832zM2.463 310.75h-6.836v6.833h6.836v-6.833zm9.073 0H4.7v6.833h6.836v-6.833zm9.074 0h-6.837v6.833h6.836v-6.833z" fill="#fff"/><path d="M17.13 134.604h-90.485v17.391H17.13v-17.391z" fill="#4D4D4D"/><path opacity=".19" d="M20.61 159.075h-6.837v6.832h6.836v-6.832z" fill="#fff"/><path opacity=".24" d="M20.61 168.019h-6.837v6.832h6.836v-6.832z" fill="#fff"/><path opacity=".29" d="M20.61 176.963h-6.837v6.832h6.836v-6.832z" fill="#fff"/><path opacity=".39" d="M20.61 185.783h-6.837v6.832h6.836v-6.832z" fill="#fff"/><path opacity=".21" d="M20.61 194.727h-6.837v6.832h6.836v-6.832z" fill="#fff"/><path opacity=".48" d="M20.61 203.671h-6.837v6.832h6.836v-6.832z" fill="#fff"/><path opacity=".32" d="M20.61 212.615h-6.837v6.832h6.836v-6.832z" fill="#fff"/><path opacity=".13" d="M20.61 221.559h-6.837v6.832h6.836v-6.832z" fill="#fff"/><path opacity=".19" d="M20.61 230.379h-6.837v6.832h6.836v-6.832z" fill="#fff"/><path opacity=".03" d="M20.61 239.323h-6.837v6.832h6.836v-6.832z" fill="#fff"/><path opacity=".36" d="M20.61 248.267h-6.837v6.832h6.836v-6.832z" fill="#fff"/><path opacity=".25" d="M20.61 257.211h-6.837v6.832h6.836v-6.832z" fill="#fff"/><path d="M20.61 266.155h-6.837v6.832h6.836v-6.832z" fill="#fff"/><path d="M296.66 229.633h-41.016v96.024h41.016v-96.024z" fill="#333"/><path d="M274.288 224.789h-18.644v5.465h18.644v-5.465zm-7.831-3.106h-10.813v3.106h10.813v-3.106z" fill="#333"/><path opacity=".06" d="M279.508 236.341h-6.712v4.969h6.712v-4.969z" fill="#fff"/><path opacity=".12" d="M279.508 248.639h-6.712v4.969h6.712v-4.969z" fill="#fff"/><path opacity=".19" d="M279.508 273.235h-6.712v4.969h6.712v-4.969z" fill="#fff"/><path opacity=".14" d="M279.508 297.831h-6.712v4.969h6.712v-4.969z" fill="#fff"/><path opacity=".1" d="M279.508 310.129h-6.712v4.969h6.712v-4.969z" fill="#fff"/><path d="M193.747 240.068h-56.18v51.428h56.18v-51.428z" fill="#333"/><path d="M184.922 235.472h-38.406v22.111h38.406v-22.111zm12.926 37.018h-56.179v51.428h56.179V272.49z" fill="#333"/><path d="M188.9 267.894h-38.406v22.111H188.9v-22.111zm83.772-2.236h-56.18v59.254h56.18v-59.254z" fill="#333"/><path d="M263.847 260.44h-38.406v25.59h38.406v-25.59zm196.877 23.23h-56.179v57.267h56.179V283.67z" fill="#333"/><path d="M451.9 278.577h-38.406v24.72H451.9v-24.72zM338.919 165.41h-62.767v159.378h62.767V165.41z" fill="#333"/><path opacity=".46" d="M294.423 172.615h-15.164v2.858h15.164v-2.858z" fill="#E6E6E6"/><path opacity=".34" d="M315.179 172.615h-15.163v2.858h15.163v-2.858z" fill="#E6E6E6"/><path opacity=".52" d="M335.812 172.615h-15.164v2.858h15.164v-2.858z" fill="#E6E6E6"/><path opacity=".54" d="M294.423 179.199h-15.164v2.857h15.164v-2.857z" fill="#E6E6E6"/><path opacity=".3" d="M315.179 179.199h-15.163v2.857h15.163v-2.857z" fill="#E6E6E6"/><path opacity=".06" d="M335.812 179.199h-15.164v2.857h15.164v-2.857z" fill="#E6E6E6"/><path opacity=".15" d="M294.423 185.783h-15.164v2.857h15.164v-2.857z" fill="#E6E6E6"/><path opacity=".42" d="M315.179 185.783h-15.163v2.857h15.163v-2.857z" fill="#E6E6E6"/><path opacity=".48" d="M335.812 185.783h-15.164v2.857h15.164v-2.857z" fill="#E6E6E6"/><path opacity=".18" d="M294.423 192.367h-15.164v2.857h15.164v-2.857z" fill="#E6E6E6"/><path opacity=".28" d="M335.812 192.367h-15.164v2.857h15.164v-2.857z" fill="#E6E6E6"/><path opacity=".29" d="M294.423 198.95h-15.164v2.858h15.164v-2.858z" fill="#E6E6E6"/><path opacity=".28" d="M315.179 198.95h-15.163v2.858h15.163v-2.858z" fill="#E6E6E6"/><path opacity=".56" d="M335.812 198.95h-15.164v2.858h15.164v-2.858z" fill="#E6E6E6"/><path opacity=".41" d="M294.423 205.534h-15.164v2.858h15.164v-2.858z" fill="#E6E6E6"/><path opacity=".16" d="M315.179 205.534h-15.163v2.858h15.163v-2.858z" fill="#E6E6E6"/><path opacity=".4" d="M335.812 205.534h-15.164v2.858h15.164v-2.858z" fill="#E6E6E6"/><path opacity=".1" d="M294.423 212.118h-15.164v2.857h15.164v-2.857z" fill="#E6E6E6"/><path opacity=".17" d="M315.179 212.118h-15.163v2.857h15.163v-2.857z" fill="#E6E6E6"/><path opacity=".08" d="M335.812 212.118h-15.164v2.857h15.164v-2.857z" fill="#E6E6E6"/><path opacity=".49" d="M294.423 218.702h-15.164v2.857h15.164v-2.857z" fill="#E6E6E6"/><path opacity=".58" d="M315.179 218.702h-15.163v2.857h15.163v-2.857zm20.633 0h-15.164v2.857h15.164v-2.857z" fill="#E6E6E6"/><path opacity=".26" d="M294.423 225.286h-15.164v2.857h15.164v-2.857z" fill="#E6E6E6"/><path opacity=".37" d="M315.179 225.286h-15.163v2.857h15.163v-2.857z" fill="#E6E6E6"/><path opacity=".34" d="M335.812 225.286h-15.164v2.857h15.164v-2.857z" fill="#E6E6E6"/><path opacity=".55" d="M294.423 231.869h-15.164v2.858h15.164v-2.858z" fill="#E6E6E6"/><path opacity=".12" d="M315.179 231.869h-15.163v2.858h15.163v-2.858z" fill="#E6E6E6"/><path opacity=".6" d="M335.812 231.869h-15.164v2.858h15.164v-2.858z" fill="#E6E6E6"/><path opacity=".02" d="M294.423 238.453h-15.164v2.857h15.164v-2.857z" fill="#E6E6E6"/><path opacity=".28" d="M315.179 238.453h-15.163v2.857h15.163v-2.857z" fill="#E6E6E6"/><path opacity=".21" d="M335.812 238.453h-15.164v2.857h15.164v-2.857z" fill="#E6E6E6"/><path opacity=".57" d="M294.423 245.037h-15.164v2.857h15.164v-2.857z" fill="#E6E6E6"/><path opacity=".38" d="M315.179 245.037h-15.163v2.857h15.163v-2.857z" fill="#E6E6E6"/><path opacity=".25" d="M335.812 245.037h-15.164v2.857h15.164v-2.857z" fill="#E6E6E6"/><path opacity=".15" d="M294.423 251.621h-15.164v2.857h15.164v-2.857z" fill="#E6E6E6"/><path opacity=".47" d="M315.179 251.621h-15.163v2.857h15.163v-2.857z" fill="#E6E6E6"/><path opacity=".3" d="M335.812 251.621h-15.164v2.857h15.164v-2.857z" fill="#E6E6E6"/><path opacity=".4" d="M294.423 258.205h-15.164v2.857h15.164v-2.857z" fill="#E6E6E6"/><path opacity=".39" d="M315.179 258.205h-15.163v2.857h15.163v-2.857z" fill="#E6E6E6"/><path opacity=".24" d="M335.812 258.205h-15.164v2.857h15.164v-2.857z" fill="#E6E6E6"/><path opacity=".46" d="M294.423 264.788h-15.164v2.858h15.164v-2.858z" fill="#E6E6E6"/><path opacity=".22" d="M315.179 264.788h-15.163v2.858h15.163v-2.858z" fill="#E6E6E6"/><path opacity=".11" d="M335.812 264.788h-15.164v2.858h15.164v-2.858zm-20.633 6.584h-15.163v2.857h15.163v-2.857z" fill="#E6E6E6"/><path opacity=".02" d="M335.812 271.372h-15.164v2.857h15.164v-2.857z" fill="#E6E6E6"/><path opacity=".27" d="M294.423 277.956h-15.164v2.857h15.164v-2.857z" fill="#E6E6E6"/><path opacity=".21" d="M315.179 277.956h-15.163v2.857h15.163v-2.857z" fill="#E6E6E6"/><path opacity=".49" d="M335.812 277.956h-15.164v2.857h15.164v-2.857z" fill="#E6E6E6"/><path opacity=".6" d="M294.423 284.54h-15.164v2.857h15.164v-2.857z" fill="#E6E6E6"/><path opacity=".31" d="M315.179 284.54h-15.163v2.857h15.163v-2.857z" fill="#E6E6E6"/><path opacity=".22" d="M335.812 284.54h-15.164v2.857h15.164v-2.857z" fill="#E6E6E6"/><path opacity=".54" d="M294.423 291.124h-15.164v2.857h15.164v-2.857z" fill="#E6E6E6"/><path opacity=".6" d="M315.179 291.124h-15.163v2.857h15.163v-2.857z" fill="#E6E6E6"/><path opacity=".08" d="M335.812 291.124h-15.164v2.857h15.164v-2.857z" fill="#E6E6E6"/><path opacity=".55" d="M315.179 297.707h-15.163v2.857h15.163v-2.857z" fill="#E6E6E6"/><path d="M335.812 297.707h-15.164v2.857h15.164v-2.857z" fill="#E6E6E6"/><path opacity=".6" d="M295.417 172.615h-.994v127.949h.994V172.615zm25.231 0h-.994v127.949h.994V172.615z" fill="#E6E6E6"/><path d="M370.24 165.41h-31.321v159.378h31.321V165.41z" fill="#4D4D4D"/><path opacity=".69" d="M365.642 172.615h-23.616v2.858h23.616v-2.858z" fill="#E6E6E6"/><path opacity=".79" d="M365.642 179.199h-23.616v2.857h23.616v-2.857z" fill="#E6E6E6"/><path opacity=".19" d="M365.642 185.783h-23.616v2.857h23.616v-2.857z" fill="#E6E6E6"/><path opacity=".88" d="M365.642 192.367h-23.616v2.857h23.616v-2.857z" fill="#E6E6E6"/><path opacity=".5" d="M365.642 198.95h-23.616v2.858h23.616v-2.858z" fill="#E6E6E6"/><path opacity=".25" d="M365.642 205.534h-23.616v2.858h23.616v-2.858z" fill="#E6E6E6"/><path opacity=".91" d="M365.642 212.118h-23.616v2.857h23.616v-2.857z" fill="#E6E6E6"/><path opacity=".02" d="M365.642 218.702h-23.616v2.857h23.616v-2.857z" fill="#E6E6E6"/><path opacity=".53" d="M365.642 225.286h-23.616v2.857h23.616v-2.857z" fill="#E6E6E6"/><path opacity=".65" d="M365.642 231.869h-23.616v2.858h23.616v-2.858z" fill="#E6E6E6"/><path d="M365.642 238.453h-23.616v2.857h23.616v-2.857z" fill="#E6E6E6"/><path opacity=".8" d="M365.642 245.037h-23.616v2.857h23.616v-2.857z" fill="#E6E6E6"/><path opacity=".82" d="M365.642 251.621h-23.616v2.857h23.616v-2.857z" fill="#E6E6E6"/><path opacity=".75" d="M365.642 258.205h-23.616v2.857h23.616v-2.857z" fill="#E6E6E6"/><path opacity=".31" d="M365.642 264.788h-23.616v2.858h23.616v-2.858z" fill="#E6E6E6"/><path opacity=".22" d="M365.642 271.372h-23.616v2.857h23.616v-2.857z" fill="#E6E6E6"/><path opacity=".43" d="M365.642 277.956h-23.616v2.857h23.616v-2.857z" fill="#E6E6E6"/><path opacity=".68" d="M365.642 284.54h-23.616v2.857h23.616v-2.857z" fill="#E6E6E6"/><path opacity=".38" d="M365.642 291.124h-23.616v2.857h23.616v-2.857z" fill="#E6E6E6"/><path opacity=".84" d="M365.642 297.707h-23.616v2.857h23.616v-2.857z" fill="#E6E6E6"/><path d="M287.214 156.963v8.447h40.643v-8.447h-40.643zm9.073 5.715h-4.226v-2.858h4.226v2.858zm6.588 0h-4.102v-2.858h4.102v2.858zm6.711 0h-4.101v-2.858h4.101v2.858zm6.712 0h-4.226v-2.858h4.226v2.858zm6.712 0h-4.226v-2.858h4.226v2.858zm12.305-2.857h-1.119v2.857h1.119v-2.857z" fill="#333"/><path d="M327.857 156.963v8.447h19.141v-8.447h-19.141zm7.458 5.715h-4.102v-2.858h4.102v2.858zm8.824 0h-4.101v-2.858h4.101v2.858z" fill="#4D4D4D"/><path d="M344.015 159.821h-1.119v2.857h1.119v-2.857zm3.231 175.774h-84.518l84.518-62.36v62.36z" fill="#333"/><path d="M221.215 131.622h-6.836v25.963h6.836v-25.963z" fill="#4D4D4D"/><path d="M214.504 131.622h-6.961v25.963h6.961v-25.963z" fill="#333"/><path d="M228.3 131.622h-6.96v25.963h6.96v-25.963zm20.135 43.726h-19.389v148.073h19.389V175.348z" fill="#666"/><path d="M206.3 175.348h-16.903v148.073H206.3V175.348z" fill="#333"/><path d="M229.046 175.348h-22.87v148.073h22.87V175.348z" fill="#4D4D4D"/><path opacity=".6" d="M194.244 179.696h-2.486v141.738h2.486V179.696zm4.847 0h-2.485v141.738h2.485V179.696zm4.848 0h-2.486v141.738h2.486V179.696z" fill="#E6E6E6"/><path d="M232.899 179.696h-2.486v141.738h2.486V179.696zm4.847 0h-2.486v141.738h2.486V179.696zm9.446 0h-2.486v141.738h2.486V179.696zm-4.599 0h-2.485v141.738h2.485V179.696z" fill="#E6E6E6"/><path opacity=".8" d="M209.035 321.434h17.152V179.696h-17.152v141.738zm2.734-139.254h11.683v136.769h-11.683V182.18z" fill="#E6E6E6"/><path opacity=".8" d="M214.006 316.589h7.334V184.417h-7.334v132.172zm2.486-129.067h2.362v125.961h-2.362V187.522z" fill="#E6E6E6"/><path opacity=".8" d="M217.859 187.522h-.497v125.961h.497V187.522z" fill="#E6E6E6"/><path d="M226.435 149.386h-17.152v25.962h17.152v-25.962z" fill="#4D4D4D"/><path d="M226.435 149.386h-17.152v25.962h17.152v-25.962z" fill="#4D4D4D"/><path d="M243.588 149.386h-17.153v25.962h17.153v-25.962z" fill="#666"/><path d="M209.283 149.386h-17.152v25.962h17.152v-25.962z" fill="#333"/><path d="M228.176 131.622h-20.633l6.836 4.72h6.961l6.836-4.72z" fill="gray"/><path d="M596.948 122.057h-9.944v29.192h9.944v-29.192z" fill="#4D4D4D"/><path d="M586.88 122.057h-9.943v29.192h9.943v-29.192z" fill="#333"/><path d="M606.891 122.057h-9.943v29.192h9.943v-29.192zm29.333 49.316h-28.09v166.83h28.09v-166.83z" fill="#666"/><path d="M575.072 171.373h-24.361v166.83h24.361v-166.83z" fill="#333"/><path d="M608.134 171.373h-33.062v166.83h33.062v-166.83z" fill="#4D4D4D"/><path opacity=".4" d="M557.671 176.342h-3.604v159.626h3.604V176.342zm7.085 0h-3.604v159.626h3.604V176.342zm7.085 0h-3.605v159.626h3.605V176.342z" fill="#E6E6E6"/><path d="M613.727 176.342h-3.605v159.626h3.605V176.342zm7.084 0h-3.604v159.626h3.604V176.342zm13.548 0h-3.604v159.626h3.604V176.342zm-6.587 0h-3.605v159.626h3.605V176.342zm-48.474 159.626h24.858V176.342h-24.858v159.626zm3.853-156.893h16.904v154.16h-16.904v-154.16z" fill="#E6E6E6"/><path d="M586.258 330.626h10.69V181.684h-10.69v148.942zm3.729-145.464h3.356v141.986h-3.356V185.162z" fill="#E6E6E6"/><path d="M591.976 185.162h-.622v141.986h.622V185.162z" fill="#E6E6E6"/><path d="M604.405 142.181h-24.858v29.192h24.858v-29.192z" fill="#4D4D4D"/><path d="M604.405 142.181h-24.858v29.192h24.858v-29.192z" fill="#4D4D4D"/><path d="M629.263 142.181h-24.858v29.192h24.858v-29.192z" fill="#666"/><path d="M579.671 142.181h-24.858v29.192h24.858v-29.192z" fill="#333"/><path d="M607.015 122.057h-30.078l10.067 5.341h9.944l10.067-5.341z" fill="gray"/><path d="M525.232 194.479h-67.988v22.608h67.988v-22.608z" fill="#E6E6E6"/><path d="M483.967 194.479h-26.723v22.608h26.723v-22.608z" fill="#B3B3B3"/><path d="M483.967 217.211h-52.824v109.813h52.824V217.211z" fill="#333"/><path d="M566.496 217.211h-82.529v109.813h82.529V217.211z" fill="#4D4D4D"/><path d="M477.504 206.031H436.86v11.18h40.644v-11.18z" fill="#333"/><path d="M554.191 206.031h-58.044v11.18h58.044v-11.18z" fill="#4D4D4D"/><path d="M507.209 185.907h-23.242v8.572h23.242v-8.572z" fill="#E6E6E6"/><path d="M495.526 177.212h-11.559v8.571h11.559v-8.571z" fill="#4D4D4D"/><path d="M483.843 177.212h-11.56v8.571h11.56v-8.571z" fill="#333"/><path d="M483.967 185.907h-17.774v8.572h17.774v-8.572z" fill="#B3B3B3"/><path d="M483.221 177.212l.746-19.876.621 19.876h-1.367z" fill="#333"/><path opacity=".12" d="M447.798 221.683h-4.35v4.348h4.35v-4.348z" fill="#fff"/><path opacity=".25" d="M453.764 221.683h-4.35v4.348h4.35v-4.348z" fill="#fff"/><path opacity=".36" d="M459.73 221.683h-4.35v4.348h4.35v-4.348z" fill="#fff"/><path opacity=".12" d="M465.696 221.683h-4.35v4.348h4.35v-4.348z" fill="#fff"/><path opacity=".14" d="M471.662 221.683h-4.35v4.348h4.35v-4.348z" fill="#fff"/><path opacity=".28" d="M447.798 227.398h-4.35v4.347h4.35v-4.347z" fill="#fff"/><path opacity=".4" d="M453.764 227.398h-4.35v4.347h4.35v-4.347z" fill="#fff"/><path opacity=".16" d="M459.73 227.398h-4.35v4.347h4.35v-4.347z" fill="#fff"/><path opacity=".17" d="M471.662 227.398h-4.35v4.347h4.35v-4.347z" fill="#fff"/><path opacity=".27" d="M447.798 233.112h-4.35v4.348h4.35v-4.348z" fill="#fff"/><path opacity=".45" d="M453.764 233.112h-4.35v4.348h4.35v-4.348zm5.966 0h-4.35v4.348h4.35v-4.348z" fill="#fff"/><path opacity=".48" d="M465.696 233.112h-4.35v4.348h4.35v-4.348z" fill="#fff"/><path opacity=".25" d="M471.662 233.112h-4.35v4.348h4.35v-4.348z" fill="#fff"/><path opacity=".28" d="M447.798 238.826h-4.35v4.348h4.35v-4.348z" fill="#fff"/><path opacity=".13" d="M453.764 238.826h-4.35v4.348h4.35v-4.348z" fill="#fff"/><path opacity=".07" d="M459.73 238.826h-4.35v4.348h4.35v-4.348z" fill="#fff"/><path opacity=".39" d="M465.696 238.826h-4.35v4.348h4.35v-4.348z" fill="#fff"/><path opacity=".47" d="M471.662 238.826h-4.35v4.348h4.35v-4.348z" fill="#fff"/><path opacity=".28" d="M447.798 244.54h-4.35v4.348h4.35v-4.348z" fill="#fff"/><path opacity=".2" d="M453.764 244.54h-4.35v4.348h4.35v-4.348z" fill="#fff"/><path opacity=".04" d="M459.73 244.54h-4.35v4.348h4.35v-4.348z" fill="#fff"/><path opacity=".43" d="M465.696 244.54h-4.35v4.348h4.35v-4.348z" fill="#fff"/><path opacity=".48" d="M471.662 244.54h-4.35v4.348h4.35v-4.348z" fill="#fff"/><path opacity=".28" d="M447.798 250.254h-4.35v4.348h4.35v-4.348z" fill="#fff"/><path opacity=".19" d="M453.764 250.254h-4.35v4.348h4.35v-4.348z" fill="#fff"/><path opacity=".01" d="M459.73 250.254h-4.35v4.348h4.35v-4.348z" fill="#fff"/><path opacity=".27" d="M465.696 250.254h-4.35v4.348h4.35v-4.348z" fill="#fff"/><path opacity=".24" d="M471.662 250.254h-4.35v4.348h4.35v-4.348z" fill="#fff"/><path opacity=".07" d="M447.798 256.093h-4.35v4.348h4.35v-4.348z" fill="#fff"/><path opacity=".25" d="M453.764 256.093h-4.35v4.348h4.35v-4.348z" fill="#fff"/><path opacity=".26" d="M459.73 256.093h-4.35v4.348h4.35v-4.348z" fill="#fff"/><path opacity=".39" d="M465.696 256.093h-4.35v4.348h4.35v-4.348z" fill="#fff"/><path opacity=".22" d="M471.662 256.093h-4.35v4.348h4.35v-4.348z" fill="#fff"/><path opacity=".15" d="M447.798 261.807h-4.35v4.348h4.35v-4.348z" fill="#fff"/><path opacity=".23" d="M453.764 261.807h-4.35v4.348h4.35v-4.348z" fill="#fff"/><path opacity=".05" d="M459.73 261.807h-4.35v4.348h4.35v-4.348z" fill="#fff"/><path opacity=".2" d="M465.696 261.807h-4.35v4.348h4.35v-4.348z" fill="#fff"/><path opacity=".31" d="M471.662 261.807h-4.35v4.348h4.35v-4.348z" fill="#fff"/><path opacity=".15" d="M447.798 267.521h-4.35v4.348h4.35v-4.348z" fill="#fff"/><path opacity=".33" d="M453.764 267.521h-4.35v4.348h4.35v-4.348z" fill="#fff"/><path opacity=".46" d="M459.73 267.521h-4.35v4.348h4.35v-4.348z" fill="#fff"/><path opacity=".25" d="M465.696 267.521h-4.35v4.348h4.35v-4.348z" fill="#fff"/><path opacity=".43" d="M471.662 267.521h-4.35v4.348h4.35v-4.348z" fill="#fff"/><path opacity=".4" d="M447.798 273.236h-4.35v4.347h4.35v-4.347z" fill="#fff"/><path opacity=".39" d="M453.764 273.236h-4.35v4.347h4.35v-4.347z" fill="#fff"/><path opacity=".01" d="M459.73 273.236h-4.35v4.347h4.35v-4.347z" fill="#fff"/><path opacity=".12" d="M465.696 273.236h-4.35v4.347h4.35v-4.347z" fill="#fff"/><path opacity=".07" d="M471.662 273.236h-4.35v4.347h4.35v-4.347zm-23.864 5.714h-4.35v4.348h4.35v-4.348z" fill="#fff"/><path opacity=".02" d="M453.764 278.95h-4.35v4.348h4.35v-4.348z" fill="#fff"/><path opacity=".12" d="M459.73 278.95h-4.35v4.348h4.35v-4.348z" fill="#fff"/><path opacity=".23" d="M465.696 278.95h-4.35v4.348h4.35v-4.348z" fill="#fff"/><path opacity=".26" d="M471.662 278.95h-4.35v4.348h4.35v-4.348z" fill="#fff"/><path opacity=".27" d="M447.798 284.664h-4.35v4.348h4.35v-4.348z" fill="#fff"/><path opacity=".38" d="M453.764 284.664h-4.35v4.348h4.35v-4.348z" fill="#fff"/><path opacity=".05" d="M459.73 284.664h-4.35v4.348h4.35v-4.348z" fill="#fff"/><path opacity=".45" d="M465.696 284.664h-4.35v4.348h4.35v-4.348z" fill="#fff"/><path opacity=".15" d="M471.662 284.664h-4.35v4.348h4.35v-4.348z" fill="#fff"/><path opacity=".06" d="M447.798 290.378h-4.35v4.348h4.35v-4.348z" fill="#fff"/><path opacity=".47" d="M453.764 290.378h-4.35v4.348h4.35v-4.348z" fill="#fff"/><path opacity=".15" d="M459.73 290.378h-4.35v4.348h4.35v-4.348z" fill="#fff"/><path opacity=".44" d="M465.696 290.378h-4.35v4.348h4.35v-4.348z" fill="#fff"/><path opacity=".14" d="M471.662 290.378h-4.35v4.348h4.35v-4.348z" fill="#fff"/><path opacity=".15" d="M447.798 296.093h-4.35v4.347h4.35v-4.347z" fill="#fff"/><path opacity=".43" d="M453.764 296.093h-4.35v4.347h4.35v-4.347z" fill="#fff"/><path opacity=".07" d="M459.73 296.093h-4.35v4.347h4.35v-4.347z" fill="#fff"/><path opacity=".47" d="M465.696 296.093h-4.35v4.347h4.35v-4.347z" fill="#fff"/><path opacity=".11" d="M471.662 296.093h-4.35v4.347h4.35v-4.347z" fill="#fff"/><path opacity=".07" d="M447.798 301.807h-4.35v4.347h4.35v-4.347z" fill="#fff"/><path opacity=".34" d="M453.764 301.807h-4.35v4.347h4.35v-4.347z" fill="#fff"/><path opacity=".5" d="M459.73 301.807h-4.35v4.347h4.35v-4.347z" fill="#fff"/><path opacity=".36" d="M465.696 301.807h-4.35v4.347h4.35v-4.347z" fill="#fff"/><path opacity=".34" d="M471.662 301.807h-4.35v4.347h4.35v-4.347z" fill="#fff"/><path opacity=".47" d="M447.798 307.521h-4.35v4.348h4.35v-4.348z" fill="#fff"/><path opacity=".41" d="M453.764 307.521h-4.35v4.348h4.35v-4.348z" fill="#fff"/><path opacity=".3" d="M459.73 307.521h-4.35v4.348h4.35v-4.348z" fill="#fff"/><path opacity=".33" d="M465.696 307.521h-4.35v4.348h4.35v-4.348z" fill="#fff"/><path opacity=".12" d="M471.662 307.521h-4.35v4.348h4.35v-4.348z" fill="#fff"/><path opacity=".3" d="M498.385 221.683h-4.351v4.348h4.351v-4.348z" fill="#fff"/><path opacity=".72" d="M504.102 221.683h-4.35v4.348h4.35v-4.348z" fill="#fff"/><path opacity=".7" d="M509.944 221.683h-4.35v4.348h4.35v-4.348z" fill="#fff"/><path opacity=".52" d="M515.785 221.683h-4.35v4.348h4.35v-4.348z" fill="#fff"/><path opacity=".2" d="M521.627 221.683h-4.35v4.348h4.35v-4.348z" fill="#fff"/><path opacity=".32" d="M527.344 221.683h-4.35v4.348h4.35v-4.348z" fill="#fff"/><path opacity=".13" d="M533.186 221.683h-4.35v4.348h4.35v-4.348z" fill="#fff"/><path opacity=".38" d="M539.028 221.683h-4.35v4.348h4.35v-4.348z" fill="#fff"/><path opacity=".61" d="M544.745 221.683h-4.35v4.348h4.35v-4.348z" fill="#fff"/><path d="M550.587 221.683h-4.35v4.348h4.35v-4.348z" fill="#fff"/><path opacity=".91" d="M556.429 221.683h-4.351v4.348h4.351v-4.348z" fill="#fff"/><path opacity=".66" d="M498.385 227.398h-4.351v4.347h4.351v-4.347z" fill="#fff"/><path opacity=".31" d="M504.102 227.398h-4.35v4.347h4.35v-4.347z" fill="#fff"/><path opacity=".95" d="M509.944 227.398h-4.35v4.347h4.35v-4.347z" fill="#fff"/><path opacity=".7" d="M515.785 227.398h-4.35v4.347h4.35v-4.347z" fill="#fff"/><path opacity=".12" d="M521.627 227.398h-4.35v4.347h4.35v-4.347z" fill="#fff"/><path opacity=".24" d="M527.344 227.398h-4.35v4.347h4.35v-4.347z" fill="#fff"/><path opacity=".66" d="M533.186 227.398h-4.35v4.347h4.35v-4.347z" fill="#fff"/><path opacity=".71" d="M539.028 227.398h-4.35v4.347h4.35v-4.347z" fill="#fff"/><path opacity=".42" d="M544.745 227.398h-4.35v4.347h4.35v-4.347z" fill="#fff"/><path opacity=".09" d="M550.587 227.398h-4.35v4.347h4.35v-4.347z" fill="#fff"/><path opacity=".32" d="M556.429 227.398h-4.351v4.347h4.351v-4.347z" fill="#fff"/><path opacity=".65" d="M498.385 233.112h-4.351v4.348h4.351v-4.348z" fill="#fff"/><path d="M504.102 233.112h-4.35v4.348h4.35v-4.348zm5.842 0h-4.35v4.348h4.35v-4.348z" fill="#fff"/><path opacity=".71" d="M515.785 233.112h-4.35v4.348h4.35v-4.348z" fill="#fff"/><path opacity=".2" d="M521.627 233.112h-4.35v4.348h4.35v-4.348z" fill="#fff"/><path opacity=".19" d="M527.344 233.112h-4.35v4.348h4.35v-4.348z" fill="#fff"/><path opacity=".62" d="M533.186 233.112h-4.35v4.348h4.35v-4.348z" fill="#fff"/><path opacity=".93" d="M539.028 233.112h-4.35v4.348h4.35v-4.348z" fill="#fff"/><path opacity=".56" d="M544.745 233.112h-4.35v4.348h4.35v-4.348z" fill="#fff"/><path opacity=".57" d="M550.587 233.112h-4.35v4.348h4.35v-4.348z" fill="#fff"/><path opacity=".52" d="M556.429 233.112h-4.351v4.348h4.351v-4.348z" fill="#fff"/><path opacity=".74" d="M498.385 238.826h-4.351v4.348h4.351v-4.348z" fill="#fff"/><path opacity=".56" d="M504.102 238.826h-4.35v4.348h4.35v-4.348z" fill="#fff"/><path opacity=".78" d="M509.944 238.826h-4.35v4.348h4.35v-4.348z" fill="#fff"/><path opacity=".41" d="M515.785 238.826h-4.35v4.348h4.35v-4.348z" fill="#fff"/><path opacity=".14" d="M521.627 238.826h-4.35v4.348h4.35v-4.348z" fill="#fff"/><path opacity=".28" d="M527.344 238.826h-4.35v4.348h4.35v-4.348z" fill="#fff"/><path opacity=".36" d="M533.186 238.826h-4.35v4.348h4.35v-4.348z" fill="#fff"/><path opacity=".14" d="M539.028 238.826h-4.35v4.348h4.35v-4.348z" fill="#fff"/><path opacity=".5" d="M544.745 238.826h-4.35v4.348h4.35v-4.348z" fill="#fff"/><path opacity=".98" d="M550.587 238.826h-4.35v4.348h4.35v-4.348z" fill="#fff"/><path opacity=".59" d="M556.429 238.826h-4.351v4.348h4.351v-4.348z" fill="#fff"/><path opacity=".07" d="M498.385 244.54h-4.351v4.348h4.351v-4.348z" fill="#fff"/><path opacity=".1" d="M504.102 244.54h-4.35v4.348h4.35v-4.348z" fill="#fff"/><path opacity=".88" d="M509.944 244.54h-4.35v4.348h4.35v-4.348z" fill="#fff"/><path opacity=".68" d="M515.785 244.54h-4.35v4.348h4.35v-4.348z" fill="#fff"/><path opacity=".81" d="M521.627 244.54h-4.35v4.348h4.35v-4.348z" fill="#fff"/><path opacity=".62" d="M527.344 244.54h-4.35v4.348h4.35v-4.348z" fill="#fff"/><path opacity=".97" d="M533.186 244.54h-4.35v4.348h4.35v-4.348z" fill="#fff"/><path opacity=".81" d="M539.028 244.54h-4.35v4.348h4.35v-4.348z" fill="#fff"/><path opacity=".79" d="M544.745 244.54h-4.35v4.348h4.35v-4.348z" fill="#fff"/><path opacity=".03" d="M550.587 244.54h-4.35v4.348h4.35v-4.348z" fill="#fff"/><path opacity=".95" d="M556.429 244.54h-4.351v4.348h4.351v-4.348z" fill="#fff"/><path opacity=".62" d="M498.385 250.254h-4.351v4.348h4.351v-4.348z" fill="#fff"/><path opacity=".22" d="M504.102 250.254h-4.35v4.348h4.35v-4.348z" fill="#fff"/><path opacity=".42" d="M509.944 250.254h-4.35v4.348h4.35v-4.348z" fill="#fff"/><path opacity=".56" d="M515.785 250.254h-4.35v4.348h4.35v-4.348z" fill="#fff"/><path opacity=".03" d="M521.627 250.254h-4.35v4.348h4.35v-4.348z" fill="#fff"/><path opacity=".64" d="M527.344 250.254h-4.35v4.348h4.35v-4.348z" fill="#fff"/><path opacity=".82" d="M533.186 250.254h-4.35v4.348h4.35v-4.348z" fill="#fff"/><path opacity=".52" d="M539.028 250.254h-4.35v4.348h4.35v-4.348z" fill="#fff"/><path opacity=".46" d="M544.745 250.254h-4.35v4.348h4.35v-4.348z" fill="#fff"/><path opacity=".27" d="M550.587 250.254h-4.35v4.348h4.35v-4.348z" fill="#fff"/><path opacity=".46" d="M556.429 250.254h-4.351v4.348h4.351v-4.348z" fill="#fff"/><path opacity=".66" d="M498.385 256.093h-4.351v4.348h4.351v-4.348z" fill="#fff"/><path opacity=".7" d="M504.102 256.093h-4.35v4.348h4.35v-4.348z" fill="#fff"/><path opacity=".94" d="M509.944 256.093h-4.35v4.348h4.35v-4.348z" fill="#fff"/><path opacity=".5" d="M515.785 256.093h-4.35v4.348h4.35v-4.348z" fill="#fff"/><path opacity=".12" d="M521.627 256.093h-4.35v4.348h4.35v-4.348z" fill="#fff"/><path opacity=".36" d="M527.344 256.093h-4.35v4.348h4.35v-4.348z" fill="#fff"/><path opacity=".51" d="M533.186 256.093h-4.35v4.348h4.35v-4.348z" fill="#fff"/><path opacity=".37" d="M539.028 256.093h-4.35v4.348h4.35v-4.348z" fill="#fff"/><path opacity=".66" d="M544.745 256.093h-4.35v4.348h4.35v-4.348z" fill="#fff"/><path opacity=".42" d="M550.587 256.093h-4.35v4.348h4.35v-4.348z" fill="#fff"/><path opacity=".5" d="M556.429 256.093h-4.351v4.348h4.351v-4.348z" fill="#fff"/><path opacity=".52" d="M498.385 261.807h-4.351v4.348h4.351v-4.348z" fill="#fff"/><path opacity=".61" d="M504.102 261.807h-4.35v4.348h4.35v-4.348z" fill="#fff"/><path opacity=".84" d="M509.944 261.807h-4.35v4.348h4.35v-4.348z" fill="#fff"/><path opacity=".89" d="M515.785 261.807h-4.35v4.348h4.35v-4.348z" fill="#fff"/><path opacity=".33" d="M521.627 261.807h-4.35v4.348h4.35v-4.348z" fill="#fff"/><path opacity=".25" d="M527.344 261.807h-4.35v4.348h4.35v-4.348z" fill="#fff"/><path opacity=".95" d="M533.186 261.807h-4.35v4.348h4.35v-4.348z" fill="#fff"/><path opacity=".09" d="M539.028 261.807h-4.35v4.348h4.35v-4.348z" fill="#fff"/><path opacity=".44" d="M544.745 261.807h-4.35v4.348h4.35v-4.348z" fill="#fff"/><path opacity=".51" d="M550.587 261.807h-4.35v4.348h4.35v-4.348z" fill="#fff"/><path opacity=".97" d="M556.429 261.807h-4.351v4.348h4.351v-4.348z" fill="#fff"/><path opacity=".26" d="M498.385 267.521h-4.351v4.348h4.351v-4.348z" fill="#fff"/><path opacity=".92" d="M504.102 267.521h-4.35v4.348h4.35v-4.348z" fill="#fff"/><path opacity=".33" d="M509.944 267.521h-4.35v4.348h4.35v-4.348z" fill="#fff"/><path opacity=".23" d="M515.785 267.521h-4.35v4.348h4.35v-4.348z" fill="#fff"/><path opacity=".42" d="M521.627 267.521h-4.35v4.348h4.35v-4.348z" fill="#fff"/><path opacity=".57" d="M527.344 267.521h-4.35v4.348h4.35v-4.348z" fill="#fff"/><path opacity=".73" d="M533.186 267.521h-4.35v4.348h4.35v-4.348z" fill="#fff"/><path opacity=".87" d="M539.028 267.521h-4.35v4.348h4.35v-4.348z" fill="#fff"/><path opacity=".22" d="M544.745 267.521h-4.35v4.348h4.35v-4.348z" fill="#fff"/><path opacity=".89" d="M550.587 267.521h-4.35v4.348h4.35v-4.348z" fill="#fff"/><path opacity=".73" d="M556.429 267.521h-4.351v4.348h4.351v-4.348z" fill="#fff"/><path opacity=".35" d="M498.385 273.236h-4.351v4.347h4.351v-4.347z" fill="#fff"/><path opacity=".81" d="M504.102 273.236h-4.35v4.347h4.35v-4.347z" fill="#fff"/><path opacity=".56" d="M509.944 273.236h-4.35v4.347h4.35v-4.347z" fill="#fff"/><path opacity=".81" d="M515.785 273.236h-4.35v4.347h4.35v-4.347z" fill="#fff"/><path opacity=".87" d="M521.627 273.236h-4.35v4.347h4.35v-4.347z" fill="#fff"/><path opacity=".39" d="M527.344 273.236h-4.35v4.347h4.35v-4.347z" fill="#fff"/><path opacity=".31" d="M533.186 273.236h-4.35v4.347h4.35v-4.347z" fill="#fff"/><path opacity=".98" d="M539.028 273.236h-4.35v4.347h4.35v-4.347z" fill="#fff"/><path opacity=".17" d="M544.745 273.236h-4.35v4.347h4.35v-4.347z" fill="#fff"/><path opacity=".06" d="M550.587 273.236h-4.35v4.347h4.35v-4.347z" fill="#fff"/><path opacity=".57" d="M556.429 273.236h-4.351v4.347h4.351v-4.347z" fill="#fff"/><path opacity=".67" d="M498.385 278.95h-4.351v4.348h4.351v-4.348z" fill="#fff"/><path opacity=".83" d="M504.102 278.95h-4.35v4.348h4.35v-4.348z" fill="#fff"/><path opacity=".99" d="M509.944 278.95h-4.35v4.348h4.35v-4.348z" fill="#fff"/><path opacity=".62" d="M515.785 278.95h-4.35v4.348h4.35v-4.348z" fill="#fff"/><path opacity=".87" d="M521.627 278.95h-4.35v4.348h4.35v-4.348z" fill="#fff"/><path opacity=".14" d="M527.344 278.95h-4.35v4.348h4.35v-4.348z" fill="#fff"/><path opacity=".12" d="M533.186 278.95h-4.35v4.348h4.35v-4.348z" fill="#fff"/><path opacity=".11" d="M539.028 278.95h-4.35v4.348h4.35v-4.348z" fill="#fff"/><path opacity=".39" d="M544.745 278.95h-4.35v4.348h4.35v-4.348z" fill="#fff"/><path opacity=".58" d="M550.587 278.95h-4.35v4.348h4.35v-4.348z" fill="#fff"/><path opacity=".54" d="M556.429 278.95h-4.351v4.348h4.351v-4.348z" fill="#fff"/><path opacity=".99" d="M498.385 284.664h-4.351v4.348h4.351v-4.348z" fill="#fff"/><path opacity=".28" d="M504.102 284.664h-4.35v4.348h4.35v-4.348z" fill="#fff"/><path opacity=".78" d="M509.944 284.664h-4.35v4.348h4.35v-4.348z" fill="#fff"/><path opacity=".65" d="M515.785 284.664h-4.35v4.348h4.35v-4.348z" fill="#fff"/><path opacity=".32" d="M521.627 284.664h-4.35v4.348h4.35v-4.348z" fill="#fff"/><path opacity=".55" d="M527.344 284.664h-4.35v4.348h4.35v-4.348z" fill="#fff"/><path opacity=".4" d="M533.186 284.664h-4.35v4.348h4.35v-4.348z" fill="#fff"/><path opacity=".22" d="M539.028 284.664h-4.35v4.348h4.35v-4.348z" fill="#fff"/><path opacity=".87" d="M544.745 284.664h-4.35v4.348h4.35v-4.348z" fill="#fff"/><path opacity=".02" d="M550.587 284.664h-4.35v4.348h4.35v-4.348z" fill="#fff"/><path opacity=".39" d="M556.429 284.664h-4.351v4.348h4.351v-4.348z" fill="#fff"/><path opacity=".89" d="M498.385 290.378h-4.351v4.348h4.351v-4.348z" fill="#fff"/><path opacity=".97" d="M504.102 290.378h-4.35v4.348h4.35v-4.348z" fill="#fff"/><path opacity=".79" d="M509.944 290.378h-4.35v4.348h4.35v-4.348z" fill="#fff"/><path opacity=".41" d="M515.785 290.378h-4.35v4.348h4.35v-4.348z" fill="#fff"/><path opacity=".13" d="M521.627 290.378h-4.35v4.348h4.35v-4.348z" fill="#fff"/><path opacity=".9" d="M527.344 290.378h-4.35v4.348h4.35v-4.348z" fill="#fff"/><path opacity=".98" d="M533.186 290.378h-4.35v4.348h4.35v-4.348z" fill="#fff"/><path opacity=".67" d="M539.028 290.378h-4.35v4.348h4.35v-4.348z" fill="#fff"/><path opacity=".65" d="M544.745 290.378h-4.35v4.348h4.35v-4.348z" fill="#fff"/><path opacity=".89" d="M550.587 290.378h-4.35v4.348h4.35v-4.348z" fill="#fff"/><path opacity=".98" d="M556.429 290.378h-4.351v4.348h4.351v-4.348z" fill="#fff"/><path opacity=".29" d="M498.385 296.093h-4.351v4.347h4.351v-4.347z" fill="#fff"/><path opacity=".74" d="M504.102 296.093h-4.35v4.347h4.35v-4.347z" fill="#fff"/><path opacity=".64" d="M509.944 296.093h-4.35v4.347h4.35v-4.347z" fill="#fff"/><path opacity=".65" d="M515.785 296.093h-4.35v4.347h4.35v-4.347z" fill="#fff"/><path opacity=".07" d="M521.627 296.093h-4.35v4.347h4.35v-4.347z" fill="#fff"/><path opacity=".16" d="M527.344 296.093h-4.35v4.347h4.35v-4.347z" fill="#fff"/><path opacity=".84" d="M533.186 296.093h-4.35v4.347h4.35v-4.347z" fill="#fff"/><path opacity=".88" d="M539.028 296.093h-4.35v4.347h4.35v-4.347z" fill="#fff"/><path opacity=".57" d="M544.745 296.093h-4.35v4.347h4.35v-4.347z" fill="#fff"/><path opacity=".31" d="M550.587 296.093h-4.35v4.347h4.35v-4.347z" fill="#fff"/><path opacity=".03" d="M556.429 296.093h-4.351v4.347h4.351v-4.347z" fill="#fff"/><path opacity=".3" d="M498.385 301.807h-4.351v4.347h4.351v-4.347z" fill="#fff"/><path opacity=".59" d="M504.102 301.807h-4.35v4.347h4.35v-4.347z" fill="#fff"/><path opacity=".93" d="M509.944 301.807h-4.35v4.347h4.35v-4.347z" fill="#fff"/><path opacity=".06" d="M515.785 301.807h-4.35v4.347h4.35v-4.347z" fill="#fff"/><path opacity=".74" d="M521.627 301.807h-4.35v4.347h4.35v-4.347z" fill="#fff"/><path opacity=".22" d="M527.344 301.807h-4.35v4.347h4.35v-4.347z" fill="#fff"/><path opacity=".51" d="M533.186 301.807h-4.35v4.347h4.35v-4.347z" fill="#fff"/><path opacity=".7" d="M539.028 301.807h-4.35v4.347h4.35v-4.347z" fill="#fff"/><path opacity=".47" d="M544.745 301.807h-4.35v4.347h4.35v-4.347z" fill="#fff"/><path opacity=".08" d="M550.587 301.807h-4.35v4.347h4.35v-4.347z" fill="#fff"/><path opacity=".93" d="M556.429 301.807h-4.351v4.347h4.351v-4.347z" fill="#fff"/><path opacity=".81" d="M498.385 307.521h-4.351v4.348h4.351v-4.348z" fill="#fff"/><path opacity=".9" d="M504.102 307.521h-4.35v4.348h4.35v-4.348z" fill="#fff"/><path opacity=".55" d="M509.944 307.521h-4.35v4.348h4.35v-4.348z" fill="#fff"/><path opacity=".14" d="M515.785 307.521h-4.35v4.348h4.35v-4.348z" fill="#fff"/><path opacity=".66" d="M521.627 307.521h-4.35v4.348h4.35v-4.348z" fill="#fff"/><path opacity=".92" d="M527.344 307.521h-4.35v4.348h4.35v-4.348z" fill="#fff"/><path opacity=".4" d="M533.186 307.521h-4.35v4.348h4.35v-4.348z" fill="#fff"/><path opacity=".6" d="M539.028 307.521h-4.35v4.348h4.35v-4.348z" fill="#fff"/><path opacity=".99" d="M544.745 307.521h-4.35v4.348h4.35v-4.348z" fill="#fff"/><path opacity=".68" d="M550.587 307.521h-4.35v4.348h4.35v-4.348z" fill="#fff"/><path opacity=".01" d="M556.429 307.521h-4.351v4.348h4.351v-4.348z" fill="#fff"/><path d="M424.928 193.733h-41.016v128.446h41.016V193.733z" fill="#333"/><path d="M402.556 187.273h-18.644v7.205h18.644v-7.205z" fill="#333"/><path d="M394.726 183.05h-10.814v4.224h10.814v-4.224z" fill="#333"/><path opacity=".25" d="M407.652 202.801h-6.712v6.708h6.712v-6.708z" fill="#fff"/><path opacity=".15" d="M407.652 219.323h-6.712v6.708h6.712v-6.708z" fill="#fff"/><path opacity=".19" d="M407.652 252.242h-6.712v6.708h6.712v-6.708z" fill="#fff"/><path opacity=".17" d="M407.652 268.639h-6.712v6.708h6.712v-6.708z" fill="#fff"/><path opacity=".22" d="M407.652 285.036h-6.712v6.708h6.712v-6.708z" fill="#fff"/><path d="M407.652 301.558h-6.712v6.708h6.712v-6.708z" fill="#fff"/><path d="M394.477 265.285h-38.406v11.305h38.406v-11.305z" fill="#333"/><path d="M413.618 265.285h-19.141v11.305h19.141v-11.305z" fill="#4D4D4D"/><path d="M356.071 265.285l11.932-5.714 26.474 5.714h-38.406z" fill="#333"/><path d="M368.003 259.571l26.474 5.714h19.141l-45.615-5.714z" fill="#4D4D4D"/><path d="M403.426 273.235h-56.18v51.428h56.18v-51.428z" fill="#333"/><path d="M422.07 273.235h-18.644v51.428h18.644v-51.428z" fill="#4D4D4D"/><path opacity=".81" d="M417.72 276.838h-10.068v3.727h10.068v-3.727z" fill="#fff"/><path opacity=".76" d="M417.72 283.67h-10.068v3.727h10.068v-3.727z" fill="#fff"/><path opacity=".32" d="M417.72 290.502h-10.068v3.727h10.068v-3.727z" fill="#fff"/><path opacity=".49" d="M417.72 297.459h-10.068v3.726h10.068v-3.726z" fill="#fff"/><path opacity=".1" d="M366.263 276.838h-10.068v3.727h10.068v-3.727z" fill="#fff"/><path opacity=".04" d="M380.308 276.838H370.24v3.727h10.068v-3.727z" fill="#fff"/><path opacity=".07" d="M394.477 276.838H384.41v3.727h10.067v-3.727z" fill="#fff"/><path opacity=".06" d="M366.263 283.67h-10.068v3.727h10.068v-3.727z" fill="#fff"/><path opacity=".44" d="M380.308 283.67H370.24v3.727h10.068v-3.727z" fill="#fff"/><path opacity=".24" d="M394.477 283.67H384.41v3.727h10.067v-3.727z" fill="#fff"/><path opacity=".55" d="M366.263 290.502h-10.068v3.727h10.068v-3.727z" fill="#fff"/><path opacity=".02" d="M380.308 290.502H370.24v3.727h10.068v-3.727z" fill="#fff"/><path opacity=".14" d="M394.477 290.502H384.41v3.727h10.067v-3.727z" fill="#fff"/><path opacity=".43" d="M366.263 297.459h-10.068v3.726h10.068v-3.726z" fill="#fff"/><path opacity=".41" d="M380.308 297.459H370.24v3.726h10.068v-3.726z" fill="#fff"/><path opacity=".46" d="M394.477 297.459H384.41v3.726h10.067v-3.726z" fill="#fff"/><path opacity=".45" d="M366.263 304.291h-10.068v3.727h10.068v-3.727z" fill="#fff"/><path opacity=".33" d="M380.308 304.291H370.24v3.727h10.068v-3.727z" fill="#fff"/><path opacity=".05" d="M394.477 304.291H384.41v3.727h10.067v-3.727z" fill="#fff"/><path d="M130.11 221.807H95.308v107.204h34.802V221.807z" fill="#333"/><path d="M169.759 221.807h-39.525v107.204h39.525V221.807zm-39.649 9.069H95.308v1.863h34.802v-1.863z" fill="#4D4D4D"/><path d="M169.759 230.876h-39.525v1.863h39.525v-1.863z" fill="#333"/><path opacity=".47" d="M101.896 234.851h-3.729v3.726h3.729v-3.726z" fill="#fff"/><path opacity=".26" d="M106.992 234.851h-3.729v3.726h3.729v-3.726z" fill="#fff"/><path opacity=".32" d="M112.088 234.851h-3.729v3.726h3.729v-3.726z" fill="#fff"/><path opacity=".25" d="M117.184 234.851h-3.729v3.726h3.729v-3.726z" fill="#fff"/><path opacity=".12" d="M127.375 234.851h-3.728v3.726h3.728v-3.726z" fill="#fff"/><path opacity=".32" d="M101.896 239.944h-3.729v3.727h3.729v-3.727z" fill="#fff"/><path opacity=".22" d="M112.088 239.944h-3.729v3.727h3.729v-3.727z" fill="#fff"/><path opacity=".47" d="M117.184 239.944h-3.729v3.727h3.729v-3.727z" fill="#fff"/><path opacity=".22" d="M122.28 239.944h-3.729v3.727h3.729v-3.727z" fill="#fff"/><path opacity=".32" d="M127.375 239.944h-3.728v3.727h3.728v-3.727z" fill="#fff"/><path opacity=".37" d="M101.896 245.037h-3.729v3.727h3.729v-3.727z" fill="#fff"/><path opacity=".34" d="M106.992 245.037h-3.729v3.727h3.729v-3.727z" fill="#fff"/><path opacity=".18" d="M112.088 245.037h-3.729v3.727h3.729v-3.727z" fill="#fff"/><path opacity=".28" d="M117.184 245.037h-3.729v3.727h3.729v-3.727z" fill="#fff"/><path opacity=".2" d="M127.375 245.037h-3.728v3.727h3.728v-3.727z" fill="#fff"/><path opacity=".18" d="M101.896 250.13h-3.729v3.727h3.729v-3.727z" fill="#fff"/><path opacity=".33" d="M112.088 250.13h-3.729v3.727h3.729v-3.727z" fill="#fff"/><path opacity=".05" d="M117.184 250.13h-3.729v3.727h3.729v-3.727z" fill="#fff"/><path opacity=".08" d="M122.28 250.13h-3.729v3.727h3.729v-3.727zm-5.096 5.093h-3.729v3.727h3.729v-3.727z" fill="#fff"/><path opacity=".02" d="M122.28 255.223h-3.729v3.727h3.729v-3.727z" fill="#fff"/><path opacity=".03" d="M101.896 260.316h-3.729v3.727h3.729v-3.727z" fill="#fff"/><path opacity=".46" d="M106.992 260.316h-3.729v3.727h3.729v-3.727z" fill="#fff"/><path opacity=".05" d="M112.088 260.316h-3.729v3.727h3.729v-3.727z" fill="#fff"/><path opacity=".2" d="M117.184 260.316h-3.729v3.727h3.729v-3.727z" fill="#fff"/><path opacity=".23" d="M122.28 260.316h-3.729v3.727h3.729v-3.727z" fill="#fff"/><path opacity=".17" d="M101.896 265.409h-3.729v3.727h3.729v-3.727z" fill="#fff"/><path opacity=".08" d="M106.992 265.409h-3.729v3.727h3.729v-3.727z" fill="#fff"/><path opacity=".14" d="M112.088 265.409h-3.729v3.727h3.729v-3.727z" fill="#fff"/><path opacity=".24" d="M122.28 265.409h-3.729v3.727h3.729v-3.727z" fill="#fff"/><path opacity=".28" d="M101.896 270.502h-3.729v3.727h3.729v-3.727z" fill="#fff"/><path opacity=".3" d="M106.992 270.502h-3.729v3.727h3.729v-3.727z" fill="#fff"/><path opacity=".23" d="M112.088 270.502h-3.729v3.727h3.729v-3.727z" fill="#fff"/><path opacity=".02" d="M117.184 270.502h-3.729v3.727h3.729v-3.727z" fill="#fff"/><path opacity=".04" d="M122.28 270.502h-3.729v3.727h3.729v-3.727z" fill="#fff"/><path opacity=".3" d="M127.375 270.502h-3.728v3.727h3.728v-3.727z" fill="#fff"/><path opacity=".08" d="M106.992 275.471h-3.729v3.727h3.729v-3.727z" fill="#fff"/><path opacity=".4" d="M127.375 275.471h-3.728v3.727h3.728v-3.727z" fill="#fff"/><path opacity=".31" d="M101.896 280.564h-3.729v3.727h3.729v-3.727zm5.096 0h-3.729v3.727h3.729v-3.727z" fill="#fff"/><path opacity=".12" d="M112.088 280.564h-3.729v3.727h3.729v-3.727z" fill="#fff"/><path opacity=".19" d="M122.28 280.564h-3.729v3.727h3.729v-3.727z" fill="#fff"/><path opacity=".43" d="M127.375 280.564h-3.728v3.727h3.728v-3.727z" fill="#fff"/><path opacity=".12" d="M101.896 285.658h-3.729v3.727h3.729v-3.727z" fill="#fff"/><path opacity=".42" d="M117.184 285.658h-3.729v3.727h3.729v-3.727z" fill="#fff"/><path opacity=".31" d="M127.375 285.658h-3.728v3.727h3.728v-3.727z" fill="#fff"/><path opacity=".23" d="M101.896 290.751h-3.729v3.726h3.729v-3.726z" fill="#fff"/><path opacity=".31" d="M117.184 290.751h-3.729v3.726h3.729v-3.726z" fill="#fff"/><path opacity=".33" d="M127.375 290.751h-3.728v3.726h3.728v-3.726z" fill="#fff"/><path opacity=".49" d="M101.896 295.844h-3.729v3.727h3.729v-3.727z" fill="#fff"/><path opacity=".06" d="M106.992 295.844h-3.729v3.727h3.729v-3.727z" fill="#fff"/><path opacity=".17" d="M117.184 295.844h-3.729v3.727h3.729v-3.727z" fill="#fff"/><path opacity=".01" d="M122.28 295.844h-3.729v3.727h3.729v-3.727z" fill="#fff"/><path opacity=".48" d="M127.375 295.844h-3.728v3.727h3.728v-3.727z" fill="#fff"/><path opacity=".05" d="M101.896 300.937h-3.729v3.727h3.729v-3.727z" fill="#fff"/><path opacity=".23" d="M106.992 300.937h-3.729v3.727h3.729v-3.727z" fill="#fff"/><path opacity=".28" d="M112.088 300.937h-3.729v3.727h3.729v-3.727z" fill="#fff"/><path opacity=".02" d="M117.184 300.937h-3.729v3.727h3.729v-3.727z" fill="#fff"/><path opacity=".17" d="M122.28 300.937h-3.729v3.727h3.729v-3.727z" fill="#fff"/><path opacity=".42" d="M127.375 300.937h-3.728v3.727h3.728v-3.727z" fill="#fff"/><path opacity=".13" d="M101.896 306.03h-3.729v3.727h3.729v-3.727z" fill="#fff"/><path opacity=".11" d="M112.088 306.03h-3.729v3.727h3.729v-3.727z" fill="#fff"/><path opacity=".02" d="M117.184 306.03h-3.729v3.727h3.729v-3.727z" fill="#fff"/><path opacity=".3" d="M127.375 306.03h-3.728v3.727h3.728v-3.727z" fill="#fff"/><path opacity=".08" d="M122.28 234.851h-3.729v3.726h3.729v-3.726z" fill="#fff"/><path opacity=".1" d="M106.992 239.944h-3.729v3.727h3.729v-3.727z" fill="#fff"/><path opacity=".08" d="M122.28 245.037h-3.729v3.727h3.729v-3.727z" fill="#fff"/><path opacity=".1" d="M106.992 250.13h-3.729v3.727h3.729v-3.727z" fill="#fff"/><path opacity=".01" d="M127.375 250.13h-3.728v3.727h3.728v-3.727z" fill="#fff"/><path opacity=".17" d="M101.896 255.223h-3.729v3.727h3.729v-3.727z" fill="#fff"/><path opacity=".01" d="M106.992 255.223h-3.729v3.727h3.729v-3.727z" fill="#fff"/><path opacity=".15" d="M112.088 255.223h-3.729v3.727h3.729v-3.727z" fill="#fff"/><path opacity=".12" d="M127.375 255.223h-3.728v3.727h3.728v-3.727z" fill="#fff"/><path opacity=".13" d="M117.184 265.409h-3.729v3.727h3.729v-3.727z" fill="#fff"/><path opacity=".07" d="M127.375 265.409h-3.728v3.727h3.728v-3.727z" fill="#fff"/><path opacity=".13" d="M101.896 275.471h-3.729v3.727h3.729v-3.727z" fill="#fff"/><path opacity=".02" d="M112.088 275.471h-3.729v3.727h3.729v-3.727zm5.096 0h-3.729v3.727h3.729v-3.727z" fill="#fff"/><path opacity=".14" d="M122.28 275.471h-3.729v3.727h3.729v-3.727z" fill="#fff"/><path opacity=".09" d="M112.088 285.658h-3.729v3.727h3.729v-3.727z" fill="#fff"/><path opacity=".02" d="M122.28 285.658h-3.729v3.727h3.729v-3.727z" fill="#fff"/><path opacity=".19" d="M112.088 290.751h-3.729v3.726h3.729v-3.726z" fill="#fff"/><path opacity=".06" d="M122.28 290.751h-3.729v3.726h3.729v-3.726z" fill="#fff"/><path opacity=".16" d="M112.088 295.844h-3.729v3.727h3.729v-3.727z" fill="#fff"/><path opacity=".19" d="M106.992 306.03h-3.729v3.727h3.729v-3.727z" fill="#fff"/><path opacity=".04" d="M122.28 306.03h-3.729v3.727h3.729v-3.727z" fill="#fff"/><path opacity=".7" d="M137.692 232.739h-3.853v91.552h3.853v-91.552zm6.587 0h-3.853v91.552h3.853v-91.552zm6.712 0h-3.853v91.552h3.853v-91.552zm6.711 0h-3.853v91.552h3.853v-91.552zm6.712 0h-3.853v91.552h3.853v-91.552z" fill="#E6E6E6"/><path d="M52.552 169.261l-7.706-20.372 20.632 20.372H52.552z" fill="#4D4D4D"/><path d="M34.53 169.261l10.316-20.372 7.706 20.372H34.53z" fill="#333"/><path d="M52.552 169.261H34.53V191h18.022v-21.739z" fill="#333"/><path d="M65.478 169.261H52.552V191h12.926v-21.739z" fill="#4D4D4D"/><path d="M70.823 267.024H16.259v62.484h54.564v-62.484zm-7.458-44.72H23.841v44.72h39.524v-44.72zm-5.717-44.72h-28.09v44.72h28.09v-44.72z" fill="#333"/><path d="M76.913 177.584h-19.39v44.72h19.39v-44.72zm27.468 89.44H70.823v62.484h33.558v-62.484zm-15.536-44.72h-25.48v44.72h25.48v-44.72z" fill="#4D4D4D"/><path opacity=".53" d="M70.201 180.814H64.36v5.838h5.84v-5.838z" fill="#fff"/><path opacity=".34" d="M70.201 188.143H64.36v5.838h5.84v-5.838z" fill="#fff"/><path opacity=".9" d="M70.201 195.348H64.36v5.838h5.84v-5.838z" fill="#fff"/><path opacity=".14" d="M70.201 202.553H64.36v5.838h5.84v-5.838z" fill="#fff"/><path d="M70.201 209.882H64.36v5.838h5.84v-5.838z" fill="#fff"/><path opacity=".29" d="M74.552 226.155H68.71v5.838h5.842v-5.838z" fill="#fff"/><path opacity=".81" d="M83.5 226.155h-5.84v5.838h5.84v-5.838z" fill="#fff"/><path opacity=".18" d="M74.552 233.484H68.71v5.839h5.842v-5.839z" fill="#fff"/><path opacity=".41" d="M83.5 233.484h-5.84v5.839h5.84v-5.839z" fill="#fff"/><path opacity=".03" d="M83.5 240.938h-5.84v5.838h5.84v-5.838z" fill="#fff"/><path opacity=".85" d="M74.552 248.391H68.71v5.838h5.842v-5.838z" fill="#fff"/><path opacity=".06" d="M83.5 248.391h-5.84v5.838h5.84v-5.838z" fill="#fff"/><path opacity=".94" d="M74.552 255.72H68.71v5.838h5.842v-5.838z" fill="#fff"/><path opacity=".25" d="M83.5 255.72h-5.84v5.838h5.84v-5.838z" fill="#fff"/><path opacity=".6" d="M82.755 270.875h-5.842v5.838h5.842v-5.838z" fill="#fff"/><path opacity=".83" d="M90.585 270.875h-5.841v5.838h5.841v-5.838z" fill="#fff"/><path opacity=".74" d="M98.415 270.875h-5.841v5.838h5.841v-5.838z" fill="#fff"/><path opacity=".35" d="M90.585 277.956h-5.841v5.838h5.841v-5.838z" fill="#fff"/><path opacity=".54" d="M98.415 277.956h-5.841v5.838h5.841v-5.838z" fill="#fff"/><path opacity=".2" d="M82.755 285.036h-5.842v5.839h5.842v-5.839z" fill="#fff"/><path opacity=".04" d="M90.585 285.036h-5.841v5.839h5.841v-5.839z" fill="#fff"/><path opacity=".86" d="M98.415 285.036h-5.841v5.839h5.841v-5.839z" fill="#fff"/><path opacity=".06" d="M82.755 292.117h-5.842v5.839h5.842v-5.839z" fill="#fff"/><path opacity=".01" d="M90.585 292.117h-5.841v5.839h5.841v-5.839z" fill="#fff"/><path opacity=".39" d="M98.415 292.117h-5.841v5.839h5.841v-5.839z" fill="#fff"/><path opacity=".1" d="M82.755 299.322h-5.842v5.838h5.842v-5.838z" fill="#fff"/><path d="M90.585 299.322h-5.841v5.838h5.841v-5.838z" fill="#fff"/><path opacity=".62" d="M98.415 299.322h-5.841v5.838h5.841v-5.838z" fill="#fff"/><path opacity=".48" d="M82.755 306.651h-5.842v5.839h5.842v-5.839z" fill="#fff"/><path opacity=".27" d="M90.585 306.651h-5.841v5.839h5.841v-5.839z" fill="#fff"/><path opacity=".42" d="M98.415 306.651h-5.841v5.839h5.841v-5.839z" fill="#fff"/><path opacity=".27" d="M27.942 270.875h-5.841v5.838h5.841v-5.838z" fill="#fff"/><path opacity=".11" d="M34.53 226.155h-5.842v5.838h5.842v-5.838z" fill="#fff"/><path opacity=".41" d="M39.129 180.814h-5.842v5.838h5.842v-5.838z" fill="#fff"/><path opacity=".38" d="M46.462 180.814H40.62v5.838h5.842v-5.838z" fill="#fff"/><path opacity=".02" d="M53.92 180.814h-5.842v5.838h5.841v-5.838z" fill="#fff"/><path opacity=".46" d="M39.129 188.143h-5.842v5.838h5.842v-5.838z" fill="#fff"/><path opacity=".31" d="M46.462 188.143H40.62v5.838h5.842v-5.838z" fill="#fff"/><path opacity=".61" d="M53.92 188.143h-5.842v5.838h5.841v-5.838z" fill="#fff"/><path opacity=".03" d="M39.129 195.348h-5.842v5.838h5.842v-5.838zm7.333 0H40.62v5.838h5.842v-5.838z" fill="#fff"/><path opacity=".46" d="M53.92 195.348h-5.842v5.838h5.841v-5.838z" fill="#fff"/><path opacity=".32" d="M39.129 202.553h-5.842v5.838h5.842v-5.838z" fill="#fff"/><path opacity=".14" d="M46.462 202.553H40.62v5.838h5.842v-5.838z" fill="#fff"/><path opacity=".3" d="M53.92 202.553h-5.842v5.838h5.841v-5.838z" fill="#fff"/><path opacity=".04" d="M39.129 209.882h-5.842v5.838h5.842v-5.838z" fill="#fff"/><path opacity=".64" d="M46.462 209.882H40.62v5.838h5.842v-5.838z" fill="#fff"/><path opacity=".05" d="M53.92 209.882h-5.842v5.838h5.841v-5.838z" fill="#fff"/><path opacity=".15" d="M41.987 226.155h-5.841v5.838h5.841v-5.838zm7.458 0h-5.842v5.838h5.842v-5.838z" fill="#fff"/><path opacity=".52" d="M56.778 226.155h-5.842v5.838h5.842v-5.838z" fill="#fff"/><path opacity=".58" d="M34.53 233.484h-5.842v5.839h5.842v-5.839z" fill="#fff"/><path opacity=".62" d="M41.987 233.484h-5.841v5.839h5.841v-5.839z" fill="#fff"/><path opacity=".04" d="M49.445 233.484h-5.842v5.839h5.842v-5.839z" fill="#fff"/><path opacity=".06" d="M56.778 233.484h-5.842v5.839h5.842v-5.839z" fill="#fff"/><path opacity=".3" d="M34.53 240.938h-5.842v5.838h5.842v-5.838z" fill="#fff"/><path opacity=".01" d="M41.987 240.938h-5.841v5.838h5.841v-5.838z" fill="#fff"/><path opacity=".37" d="M49.445 240.938h-5.842v5.838h5.842v-5.838z" fill="#fff"/><path opacity=".62" d="M56.778 240.938h-5.842v5.838h5.842v-5.838z" fill="#fff"/><path opacity=".54" d="M34.53 248.391h-5.842v5.838h5.842v-5.838z" fill="#fff"/><path opacity=".21" d="M41.987 248.391h-5.841v5.838h5.841v-5.838z" fill="#fff"/><path opacity=".41" d="M49.445 248.391h-5.842v5.838h5.842v-5.838z" fill="#fff"/><path opacity=".1" d="M56.778 248.391h-5.842v5.838h5.842v-5.838z" fill="#fff"/><path opacity=".17" d="M34.53 255.72h-5.842v5.838h5.842v-5.838zm7.457 0h-5.841v5.838h5.841v-5.838z" fill="#fff"/><path opacity=".13" d="M49.445 255.72h-5.842v5.838h5.842v-5.838z" fill="#fff"/><path opacity=".5" d="M56.778 255.72h-5.842v5.838h5.842v-5.838z" fill="#fff"/><path opacity=".06" d="M35.4 270.875h-5.842v5.838H35.4v-5.838z" fill="#fff"/><path opacity=".27" d="M42.733 270.875h-5.842v5.838h5.842v-5.838z" fill="#fff"/><path opacity=".51" d="M50.19 270.875h-5.84v5.838h5.842v-5.838z" fill="#fff"/><path opacity=".42" d="M57.648 270.875h-5.842v5.838h5.842v-5.838z" fill="#fff"/><path opacity=".64" d="M64.981 270.875H59.14v5.838h5.841v-5.838z" fill="#fff"/><path opacity=".29" d="M27.942 277.956h-5.841v5.838h5.841v-5.838z" fill="#fff"/><path opacity=".6" d="M35.4 277.956h-5.842v5.838H35.4v-5.838z" fill="#fff"/><path opacity=".2" d="M42.733 277.956h-5.842v5.838h5.842v-5.838z" fill="#fff"/><path opacity=".24" d="M50.19 277.956h-5.84v5.838h5.842v-5.838z" fill="#fff"/><path opacity=".62" d="M57.648 277.956h-5.842v5.838h5.842v-5.838zm7.333 0H59.14v5.838h5.841v-5.838z" fill="#fff"/><path opacity=".25" d="M27.942 285.036h-5.841v5.839h5.841v-5.839z" fill="#fff"/><path opacity=".36" d="M35.4 285.036h-5.842v5.839H35.4v-5.839z" fill="#fff"/><path opacity=".16" d="M42.733 285.036h-5.842v5.839h5.842v-5.839z" fill="#fff"/><path opacity=".1" d="M50.19 285.036h-5.84v5.839h5.842v-5.839z" fill="#fff"/><path opacity=".04" d="M57.648 285.036h-5.842v5.839h5.842v-5.839z" fill="#fff"/><path opacity=".44" d="M64.981 285.036H59.14v5.839h5.841v-5.839z" fill="#fff"/><path opacity=".68" d="M27.942 292.117h-5.841v5.839h5.841v-5.839z" fill="#fff"/><path opacity=".01" d="M35.4 292.117h-5.842v5.839H35.4v-5.839z" fill="#fff"/><path opacity=".29" d="M42.733 292.117h-5.842v5.839h5.842v-5.839z" fill="#fff"/><path opacity=".66" d="M50.19 292.117h-5.84v5.839h5.842v-5.839z" fill="#fff"/><path opacity=".12" d="M57.648 292.117h-5.842v5.839h5.842v-5.839z" fill="#fff"/><path opacity=".34" d="M64.981 292.117H59.14v5.839h5.841v-5.839z" fill="#fff"/><path opacity=".36" d="M27.942 299.322h-5.841v5.838h5.841v-5.838z" fill="#fff"/><path opacity=".5" d="M35.4 299.322h-5.842v5.838H35.4v-5.838z" fill="#fff"/><path opacity=".07" d="M42.733 299.322h-5.842v5.838h5.842v-5.838z" fill="#fff"/><path opacity=".64" d="M50.19 299.322h-5.84v5.838h5.842v-5.838z" fill="#fff"/><path opacity=".4" d="M57.648 299.322h-5.842v5.838h5.842v-5.838z" fill="#fff"/><path opacity=".27" d="M64.981 299.322H59.14v5.838h5.841v-5.838z" fill="#fff"/><path opacity=".09" d="M27.942 306.651h-5.841v5.839h5.841v-5.839z" fill="#fff"/><path opacity=".47" d="M35.4 306.651h-5.842v5.839H35.4v-5.839z" fill="#fff"/><path opacity=".57" d="M42.733 306.651h-5.842v5.839h5.842v-5.839z" fill="#fff"/><path opacity=".12" d="M50.19 306.651h-5.84v5.839h5.842v-5.839z" fill="#fff"/><path opacity=".23" d="M57.648 306.651h-5.842v5.839h5.842v-5.839z" fill="#fff"/><path opacity=".36" d="M64.981 306.651H59.14v5.839h5.841v-5.839z" fill="#fff"/><path d="M189.645 324.291h-77.309l77.309-67.329v67.329zM23.84 325.657H-83.297L23.84 232.49v93.167z" fill="#333"/><path d="M181.069 308.887h-22.621v6.957h22.621v-6.957z" fill="#4D4D4D"/><path d="M178.459 310.999h-17.525l6.09-10.186h5.345l6.09 10.186z" fill="#4D4D4D"/><path d="M84.37 318.701c0 4.844-3.852 8.819-8.575 8.819-4.724 0-8.577-3.975-8.577-8.819 0-4.845 3.853-8.82 8.577-8.82 4.723-.124 8.576 3.851 8.576 8.82zm230.809-3.851c0 3.23-2.61 5.963-5.717 5.963-3.107 0-5.717-2.609-5.717-5.963 0-3.23 2.61-5.963 5.717-5.963 3.107 0 5.717 2.733 5.717 5.963zm-200.233.372c0 3.354-2.61 6.087-5.966 6.087-3.231 0-5.966-2.733-5.966-6.087 0-3.354 2.61-6.087 5.966-6.087 3.356 0 5.966 2.733 5.966 6.087z" fill="#333"/></svg>