<svg width="637" height="311" viewBox="0 0 637 311" fill="none" xmlns="http://www.w3.org/2000/svg">
<path d="M111.093 107.647H70.0771V303.67H111.093V107.647Z" fill="#333333"/>
<path d="M99.7827 97.7095H81.139V108.765H99.7827V97.7095Z" fill="#333333"/>
<path d="M95.9297 91.2498H85.1164V97.5851H95.9297V91.2498Z" fill="#333333"/>
<path d="M89.8394 107.274L90.5852 0.443359L91.2067 107.274H89.8394Z" fill="#333333"/>
<path opacity="0.09" d="M92.6981 122.43H88.348V126.777H92.6981V122.43Z" fill="white"/>
<path opacity="0.33" d="M92.6981 136.218H88.348V140.566H92.6981V136.218Z" fill="white"/>
<path opacity="0.37" d="M92.6981 150.131H88.348V154.479H92.6981V150.131Z" fill="white"/>
<path opacity="0.14" d="M92.6981 163.92H88.348V168.268H92.6981V163.92Z" fill="white"/>
<path opacity="0.3" d="M92.6981 177.833H88.348V182.181H92.6981V177.833Z" fill="white"/>
<path opacity="0.16" d="M92.6981 191.621H88.348V195.969H92.6981V191.621Z" fill="white"/>
<path opacity="0.34" d="M92.6981 205.534H88.348V209.882H92.6981V205.534Z" fill="white"/>
<path opacity="0.29" d="M92.6981 219.323H88.348V223.671H92.6981V219.323Z" fill="white"/>
<path opacity="0.12" d="M92.6981 233.236H88.348V237.584H92.6981V233.236Z" fill="white"/>
<path d="M36.1456 151.995H-92.3715V323.049H36.1456V151.995Z" fill="#4D4D4D"/>
<path d="M2.46272 159.075H-4.37329V165.907H2.46272V159.075Z" fill="white"/>
<path d="M11.536 159.075H4.69995V165.907H11.536V159.075Z" fill="white"/>
<path d="M2.46272 168.019H-4.37329V174.852H2.46272V168.019Z" fill="white"/>
<path d="M11.536 168.019H4.69995V174.852H11.536V168.019Z" fill="white"/>
<path d="M2.46272 176.963H-4.37329V183.796H2.46272V176.963Z" fill="white"/>
<path d="M11.536 176.963H4.69995V183.796H11.536V176.963Z" fill="white"/>
<path d="M2.46272 185.783H-4.37329V192.615H2.46272V185.783Z" fill="white"/>
<path d="M11.536 185.783H4.69995V192.615H11.536V185.783Z" fill="white"/>
<path d="M2.46272 194.727H-4.37329V201.559H2.46272V194.727Z" fill="white"/>
<path d="M11.536 194.727H4.69995V201.559H11.536V194.727Z" fill="white"/>
<path d="M2.46272 203.671H-4.37329V210.503H2.46272V203.671Z" fill="white"/>
<path d="M11.536 203.671H4.69995V210.503H11.536V203.671Z" fill="white"/>
<path d="M2.46272 212.615H-4.37329V219.447H2.46272V212.615Z" fill="white"/>
<path d="M11.536 212.615H4.69995V219.447H11.536V212.615Z" fill="white"/>
<path d="M2.46272 221.559H-4.37329V228.391H2.46272V221.559Z" fill="white"/>
<path d="M11.536 221.559H4.69995V228.391H11.536V221.559Z" fill="white"/>
<path d="M2.46272 230.379H-4.37329V237.211H2.46272V230.379Z" fill="white"/>
<path d="M11.536 230.379H4.69995V237.211H11.536V230.379Z" fill="white"/>
<path d="M2.46272 239.323H-4.37329V246.155H2.46272V239.323Z" fill="white"/>
<path d="M11.536 239.323H4.69995V246.155H11.536V239.323Z" fill="white"/>
<path d="M2.46272 248.267H-4.37329V255.099H2.46272V248.267Z" fill="white"/>
<path d="M11.536 248.267H4.69995V255.099H11.536V248.267Z" fill="white"/>
<path d="M2.46272 257.211H-4.37329V264.043H2.46272V257.211Z" fill="white"/>
<path d="M11.536 257.211H4.69995V264.043H11.536V257.211Z" fill="white"/>
<path d="M2.46272 266.155H-4.37329V272.987H2.46272V266.155Z" fill="white"/>
<path d="M11.536 266.155H4.69995V272.987H11.536V266.155Z" fill="white"/>
<path d="M2.46272 274.975H-4.37329V281.807H2.46272V274.975Z" fill="white"/>
<path d="M11.536 274.975H4.69995V281.807H11.536V274.975Z" fill="white"/>
<path d="M20.6093 274.975H13.7733V281.807H20.6093V274.975Z" fill="white"/>
<path d="M2.46272 283.919H-4.37329V290.751H2.46272V283.919Z" fill="white"/>
<path d="M11.536 283.919H4.69995V290.751H11.536V283.919Z" fill="white"/>
<path d="M20.6093 283.919H13.7733V290.751H20.6093V283.919Z" fill="white"/>
<path d="M2.46272 292.863H-4.37329V299.695H2.46272V292.863Z" fill="white"/>
<path d="M11.536 292.863H4.69995V299.695H11.536V292.863Z" fill="white"/>
<path d="M20.6093 292.863H13.7733V299.695H20.6093V292.863Z" fill="white"/>
<path d="M2.46272 301.807H-4.37329V308.639H2.46272V301.807Z" fill="white"/>
<path d="M11.536 301.807H4.69995V308.639H11.536V301.807Z" fill="white"/>
<path d="M20.6093 301.807H13.7733V308.639H20.6093V301.807Z" fill="white"/>
<path d="M2.46272 310.75H-4.37329V317.583H2.46272V310.75Z" fill="white"/>
<path d="M11.536 310.75H4.69995V317.583H11.536V310.75Z" fill="white"/>
<path d="M20.6093 310.75H13.7733V317.583H20.6093V310.75Z" fill="white"/>
<path d="M17.1291 134.604H-73.3549V151.995H17.1291V134.604Z" fill="#4D4D4D"/>
<path opacity="0.19" d="M20.6093 159.075H13.7733V165.907H20.6093V159.075Z" fill="white"/>
<path opacity="0.24" d="M20.6093 168.019H13.7733V174.851H20.6093V168.019Z" fill="white"/>
<path opacity="0.29" d="M20.6093 176.963H13.7733V183.795H20.6093V176.963Z" fill="white"/>
<path opacity="0.39" d="M20.6093 185.783H13.7733V192.615H20.6093V185.783Z" fill="white"/>
<path opacity="0.21" d="M20.6093 194.727H13.7733V201.559H20.6093V194.727Z" fill="white"/>
<path opacity="0.48" d="M20.6093 203.671H13.7733V210.503H20.6093V203.671Z" fill="white"/>
<path opacity="0.32" d="M20.6093 212.615H13.7733V219.447H20.6093V212.615Z" fill="white"/>
<path opacity="0.13" d="M20.6093 221.559H13.7733V228.391H20.6093V221.559Z" fill="white"/>
<path opacity="0.19" d="M20.6093 230.379H13.7733V237.211H20.6093V230.379Z" fill="white"/>
<path opacity="0.03" d="M20.6093 239.323H13.7733V246.155H20.6093V239.323Z" fill="white"/>
<path opacity="0.36" d="M20.6093 248.267H13.7733V255.099H20.6093V248.267Z" fill="white"/>
<path opacity="0.25" d="M20.6093 257.211H13.7733V264.043H20.6093V257.211Z" fill="white"/>
<path d="M20.6093 266.155H13.7733V272.987H20.6093V266.155Z" fill="white"/>
<path d="M296.66 229.633H255.644V325.657H296.66V229.633Z" fill="#333333"/>
<path d="M274.288 224.789H255.644V230.254H274.288V224.789Z" fill="#333333"/>
<path d="M266.457 221.683H255.644V224.789H266.457V221.683Z" fill="#333333"/>
<path opacity="0.06" d="M279.508 236.341H272.796V241.31H279.508V236.341Z" fill="white"/>
<path opacity="0.12" d="M279.508 248.639H272.796V253.608H279.508V248.639Z" fill="white"/>
<path opacity="0.19" d="M279.508 273.235H272.796V278.204H279.508V273.235Z" fill="white"/>
<path opacity="0.14" d="M279.508 297.831H272.796V302.8H279.508V297.831Z" fill="white"/>
<path opacity="0.1" d="M279.508 310.129H272.796V315.098H279.508V310.129Z" fill="white"/>
<path d="M193.747 240.068H137.567V291.496H193.747V240.068Z" fill="#333333"/>
<path d="M184.922 235.472H146.516V257.583H184.922V235.472Z" fill="#333333"/>
<path d="M197.848 272.49H141.669V323.918H197.848V272.49Z" fill="#333333"/>
<path d="M188.9 267.894H150.494V290.005H188.9V267.894Z" fill="#333333"/>
<path d="M272.672 265.658H216.492V324.912H272.672V265.658Z" fill="#333333"/>
<path d="M263.847 260.44H225.441V286.03H263.847V260.44Z" fill="#333333"/>
<path d="M460.724 283.67H404.545V340.937H460.724V283.67Z" fill="#333333"/>
<path d="M451.9 278.577H413.494V303.297H451.9V278.577Z" fill="#333333"/>
<path d="M338.919 165.41H276.152V324.788H338.919V165.41Z" fill="#333333"/>
<path opacity="0.46" d="M294.423 172.615H279.259V175.473H294.423V172.615Z" fill="#E6E6E6"/>
<path opacity="0.34" d="M315.179 172.615H300.016V175.473H315.179V172.615Z" fill="#E6E6E6"/>
<path opacity="0.52" d="M335.812 172.615H320.648V175.473H335.812V172.615Z" fill="#E6E6E6"/>
<path opacity="0.54" d="M294.423 179.199H279.259V182.056H294.423V179.199Z" fill="#E6E6E6"/>
<path opacity="0.3" d="M315.179 179.199H300.016V182.056H315.179V179.199Z" fill="#E6E6E6"/>
<path opacity="0.06" d="M335.812 179.199H320.648V182.056H335.812V179.199Z" fill="#E6E6E6"/>
<path opacity="0.15" d="M294.423 185.783H279.259V188.64H294.423V185.783Z" fill="#E6E6E6"/>
<path opacity="0.42" d="M315.179 185.783H300.016V188.64H315.179V185.783Z" fill="#E6E6E6"/>
<path opacity="0.48" d="M335.812 185.783H320.648V188.64H335.812V185.783Z" fill="#E6E6E6"/>
<path opacity="0.18" d="M294.423 192.367H279.259V195.224H294.423V192.367Z" fill="#E6E6E6"/>
<path opacity="0.28" d="M335.812 192.367H320.648V195.224H335.812V192.367Z" fill="#E6E6E6"/>
<path opacity="0.29" d="M294.423 198.95H279.259V201.808H294.423V198.95Z" fill="#E6E6E6"/>
<path opacity="0.28" d="M315.179 198.95H300.016V201.808H315.179V198.95Z" fill="#E6E6E6"/>
<path opacity="0.56" d="M335.812 198.95H320.648V201.808H335.812V198.95Z" fill="#E6E6E6"/>
<path opacity="0.41" d="M294.423 205.534H279.259V208.392H294.423V205.534Z" fill="#E6E6E6"/>
<path opacity="0.16" d="M315.179 205.534H300.016V208.392H315.179V205.534Z" fill="#E6E6E6"/>
<path opacity="0.4" d="M335.812 205.534H320.648V208.392H335.812V205.534Z" fill="#E6E6E6"/>
<path opacity="0.1" d="M294.423 212.118H279.259V214.975H294.423V212.118Z" fill="#E6E6E6"/>
<path opacity="0.17" d="M315.179 212.118H300.016V214.975H315.179V212.118Z" fill="#E6E6E6"/>
<path opacity="0.08" d="M335.812 212.118H320.648V214.975H335.812V212.118Z" fill="#E6E6E6"/>
<path opacity="0.49" d="M294.423 218.702H279.259V221.559H294.423V218.702Z" fill="#E6E6E6"/>
<path opacity="0.58" d="M315.179 218.702H300.016V221.559H315.179V218.702Z" fill="#E6E6E6"/>
<path opacity="0.58" d="M335.812 218.702H320.648V221.559H335.812V218.702Z" fill="#E6E6E6"/>
<path opacity="0.26" d="M294.423 225.286H279.259V228.143H294.423V225.286Z" fill="#E6E6E6"/>
<path opacity="0.37" d="M315.179 225.286H300.016V228.143H315.179V225.286Z" fill="#E6E6E6"/>
<path opacity="0.34" d="M335.812 225.286H320.648V228.143H335.812V225.286Z" fill="#E6E6E6"/>
<path opacity="0.55" d="M294.423 231.869H279.259V234.727H294.423V231.869Z" fill="#E6E6E6"/>
<path opacity="0.12" d="M315.179 231.869H300.016V234.727H315.179V231.869Z" fill="#E6E6E6"/>
<path opacity="0.6" d="M335.812 231.869H320.648V234.727H335.812V231.869Z" fill="#E6E6E6"/>
<path opacity="0.02" d="M294.423 238.453H279.259V241.31H294.423V238.453Z" fill="#E6E6E6"/>
<path opacity="0.28" d="M315.179 238.453H300.016V241.31H315.179V238.453Z" fill="#E6E6E6"/>
<path opacity="0.21" d="M335.812 238.453H320.648V241.31H335.812V238.453Z" fill="#E6E6E6"/>
<path opacity="0.57" d="M294.423 245.037H279.259V247.894H294.423V245.037Z" fill="#E6E6E6"/>
<path opacity="0.38" d="M315.179 245.037H300.016V247.894H315.179V245.037Z" fill="#E6E6E6"/>
<path opacity="0.25" d="M335.812 245.037H320.648V247.894H335.812V245.037Z" fill="#E6E6E6"/>
<path opacity="0.15" d="M294.423 251.621H279.259V254.478H294.423V251.621Z" fill="#E6E6E6"/>
<path opacity="0.47" d="M315.179 251.621H300.016V254.478H315.179V251.621Z" fill="#E6E6E6"/>
<path opacity="0.3" d="M335.812 251.621H320.648V254.478H335.812V251.621Z" fill="#E6E6E6"/>
<path opacity="0.4" d="M294.423 258.205H279.259V261.062H294.423V258.205Z" fill="#E6E6E6"/>
<path opacity="0.39" d="M315.179 258.205H300.016V261.062H315.179V258.205Z" fill="#E6E6E6"/>
<path opacity="0.24" d="M335.812 258.205H320.648V261.062H335.812V258.205Z" fill="#E6E6E6"/>
<path opacity="0.46" d="M294.423 264.788H279.259V267.646H294.423V264.788Z" fill="#E6E6E6"/>
<path opacity="0.22" d="M315.179 264.788H300.016V267.646H315.179V264.788Z" fill="#E6E6E6"/>
<path opacity="0.11" d="M335.812 264.788H320.648V267.646H335.812V264.788Z" fill="#E6E6E6"/>
<path opacity="0.11" d="M315.179 271.372H300.016V274.229H315.179V271.372Z" fill="#E6E6E6"/>
<path opacity="0.02" d="M335.812 271.372H320.648V274.229H335.812V271.372Z" fill="#E6E6E6"/>
<path opacity="0.27" d="M294.423 277.956H279.259V280.813H294.423V277.956Z" fill="#E6E6E6"/>
<path opacity="0.21" d="M315.179 277.956H300.016V280.813H315.179V277.956Z" fill="#E6E6E6"/>
<path opacity="0.49" d="M335.812 277.956H320.648V280.813H335.812V277.956Z" fill="#E6E6E6"/>
<path opacity="0.6" d="M294.423 284.54H279.259V287.397H294.423V284.54Z" fill="#E6E6E6"/>
<path opacity="0.31" d="M315.179 284.54H300.016V287.397H315.179V284.54Z" fill="#E6E6E6"/>
<path opacity="0.22" d="M335.812 284.54H320.648V287.397H335.812V284.54Z" fill="#E6E6E6"/>
<path opacity="0.54" d="M294.423 291.124H279.259V293.981H294.423V291.124Z" fill="#E6E6E6"/>
<path opacity="0.6" d="M315.179 291.124H300.016V293.981H315.179V291.124Z" fill="#E6E6E6"/>
<path opacity="0.08" d="M335.812 291.124H320.648V293.981H335.812V291.124Z" fill="#E6E6E6"/>
<path opacity="0.55" d="M315.179 297.707H300.016V300.564H315.179V297.707Z" fill="#E6E6E6"/>
<path d="M335.812 297.707H320.648V300.564H335.812V297.707Z" fill="#E6E6E6"/>
<path opacity="0.6" d="M295.417 172.615H294.423V300.564H295.417V172.615Z" fill="#E6E6E6"/>
<path opacity="0.6" d="M320.648 172.615H319.654V300.564H320.648V172.615Z" fill="#E6E6E6"/>
<path d="M370.24 165.41H338.919V324.788H370.24V165.41Z" fill="#4D4D4D"/>
<path opacity="0.69" d="M365.642 172.615H342.026V175.473H365.642V172.615Z" fill="#E6E6E6"/>
<path opacity="0.79" d="M365.642 179.199H342.026V182.056H365.642V179.199Z" fill="#E6E6E6"/>
<path opacity="0.19" d="M365.642 185.783H342.026V188.64H365.642V185.783Z" fill="#E6E6E6"/>
<path opacity="0.88" d="M365.642 192.367H342.026V195.224H365.642V192.367Z" fill="#E6E6E6"/>
<path opacity="0.5" d="M365.642 198.95H342.026V201.808H365.642V198.95Z" fill="#E6E6E6"/>
<path opacity="0.25" d="M365.642 205.534H342.026V208.392H365.642V205.534Z" fill="#E6E6E6"/>
<path opacity="0.91" d="M365.642 212.118H342.026V214.975H365.642V212.118Z" fill="#E6E6E6"/>
<path opacity="0.02" d="M365.642 218.702H342.026V221.559H365.642V218.702Z" fill="#E6E6E6"/>
<path opacity="0.53" d="M365.642 225.286H342.026V228.143H365.642V225.286Z" fill="#E6E6E6"/>
<path opacity="0.65" d="M365.642 231.869H342.026V234.727H365.642V231.869Z" fill="#E6E6E6"/>
<path d="M365.642 238.453H342.026V241.31H365.642V238.453Z" fill="#E6E6E6"/>
<path opacity="0.8" d="M365.642 245.037H342.026V247.894H365.642V245.037Z" fill="#E6E6E6"/>
<path opacity="0.82" d="M365.642 251.621H342.026V254.478H365.642V251.621Z" fill="#E6E6E6"/>
<path opacity="0.75" d="M365.642 258.205H342.026V261.062H365.642V258.205Z" fill="#E6E6E6"/>
<path opacity="0.31" d="M365.642 264.788H342.026V267.646H365.642V264.788Z" fill="#E6E6E6"/>
<path opacity="0.22" d="M365.642 271.372H342.026V274.229H365.642V271.372Z" fill="#E6E6E6"/>
<path opacity="0.43" d="M365.642 277.956H342.026V280.813H365.642V277.956Z" fill="#E6E6E6"/>
<path opacity="0.68" d="M365.642 284.54H342.026V287.397H365.642V284.54Z" fill="#E6E6E6"/>
<path opacity="0.38" d="M365.642 291.124H342.026V293.981H365.642V291.124Z" fill="#E6E6E6"/>
<path opacity="0.84" d="M365.642 297.707H342.026V300.564H365.642V297.707Z" fill="#E6E6E6"/>
<path d="M287.214 156.963V165.41H327.857V156.963H287.214ZM296.287 162.678H292.061V159.82H296.287V162.678ZM302.875 162.678H298.773V159.82H302.875V162.678ZM309.586 162.678H305.485V159.82H309.586V162.678ZM316.298 162.678H312.072V159.82H316.298V162.678ZM323.01 162.678H318.784V159.82H323.01V162.678Z" fill="#333333"/>
<path d="M335.315 159.821H334.196V162.678H335.315V159.821Z" fill="#333333"/>
<path d="M327.857 156.963V165.41H346.998V156.963H327.857ZM335.315 162.678H331.213V159.82H335.315V162.678ZM344.139 162.678H340.038V159.82H344.139V162.678Z" fill="#4D4D4D"/>
<path d="M344.015 159.821H342.896V162.678H344.015V159.821Z" fill="#333333"/>
<path d="M347.246 335.595H262.728L347.246 273.235V335.595Z" fill="#333333"/>
<path d="M221.215 131.622H214.379V157.585H221.215V131.622Z" fill="#4D4D4D"/>
<path d="M214.504 131.622H207.543V157.585H214.504V131.622Z" fill="#333333"/>
<path d="M228.3 131.622H221.34V157.585H228.3V131.622Z" fill="#666666"/>
<path d="M248.435 175.348H229.046V323.421H248.435V175.348Z" fill="#666666"/>
<path d="M206.3 175.348H189.397V323.421H206.3V175.348Z" fill="#333333"/>
<path d="M229.046 175.348H206.176V323.421H229.046V175.348Z" fill="#4D4D4D"/>
<path opacity="0.6" d="M194.244 179.696H191.758V321.434H194.244V179.696Z" fill="#E6E6E6"/>
<path opacity="0.6" d="M199.091 179.696H196.606V321.434H199.091V179.696Z" fill="#E6E6E6"/>
<path opacity="0.6" d="M203.939 179.696H201.453V321.434H203.939V179.696Z" fill="#E6E6E6"/>
<path d="M232.899 179.696H230.413V321.434H232.899V179.696Z" fill="#E6E6E6"/>
<path d="M237.746 179.696H235.26V321.434H237.746V179.696Z" fill="#E6E6E6"/>
<path d="M247.192 179.696H244.706V321.434H247.192V179.696Z" fill="#E6E6E6"/>
<path d="M242.593 179.696H240.108V321.434H242.593V179.696Z" fill="#E6E6E6"/>
<path opacity="0.8" d="M209.035 321.434H226.187V179.696H209.035V321.434ZM211.769 182.18H223.452V318.949H211.769V182.18Z" fill="#E6E6E6"/>
<path opacity="0.8" d="M214.006 316.589H221.34V184.417H214.006V316.589ZM216.492 187.522H217.362H217.859H218.854V313.483H217.859H217.362H216.492V187.522Z" fill="#E6E6E6"/>
<path opacity="0.8" d="M217.859 187.522H217.362V313.483H217.859V187.522Z" fill="#E6E6E6"/>
<path d="M226.435 149.386H209.283V175.348H226.435V149.386Z" fill="#4D4D4D"/>
<path d="M226.435 149.386H209.283V175.348H226.435V149.386Z" fill="#4D4D4D"/>
<path d="M243.588 149.386H226.435V175.348H243.588V149.386Z" fill="#666666"/>
<path d="M209.283 149.386H192.131V175.348H209.283V149.386Z" fill="#333333"/>
<path d="M228.176 131.622H207.543L214.379 136.342H221.34L228.176 131.622Z" fill="#808080"/>
<path d="M596.948 122.057H587.004V151.249H596.948V122.057Z" fill="#4D4D4D"/>
<path d="M586.88 122.057H576.937V151.249H586.88V122.057Z" fill="#333333"/>
<path d="M606.891 122.057H596.948V151.249H606.891V122.057Z" fill="#666666"/>
<path d="M636.224 171.373H608.134V338.203H636.224V171.373Z" fill="#666666"/>
<path d="M575.072 171.373H550.711V338.203H575.072V171.373Z" fill="#333333"/>
<path d="M608.134 171.373H575.072V338.203H608.134V171.373Z" fill="#4D4D4D"/>
<path opacity="0.4" d="M557.671 176.342H554.067V335.968H557.671V176.342Z" fill="#E6E6E6"/>
<path opacity="0.4" d="M564.756 176.342H561.152V335.968H564.756V176.342Z" fill="#E6E6E6"/>
<path opacity="0.4" d="M571.841 176.342H568.236V335.968H571.841V176.342Z" fill="#E6E6E6"/>
<path d="M613.727 176.342H610.122V335.968H613.727V176.342Z" fill="#E6E6E6"/>
<path d="M620.811 176.342H617.207V335.968H620.811V176.342Z" fill="#E6E6E6"/>
<path d="M634.359 176.342H630.755V335.968H634.359V176.342Z" fill="#E6E6E6"/>
<path d="M627.772 176.342H624.167V335.968H627.772V176.342Z" fill="#E6E6E6"/>
<path d="M579.298 335.968H604.156V176.342H579.298V335.968ZM583.151 179.075H600.055V333.235H583.151V179.075Z" fill="#E6E6E6"/>
<path d="M586.258 330.626H596.948V181.684H586.258V330.626ZM589.987 185.162H591.354H591.976H593.343V327.148H591.976H591.354H589.987V185.162Z" fill="#E6E6E6"/>
<path d="M591.976 185.162H591.354V327.148H591.976V185.162Z" fill="#E6E6E6"/>
<path d="M604.405 142.181H579.547V171.373H604.405V142.181Z" fill="#4D4D4D"/>
<path d="M604.405 142.181H579.547V171.373H604.405V142.181Z" fill="#4D4D4D"/>
<path d="M629.263 142.181H604.405V171.373H629.263V142.181Z" fill="#666666"/>
<path d="M579.671 142.181H554.813V171.373H579.671V142.181Z" fill="#333333"/>
<path d="M607.015 122.057H576.937L587.004 127.398H596.948L607.015 122.057Z" fill="#808080"/>
<path d="M525.232 194.479H457.244V217.087H525.232V194.479Z" fill="#E6E6E6"/>
<path d="M483.967 194.479H457.244V217.087H483.967V194.479Z" fill="#B3B3B3"/>
<path d="M483.967 217.211H431.143V327.024H483.967V217.211Z" fill="#333333"/>
<path d="M566.496 217.211H483.967V327.024H566.496V217.211Z" fill="#4D4D4D"/>
<path d="M477.504 206.031H436.86V217.211H477.504V206.031Z" fill="#333333"/>
<path d="M554.191 206.031H496.147V217.211H554.191V206.031Z" fill="#4D4D4D"/>
<path d="M507.209 185.907H483.967V194.479H507.209V185.907Z" fill="#E6E6E6"/>
<path d="M495.526 177.212H483.967V185.783H495.526V177.212Z" fill="#4D4D4D"/>
<path d="M483.843 177.212H472.283V185.783H483.843V177.212Z" fill="#333333"/>
<path d="M483.967 185.907H466.193V194.479H483.967V185.907Z" fill="#B3B3B3"/>
<path d="M483.221 177.212L483.967 157.336L484.588 177.212H483.221Z" fill="#333333"/>
<path opacity="0.12" d="M447.798 221.683H443.448V226.031H447.798V221.683Z" fill="white"/>
<path opacity="0.25" d="M453.764 221.683H449.414V226.031H453.764V221.683Z" fill="white"/>
<path opacity="0.36" d="M459.73 221.683H455.38V226.031H459.73V221.683Z" fill="white"/>
<path opacity="0.12" d="M465.696 221.683H461.346V226.031H465.696V221.683Z" fill="white"/>
<path opacity="0.14" d="M471.662 221.683H467.312V226.031H471.662V221.683Z" fill="white"/>
<path opacity="0.28" d="M447.798 227.398H443.448V231.745H447.798V227.398Z" fill="white"/>
<path opacity="0.4" d="M453.764 227.398H449.414V231.745H453.764V227.398Z" fill="white"/>
<path opacity="0.16" d="M459.73 227.398H455.38V231.745H459.73V227.398Z" fill="white"/>
<path opacity="0.17" d="M471.662 227.398H467.312V231.745H471.662V227.398Z" fill="white"/>
<path opacity="0.27" d="M447.798 233.112H443.448V237.46H447.798V233.112Z" fill="white"/>
<path opacity="0.45" d="M453.764 233.112H449.414V237.46H453.764V233.112Z" fill="white"/>
<path opacity="0.45" d="M459.73 233.112H455.38V237.46H459.73V233.112Z" fill="white"/>
<path opacity="0.48" d="M465.696 233.112H461.346V237.46H465.696V233.112Z" fill="white"/>
<path opacity="0.25" d="M471.662 233.112H467.312V237.46H471.662V233.112Z" fill="white"/>
<path opacity="0.28" d="M447.798 238.826H443.448V243.174H447.798V238.826Z" fill="white"/>
<path opacity="0.13" d="M453.764 238.826H449.414V243.174H453.764V238.826Z" fill="white"/>
<path opacity="0.07" d="M459.73 238.826H455.38V243.174H459.73V238.826Z" fill="white"/>
<path opacity="0.39" d="M465.696 238.826H461.346V243.174H465.696V238.826Z" fill="white"/>
<path opacity="0.47" d="M471.662 238.826H467.312V243.174H471.662V238.826Z" fill="white"/>
<path opacity="0.28" d="M447.798 244.54H443.448V248.888H447.798V244.54Z" fill="white"/>
<path opacity="0.2" d="M453.764 244.54H449.414V248.888H453.764V244.54Z" fill="white"/>
<path opacity="0.04" d="M459.73 244.54H455.38V248.888H459.73V244.54Z" fill="white"/>
<path opacity="0.43" d="M465.696 244.54H461.346V248.888H465.696V244.54Z" fill="white"/>
<path opacity="0.48" d="M471.662 244.54H467.312V248.888H471.662V244.54Z" fill="white"/>
<path opacity="0.28" d="M447.798 250.254H443.448V254.602H447.798V250.254Z" fill="white"/>
<path opacity="0.19" d="M453.764 250.254H449.414V254.602H453.764V250.254Z" fill="white"/>
<path opacity="0.01" d="M459.73 250.254H455.38V254.602H459.73V250.254Z" fill="white"/>
<path opacity="0.27" d="M465.696 250.254H461.346V254.602H465.696V250.254Z" fill="white"/>
<path opacity="0.24" d="M471.662 250.254H467.312V254.602H471.662V250.254Z" fill="white"/>
<path opacity="0.07" d="M447.798 256.093H443.448V260.441H447.798V256.093Z" fill="white"/>
<path opacity="0.25" d="M453.764 256.093H449.414V260.441H453.764V256.093Z" fill="white"/>
<path opacity="0.26" d="M459.73 256.093H455.38V260.441H459.73V256.093Z" fill="white"/>
<path opacity="0.39" d="M465.696 256.093H461.346V260.441H465.696V256.093Z" fill="white"/>
<path opacity="0.22" d="M471.662 256.093H467.312V260.441H471.662V256.093Z" fill="white"/>
<path opacity="0.15" d="M447.798 261.807H443.448V266.155H447.798V261.807Z" fill="white"/>
<path opacity="0.23" d="M453.764 261.807H449.414V266.155H453.764V261.807Z" fill="white"/>
<path opacity="0.05" d="M459.73 261.807H455.38V266.155H459.73V261.807Z" fill="white"/>
<path opacity="0.2" d="M465.696 261.807H461.346V266.155H465.696V261.807Z" fill="white"/>
<path opacity="0.31" d="M471.662 261.807H467.312V266.155H471.662V261.807Z" fill="white"/>
<path opacity="0.15" d="M447.798 267.521H443.448V271.869H447.798V267.521Z" fill="white"/>
<path opacity="0.33" d="M453.764 267.521H449.414V271.869H453.764V267.521Z" fill="white"/>
<path opacity="0.46" d="M459.73 267.521H455.38V271.869H459.73V267.521Z" fill="white"/>
<path opacity="0.25" d="M465.696 267.521H461.346V271.869H465.696V267.521Z" fill="white"/>
<path opacity="0.43" d="M471.662 267.521H467.312V271.869H471.662V267.521Z" fill="white"/>
<path opacity="0.4" d="M447.798 273.236H443.448V277.583H447.798V273.236Z" fill="white"/>
<path opacity="0.39" d="M453.764 273.236H449.414V277.583H453.764V273.236Z" fill="white"/>
<path opacity="0.01" d="M459.73 273.236H455.38V277.583H459.73V273.236Z" fill="white"/>
<path opacity="0.12" d="M465.696 273.236H461.346V277.583H465.696V273.236Z" fill="white"/>
<path opacity="0.07" d="M471.662 273.236H467.312V277.583H471.662V273.236Z" fill="white"/>
<path opacity="0.07" d="M447.798 278.95H443.448V283.298H447.798V278.95Z" fill="white"/>
<path opacity="0.02" d="M453.764 278.95H449.414V283.298H453.764V278.95Z" fill="white"/>
<path opacity="0.12" d="M459.73 278.95H455.38V283.298H459.73V278.95Z" fill="white"/>
<path opacity="0.23" d="M465.696 278.95H461.346V283.298H465.696V278.95Z" fill="white"/>
<path opacity="0.26" d="M471.662 278.95H467.312V283.298H471.662V278.95Z" fill="white"/>
<path opacity="0.27" d="M447.798 284.664H443.448V289.012H447.798V284.664Z" fill="white"/>
<path opacity="0.38" d="M453.764 284.664H449.414V289.012H453.764V284.664Z" fill="white"/>
<path opacity="0.05" d="M459.73 284.664H455.38V289.012H459.73V284.664Z" fill="white"/>
<path opacity="0.45" d="M465.696 284.664H461.346V289.012H465.696V284.664Z" fill="white"/>
<path opacity="0.15" d="M471.662 284.664H467.312V289.012H471.662V284.664Z" fill="white"/>
<path opacity="0.06" d="M447.798 290.378H443.448V294.726H447.798V290.378Z" fill="white"/>
<path opacity="0.47" d="M453.764 290.378H449.414V294.726H453.764V290.378Z" fill="white"/>
<path opacity="0.15" d="M459.73 290.378H455.38V294.726H459.73V290.378Z" fill="white"/>
<path opacity="0.44" d="M465.696 290.378H461.346V294.726H465.696V290.378Z" fill="white"/>
<path opacity="0.14" d="M471.662 290.378H467.312V294.726H471.662V290.378Z" fill="white"/>
<path opacity="0.15" d="M447.798 296.093H443.448V300.44H447.798V296.093Z" fill="white"/>
<path opacity="0.43" d="M453.764 296.093H449.414V300.44H453.764V296.093Z" fill="white"/>
<path opacity="0.07" d="M459.73 296.093H455.38V300.44H459.73V296.093Z" fill="white"/>
<path opacity="0.47" d="M465.696 296.093H461.346V300.44H465.696V296.093Z" fill="white"/>
<path opacity="0.11" d="M471.662 296.093H467.312V300.44H471.662V296.093Z" fill="white"/>
<path opacity="0.07" d="M447.798 301.807H443.448V306.154H447.798V301.807Z" fill="white"/>
<path opacity="0.34" d="M453.764 301.807H449.414V306.154H453.764V301.807Z" fill="white"/>
<path opacity="0.5" d="M459.73 301.807H455.38V306.154H459.73V301.807Z" fill="white"/>
<path opacity="0.36" d="M465.696 301.807H461.346V306.154H465.696V301.807Z" fill="white"/>
<path opacity="0.34" d="M471.662 301.807H467.312V306.154H471.662V301.807Z" fill="white"/>
<path opacity="0.47" d="M447.798 307.521H443.448V311.869H447.798V307.521Z" fill="white"/>
<path opacity="0.41" d="M453.764 307.521H449.414V311.869H453.764V307.521Z" fill="white"/>
<path opacity="0.3" d="M459.73 307.521H455.38V311.869H459.73V307.521Z" fill="white"/>
<path opacity="0.33" d="M465.696 307.521H461.346V311.869H465.696V307.521Z" fill="white"/>
<path opacity="0.12" d="M471.662 307.521H467.312V311.869H471.662V307.521Z" fill="white"/>
<path opacity="0.3" d="M498.385 221.683H494.034V226.031H498.385V221.683Z" fill="white"/>
<path opacity="0.72" d="M504.102 221.683H499.752V226.031H504.102V221.683Z" fill="white"/>
<path opacity="0.7" d="M509.944 221.683H505.594V226.031H509.944V221.683Z" fill="white"/>
<path opacity="0.52" d="M515.785 221.683H511.435V226.031H515.785V221.683Z" fill="white"/>
<path opacity="0.2" d="M521.627 221.683H517.277V226.031H521.627V221.683Z" fill="white"/>
<path opacity="0.32" d="M527.344 221.683H522.994V226.031H527.344V221.683Z" fill="white"/>
<path opacity="0.13" d="M533.186 221.683H528.836V226.031H533.186V221.683Z" fill="white"/>
<path opacity="0.38" d="M539.028 221.683H534.678V226.031H539.028V221.683Z" fill="white"/>
<path opacity="0.61" d="M544.745 221.683H540.395V226.031H544.745V221.683Z" fill="white"/>
<path d="M550.587 221.683H546.237V226.031H550.587V221.683Z" fill="white"/>
<path opacity="0.91" d="M556.429 221.683H552.078V226.031H556.429V221.683Z" fill="white"/>
<path opacity="0.66" d="M498.385 227.398H494.034V231.745H498.385V227.398Z" fill="white"/>
<path opacity="0.31" d="M504.102 227.398H499.752V231.745H504.102V227.398Z" fill="white"/>
<path opacity="0.95" d="M509.944 227.398H505.594V231.745H509.944V227.398Z" fill="white"/>
<path opacity="0.7" d="M515.785 227.398H511.435V231.745H515.785V227.398Z" fill="white"/>
<path opacity="0.12" d="M521.627 227.398H517.277V231.745H521.627V227.398Z" fill="white"/>
<path opacity="0.24" d="M527.344 227.398H522.994V231.745H527.344V227.398Z" fill="white"/>
<path opacity="0.66" d="M533.186 227.398H528.836V231.745H533.186V227.398Z" fill="white"/>
<path opacity="0.71" d="M539.028 227.398H534.678V231.745H539.028V227.398Z" fill="white"/>
<path opacity="0.42" d="M544.745 227.398H540.395V231.745H544.745V227.398Z" fill="white"/>
<path opacity="0.09" d="M550.587 227.398H546.237V231.745H550.587V227.398Z" fill="white"/>
<path opacity="0.32" d="M556.429 227.398H552.078V231.745H556.429V227.398Z" fill="white"/>
<path opacity="0.65" d="M498.385 233.112H494.034V237.46H498.385V233.112Z" fill="white"/>
<path d="M504.102 233.112H499.752V237.46H504.102V233.112Z" fill="white"/>
<path d="M509.944 233.112H505.594V237.46H509.944V233.112Z" fill="white"/>
<path opacity="0.71" d="M515.785 233.112H511.435V237.46H515.785V233.112Z" fill="white"/>
<path opacity="0.2" d="M521.627 233.112H517.277V237.46H521.627V233.112Z" fill="white"/>
<path opacity="0.19" d="M527.344 233.112H522.994V237.46H527.344V233.112Z" fill="white"/>
<path opacity="0.62" d="M533.186 233.112H528.836V237.46H533.186V233.112Z" fill="white"/>
<path opacity="0.93" d="M539.028 233.112H534.678V237.46H539.028V233.112Z" fill="white"/>
<path opacity="0.56" d="M544.745 233.112H540.395V237.46H544.745V233.112Z" fill="white"/>
<path opacity="0.57" d="M550.587 233.112H546.237V237.46H550.587V233.112Z" fill="white"/>
<path opacity="0.52" d="M556.429 233.112H552.078V237.46H556.429V233.112Z" fill="white"/>
<path opacity="0.74" d="M498.385 238.826H494.034V243.174H498.385V238.826Z" fill="white"/>
<path opacity="0.56" d="M504.102 238.826H499.752V243.174H504.102V238.826Z" fill="white"/>
<path opacity="0.78" d="M509.944 238.826H505.594V243.174H509.944V238.826Z" fill="white"/>
<path opacity="0.41" d="M515.785 238.826H511.435V243.174H515.785V238.826Z" fill="white"/>
<path opacity="0.14" d="M521.627 238.826H517.277V243.174H521.627V238.826Z" fill="white"/>
<path opacity="0.28" d="M527.344 238.826H522.994V243.174H527.344V238.826Z" fill="white"/>
<path opacity="0.36" d="M533.186 238.826H528.836V243.174H533.186V238.826Z" fill="white"/>
<path opacity="0.14" d="M539.028 238.826H534.678V243.174H539.028V238.826Z" fill="white"/>
<path opacity="0.5" d="M544.745 238.826H540.395V243.174H544.745V238.826Z" fill="white"/>
<path opacity="0.98" d="M550.587 238.826H546.237V243.174H550.587V238.826Z" fill="white"/>
<path opacity="0.59" d="M556.429 238.826H552.078V243.174H556.429V238.826Z" fill="white"/>
<path opacity="0.07" d="M498.385 244.54H494.034V248.888H498.385V244.54Z" fill="white"/>
<path opacity="0.1" d="M504.102 244.54H499.752V248.888H504.102V244.54Z" fill="white"/>
<path opacity="0.88" d="M509.944 244.54H505.594V248.888H509.944V244.54Z" fill="white"/>
<path opacity="0.68" d="M515.785 244.54H511.435V248.888H515.785V244.54Z" fill="white"/>
<path opacity="0.81" d="M521.627 244.54H517.277V248.888H521.627V244.54Z" fill="white"/>
<path opacity="0.62" d="M527.344 244.54H522.994V248.888H527.344V244.54Z" fill="white"/>
<path opacity="0.97" d="M533.186 244.54H528.836V248.888H533.186V244.54Z" fill="white"/>
<path opacity="0.81" d="M539.028 244.54H534.678V248.888H539.028V244.54Z" fill="white"/>
<path opacity="0.79" d="M544.745 244.54H540.395V248.888H544.745V244.54Z" fill="white"/>
<path opacity="0.03" d="M550.587 244.54H546.237V248.888H550.587V244.54Z" fill="white"/>
<path opacity="0.95" d="M556.429 244.54H552.078V248.888H556.429V244.54Z" fill="white"/>
<path opacity="0.62" d="M498.385 250.254H494.034V254.602H498.385V250.254Z" fill="white"/>
<path opacity="0.22" d="M504.102 250.254H499.752V254.602H504.102V250.254Z" fill="white"/>
<path opacity="0.42" d="M509.944 250.254H505.594V254.602H509.944V250.254Z" fill="white"/>
<path opacity="0.56" d="M515.785 250.254H511.435V254.602H515.785V250.254Z" fill="white"/>
<path opacity="0.03" d="M521.627 250.254H517.277V254.602H521.627V250.254Z" fill="white"/>
<path opacity="0.64" d="M527.344 250.254H522.994V254.602H527.344V250.254Z" fill="white"/>
<path opacity="0.82" d="M533.186 250.254H528.836V254.602H533.186V250.254Z" fill="white"/>
<path opacity="0.52" d="M539.028 250.254H534.678V254.602H539.028V250.254Z" fill="white"/>
<path opacity="0.46" d="M544.745 250.254H540.395V254.602H544.745V250.254Z" fill="white"/>
<path opacity="0.27" d="M550.587 250.254H546.237V254.602H550.587V250.254Z" fill="white"/>
<path opacity="0.46" d="M556.429 250.254H552.078V254.602H556.429V250.254Z" fill="white"/>
<path opacity="0.66" d="M498.385 256.093H494.034V260.441H498.385V256.093Z" fill="white"/>
<path opacity="0.7" d="M504.102 256.093H499.752V260.441H504.102V256.093Z" fill="white"/>
<path opacity="0.94" d="M509.944 256.093H505.594V260.441H509.944V256.093Z" fill="white"/>
<path opacity="0.5" d="M515.785 256.093H511.435V260.441H515.785V256.093Z" fill="white"/>
<path opacity="0.12" d="M521.627 256.093H517.277V260.441H521.627V256.093Z" fill="white"/>
<path opacity="0.36" d="M527.344 256.093H522.994V260.441H527.344V256.093Z" fill="white"/>
<path opacity="0.51" d="M533.186 256.093H528.836V260.441H533.186V256.093Z" fill="white"/>
<path opacity="0.37" d="M539.028 256.093H534.678V260.441H539.028V256.093Z" fill="white"/>
<path opacity="0.66" d="M544.745 256.093H540.395V260.441H544.745V256.093Z" fill="white"/>
<path opacity="0.42" d="M550.587 256.093H546.237V260.441H550.587V256.093Z" fill="white"/>
<path opacity="0.5" d="M556.429 256.093H552.078V260.441H556.429V256.093Z" fill="white"/>
<path opacity="0.52" d="M498.385 261.807H494.034V266.155H498.385V261.807Z" fill="white"/>
<path opacity="0.61" d="M504.102 261.807H499.752V266.155H504.102V261.807Z" fill="white"/>
<path opacity="0.84" d="M509.944 261.807H505.594V266.155H509.944V261.807Z" fill="white"/>
<path opacity="0.89" d="M515.785 261.807H511.435V266.155H515.785V261.807Z" fill="white"/>
<path opacity="0.33" d="M521.627 261.807H517.277V266.155H521.627V261.807Z" fill="white"/>
<path opacity="0.25" d="M527.344 261.807H522.994V266.155H527.344V261.807Z" fill="white"/>
<path opacity="0.95" d="M533.186 261.807H528.836V266.155H533.186V261.807Z" fill="white"/>
<path opacity="0.09" d="M539.028 261.807H534.678V266.155H539.028V261.807Z" fill="white"/>
<path opacity="0.44" d="M544.745 261.807H540.395V266.155H544.745V261.807Z" fill="white"/>
<path opacity="0.51" d="M550.587 261.807H546.237V266.155H550.587V261.807Z" fill="white"/>
<path opacity="0.97" d="M556.429 261.807H552.078V266.155H556.429V261.807Z" fill="white"/>
<path opacity="0.26" d="M498.385 267.521H494.034V271.869H498.385V267.521Z" fill="white"/>
<path opacity="0.92" d="M504.102 267.521H499.752V271.869H504.102V267.521Z" fill="white"/>
<path opacity="0.33" d="M509.944 267.521H505.594V271.869H509.944V267.521Z" fill="white"/>
<path opacity="0.23" d="M515.785 267.521H511.435V271.869H515.785V267.521Z" fill="white"/>
<path opacity="0.42" d="M521.627 267.521H517.277V271.869H521.627V267.521Z" fill="white"/>
<path opacity="0.57" d="M527.344 267.521H522.994V271.869H527.344V267.521Z" fill="white"/>
<path opacity="0.73" d="M533.186 267.521H528.836V271.869H533.186V267.521Z" fill="white"/>
<path opacity="0.87" d="M539.028 267.521H534.678V271.869H539.028V267.521Z" fill="white"/>
<path opacity="0.22" d="M544.745 267.521H540.395V271.869H544.745V267.521Z" fill="white"/>
<path opacity="0.89" d="M550.587 267.521H546.237V271.869H550.587V267.521Z" fill="white"/>
<path opacity="0.73" d="M556.429 267.521H552.078V271.869H556.429V267.521Z" fill="white"/>
<path opacity="0.35" d="M498.385 273.236H494.034V277.583H498.385V273.236Z" fill="white"/>
<path opacity="0.81" d="M504.102 273.236H499.752V277.583H504.102V273.236Z" fill="white"/>
<path opacity="0.56" d="M509.944 273.236H505.594V277.583H509.944V273.236Z" fill="white"/>
<path opacity="0.81" d="M515.785 273.236H511.435V277.583H515.785V273.236Z" fill="white"/>
<path opacity="0.87" d="M521.627 273.236H517.277V277.583H521.627V273.236Z" fill="white"/>
<path opacity="0.39" d="M527.344 273.236H522.994V277.583H527.344V273.236Z" fill="white"/>
<path opacity="0.31" d="M533.186 273.236H528.836V277.583H533.186V273.236Z" fill="white"/>
<path opacity="0.98" d="M539.028 273.236H534.678V277.583H539.028V273.236Z" fill="white"/>
<path opacity="0.17" d="M544.745 273.236H540.395V277.583H544.745V273.236Z" fill="white"/>
<path opacity="0.06" d="M550.587 273.236H546.237V277.583H550.587V273.236Z" fill="white"/>
<path opacity="0.57" d="M556.429 273.236H552.078V277.583H556.429V273.236Z" fill="white"/>
<path opacity="0.67" d="M498.385 278.95H494.034V283.298H498.385V278.95Z" fill="white"/>
<path opacity="0.83" d="M504.102 278.95H499.752V283.298H504.102V278.95Z" fill="white"/>
<path opacity="0.99" d="M509.944 278.95H505.594V283.298H509.944V278.95Z" fill="white"/>
<path opacity="0.62" d="M515.785 278.95H511.435V283.298H515.785V278.95Z" fill="white"/>
<path opacity="0.87" d="M521.627 278.95H517.277V283.298H521.627V278.95Z" fill="white"/>
<path opacity="0.14" d="M527.344 278.95H522.994V283.298H527.344V278.95Z" fill="white"/>
<path opacity="0.12" d="M533.186 278.95H528.836V283.298H533.186V278.95Z" fill="white"/>
<path opacity="0.11" d="M539.028 278.95H534.678V283.298H539.028V278.95Z" fill="white"/>
<path opacity="0.39" d="M544.745 278.95H540.395V283.298H544.745V278.95Z" fill="white"/>
<path opacity="0.58" d="M550.587 278.95H546.237V283.298H550.587V278.95Z" fill="white"/>
<path opacity="0.54" d="M556.429 278.95H552.078V283.298H556.429V278.95Z" fill="white"/>
<path opacity="0.99" d="M498.385 284.664H494.034V289.012H498.385V284.664Z" fill="white"/>
<path opacity="0.28" d="M504.102 284.664H499.752V289.012H504.102V284.664Z" fill="white"/>
<path opacity="0.78" d="M509.944 284.664H505.594V289.012H509.944V284.664Z" fill="white"/>
<path opacity="0.65" d="M515.785 284.664H511.435V289.012H515.785V284.664Z" fill="white"/>
<path opacity="0.32" d="M521.627 284.664H517.277V289.012H521.627V284.664Z" fill="white"/>
<path opacity="0.55" d="M527.344 284.664H522.994V289.012H527.344V284.664Z" fill="white"/>
<path opacity="0.4" d="M533.186 284.664H528.836V289.012H533.186V284.664Z" fill="white"/>
<path opacity="0.22" d="M539.028 284.664H534.678V289.012H539.028V284.664Z" fill="white"/>
<path opacity="0.87" d="M544.745 284.664H540.395V289.012H544.745V284.664Z" fill="white"/>
<path opacity="0.02" d="M550.587 284.664H546.237V289.012H550.587V284.664Z" fill="white"/>
<path opacity="0.39" d="M556.429 284.664H552.078V289.012H556.429V284.664Z" fill="white"/>
<path opacity="0.89" d="M498.385 290.378H494.034V294.726H498.385V290.378Z" fill="white"/>
<path opacity="0.97" d="M504.102 290.378H499.752V294.726H504.102V290.378Z" fill="white"/>
<path opacity="0.79" d="M509.944 290.378H505.594V294.726H509.944V290.378Z" fill="white"/>
<path opacity="0.41" d="M515.785 290.378H511.435V294.726H515.785V290.378Z" fill="white"/>
<path opacity="0.13" d="M521.627 290.378H517.277V294.726H521.627V290.378Z" fill="white"/>
<path opacity="0.9" d="M527.344 290.378H522.994V294.726H527.344V290.378Z" fill="white"/>
<path opacity="0.98" d="M533.186 290.378H528.836V294.726H533.186V290.378Z" fill="white"/>
<path opacity="0.67" d="M539.028 290.378H534.678V294.726H539.028V290.378Z" fill="white"/>
<path opacity="0.65" d="M544.745 290.378H540.395V294.726H544.745V290.378Z" fill="white"/>
<path opacity="0.89" d="M550.587 290.378H546.237V294.726H550.587V290.378Z" fill="white"/>
<path opacity="0.98" d="M556.429 290.378H552.078V294.726H556.429V290.378Z" fill="white"/>
<path opacity="0.29" d="M498.385 296.093H494.034V300.44H498.385V296.093Z" fill="white"/>
<path opacity="0.74" d="M504.102 296.093H499.752V300.44H504.102V296.093Z" fill="white"/>
<path opacity="0.64" d="M509.944 296.093H505.594V300.44H509.944V296.093Z" fill="white"/>
<path opacity="0.65" d="M515.785 296.093H511.435V300.44H515.785V296.093Z" fill="white"/>
<path opacity="0.07" d="M521.627 296.093H517.277V300.44H521.627V296.093Z" fill="white"/>
<path opacity="0.16" d="M527.344 296.093H522.994V300.44H527.344V296.093Z" fill="white"/>
<path opacity="0.84" d="M533.186 296.093H528.836V300.44H533.186V296.093Z" fill="white"/>
<path opacity="0.88" d="M539.028 296.093H534.678V300.44H539.028V296.093Z" fill="white"/>
<path opacity="0.57" d="M544.745 296.093H540.395V300.44H544.745V296.093Z" fill="white"/>
<path opacity="0.31" d="M550.587 296.093H546.237V300.44H550.587V296.093Z" fill="white"/>
<path opacity="0.03" d="M556.429 296.093H552.078V300.44H556.429V296.093Z" fill="white"/>
<path opacity="0.3" d="M498.385 301.807H494.034V306.154H498.385V301.807Z" fill="white"/>
<path opacity="0.59" d="M504.102 301.807H499.752V306.154H504.102V301.807Z" fill="white"/>
<path opacity="0.93" d="M509.944 301.807H505.594V306.154H509.944V301.807Z" fill="white"/>
<path opacity="0.06" d="M515.785 301.807H511.435V306.154H515.785V301.807Z" fill="white"/>
<path opacity="0.74" d="M521.627 301.807H517.277V306.154H521.627V301.807Z" fill="white"/>
<path opacity="0.22" d="M527.344 301.807H522.994V306.154H527.344V301.807Z" fill="white"/>
<path opacity="0.51" d="M533.186 301.807H528.836V306.154H533.186V301.807Z" fill="white"/>
<path opacity="0.7" d="M539.028 301.807H534.678V306.154H539.028V301.807Z" fill="white"/>
<path opacity="0.47" d="M544.745 301.807H540.395V306.154H544.745V301.807Z" fill="white"/>
<path opacity="0.08" d="M550.587 301.807H546.237V306.154H550.587V301.807Z" fill="white"/>
<path opacity="0.93" d="M556.429 301.807H552.078V306.154H556.429V301.807Z" fill="white"/>
<path opacity="0.81" d="M498.385 307.521H494.034V311.869H498.385V307.521Z" fill="white"/>
<path opacity="0.9" d="M504.102 307.521H499.752V311.869H504.102V307.521Z" fill="white"/>
<path opacity="0.55" d="M509.944 307.521H505.594V311.869H509.944V307.521Z" fill="white"/>
<path opacity="0.14" d="M515.785 307.521H511.435V311.869H515.785V307.521Z" fill="white"/>
<path opacity="0.66" d="M521.627 307.521H517.277V311.869H521.627V307.521Z" fill="white"/>
<path opacity="0.92" d="M527.344 307.521H522.994V311.869H527.344V307.521Z" fill="white"/>
<path opacity="0.4" d="M533.186 307.521H528.836V311.869H533.186V307.521Z" fill="white"/>
<path opacity="0.6" d="M539.028 307.521H534.678V311.869H539.028V307.521Z" fill="white"/>
<path opacity="0.99" d="M544.745 307.521H540.395V311.869H544.745V307.521Z" fill="white"/>
<path opacity="0.68" d="M550.587 307.521H546.237V311.869H550.587V307.521Z" fill="white"/>
<path opacity="0.01" d="M556.429 307.521H552.078V311.869H556.429V307.521Z" fill="white"/>
<path d="M424.928 193.733H383.912V322.179H424.928V193.733Z" fill="#333333"/>
<path d="M402.556 187.273H383.912V194.478H402.556V187.273Z" fill="#333333"/>
<path d="M394.726 183.05H383.912V187.274H394.726V183.05Z" fill="#333333"/>
<path opacity="0.25" d="M407.652 202.801H400.94V209.509H407.652V202.801Z" fill="white"/>
<path opacity="0.15" d="M407.652 219.323H400.94V226.031H407.652V219.323Z" fill="white"/>
<path opacity="0.19" d="M407.652 252.242H400.94V258.95H407.652V252.242Z" fill="white"/>
<path opacity="0.17" d="M407.652 268.639H400.94V275.347H407.652V268.639Z" fill="white"/>
<path opacity="0.22" d="M407.652 285.036H400.94V291.744H407.652V285.036Z" fill="white"/>
<path d="M407.652 301.558H400.94V308.266H407.652V301.558Z" fill="white"/>
<path d="M394.477 265.285H356.071V276.59H394.477V265.285Z" fill="#333333"/>
<path d="M413.618 265.285H394.477V276.59H413.618V265.285Z" fill="#4D4D4D"/>
<path d="M356.071 265.285L368.003 259.571L394.477 265.285H356.071Z" fill="#333333"/>
<path d="M368.003 259.571L394.477 265.285H413.618L368.003 259.571Z" fill="#4D4D4D"/>
<path d="M403.426 273.235H347.246V324.663H403.426V273.235Z" fill="#333333"/>
<path d="M422.07 273.235H403.426V324.663H422.07V273.235Z" fill="#4D4D4D"/>
<path opacity="0.81" d="M417.72 276.838H407.652V280.565H417.72V276.838Z" fill="white"/>
<path opacity="0.76" d="M417.72 283.67H407.652V287.397H417.72V283.67Z" fill="white"/>
<path opacity="0.32" d="M417.72 290.502H407.652V294.229H417.72V290.502Z" fill="white"/>
<path opacity="0.49" d="M417.72 297.459H407.652V301.185H417.72V297.459Z" fill="white"/>
<path opacity="0.1" d="M366.263 276.838H356.195V280.565H366.263V276.838Z" fill="white"/>
<path opacity="0.04" d="M380.308 276.838H370.24V280.565H380.308V276.838Z" fill="white"/>
<path opacity="0.07" d="M394.477 276.838H384.41V280.565H394.477V276.838Z" fill="white"/>
<path opacity="0.06" d="M366.263 283.67H356.195V287.397H366.263V283.67Z" fill="white"/>
<path opacity="0.44" d="M380.308 283.67H370.24V287.397H380.308V283.67Z" fill="white"/>
<path opacity="0.24" d="M394.477 283.67H384.41V287.397H394.477V283.67Z" fill="white"/>
<path opacity="0.55" d="M366.263 290.502H356.195V294.229H366.263V290.502Z" fill="white"/>
<path opacity="0.02" d="M380.308 290.502H370.24V294.229H380.308V290.502Z" fill="white"/>
<path opacity="0.14" d="M394.477 290.502H384.41V294.229H394.477V290.502Z" fill="white"/>
<path opacity="0.43" d="M366.263 297.459H356.195V301.185H366.263V297.459Z" fill="white"/>
<path opacity="0.41" d="M380.308 297.459H370.24V301.185H380.308V297.459Z" fill="white"/>
<path opacity="0.46" d="M394.477 297.459H384.41V301.185H394.477V297.459Z" fill="white"/>
<path opacity="0.45" d="M366.263 304.291H356.195V308.018H366.263V304.291Z" fill="white"/>
<path opacity="0.33" d="M380.308 304.291H370.24V308.018H380.308V304.291Z" fill="white"/>
<path opacity="0.05" d="M394.477 304.291H384.41V308.018H394.477V304.291Z" fill="white"/>
<path d="M130.11 221.807H95.3082V329.011H130.11V221.807Z" fill="#333333"/>
<path d="M169.759 221.807H130.234V329.011H169.759V221.807Z" fill="#4D4D4D"/>
<path d="M130.11 230.876H95.3082V232.739H130.11V230.876Z" fill="#4D4D4D"/>
<path d="M169.759 230.876H130.234V232.739H169.759V230.876Z" fill="#333333"/>
<path opacity="0.47" d="M101.896 234.851H98.167V238.577H101.896V234.851Z" fill="white"/>
<path opacity="0.26" d="M106.992 234.851H103.263V238.577H106.992V234.851Z" fill="white"/>
<path opacity="0.32" d="M112.088 234.851H108.359V238.577H112.088V234.851Z" fill="white"/>
<path opacity="0.25" d="M117.184 234.851H113.455V238.577H117.184V234.851Z" fill="white"/>
<path opacity="0.12" d="M127.375 234.851H123.647V238.577H127.375V234.851Z" fill="white"/>
<path opacity="0.32" d="M101.896 239.944H98.167V243.671H101.896V239.944Z" fill="white"/>
<path opacity="0.22" d="M112.088 239.944H108.359V243.671H112.088V239.944Z" fill="white"/>
<path opacity="0.47" d="M117.184 239.944H113.455V243.671H117.184V239.944Z" fill="white"/>
<path opacity="0.22" d="M122.28 239.944H118.551V243.671H122.28V239.944Z" fill="white"/>
<path opacity="0.32" d="M127.375 239.944H123.647V243.671H127.375V239.944Z" fill="white"/>
<path opacity="0.37" d="M101.896 245.037H98.167V248.764H101.896V245.037Z" fill="white"/>
<path opacity="0.34" d="M106.992 245.037H103.263V248.764H106.992V245.037Z" fill="white"/>
<path opacity="0.18" d="M112.088 245.037H108.359V248.764H112.088V245.037Z" fill="white"/>
<path opacity="0.28" d="M117.184 245.037H113.455V248.764H117.184V245.037Z" fill="white"/>
<path opacity="0.2" d="M127.375 245.037H123.647V248.764H127.375V245.037Z" fill="white"/>
<path opacity="0.18" d="M101.896 250.13H98.167V253.857H101.896V250.13Z" fill="white"/>
<path opacity="0.33" d="M112.088 250.13H108.359V253.857H112.088V250.13Z" fill="white"/>
<path opacity="0.05" d="M117.184 250.13H113.455V253.857H117.184V250.13Z" fill="white"/>
<path opacity="0.08" d="M122.28 250.13H118.551V253.857H122.28V250.13Z" fill="white"/>
<path opacity="0.08" d="M117.184 255.223H113.455V258.95H117.184V255.223Z" fill="white"/>
<path opacity="0.02" d="M122.28 255.223H118.551V258.95H122.28V255.223Z" fill="white"/>
<path opacity="0.03" d="M101.896 260.316H98.167V264.043H101.896V260.316Z" fill="white"/>
<path opacity="0.46" d="M106.992 260.316H103.263V264.043H106.992V260.316Z" fill="white"/>
<path opacity="0.05" d="M112.088 260.316H108.359V264.043H112.088V260.316Z" fill="white"/>
<path opacity="0.2" d="M117.184 260.316H113.455V264.043H117.184V260.316Z" fill="white"/>
<path opacity="0.23" d="M122.28 260.316H118.551V264.043H122.28V260.316Z" fill="white"/>
<path opacity="0.17" d="M101.896 265.409H98.167V269.136H101.896V265.409Z" fill="white"/>
<path opacity="0.08" d="M106.992 265.409H103.263V269.136H106.992V265.409Z" fill="white"/>
<path opacity="0.14" d="M112.088 265.409H108.359V269.136H112.088V265.409Z" fill="white"/>
<path opacity="0.24" d="M122.28 265.409H118.551V269.136H122.28V265.409Z" fill="white"/>
<path opacity="0.28" d="M101.896 270.502H98.167V274.229H101.896V270.502Z" fill="white"/>
<path opacity="0.3" d="M106.992 270.502H103.263V274.229H106.992V270.502Z" fill="white"/>
<path opacity="0.23" d="M112.088 270.502H108.359V274.229H112.088V270.502Z" fill="white"/>
<path opacity="0.02" d="M117.184 270.502H113.455V274.229H117.184V270.502Z" fill="white"/>
<path opacity="0.04" d="M122.28 270.502H118.551V274.229H122.28V270.502Z" fill="white"/>
<path opacity="0.3" d="M127.375 270.502H123.647V274.229H127.375V270.502Z" fill="white"/>
<path opacity="0.08" d="M106.992 275.471H103.263V279.198H106.992V275.471Z" fill="white"/>
<path opacity="0.4" d="M127.375 275.471H123.647V279.198H127.375V275.471Z" fill="white"/>
<path opacity="0.31" d="M101.896 280.564H98.167V284.291H101.896V280.564Z" fill="white"/>
<path opacity="0.31" d="M106.992 280.564H103.263V284.291H106.992V280.564Z" fill="white"/>
<path opacity="0.12" d="M112.088 280.564H108.359V284.291H112.088V280.564Z" fill="white"/>
<path opacity="0.19" d="M122.28 280.564H118.551V284.291H122.28V280.564Z" fill="white"/>
<path opacity="0.43" d="M127.375 280.564H123.647V284.291H127.375V280.564Z" fill="white"/>
<path opacity="0.12" d="M101.896 285.658H98.167V289.385H101.896V285.658Z" fill="white"/>
<path opacity="0.42" d="M117.184 285.658H113.455V289.385H117.184V285.658Z" fill="white"/>
<path opacity="0.31" d="M127.375 285.658H123.647V289.385H127.375V285.658Z" fill="white"/>
<path opacity="0.23" d="M101.896 290.751H98.167V294.477H101.896V290.751Z" fill="white"/>
<path opacity="0.31" d="M117.184 290.751H113.455V294.477H117.184V290.751Z" fill="white"/>
<path opacity="0.33" d="M127.375 290.751H123.647V294.477H127.375V290.751Z" fill="white"/>
<path opacity="0.49" d="M101.896 295.844H98.167V299.571H101.896V295.844Z" fill="white"/>
<path opacity="0.06" d="M106.992 295.844H103.263V299.571H106.992V295.844Z" fill="white"/>
<path opacity="0.17" d="M117.184 295.844H113.455V299.571H117.184V295.844Z" fill="white"/>
<path opacity="0.01" d="M122.28 295.844H118.551V299.571H122.28V295.844Z" fill="white"/>
<path opacity="0.48" d="M127.375 295.844H123.647V299.571H127.375V295.844Z" fill="white"/>
<path opacity="0.05" d="M101.896 300.937H98.167V304.664H101.896V300.937Z" fill="white"/>
<path opacity="0.23" d="M106.992 300.937H103.263V304.664H106.992V300.937Z" fill="white"/>
<path opacity="0.28" d="M112.088 300.937H108.359V304.664H112.088V300.937Z" fill="white"/>
<path opacity="0.02" d="M117.184 300.937H113.455V304.664H117.184V300.937Z" fill="white"/>
<path opacity="0.17" d="M122.28 300.937H118.551V304.664H122.28V300.937Z" fill="white"/>
<path opacity="0.42" d="M127.375 300.937H123.647V304.664H127.375V300.937Z" fill="white"/>
<path opacity="0.13" d="M101.896 306.03H98.167V309.757H101.896V306.03Z" fill="white"/>
<path opacity="0.11" d="M112.088 306.03H108.359V309.757H112.088V306.03Z" fill="white"/>
<path opacity="0.02" d="M117.184 306.03H113.455V309.757H117.184V306.03Z" fill="white"/>
<path opacity="0.3" d="M127.375 306.03H123.647V309.757H127.375V306.03Z" fill="white"/>
<path opacity="0.08" d="M122.28 234.851H118.551V238.577H122.28V234.851Z" fill="white"/>
<path opacity="0.1" d="M106.992 239.944H103.263V243.671H106.992V239.944Z" fill="white"/>
<path opacity="0.08" d="M122.28 245.037H118.551V248.764H122.28V245.037Z" fill="white"/>
<path opacity="0.1" d="M106.992 250.13H103.263V253.857H106.992V250.13Z" fill="white"/>
<path opacity="0.01" d="M127.375 250.13H123.647V253.857H127.375V250.13Z" fill="white"/>
<path opacity="0.17" d="M101.896 255.223H98.167V258.95H101.896V255.223Z" fill="white"/>
<path opacity="0.01" d="M106.992 255.223H103.263V258.95H106.992V255.223Z" fill="white"/>
<path opacity="0.15" d="M112.088 255.223H108.359V258.95H112.088V255.223Z" fill="white"/>
<path opacity="0.12" d="M127.375 255.223H123.647V258.95H127.375V255.223Z" fill="white"/>
<path opacity="0.13" d="M117.184 265.409H113.455V269.136H117.184V265.409Z" fill="white"/>
<path opacity="0.07" d="M127.375 265.409H123.647V269.136H127.375V265.409Z" fill="white"/>
<path opacity="0.13" d="M101.896 275.471H98.167V279.198H101.896V275.471Z" fill="white"/>
<path opacity="0.02" d="M112.088 275.471H108.359V279.198H112.088V275.471Z" fill="white"/>
<path opacity="0.02" d="M117.184 275.471H113.455V279.198H117.184V275.471Z" fill="white"/>
<path opacity="0.14" d="M122.28 275.471H118.551V279.198H122.28V275.471Z" fill="white"/>
<path opacity="0.09" d="M112.088 285.658H108.359V289.385H112.088V285.658Z" fill="white"/>
<path opacity="0.02" d="M122.28 285.658H118.551V289.385H122.28V285.658Z" fill="white"/>
<path opacity="0.19" d="M112.088 290.751H108.359V294.477H112.088V290.751Z" fill="white"/>
<path opacity="0.06" d="M122.28 290.751H118.551V294.477H122.28V290.751Z" fill="white"/>
<path opacity="0.16" d="M112.088 295.844H108.359V299.571H112.088V295.844Z" fill="white"/>
<path opacity="0.19" d="M106.992 306.03H103.263V309.757H106.992V306.03Z" fill="white"/>
<path opacity="0.04" d="M122.28 306.03H118.551V309.757H122.28V306.03Z" fill="white"/>
<g opacity="0.7">
<path opacity="0.7" d="M137.692 232.739H133.839V324.291H137.692V232.739Z" fill="#E6E6E6"/>
<path opacity="0.7" d="M144.279 232.739H140.426V324.291H144.279V232.739Z" fill="#E6E6E6"/>
<path opacity="0.7" d="M150.991 232.739H147.138V324.291H150.991V232.739Z" fill="#E6E6E6"/>
<path opacity="0.7" d="M157.702 232.739H153.849V324.291H157.702V232.739Z" fill="#E6E6E6"/>
<path opacity="0.7" d="M164.414 232.739H160.561V324.291H164.414V232.739Z" fill="#E6E6E6"/>
</g>
<path d="M52.5521 169.261L44.846 148.889L65.4784 169.261H52.5521Z" fill="#4D4D4D"/>
<path d="M34.5298 169.261L44.846 148.889L52.5521 169.261H34.5298Z" fill="#333333"/>
<path d="M52.5521 169.261H34.5298V191H52.5521V169.261Z" fill="#333333"/>
<path d="M65.4783 169.261H52.5521V191H65.4783V169.261Z" fill="#4D4D4D"/>
<path d="M70.8229 267.024H16.259V329.508H70.8229V267.024Z" fill="#333333"/>
<path d="M63.3654 222.304H23.8408V267.024H63.3654V222.304Z" fill="#333333"/>
<path d="M57.648 177.584H29.5582V222.304H57.648V177.584Z" fill="#333333"/>
<path d="M76.9131 177.584H57.5237V222.304H76.9131V177.584Z" fill="#4D4D4D"/>
<path d="M104.381 267.024H70.8229V329.508H104.381V267.024Z" fill="#4D4D4D"/>
<path d="M88.8451 222.304H63.3654V267.024H88.8451V222.304Z" fill="#4D4D4D"/>
<path opacity="0.53" d="M70.2014 180.814H64.3597V186.652H70.2014V180.814Z" fill="white"/>
<path opacity="0.34" d="M70.2014 188.143H64.3597V193.981H70.2014V188.143Z" fill="white"/>
<path opacity="0.9" d="M70.2014 195.348H64.3597V201.186H70.2014V195.348Z" fill="white"/>
<path opacity="0.14" d="M70.2014 202.553H64.3597V208.391H70.2014V202.553Z" fill="white"/>
<path d="M70.2014 209.882H64.3597V215.72H70.2014V209.882Z" fill="white"/>
<path opacity="0.29" d="M74.5517 226.155H68.71V231.993H74.5517V226.155Z" fill="white"/>
<path opacity="0.81" d="M83.5006 226.155H77.6589V231.993H83.5006V226.155Z" fill="white"/>
<path opacity="0.18" d="M74.5517 233.484H68.71V239.323H74.5517V233.484Z" fill="white"/>
<path opacity="0.41" d="M83.5006 233.484H77.6589V239.323H83.5006V233.484Z" fill="white"/>
<path opacity="0.03" d="M83.5006 240.938H77.6589V246.776H83.5006V240.938Z" fill="white"/>
<path opacity="0.85" d="M74.5517 248.391H68.71V254.229H74.5517V248.391Z" fill="white"/>
<path opacity="0.06" d="M83.5006 248.391H77.6589V254.229H83.5006V248.391Z" fill="white"/>
<path opacity="0.94" d="M74.5517 255.72H68.71V261.558H74.5517V255.72Z" fill="white"/>
<path opacity="0.25" d="M83.5006 255.72H77.6589V261.558H83.5006V255.72Z" fill="white"/>
<path opacity="0.6" d="M82.7548 270.875H76.9131V276.713H82.7548V270.875Z" fill="white"/>
<path opacity="0.83" d="M90.5852 270.875H84.7435V276.713H90.5852V270.875Z" fill="white"/>
<path opacity="0.74" d="M98.4155 270.875H92.5739V276.713H98.4155V270.875Z" fill="white"/>
<path opacity="0.35" d="M90.5852 277.956H84.7435V283.794H90.5852V277.956Z" fill="white"/>
<path opacity="0.54" d="M98.4155 277.956H92.5739V283.794H98.4155V277.956Z" fill="white"/>
<path opacity="0.2" d="M82.7548 285.036H76.9131V290.875H82.7548V285.036Z" fill="white"/>
<path opacity="0.04" d="M90.5852 285.036H84.7435V290.875H90.5852V285.036Z" fill="white"/>
<path opacity="0.86" d="M98.4155 285.036H92.5739V290.875H98.4155V285.036Z" fill="white"/>
<path opacity="0.06" d="M82.7548 292.117H76.9131V297.956H82.7548V292.117Z" fill="white"/>
<path opacity="0.01" d="M90.5852 292.117H84.7435V297.956H90.5852V292.117Z" fill="white"/>
<path opacity="0.39" d="M98.4155 292.117H92.5739V297.956H98.4155V292.117Z" fill="white"/>
<path opacity="0.1" d="M82.7548 299.322H76.9131V305.16H82.7548V299.322Z" fill="white"/>
<path d="M90.5852 299.322H84.7435V305.16H90.5852V299.322Z" fill="white"/>
<path opacity="0.62" d="M98.4155 299.322H92.5739V305.16H98.4155V299.322Z" fill="white"/>
<path opacity="0.48" d="M82.7548 306.651H76.9131V312.49H82.7548V306.651Z" fill="white"/>
<path opacity="0.27" d="M90.5852 306.651H84.7435V312.49H90.5852V306.651Z" fill="white"/>
<path opacity="0.42" d="M98.4155 306.651H92.5739V312.49H98.4155V306.651Z" fill="white"/>
<path opacity="0.27" d="M27.9424 270.875H22.1007V276.713H27.9424V270.875Z" fill="white"/>
<path opacity="0.11" d="M34.5298 226.155H28.6881V231.993H34.5298V226.155Z" fill="white"/>
<path opacity="0.41" d="M39.1286 180.814H33.2869V186.652H39.1286V180.814Z" fill="white"/>
<path opacity="0.38" d="M46.4618 180.814H40.6201V186.652H46.4618V180.814Z" fill="white"/>
<path opacity="0.02" d="M53.9193 180.814H48.0776V186.652H53.9193V180.814Z" fill="white"/>
<path opacity="0.46" d="M39.1286 188.143H33.2869V193.981H39.1286V188.143Z" fill="white"/>
<path opacity="0.31" d="M46.4618 188.143H40.6201V193.981H46.4618V188.143Z" fill="white"/>
<path opacity="0.61" d="M53.9193 188.143H48.0776V193.981H53.9193V188.143Z" fill="white"/>
<path opacity="0.03" d="M39.1286 195.348H33.2869V201.186H39.1286V195.348Z" fill="white"/>
<path opacity="0.03" d="M46.4618 195.348H40.6201V201.186H46.4618V195.348Z" fill="white"/>
<path opacity="0.46" d="M53.9193 195.348H48.0776V201.186H53.9193V195.348Z" fill="white"/>
<path opacity="0.32" d="M39.1286 202.553H33.2869V208.391H39.1286V202.553Z" fill="white"/>
<path opacity="0.14" d="M46.4618 202.553H40.6201V208.391H46.4618V202.553Z" fill="white"/>
<path opacity="0.3" d="M53.9193 202.553H48.0776V208.391H53.9193V202.553Z" fill="white"/>
<path opacity="0.04" d="M39.1286 209.882H33.2869V215.72H39.1286V209.882Z" fill="white"/>
<path opacity="0.64" d="M46.4618 209.882H40.6201V215.72H46.4618V209.882Z" fill="white"/>
<path opacity="0.05" d="M53.9193 209.882H48.0776V215.72H53.9193V209.882Z" fill="white"/>
<path opacity="0.15" d="M41.9873 226.155H36.1456V231.993H41.9873V226.155Z" fill="white"/>
<path opacity="0.15" d="M49.4448 226.155H43.6031V231.993H49.4448V226.155Z" fill="white"/>
<path opacity="0.52" d="M56.778 226.155H50.9363V231.993H56.778V226.155Z" fill="white"/>
<path opacity="0.58" d="M34.5298 233.484H28.6881V239.323H34.5298V233.484Z" fill="white"/>
<path opacity="0.62" d="M41.9873 233.484H36.1456V239.323H41.9873V233.484Z" fill="white"/>
<path opacity="0.04" d="M49.4448 233.484H43.6031V239.323H49.4448V233.484Z" fill="white"/>
<path opacity="0.06" d="M56.778 233.484H50.9363V239.323H56.778V233.484Z" fill="white"/>
<path opacity="0.3" d="M34.5298 240.938H28.6881V246.776H34.5298V240.938Z" fill="white"/>
<path opacity="0.01" d="M41.9873 240.938H36.1456V246.776H41.9873V240.938Z" fill="white"/>
<path opacity="0.37" d="M49.4448 240.938H43.6031V246.776H49.4448V240.938Z" fill="white"/>
<path opacity="0.62" d="M56.778 240.938H50.9363V246.776H56.778V240.938Z" fill="white"/>
<path opacity="0.54" d="M34.5298 248.391H28.6881V254.229H34.5298V248.391Z" fill="white"/>
<path opacity="0.21" d="M41.9873 248.391H36.1456V254.229H41.9873V248.391Z" fill="white"/>
<path opacity="0.41" d="M49.4448 248.391H43.6031V254.229H49.4448V248.391Z" fill="white"/>
<path opacity="0.1" d="M56.778 248.391H50.9363V254.229H56.778V248.391Z" fill="white"/>
<path opacity="0.17" d="M34.5298 255.72H28.6881V261.558H34.5298V255.72Z" fill="white"/>
<path opacity="0.17" d="M41.9873 255.72H36.1456V261.558H41.9873V255.72Z" fill="white"/>
<path opacity="0.13" d="M49.4448 255.72H43.6031V261.558H49.4448V255.72Z" fill="white"/>
<path opacity="0.5" d="M56.778 255.72H50.9363V261.558H56.778V255.72Z" fill="white"/>
<path opacity="0.06" d="M35.3999 270.875H29.5582V276.713H35.3999V270.875Z" fill="white"/>
<path opacity="0.27" d="M42.733 270.875H36.8914V276.713H42.733V270.875Z" fill="white"/>
<path opacity="0.51" d="M50.1906 270.875H44.3489V276.713H50.1906V270.875Z" fill="white"/>
<path opacity="0.42" d="M57.648 270.875H51.8063V276.713H57.648V270.875Z" fill="white"/>
<path opacity="0.64" d="M64.9812 270.875H59.1395V276.713H64.9812V270.875Z" fill="white"/>
<path opacity="0.29" d="M27.9424 277.956H22.1007V283.794H27.9424V277.956Z" fill="white"/>
<path opacity="0.6" d="M35.3999 277.956H29.5582V283.794H35.3999V277.956Z" fill="white"/>
<path opacity="0.2" d="M42.733 277.956H36.8914V283.794H42.733V277.956Z" fill="white"/>
<path opacity="0.24" d="M50.1906 277.956H44.3489V283.794H50.1906V277.956Z" fill="white"/>
<path opacity="0.62" d="M57.648 277.956H51.8063V283.794H57.648V277.956Z" fill="white"/>
<path opacity="0.62" d="M64.9812 277.956H59.1395V283.794H64.9812V277.956Z" fill="white"/>
<path opacity="0.25" d="M27.9424 285.036H22.1007V290.875H27.9424V285.036Z" fill="white"/>
<path opacity="0.36" d="M35.3999 285.036H29.5582V290.875H35.3999V285.036Z" fill="white"/>
<path opacity="0.16" d="M42.733 285.036H36.8914V290.875H42.733V285.036Z" fill="white"/>
<path opacity="0.1" d="M50.1906 285.036H44.3489V290.875H50.1906V285.036Z" fill="white"/>
<path opacity="0.04" d="M57.648 285.036H51.8063V290.875H57.648V285.036Z" fill="white"/>
<path opacity="0.44" d="M64.9812 285.036H59.1395V290.875H64.9812V285.036Z" fill="white"/>
<path opacity="0.68" d="M27.9424 292.117H22.1007V297.956H27.9424V292.117Z" fill="white"/>
<path opacity="0.01" d="M35.3999 292.117H29.5582V297.956H35.3999V292.117Z" fill="white"/>
<path opacity="0.29" d="M42.733 292.117H36.8914V297.956H42.733V292.117Z" fill="white"/>
<path opacity="0.66" d="M50.1906 292.117H44.3489V297.956H50.1906V292.117Z" fill="white"/>
<path opacity="0.12" d="M57.648 292.117H51.8063V297.956H57.648V292.117Z" fill="white"/>
<path opacity="0.34" d="M64.9812 292.117H59.1395V297.956H64.9812V292.117Z" fill="white"/>
<path opacity="0.36" d="M27.9424 299.322H22.1007V305.16H27.9424V299.322Z" fill="white"/>
<path opacity="0.5" d="M35.3999 299.322H29.5582V305.16H35.3999V299.322Z" fill="white"/>
<path opacity="0.07" d="M42.733 299.322H36.8914V305.16H42.733V299.322Z" fill="white"/>
<path opacity="0.64" d="M50.1906 299.322H44.3489V305.16H50.1906V299.322Z" fill="white"/>
<path opacity="0.4" d="M57.648 299.322H51.8063V305.16H57.648V299.322Z" fill="white"/>
<path opacity="0.27" d="M64.9812 299.322H59.1395V305.16H64.9812V299.322Z" fill="white"/>
<path opacity="0.09" d="M27.9424 306.651H22.1007V312.49H27.9424V306.651Z" fill="white"/>
<path opacity="0.47" d="M35.3999 306.651H29.5582V312.49H35.3999V306.651Z" fill="white"/>
<path opacity="0.57" d="M42.733 306.651H36.8914V312.49H42.733V306.651Z" fill="white"/>
<path opacity="0.12" d="M50.1906 306.651H44.3489V312.49H50.1906V306.651Z" fill="white"/>
<path opacity="0.23" d="M57.648 306.651H51.8063V312.49H57.648V306.651Z" fill="white"/>
<path opacity="0.36" d="M64.9812 306.651H59.1395V312.49H64.9812V306.651Z" fill="white"/>
<path d="M189.645 324.291H112.336L189.645 256.962V324.291Z" fill="#333333"/>
<path d="M23.8408 325.657H-83.2982L23.8408 232.49V325.657Z" fill="#333333"/>
<path d="M181.069 308.887H158.448V315.844H181.069V308.887Z" fill="#4D4D4D"/>
<path d="M178.459 310.999H160.934L167.024 300.813H172.369L178.459 310.999Z" fill="#4D4D4D"/>
<path d="M84.3707 318.701C84.3707 323.545 80.5176 327.52 75.7946 327.52C71.0715 327.52 67.2184 323.545 67.2184 318.701C67.2184 313.856 71.0715 309.881 75.7946 309.881C80.5176 309.757 84.3707 313.732 84.3707 318.701Z" fill="#333333"/>
<path d="M315.179 314.85C315.179 318.08 312.569 320.813 309.462 320.813C306.355 320.813 303.745 318.204 303.745 314.85C303.745 311.62 306.355 308.887 309.462 308.887C312.569 308.887 315.179 311.62 315.179 314.85Z" fill="#333333"/>
<path d="M114.946 315.222C114.946 318.576 112.336 321.309 108.98 321.309C105.749 321.309 103.014 318.576 103.014 315.222C103.014 311.868 105.624 309.135 108.98 309.135C112.336 309.135 114.946 311.868 114.946 315.222Z" fill="#333333"/>
</svg>
